solid "Glock Gen5 Negative<stl unit=MM>"
   facet normal 1 0 0
      outer loop
         vertex 34.1044329106808 4.43311268463731 5.73671702295542
         vertex 34.1044329106808 5.18478080630302 5.05991233512759
         vertex 34.1044329106808 7.68956355750561 7.44999991729856
      endloop
   endfacet
   facet normal 1 0 0
      outer loop
         vertex 34.1044329106808 7.68956355750561 7.44999991729856
         vertex 34.1044329106808 5.18478080630302 5.05991233512759
         vertex 34.1044329106808 5.8349403552711 4.28508222103119
      endloop
   endfacet
   facet normal 1 0 0
      outer loop
         vertex 34.1044329106808 7.68956355750561 7.44999991729856
         vertex 34.1044329106808 3.59456706792116 6.30232319235802
         vertex 34.1044329106808 4.43311268463731 5.73671702295542
      endloop
   endfacet
   facet normal 1 0 0
      outer loop
         vertex 34.1044329106808 -7.75042967870831 7.44999991729856
         vertex 34.1044329106808 -4.88162972033024 5.41143910959363
         vertex 34.1044329106808 -4.08458150923252 6.03416142985225
      endloop
   endfacet
   facet normal 1 0 0
      outer loop
         vertex 34.1044329106808 -5.58425532653928 4.68384893611073
         vertex 34.1044329106808 -4.88162972033024 5.41143910959363
         vertex 34.1044329106808 -7.75042967870831 7.44999991729856
      endloop
   endfacet
   facet normal 2.68686325261412E-09 0.848048234201463 0.529919043314901
      outer loop
         vertex 125.944897532463 6.37093698605895 3.42730735428631
         vertex 34.1044329106808 6.37093698605895 3.4273078199476
         vertex 34.1044329106808 5.8349403552711 4.28508222103119
      endloop
   endfacet
   facet normal 3.25914390396933E-09 0.766044511657699 0.642787528005264
      outer loop
         vertex 125.944897532463 5.8349403552711 4.2850817553699
         vertex 34.1044329106808 5.8349403552711 4.28508222103119
         vertex 34.1044329106808 5.18478080630302 5.05991233512759
      endloop
   endfacet
   facet normal 3.76798898199543E-09 0.669130435664511 0.74314497917124
      outer loop
         vertex 125.944897532463 5.18478080630302 5.0599118694663
         vertex 34.1044329106808 5.18478080630302 5.05991233512759
         vertex 34.1044329106808 4.43311268463731 5.73671702295542
      endloop
   endfacet
   facet normal 2.21415192288771E-09 0.91354540908043 0.406736752148204
      outer loop
         vertex 125.944897532463 6.78233848884702 2.50328471884131
         vertex 34.1044329106808 6.37093698605895 3.4273078199476
         vertex 125.944897532463 6.37093698605895 3.42730735428631
      endloop
   endfacet
   facet normal 1 0 0
      outer loop
         vertex 125.944897532463 7.06113735213876 1.53099838644266
         vertex 125.944897532463 7.06113735213876 -1.48372119292617
         vertex 125.944897532463 7.2019062936306 0.529373006429523
      endloop
   endfacet
   facet normal 1 0 0
      outer loop
         vertex 125.944897532463 7.06113735213876 -1.48372119292617
         vertex 125.944897532463 7.2019062936306 -0.482095842016861
         vertex 125.944897532463 7.2019062936306 0.529373006429523
      endloop
   endfacet
   facet normal 1 0 0
      outer loop
         vertex 34.1044329106808 7.68956355750561 7.44999991729856
         vertex 34.1044329106808 5.8349403552711 4.28508222103119
         vertex 34.1044329106808 6.37093698605895 3.4273078199476
      endloop
   endfacet
   facet normal 1.03114419676503E-09 0.913545453375319 0.406736652660273
      outer loop
         vertex 125.944897532463 6.78233848884702 2.50328471884131
         vertex 34.1044329106808 6.78233848884702 2.50328495167196
         vertex 34.1044329106808 6.37093698605895 3.4273078199476
      endloop
   endfacet
   facet normal 6.92079724709202E-10 0.961261627070135 0.275637595988787
      outer loop
         vertex 125.944897532463 7.06113735213876 1.53099838644266
         vertex 34.1044329106808 6.78233848884702 2.50328495167196
         vertex 125.944897532463 6.78233848884702 2.50328471884131
      endloop
   endfacet
   facet normal 4.20349263143901E-09 0.559192951021864 0.829037540481406
      outer loop
         vertex 125.944897532463 4.43311268463731 5.73671655729413
         vertex 34.1044329106808 4.43311268463731 5.73671702295542
         vertex 34.1044329106808 3.59456706792116 6.30232319235802
      endloop
   endfacet
   facet normal 4.55718148579145E-09 0.43837093123602 0.898794151431386
      outer loop
         vertex 125.944897532463 3.59456706792116 6.30232272669673
         vertex 34.1044329106808 3.59456706792116 6.30232319235802
         vertex 34.1044329106808 2.68546491861343 6.74572167918086
      endloop
   endfacet
   facet normal 1 0 0
      outer loop
         vertex 34.1044329106808 7.68956355750561 7.44999991729856
         vertex 34.1044329106808 2.68546491861343 6.74572167918086
         vertex 34.1044329106808 3.59456706792116 6.30232319235802
      endloop
   endfacet
   facet normal 0 0.309017066258755 0.951056492938686
      outer loop
         vertex 125.944897532463 2.68546491861343 6.74572167918086
         vertex 34.1044329106808 2.68546491861343 6.74572167918086
         vertex 34.1044329106808 1.72350078355521 7.05828284844756
      endloop
   endfacet
   facet normal 1 0 0
      outer loop
         vertex 34.1044329106808 -7.75042967870831 7.44999991729856
         vertex 34.1044329106808 -4.08458150923252 6.03416142985225
         vertex 34.1044329106808 -3.2086237333715 6.53989566490054
      endloop
   endfacet
   facet normal 4.70112667388333E-09 -0.374606674906926 0.927183821642276
      outer loop
         vertex 125.944897532463 -2.27080611512065 6.91879820078611
         vertex 34.1044329106808 -2.27080611512065 6.9187986664474
         vertex 34.1044329106808 -3.2086237333715 6.53989566490054
      endloop
   endfacet
   facet normal 1 0 0
      outer loop
         vertex 34.1044329106808 -7.75042967870831 7.44999991729856
         vertex 34.1044329106808 -6.17878139019012 3.86555353179574
         vertex 34.1044329106808 -5.58425532653928 4.68384893611073
      endloop
   endfacet
   facet normal 0 -0.499999821000989 0.866025507129541
      outer loop
         vertex 125.944897532463 -3.2086237333715 6.53989566490054
         vertex 34.1044329106808 -3.2086237333715 6.53989566490054
         vertex 34.1044329106808 -4.08458150923252 6.03416142985225
      endloop
   endfacet
   facet normal 3.99547314958548E-09 -0.615661480932755 0.788010749225978
      outer loop
         vertex 125.944897532463 -4.08458150923252 6.03416096419096
         vertex 34.1044329106808 -4.08458150923252 6.03416142985225
         vertex 34.1044329106808 -4.88162972033024 5.41143910959363
      endloop
   endfacet
   facet normal -3.28664459152089E-09 -0.882947406646888 0.469471912999633
      outer loop
         vertex 125.944897532463 -6.17878185585141 3.8655532989651
         vertex 34.1044329106808 -6.17878139019012 3.86555353179574
         vertex 34.1044329106808 -6.65363762527704 2.97247967682779
      endloop
   endfacet
   facet normal 0 -0.809017155720143 0.587785030219799
      outer loop
         vertex 125.944897532463 -5.58425532653928 4.68384893611073
         vertex 34.1044329106808 -5.58425532653928 4.68384893611073
         vertex 34.1044329106808 -6.17878139019012 3.86555353179574
      endloop
   endfacet
   facet normal 3.52214579449419E-09 -0.719339810073484 0.694658360378282
      outer loop
         vertex 125.944897532463 -4.88162972033024 5.41143864393234
         vertex 34.1044329106808 -4.88162972033024 5.41143910959363
         vertex 34.1044329106808 -5.58425532653928 4.68384893611073
      endloop
   endfacet
   facet normal 2.78125225859865E-09 -0.882947657636665 0.469471440956664
      outer loop
         vertex 125.944897532463 -6.17878185585141 3.8655532989651
         vertex 34.1044329106808 -6.65363762527704 2.97247967682779
         vertex 125.944897532463 -6.65363762527704 2.9724792111665
      endloop
   endfacet
   facet normal 2.55386785636462E-09 0.848048234201463 0.529919043314901
      outer loop
         vertex 125.944897532463 6.37093698605895 3.42730735428631
         vertex 34.1044329106808 5.8349403552711 4.28508222103119
         vertex 125.944897532463 5.8349403552711 4.2850817553699
      endloop
   endfacet
   facet normal 2.96249164016918E-09 0.766044511657699 0.642787528005264
      outer loop
         vertex 125.944897532463 5.8349403552711 4.2850817553699
         vertex 34.1044329106808 5.18478080630302 5.05991233512759
         vertex 125.944897532463 5.18478080630302 5.0599118694663
      endloop
   endfacet
   facet normal 3.93398126299921E-09 0.669130465303572 0.74314495248412
      outer loop
         vertex 125.944897532463 5.18478080630302 5.0599118694663
         vertex 34.1044329106808 4.43311268463731 5.73671702295542
         vertex 125.944897532463 4.43311268463731 5.73671655729413
      endloop
   endfacet
   facet normal 1 0 0
      outer loop
         vertex 125.944897532463 6.78233848884702 2.50328471884131
         vertex 125.944897532463 6.78233848884702 -2.45600752532482
         vertex 125.944897532463 7.06113735213876 1.53099838644266
      endloop
   endfacet
   facet normal 1 0 0
      outer loop
         vertex 125.944897532463 6.37093698605895 3.42730735428631
         vertex 125.944897532463 6.37093698605895 -3.38003016076982
         vertex 125.944897532463 6.78233848884702 2.50328471884131
      endloop
   endfacet
   facet normal 1 0 0
      outer loop
         vertex 125.944897532463 6.78233848884702 -2.45600752532482
         vertex 125.944897532463 7.06113735213876 -1.48372119292617
         vertex 125.944897532463 7.06113735213876 1.53099838644266
      endloop
   endfacet
   facet normal -5.17262455538044E-10 0.990268112085026 -0.139172792555007
      outer loop
         vertex 125.944897532463 7.06113735213876 -1.48372119292617
         vertex 34.1044329106808 7.2019062936306 -0.482095521874726
         vertex 125.944897532463 7.2019062936306 -0.482095842016861
      endloop
   endfacet
   facet normal 6.4688510160028E-10 0.990268112085026 0.139172792555007
      outer loop
         vertex 125.944897532463 7.2019062936306 0.529373006429523
         vertex 34.1044329106808 7.06113735213876 1.53099873568863
         vertex 125.944897532463 7.06113735213876 1.53099838644266
      endloop
   endfacet
   facet normal 0 1 0
      outer loop
         vertex 125.944897532463 7.2019062936306 -0.482095842016861
         vertex 34.1044329106808 7.2019062936306 0.529373355675489
         vertex 125.944897532463 7.2019062936306 0.529373006429523
      endloop
   endfacet
   facet normal 1 0 0
      outer loop
         vertex 34.1044329106808 6.37093698605895 3.4273078199476
         vertex 34.1044329106808 6.78233848884702 2.50328495167196
         vertex 34.1044329106808 7.68956355750561 7.44999991729856
      endloop
   endfacet
   facet normal 1.04817993302633E-09 0.961261622541607 0.275637611781625
      outer loop
         vertex 125.944897532463 7.06113735213876 1.53099838644266
         vertex 34.1044329106808 7.06113735213876 1.53099873568863
         vertex 34.1044329106808 6.78233848884702 2.50328495167196
      endloop
   endfacet
   facet normal 4.47864245933123E-09 0.559192910055397 0.829037568113639
      outer loop
         vertex 125.944897532463 4.43311268463731 5.73671655729413
         vertex 34.1044329106808 3.59456706792116 6.30232319235802
         vertex 125.944897532463 3.59456706792116 6.30232272669673
      endloop
   endfacet
   facet normal -1.88031017227785E-10 0.43837129118315 0.898793975873458
      outer loop
         vertex 125.944897532463 3.59456706792116 6.30232272669673
         vertex 34.1044329106808 2.68546491861343 6.74572167918086
         vertex 125.944897532463 2.68546491861343 6.74572167918086
      endloop
   endfacet
   facet normal 4.87423448952344E-09 0.309016653833641 0.951056626943664
      outer loop
         vertex 125.944897532463 2.68546491861343 6.74572167918086
         vertex 34.1044329106808 1.72350078355521 7.05828284844756
         vertex 125.944897532463 1.72350078355521 7.05828238278627
      endloop
   endfacet
   facet normal 1 0 0
      outer loop
         vertex 125.944897532463 -0.283454282907769 7.26922228932381
         vertex 125.944897532463 -0.283454282907769 -7.22194509580731
         vertex 125.944897532463 0.727398437447846 7.23392236977816
      endloop
   endfacet
   facet normal 4.83075248348643E-09 -0.241922055435925 0.970295686424328
      outer loop
         vertex 125.944897532463 -1.28938222769648 7.16349482536316
         vertex 34.1044329106808 -2.27080611512065 6.9187986664474
         vertex 125.944897532463 -2.27080611512065 6.91879820078611
      endloop
   endfacet
   facet normal 4.54019940874596E-12 -0.374606254117368 0.927183991652225
      outer loop
         vertex 125.944897532463 -2.27080611512065 6.91879820078611
         vertex 34.1044329106808 -3.2086237333715 6.53989566490054
         vertex 125.944897532463 -3.2086237333715 6.53989566490054
      endloop
   endfacet
   facet normal 1 0 0
      outer loop
         vertex 125.944897532463 -1.28938222769648 7.16349482536316
         vertex 125.944897532463 -1.28938222769648 -7.11621763184667
         vertex 125.944897532463 -0.283454282907769 7.26922228932381
      endloop
   endfacet
   facet normal 1 0 0
      outer loop
         vertex 34.1044329106808 1.72350078355521 7.05828284844756
         vertex 34.1044329106808 2.68546491861343 6.74572167918086
         vertex 34.1044329106808 7.68956355750561 7.44999991729856
      endloop
   endfacet
   facet normal 4.99329811344217E-09 0.173648428214192 0.984807708833933
      outer loop
         vertex 125.944897532463 1.72350078355521 7.05828238278627
         vertex 34.1044329106808 1.72350078355521 7.05828284844756
         vertex 34.1044329106808 0.727398437447846 7.23392283543944
      endloop
   endfacet
   facet normal 5.1031155995492E-09 0.173648428214192 0.984807708833933
      outer loop
         vertex 125.944897532463 1.72350078355521 7.05828238278627
         vertex 34.1044329106808 0.727398437447846 7.23392283543944
         vertex 125.944897532463 0.727398437447846 7.23392236977816
      endloop
   endfacet
   facet normal 5.04443342051921E-09 -0.104528637916357 0.994521877011939
      outer loop
         vertex 125.944897532463 -0.283454282907769 7.26922228932381
         vertex 34.1044329106808 -1.28938222769648 7.16349529102445
         vertex 125.944897532463 -1.28938222769648 7.16349482536316
      endloop
   endfacet
   facet normal 3.52657466094149E-11 0.0348996608642551 0.999390821286427
      outer loop
         vertex 125.944897532463 0.727398437447846 7.23392236977816
         vertex 34.1044329106808 -0.283454253803939 7.26922228932381
         vertex 125.944897532463 -0.283454282907769 7.26922228932381
      endloop
   endfacet
   facet normal 1 0 0
      outer loop
         vertex 34.1044329106808 -3.2086237333715 6.53989566490054
         vertex 34.1044329106808 -2.27080611512065 6.9187986664474
         vertex 34.1044329106808 -7.75042967870831 7.44999991729856
      endloop
   endfacet
   facet normal 4.91971759976897E-09 -0.241922069427277 0.970295682935889
      outer loop
         vertex 125.944897532463 -1.28938222769648 7.16349482536316
         vertex 34.1044329106808 -1.28938222769648 7.16349529102445
         vertex 34.1044329106808 -2.27080611512065 6.9187986664474
      endloop
   endfacet
   facet normal 1 0 0
      outer loop
         vertex 34.1044329106808 -7.75042967870831 7.44999991729856
         vertex 34.1044329106808 -6.65363762527704 2.97247967682779
         vertex 34.1044329106808 -6.17878139019012 3.86555353179574
      endloop
   endfacet
   facet normal 1.73415359046357E-09 -0.939692671713559 0.342020003403066
      outer loop
         vertex 125.944897532463 -6.65363762527704 2.9724792111665
         vertex 34.1044329106808 -6.65363762527704 2.97247967682779
         vertex 34.1044329106808 -6.99958018958569 2.02200980857015
      endloop
   endfacet
   facet normal 1.53637524212642E-09 -0.939692671713559 0.342020003403066
      outer loop
         vertex 125.944897532463 -6.65363762527704 2.9724792111665
         vertex 34.1044329106808 -6.99958018958569 2.02200980857015
         vertex 125.944897532463 -6.99958018958569 2.02200934290886
      endloop
   endfacet
   facet normal 1 0 0
      outer loop
         vertex 125.944897532463 -7.20987655222416 1.03264360222965
         vertex 125.944897532463 -7.20987655222416 -0.985366408713162
         vertex 125.944897532463 -6.99958018958569 2.02200934290886
      endloop
   endfacet
   facet normal 1 0 0
      outer loop
         vertex 125.944897532463 -6.99958018958569 2.02200934290886
         vertex 125.944897532463 -6.99958018958569 -1.97473214939237
         vertex 125.944897532463 -6.65363762527704 2.9724792111665
      endloop
   endfacet
   facet normal 1 0 0
      outer loop
         vertex 125.944897532463 -7.28043308481574 0.0236386003962252
         vertex 125.944897532463 -7.20987655222416 -0.985366408713162
         vertex 125.944897532463 -7.20987655222416 1.03264360222965
      endloop
   endfacet
   facet normal 4.57606218435258E-09 -0.500000237163638 0.866025266857905
      outer loop
         vertex 125.944897532463 -3.2086237333715 6.53989566490054
         vertex 34.1044329106808 -4.08458150923252 6.03416142985225
         vertex 125.944897532463 -4.08458150923252 6.03416096419096
      endloop
   endfacet
   facet normal 4.20681288479034E-09 -0.615661472837664 0.788010755550556
      outer loop
         vertex 125.944897532463 -4.08458150923252 6.03416096419096
         vertex 34.1044329106808 -4.88162972033024 5.41143910959363
         vertex 125.944897532463 -4.88162972033024 5.41143864393234
      endloop
   endfacet
   facet normal -2.46912490019324E-09 -0.809017001159598 0.587785242954202
      outer loop
         vertex 125.944897532463 -5.58425532653928 4.68384893611073
         vertex 34.1044329106808 -6.17878139019012 3.86555353179574
         vertex 125.944897532463 -6.17878185585141 3.8655532989651
      endloop
   endfacet
   facet normal 2.56504243324413E-11 -0.719339604650077 0.69465857310039
      outer loop
         vertex 125.944897532463 -4.88162972033024 5.41143864393234
         vertex 34.1044329106808 -5.58425532653928 4.68384893611073
         vertex 125.944897532463 -5.58425532653928 4.68384893611073
      endloop
   endfacet
   facet normal 1 0 0
      outer loop
         vertex 125.944897532463 -6.65363762527704 2.9724792111665
         vertex 125.944897532463 -6.65363762527704 -2.92520201765001
         vertex 125.944897532463 -6.17878185585141 3.8655532989651
      endloop
   endfacet
   facet normal 1 0 0
      outer loop
         vertex 125.944897532463 5.8349403552711 4.2850817553699
         vertex 125.944897532463 5.8349403552711 -4.23780456185341
         vertex 125.944897532463 6.37093698605895 3.42730735428631
      endloop
   endfacet
   facet normal 1 0 0
      outer loop
         vertex 125.944897532463 5.18478080630302 5.0599118694663
         vertex 125.944897532463 5.18478080630302 -5.01263467594981
         vertex 125.944897532463 5.8349403552711 4.2850817553699
      endloop
   endfacet
   facet normal 1 0 0
      outer loop
         vertex 125.944897532463 4.43311268463731 5.73671655729413
         vertex 125.944897532463 4.43311268463731 -5.68943936377764
         vertex 125.944897532463 5.18478080630302 5.0599118694663
      endloop
   endfacet
   facet normal 1 0 0
      outer loop
         vertex 125.944897532463 6.37093698605895 -3.38003016076982
         vertex 125.944897532463 6.78233848884702 -2.45600752532482
         vertex 125.944897532463 6.78233848884702 2.50328471884131
      endloop
   endfacet
   facet normal 1 0 0
      outer loop
         vertex 125.944897532463 5.8349403552711 -4.23780456185341
         vertex 125.944897532463 6.37093698605895 -3.38003016076982
         vertex 125.944897532463 6.37093698605895 3.42730735428631
      endloop
   endfacet
   facet normal -5.29238819893087E-10 0.990268112085026 -0.139172792555007
      outer loop
         vertex 125.944897532463 7.06113735213876 -1.48372119292617
         vertex 34.1044329106808 7.06113735213876 -1.4837208436802
         vertex 34.1044329106808 7.2019062936306 -0.482095521874726
      endloop
   endfacet
   facet normal -9.48802811144172E-10 0.961261627070135 -0.275637595988787
      outer loop
         vertex 125.944897532463 6.78233848884702 -2.45600752532482
         vertex 34.1044329106808 7.06113735213876 -1.4837208436802
         vertex 125.944897532463 7.06113735213876 -1.48372119292617
      endloop
   endfacet
   facet normal 0 1 0
      outer loop
         vertex 125.944897532463 7.2019062936306 -0.482095842016861
         vertex 34.1044329106808 7.2019062936306 -0.482095521874726
         vertex 34.1044329106808 7.2019062936306 0.529373355675489
      endloop
   endfacet
   facet normal 5.2923876547949E-10 0.99026811413868 0.139172777942467
      outer loop
         vertex 125.944897532463 7.2019062936306 0.529373006429523
         vertex 34.1044329106808 7.2019062936306 0.529373355675489
         vertex 34.1044329106808 7.06113735213876 1.53099873568863
      endloop
   endfacet
   facet normal 1 0 0
      outer loop
         vertex 34.1044329106808 6.78233848884702 2.50328495167196
         vertex 34.1044329106808 7.06113735213876 1.53099873568863
         vertex 34.1044329106808 7.68956355750561 7.44999991729856
      endloop
   endfacet
   facet normal 1 0 0
      outer loop
         vertex 125.944897532463 3.59456706792116 6.30232272669673
         vertex 125.944897532463 3.59456706792116 -6.25504553318024
         vertex 125.944897532463 4.43311268463731 5.73671655729413
      endloop
   endfacet
   facet normal 1 0 0
      outer loop
         vertex 125.944897532463 2.68546491861343 6.74572167918086
         vertex 125.944897532463 2.68546491861343 -6.69844448566437
         vertex 125.944897532463 3.59456706792116 6.30232272669673
      endloop
   endfacet
   facet normal 1 0 0
      outer loop
         vertex 125.944897532463 0.727398437447846 7.23392236977816
         vertex 125.944897532463 0.727398437447846 -7.18664517626166
         vertex 125.944897532463 1.72350078355521 7.05828238278627
      endloop
   endfacet
   facet normal 1 0 0
      outer loop
         vertex 125.944897532463 1.72350078355521 7.05828238278627
         vertex 125.944897532463 1.72350078355521 -7.01100518926978
         vertex 125.944897532463 2.68546491861343 6.74572167918086
      endloop
   endfacet
   facet normal 1 0 0
      outer loop
         vertex 125.944897532463 -0.283454282907769 -7.22194509580731
         vertex 125.944897532463 0.727398437447846 -7.18664517626166
         vertex 125.944897532463 0.727398437447846 7.23392236977816
      endloop
   endfacet
   facet normal 1 0 0
      outer loop
         vertex 125.944897532463 -1.28938222769648 -7.11621763184667
         vertex 125.944897532463 -0.283454282907769 -7.22194509580731
         vertex 125.944897532463 -0.283454282907769 7.26922228932381
      endloop
   endfacet
   facet normal 1 0 0
      outer loop
         vertex 125.944897532463 -2.27080611512065 6.91879820078611
         vertex 125.944897532463 -2.27080611512065 -6.87152100726962
         vertex 125.944897532463 -1.28938222769648 7.16349482536316
      endloop
   endfacet
   facet normal 1 0 0
      outer loop
         vertex 125.944897532463 -3.2086237333715 6.53989566490054
         vertex 125.944897532463 -3.2086237333715 -6.49261800572276
         vertex 125.944897532463 -2.27080611512065 6.91879820078611
      endloop
   endfacet
   facet normal 1 0 0
      outer loop
         vertex 125.944897532463 -2.27080611512065 -6.87152100726962
         vertex 125.944897532463 -1.28938222769648 -7.11621763184667
         vertex 125.944897532463 -1.28938222769648 7.16349482536316
      endloop
   endfacet
   facet normal 1 0 0
      outer loop
         vertex 34.1044329106808 7.68956355750561 7.44999991729856
         vertex 34.1044329106808 0.727398437447846 7.23392283543944
         vertex 34.1044329106808 1.72350078355521 7.05828284844756
      endloop
   endfacet
   facet normal 5.06723950004382E-09 0.0348992048534789 0.999390837210645
      outer loop
         vertex 125.944897532463 0.727398437447846 7.23392236977816
         vertex 34.1044329106808 0.727398437447846 7.23392283543944
         vertex 34.1044329106808 -0.283454253803939 7.26922228932381
      endloop
   endfacet
   facet normal -3.31245103789689E-11 -0.104528182200479 0.994521924909584
      outer loop
         vertex 125.944897532463 -0.283454282907769 7.26922228932381
         vertex 34.1044329106808 -0.283454253803939 7.26922228932381
         vertex 34.1044329106808 -1.28938222769648 7.16349529102445
      endloop
   endfacet
   facet normal 1 0 0
      outer loop
         vertex 34.1044329106808 -2.27080611512065 6.9187986664474
         vertex 34.1044329106808 -1.28938222769648 7.16349529102445
         vertex 34.1044329106808 -7.75042967870831 7.44999991729856
      endloop
   endfacet
   facet normal 1 0 0
      outer loop
         vertex 34.1044329106808 -6.99958018958569 2.02200980857015
         vertex 34.1044329106808 -6.65363762527704 2.97247967682779
         vertex 34.1044329106808 -7.75042967870831 7.44999991729856
      endloop
   endfacet
   facet normal 1.05418136334994E-09 -0.978147567526277 0.207911847046837
      outer loop
         vertex 125.944897532463 -6.99958018958569 2.02200934290886
         vertex 34.1044329106808 -6.99958018958569 2.02200980857015
         vertex 34.1044329106808 -7.20987655222416 1.03264395147562
      endloop
   endfacet
   facet normal 8.01454845067311E-10 -0.978147564041974 0.207911863439179
      outer loop
         vertex 125.944897532463 -6.99958018958569 2.02200934290886
         vertex 34.1044329106808 -7.20987655222416 1.03264395147562
         vertex 125.944897532463 -7.20987655222416 1.03264360222965
      endloop
   endfacet
   facet normal 2.69197156636582E-10 -0.997564048016829 0.0697565058204487
      outer loop
         vertex 125.944897532463 -7.20987655222416 1.03264360222965
         vertex 34.1044329106808 -7.28043308481574 0.0236389259953285
         vertex 125.944897532463 -7.28043308481574 0.0236386003962252
      endloop
   endfacet
   facet normal 1 0 0
      outer loop
         vertex 125.944897532463 -6.99958018958569 -1.97473214939237
         vertex 125.944897532463 -6.65363762527704 -2.92520201765001
         vertex 125.944897532463 -6.65363762527704 2.9724792111665
      endloop
   endfacet
   facet normal 1 0 0
      outer loop
         vertex 125.944897532463 -7.20987655222416 -0.985366408713162
         vertex 125.944897532463 -6.99958018958569 -1.97473214939237
         vertex 125.944897532463 -6.99958018958569 2.02200934290886
      endloop
   endfacet
   facet normal -2.69197156636582E-10 -0.997564048016829 -0.0697565058204487
      outer loop
         vertex 125.944897532463 -7.28043308481574 0.0236386003962252
         vertex 34.1044329106808 -7.20987655222416 -0.985366059467196
         vertex 125.944897532463 -7.20987655222416 -0.985366408713162
      endloop
   endfacet
   facet normal 1 0 0
      outer loop
         vertex 125.944897532463 -4.08458150923252 6.03416096419096
         vertex 125.944897532463 -4.08458150923252 -5.98688377067447
         vertex 125.944897532463 -3.2086237333715 6.53989566490054
      endloop
   endfacet
   facet normal 1 0 0
      outer loop
         vertex 125.944897532463 -4.88162972033024 5.41143864393234
         vertex 125.944897532463 -4.88162972033024 -5.36416145041585
         vertex 125.944897532463 -4.08458150923252 6.03416096419096
      endloop
   endfacet
   facet normal 1 0 0
      outer loop
         vertex 125.944897532463 -6.17878185585141 3.8655532989651
         vertex 125.944897532463 -6.17878185585141 -3.8182761054486
         vertex 125.944897532463 -5.58425532653928 4.68384893611073
      endloop
   endfacet
   facet normal 1 0 0
      outer loop
         vertex 125.944897532463 -5.58425532653928 4.68384893611073
         vertex 125.944897532463 -5.58425532653928 -4.63657174259424
         vertex 125.944897532463 -4.88162972033024 5.41143864393234
      endloop
   endfacet
   facet normal 1 0 0
      outer loop
         vertex 125.944897532463 -6.65363762527704 -2.92520201765001
         vertex 125.944897532463 -6.17878185585141 -3.8182761054486
         vertex 125.944897532463 -6.17878185585141 3.8655532989651
      endloop
   endfacet
   facet normal 1 0 0
      outer loop
         vertex 125.944897532463 5.18478080630302 -5.01263467594981
         vertex 125.944897532463 5.8349403552711 -4.23780456185341
         vertex 125.944897532463 5.8349403552711 4.2850817553699
      endloop
   endfacet
   facet normal 1 0 0
      outer loop
         vertex 125.944897532463 4.43311268463731 -5.68943936377764
         vertex 125.944897532463 5.18478080630302 -5.01263467594981
         vertex 125.944897532463 5.18478080630302 5.0599118694663
      endloop
   endfacet
   facet normal 1 0 0
      outer loop
         vertex 125.944897532463 3.59456706792116 -6.25504553318024
         vertex 125.944897532463 4.43311268463731 -5.68943936377764
         vertex 125.944897532463 4.43311268463731 5.73671655729413
      endloop
   endfacet
   facet normal -2.21415192288771E-09 0.91354540908043 -0.406736752148204
      outer loop
         vertex 125.944897532463 6.37093698605895 -3.38003016076982
         vertex 34.1044329106808 6.78233848884702 -2.45600705966353
         vertex 125.944897532463 6.78233848884702 -2.45600752532482
      endloop
   endfacet
   facet normal -1.56675676880398E-09 0.848048234201463 -0.529919043314901
      outer loop
         vertex 125.944897532463 5.8349403552711 -4.23780456185341
         vertex 34.1044329106808 6.37093698605895 -3.38002992793918
         vertex 125.944897532463 6.37093698605895 -3.38003016076982
      endloop
   endfacet
   facet normal 1 0 0
      outer loop
         vertex 34.1044329106808 7.68956355750561 -5.35000022500753
         vertex 34.1044329106808 7.2019062936306 -0.482095521874726
         vertex 34.1044329106808 7.06113735213876 -1.4837208436802
      endloop
   endfacet
   facet normal -1.3975731330128E-09 0.961261622541607 -0.275637611781625
      outer loop
         vertex 125.944897532463 6.78233848884702 -2.45600752532482
         vertex 34.1044329106808 6.78233848884702 -2.45600705966353
         vertex 34.1044329106808 7.06113735213876 -1.4837208436802
      endloop
   endfacet
   facet normal 1 0 0
      outer loop
         vertex 34.1044329106808 7.68956355750561 -5.35000022500753
         vertex 34.1044329106808 7.2019062936306 0.529373355675489
         vertex 34.1044329106808 7.2019062936306 -0.482095521874726
      endloop
   endfacet
   facet normal 1 0 0
      outer loop
         vertex 34.1044329106808 7.68956355750561 7.44999991729856
         vertex 34.1044329106808 7.06113735213876 1.53099873568863
         vertex 34.1044329106808 7.2019062936306 0.529373355675489
      endloop
   endfacet
   facet normal 1 0 0
      outer loop
         vertex 125.944897532463 2.68546491861343 -6.69844448566437
         vertex 125.944897532463 3.59456706792116 -6.25504553318024
         vertex 125.944897532463 3.59456706792116 6.30232272669673
      endloop
   endfacet
   facet normal 1 0 0
      outer loop
         vertex 125.944897532463 1.72350078355521 -7.01100518926978
         vertex 125.944897532463 2.68546491861343 -6.69844448566437
         vertex 125.944897532463 2.68546491861343 6.74572167918086
      endloop
   endfacet
   facet normal 1 0 0
      outer loop
         vertex 125.944897532463 0.727398437447846 -7.18664517626166
         vertex 125.944897532463 1.72350078355521 -7.01100518926978
         vertex 125.944897532463 1.72350078355521 7.05828238278627
      endloop
   endfacet
   facet normal -5.03154471756705E-09 0.0348996608642551 -0.999390821286427
      outer loop
         vertex 125.944897532463 -0.283454282907769 -7.22194509580731
         vertex 34.1044329106808 0.727398437447846 -7.18664471060038
         vertex 125.944897532463 0.727398437447846 -7.18664517626166
      endloop
   endfacet
   facet normal -5.14178932366455E-09 -0.104528637916357 -0.994521877011939
      outer loop
         vertex 125.944897532463 -1.28938222769648 -7.11621763184667
         vertex 34.1044329106808 -0.283454253803939 -7.22194463014603
         vertex 125.944897532463 -0.283454282907769 -7.22194509580731
      endloop
   endfacet
   facet normal 1 0 0
      outer loop
         vertex 125.944897532463 -3.2086237333715 -6.49261800572276
         vertex 125.944897532463 -2.27080611512065 -6.87152100726962
         vertex 125.944897532463 -2.27080611512065 6.91879820078611
      endloop
   endfacet
   facet normal 1 0 0
      outer loop
         vertex 125.944897532463 -4.08458150923252 -5.98688377067447
         vertex 125.944897532463 -3.2086237333715 -6.49261800572276
         vertex 125.944897532463 -3.2086237333715 6.53989566490054
      endloop
   endfacet
   facet normal -4.83075248348643E-09 -0.241922055435925 -0.970295686424328
      outer loop
         vertex 125.944897532463 -2.27080611512065 -6.87152100726962
         vertex 34.1044329106808 -1.28938222769648 -7.11621716618538
         vertex 125.944897532463 -1.28938222769648 -7.11621763184667
      endloop
   endfacet
   facet normal 1 0 0
      outer loop
         vertex 34.1044329106808 7.68956355750561 7.44999991729856
         vertex 34.1044329106808 -0.283454253803939 7.26922228932381
         vertex 34.1044329106808 0.727398437447846 7.23392283543944
      endloop
   endfacet
   facet normal 1 0 0
      outer loop
         vertex 34.1044329106808 -7.75042967870831 7.44999991729856
         vertex 34.1044329106808 -1.28938222769648 7.16349529102445
         vertex 34.1044329106808 -0.283454253803939 7.26922228932381
      endloop
   endfacet
   facet normal 1 0 0
      outer loop
         vertex 34.1044329106808 -7.75042967870831 7.44999991729856
         vertex 34.1044329106808 -7.20987655222416 1.03264395147562
         vertex 34.1044329106808 -6.99958018958569 2.02200980857015
      endloop
   endfacet
   facet normal 2.6526626151059E-10 -0.997564048245255 0.0697565025538058
      outer loop
         vertex 125.944897532463 -7.20987655222416 1.03264360222965
         vertex 34.1044329106808 -7.20987655222416 1.03264395147562
         vertex 34.1044329106808 -7.28043308481574 0.0236389259953285
      endloop
   endfacet
   facet normal -2.47305544714343E-10 -0.997564048245255 -0.0697565025538058
      outer loop
         vertex 125.944897532463 -7.28043308481574 0.0236386003962252
         vertex 34.1044329106808 -7.28043308481574 0.0236389259953285
         vertex 34.1044329106808 -7.20987655222416 -0.985366059467196
      endloop
   endfacet
   facet normal -8.99274650575516E-10 -0.939692671713559 -0.342020003403066
      outer loop
         vertex 125.944897532463 -6.99958018958569 -1.97473214939237
         vertex 34.1044329106808 -6.65363762527704 -2.92520178481936
         vertex 125.944897532463 -6.65363762527704 -2.92520201765001
      endloop
   endfacet
   facet normal -6.07810078629787E-10 -0.978147564041974 -0.207911863439179
      outer loop
         vertex 125.944897532463 -7.20987655222416 -0.985366408713162
         vertex 34.1044329106808 -6.99958018958569 -1.97473191656172
         vertex 125.944897532463 -6.99958018958569 -1.97473214939237
      endloop
   endfacet
   facet normal -7.90635994756875E-10 -0.978147567526277 -0.207911847046837
      outer loop
         vertex 125.944897532463 -7.20987655222416 -0.985366408713162
         vertex 34.1044329106808 -7.20987655222416 -0.985366059467196
         vertex 34.1044329106808 -6.99958018958569 -1.97473191656172
      endloop
   endfacet
   facet normal 1 0 0
      outer loop
         vertex 125.944897532463 -4.88162972033024 -5.36416145041585
         vertex 125.944897532463 -4.08458150923252 -5.98688377067447
         vertex 125.944897532463 -4.08458150923252 6.03416096419096
      endloop
   endfacet
   facet normal 1 0 0
      outer loop
         vertex 125.944897532463 -5.58425532653928 -4.63657174259424
         vertex 125.944897532463 -4.88162972033024 -5.36416145041585
         vertex 125.944897532463 -4.88162972033024 5.41143864393234
      endloop
   endfacet
   facet normal 1 0 0
      outer loop
         vertex 125.944897532463 -6.17878185585141 -3.8182761054486
         vertex 125.944897532463 -5.58425532653928 -4.63657174259424
         vertex 125.944897532463 -5.58425532653928 4.68384893611073
      endloop
   endfacet
   facet normal -7.30422678842952E-09 -0.882947657636665 -0.469471440956664
      outer loop
         vertex 125.944897532463 -6.65363762527704 -2.92520201765001
         vertex 34.1044329106808 -6.17878139019012 -3.81827563978732
         vertex 125.944897532463 -6.17878185585141 -3.8182761054486
      endloop
   endfacet
   facet normal -2.96249164016918E-09 0.766044511657699 -0.642787528005264
      outer loop
         vertex 125.944897532463 5.18478080630302 -5.01263467594981
         vertex 34.1044329106808 5.8349403552711 -4.23780409619212
         vertex 125.944897532463 5.8349403552711 -4.23780456185341
      endloop
   endfacet
   facet normal -3.93398126299921E-09 0.669130465303572 -0.74314495248412
      outer loop
         vertex 125.944897532463 4.43311268463731 -5.68943936377764
         vertex 34.1044329106808 5.18478080630302 -5.01263421028852
         vertex 125.944897532463 5.18478080630302 -5.01263467594981
      endloop
   endfacet
   facet normal -4.47864245933123E-09 0.559192910055397 -0.829037568113639
      outer loop
         vertex 125.944897532463 3.59456706792116 -6.25504553318024
         vertex 34.1044329106808 4.43311268463731 -5.68943889811635
         vertex 125.944897532463 4.43311268463731 -5.68943936377764
      endloop
   endfacet
   facet normal -2.68686361183704E-09 0.848048207415319 -0.529919086181715
      outer loop
         vertex 125.944897532463 5.8349403552711 -4.23780456185341
         vertex 34.1044329106808 5.8349403552711 -4.23780409619212
         vertex 34.1044329106808 6.37093698605895 -3.38002992793918
      endloop
   endfacet
   facet normal -1.03114419676503E-09 0.913545453375319 -0.406736652660273
      outer loop
         vertex 125.944897532463 6.37093698605895 -3.38003016076982
         vertex 34.1044329106808 6.37093698605895 -3.38002992793918
         vertex 34.1044329106808 6.78233848884702 -2.45600705966353
      endloop
   endfacet
   facet normal 1 0 0
      outer loop
         vertex 34.1044329106808 7.06113735213876 -1.4837208436802
         vertex 34.1044329106808 6.78233848884702 -2.45600705966353
         vertex 34.1044329106808 7.68956355750561 -5.35000022500753
      endloop
   endfacet
   facet normal 1 0 0
      outer loop
         vertex 34.1044329106808 7.68956355750561 7.44999991729856
         vertex 34.1044329106808 7.2019062936306 0.529373355675489
         vertex 34.1044329106808 7.68956355750561 -5.35000022500753
      endloop
   endfacet
   facet normal -4.41611759790566E-09 0.43837129118315 -0.898793975873458
      outer loop
         vertex 125.944897532463 2.68546491861343 -6.69844448566437
         vertex 34.1044329106808 3.59456706792116 -6.25504506751895
         vertex 125.944897532463 3.59456706792116 -6.25504553318024
      endloop
   endfacet
   facet normal -4.20349263143901E-09 0.559192951021864 -0.829037540481406
      outer loop
         vertex 125.944897532463 3.59456706792116 -6.25504553318024
         vertex 34.1044329106808 3.59456706792116 -6.25504506751895
         vertex 34.1044329106808 4.43311268463731 -5.68943889811635
      endloop
   endfacet
   facet normal -4.87423448952344E-09 0.309016653833641 -0.951056626943664
      outer loop
         vertex 125.944897532463 1.72350078355521 -7.01100518926978
         vertex 34.1044329106808 2.68546491861343 -6.69844402000308
         vertex 125.944897532463 2.68546491861343 -6.69844448566437
      endloop
   endfacet
   facet normal -5.83543270762567E-11 0.173648428214192 -0.984807708833933
      outer loop
         vertex 125.944897532463 0.727398437447846 -7.18664517626166
         vertex 34.1044329106808 1.72350078355521 -7.01100518926978
         vertex 125.944897532463 1.72350078355521 -7.01100518926978
      endloop
   endfacet
   facet normal -4.99329865204293E-09 0.17364798446612 -0.984807787078704
      outer loop
         vertex 125.944897532463 0.727398437447846 -7.18664517626166
         vertex 34.1044329106808 0.727398437447846 -7.18664471060038
         vertex 34.1044329106808 1.72350078355521 -7.01100518926978
      endloop
   endfacet
   facet normal -5.0425519596741E-09 -0.104528631720096 -0.994521877663194
      outer loop
         vertex 125.944897532463 -1.28938222769648 -7.11621763184667
         vertex 34.1044329106808 -1.28938222769648 -7.11621716618538
         vertex 34.1044329106808 -0.283454253803939 -7.22194463014603
      endloop
   endfacet
   facet normal -5.05617982220096E-09 0.0348996587853404 -0.999390821359025
      outer loop
         vertex 125.944897532463 -0.283454282907769 -7.22194509580731
         vertex 34.1044329106808 -0.283454253803939 -7.22194463014603
         vertex 34.1044329106808 0.727398437447846 -7.18664471060038
      endloop
   endfacet
   facet normal -1.94792379771198E-10 -0.374606674906926 -0.927183821642276
      outer loop
         vertex 125.944897532463 -3.2086237333715 -6.49261800572276
         vertex 34.1044329106808 -2.27080611512065 -6.87152100726962
         vertex 125.944897532463 -2.27080611512065 -6.87152100726962
      endloop
   endfacet
   facet normal 1.47818840446586E-10 -0.499999821000989 -0.866025507129541
      outer loop
         vertex 125.944897532463 -4.08458150923252 -5.98688377067447
         vertex 34.1044329106808 -3.2086237333715 -6.49261800572276
         vertex 125.944897532463 -3.2086237333715 -6.49261800572276
      endloop
   endfacet
   facet normal 0 -0.241921620572997 -0.970295794847806
      outer loop
         vertex 125.944897532463 -2.27080611512065 -6.87152100726962
         vertex 34.1044329106808 -2.27080611512065 -6.87152100726962
         vertex 34.1044329106808 -1.28938222769648 -7.11621716618538
      endloop
   endfacet
   facet normal 1 0 0
      outer loop
         vertex 34.1044329106808 -7.75042967870831 7.44999991729856
         vertex 34.1044329106808 -0.283454253803939 7.26922228932381
         vertex 34.1044329106808 7.68956355750561 7.44999991729856
      endloop
   endfacet
   facet normal 0 0 1
      outer loop
         vertex 31.8320021033287 7.68956355750561 7.44999991729856
         vertex 31.8320021033287 -7.75042967870831 7.44999991729856
         vertex 34.1044329106808 7.68956355750561 7.44999991729856
      endloop
   endfacet
   facet normal 1 0 0
      outer loop
         vertex 34.1044329106808 -7.75042967870831 7.44999991729856
         vertex 34.1044329106808 -7.28043308481574 0.0236389259953285
         vertex 34.1044329106808 -7.20987655222416 1.03264395147562
      endloop
   endfacet
   facet normal 1 0 0
      outer loop
         vertex 34.1044329106808 -7.75042967870831 -5.34999556839466
         vertex 34.1044329106808 -7.20987655222416 -0.985366059467196
         vertex 34.1044329106808 -7.28043308481574 0.0236389259953285
      endloop
   endfacet
   facet normal -1.19018842104603E-09 -0.882947406646888 -0.469471912999633
      outer loop
         vertex 125.944897532463 -6.65363762527704 -2.92520201765001
         vertex 34.1044329106808 -6.65363762527704 -2.92520178481936
         vertex 34.1044329106808 -6.17878139019012 -3.81827563978732
      endloop
   endfacet
   facet normal -8.67076795231785E-10 -0.939692671713559 -0.342020003403066
      outer loop
         vertex 125.944897532463 -6.99958018958569 -1.97473214939237
         vertex 34.1044329106808 -6.99958018958569 -1.97473191656172
         vertex 34.1044329106808 -6.65363762527704 -2.92520178481936
      endloop
   endfacet
   facet normal 1 0 0
      outer loop
         vertex 34.1044329106808 -6.99958018958569 -1.97473191656172
         vertex 34.1044329106808 -7.20987655222416 -0.985366059467196
         vertex 34.1044329106808 -7.75042967870831 -5.34999556839466
      endloop
   endfacet
   facet normal -4.20681288479034E-09 -0.615661472837664 -0.788010755550556
      outer loop
         vertex 125.944897532463 -4.88162972033024 -5.36416145041585
         vertex 34.1044329106808 -4.08458150923252 -5.98688330501318
         vertex 125.944897532463 -4.08458150923252 -5.98688377067447
      endloop
   endfacet
   facet normal -3.26060265636724E-09 -0.719339604650077 -0.69465857310039
      outer loop
         vertex 125.944897532463 -5.58425532653928 -4.63657174259424
         vertex 34.1044329106808 -4.88162972033024 -5.36416098475456
         vertex 125.944897532463 -4.88162972033024 -5.36416145041585
      endloop
   endfacet
   facet normal -3.31748605780146E-09 -0.809017001159598 -0.587785242954202
      outer loop
         vertex 125.944897532463 -6.17878185585141 -3.8182761054486
         vertex 34.1044329106808 -5.58425532653928 -4.63657127693295
         vertex 125.944897532463 -5.58425532653928 -4.63657174259424
      endloop
   endfacet
   facet normal -7.08224531886653E-09 -0.809017225249589 -0.587784934520659
      outer loop
         vertex 125.944897532463 -6.17878185585141 -3.8182761054486
         vertex 34.1044329106808 -6.17878139019012 -3.81827563978732
         vertex 34.1044329106808 -5.58425532653928 -4.63657127693295
      endloop
   endfacet
   facet normal -3.25914390396933E-09 0.766044511657699 -0.642787528005264
      outer loop
         vertex 125.944897532463 5.18478080630302 -5.01263467594981
         vertex 34.1044329106808 5.18478080630302 -5.01263421028852
         vertex 34.1044329106808 5.8349403552711 -4.23780409619212
      endloop
   endfacet
   facet normal -3.76798898199543E-09 0.669130435664511 -0.74314497917124
      outer loop
         vertex 125.944897532463 4.43311268463731 -5.68943936377764
         vertex 34.1044329106808 4.43311268463731 -5.68943889811635
         vertex 34.1044329106808 5.18478080630302 -5.01263421028852
      endloop
   endfacet
   facet normal 1 0 0
      outer loop
         vertex 31.8320021033287 -7.75042967870831 7.44999991729856
         vertex 31.8320021033287 7.68956355750561 7.44999991729856
         vertex 31.8320021033287 7.68956355750561 8.97971820086241
      endloop
   endfacet
   facet normal 1 0 0
      outer loop
         vertex 34.1044329106808 5.8349403552711 -4.23780409619212
         vertex 34.1044329106808 7.15360185131431 -5.35000022500753
         vertex 34.1044329106808 6.37093698605895 -3.38002992793918
      endloop
   endfacet
   facet normal 1 0 0
      outer loop
         vertex 34.1044329106808 6.37093698605895 -3.38002992793918
         vertex 34.1044329106808 7.68956355750561 -5.35000022500753
         vertex 34.1044329106808 6.78233848884702 -2.45600705966353
      endloop
   endfacet
   facet normal 0 1 0
      outer loop
         vertex 34.1044329106808 7.68956355750561 7.44999991729856
         vertex 34.1044329106808 7.68956355750561 -5.35000022500753
         vertex 31.8320021033287 7.68956355750561 7.44999991729856
      endloop
   endfacet
   facet normal -4.55718031190694E-09 0.43837129118315 -0.898793975873458
      outer loop
         vertex 125.944897532463 2.68546491861343 -6.69844448566437
         vertex 34.1044329106808 2.68546491861343 -6.69844402000308
         vertex 34.1044329106808 3.59456706792116 -6.25504506751895
      endloop
   endfacet
   facet normal 1 0 0
      outer loop
         vertex 34.1044329106808 3.59456706792116 -6.25504506751895
         vertex 34.1044329106808 4.85000014305115 -7.65360193327069
         vertex 34.1044329106808 4.43311268463731 -5.68943889811635
      endloop
   endfacet
   facet normal 0 0.309017066258755 -0.951056492938686
      outer loop
         vertex 125.944897532463 1.72350078355521 -7.01100518926978
         vertex 34.1044329106808 1.72350078355521 -7.01100518926978
         vertex 34.1044329106808 2.68546491861343 -6.69844402000308
      endloop
   endfacet
   facet normal 1 0 0
      outer loop
         vertex 34.1044329106808 1.72350078355521 -7.01100518926978
         vertex 34.1044329106808 0.727398437447846 -7.18664471060038
         vertex 34.1044329106808 4.85000014305115 -7.72000011056662
      endloop
   endfacet
   facet normal 1 0 0
      outer loop
         vertex 34.1044329106808 -4.85000014305115 -7.72000011056662
         vertex 34.1044329106808 -0.283454253803939 -7.22194463014603
         vertex 34.1044329106808 -1.28938222769648 -7.11621716618538
      endloop
   endfacet
   facet normal 1 0 0
      outer loop
         vertex 34.1044329106808 4.85000014305115 -7.72000011056662
         vertex 34.1044329106808 0.727398437447846 -7.18664471060038
         vertex 34.1044329106808 -0.283454253803939 -7.22194463014603
      endloop
   endfacet
   facet normal -4.39103254639598E-09 -0.500000192460167 -0.866025292667481
      outer loop
         vertex 125.944897532463 -4.08458150923252 -5.98688377067447
         vertex 34.1044329106808 -4.08458150923252 -5.98688330501318
         vertex 34.1044329106808 -3.2086237333715 -6.49261800572276
      endloop
   endfacet
   facet normal 0 -0.374606674906926 -0.927183821642276
      outer loop
         vertex 125.944897532463 -3.2086237333715 -6.49261800572276
         vertex 34.1044329106808 -3.2086237333715 -6.49261800572276
         vertex 34.1044329106808 -2.27080611512065 -6.87152100726962
      endloop
   endfacet
   facet normal 1 0 0
      outer loop
         vertex 34.1044329106808 -4.85000014305115 -7.72000011056662
         vertex 34.1044329106808 -1.28938222769648 -7.11621716618538
         vertex 34.1044329106808 -2.27080611512065 -6.87152100726962
      endloop
   endfacet
   facet normal 0 0 1
      outer loop
         vertex 34.1044329106808 7.68956355750561 7.44999991729856
         vertex 31.8320021033287 -7.75042967870831 7.44999991729856
         vertex 34.1044329106808 -7.75042967870831 7.44999991729856
      endloop
   endfacet
   facet normal 1 0 0
      outer loop
         vertex 34.1044329106808 -7.75042967870831 -5.34999556839466
         vertex 34.1044329106808 -7.28043308481574 0.0236389259953285
         vertex 34.1044329106808 -7.75042967870831 7.44999991729856
      endloop
   endfacet
   facet normal 1 0 0
      outer loop
         vertex 34.1044329106808 -6.65363762527704 -2.92520178481936
         vertex 34.1044329106808 -7.21447868272662 -5.34999556839466
         vertex 34.1044329106808 -6.17878139019012 -3.81827563978732
      endloop
   endfacet
   facet normal 1 0 0
      outer loop
         vertex 34.1044329106808 -6.99958018958569 -1.97473191656172
         vertex 34.1044329106808 -7.75042967870831 -5.34999556839466
         vertex 34.1044329106808 -6.65363762527704 -2.92520178481936
      endloop
   endfacet
   facet normal -3.99547314958548E-09 -0.615661480932755 -0.788010749225978
      outer loop
         vertex 125.944897532463 -4.88162972033024 -5.36416145041585
         vertex 34.1044329106808 -4.88162972033024 -5.36416098475456
         vertex 34.1044329106808 -4.08458150923252 -5.98688330501318
      endloop
   endfacet
   facet normal -3.52214699647228E-09 -0.719339604650077 -0.69465857310039
      outer loop
         vertex 125.944897532463 -5.58425532653928 -4.63657174259424
         vertex 34.1044329106808 -5.58425532653928 -4.63657127693295
         vertex 34.1044329106808 -4.88162972033024 -5.36416098475456
      endloop
   endfacet
   facet normal 1 0 0
      outer loop
         vertex 34.1044329106808 -6.17878139019012 -3.81827563978732
         vertex 34.1044329106808 -7.21447868272662 -5.34999556839466
         vertex 34.1044329106808 -5.58425532653928 -4.63657127693295
      endloop
   endfacet
   facet normal 1 0 0
      outer loop
         vertex 31.8320021033287 7.68956355750561 8.97971820086241
         vertex 31.8320021033287 -7.75042967870831 8.97971820086241
         vertex 31.8320021033287 -7.75042967870831 7.44999991729856
      endloop
   endfacet
   facet normal 1 0 0
      outer loop
         vertex 34.1044329106808 5.18478080630302 -5.01263421028852
         vertex 34.1044329106808 7.15360185131431 -5.35000022500753
         vertex 34.1044329106808 5.8349403552711 -4.23780409619212
      endloop
   endfacet
   facet normal 1 0 0
      outer loop
         vertex 34.1044329106808 4.43311268463731 -5.68943889811635
         vertex 34.1044329106808 4.85000014305115 -7.65360193327069
         vertex 34.1044329106808 5.18478080630302 -5.01263421028852
      endloop
   endfacet
   facet normal 1.46078056317833E-08 1 0
      outer loop
         vertex 31.8320021033287 7.68956355750561 8.97971820086241
         vertex 31.8320021033287 7.68956355750561 7.44999991729856
         vertex -0.0455658373539336 7.68956402316689 8.97971820086241
      endloop
   endfacet
   facet normal 1 0 0
      outer loop
         vertex 34.1044329106808 7.15360185131431 -5.35000022500753
         vertex 34.1044329106808 7.68956355750561 -5.35000022500753
         vertex 34.1044329106808 6.37093698605895 -3.38002992793918
      endloop
   endfacet
   facet normal 1.36357627411599E-08 1 2.42080644419218E-09
      outer loop
         vertex 31.8320021033287 7.68956355750561 7.44999991729856
         vertex 34.1044329106808 7.68956355750561 -5.35000022500753
         vertex -0.0455658882856369 7.68956402316689 -5.34999975934625
      endloop
   endfacet
   facet normal 1 0 0
      outer loop
         vertex 34.1044329106808 2.68546491861343 -6.69844402000308
         vertex 34.1044329106808 4.85000014305115 -7.65360193327069
         vertex 34.1044329106808 3.59456706792116 -6.25504506751895
      endloop
   endfacet
   facet normal 1 0 0
      outer loop
         vertex 34.1044329106808 1.72350078355521 -7.01100518926978
         vertex 34.1044329106808 4.85000014305115 -7.72000011056662
         vertex 34.1044329106808 2.68546491861343 -6.69844402000308
      endloop
   endfacet
   facet normal -0.363341517376132 0 -0.931656021153092
      outer loop
         vertex 19.7835732251406 4.85000014305115 -14.8702822625637
         vertex 19.7835732251406 -4.85000014305115 -14.8702822625637
         vertex 13.954434543848 4.85000014305115 -12.5969452783465
      endloop
   endfacet
   facet normal 1 0 0
      outer loop
         vertex 34.1044329106808 4.85000014305115 -7.72000011056662
         vertex 34.1044329106808 -0.283454253803939 -7.22194463014603
         vertex 34.1044329106808 -4.85000014305115 -7.72000011056662
      endloop
   endfacet
   facet normal 1 0 0
      outer loop
         vertex 34.1044329106808 -4.08458150923252 -5.98688330501318
         vertex 34.1044329106808 -4.85000014305115 -7.71447457373142
         vertex 34.1044329106808 -3.2086237333715 -6.49261800572276
      endloop
   endfacet
   facet normal 1 0 0
      outer loop
         vertex 34.1044329106808 -3.2086237333715 -6.49261800572276
         vertex 34.1044329106808 -4.85000014305115 -7.72000011056662
         vertex 34.1044329106808 -2.27080611512065 -6.87152100726962
      endloop
   endfacet
   facet normal 0 0 -1
      outer loop
         vertex 19.7835732251406 -4.85000014305115 -14.8702822625637
         vertex 19.7835732251406 4.85000014305115 -14.8702822625637
         vertex 31.7320004105568 -4.85000014305115 -14.8702822625637
      endloop
   endfacet
   facet normal 0 -1 0
      outer loop
         vertex 34.1044329106808 -7.75042967870831 -5.34999556839466
         vertex 34.1044329106808 -7.75042967870831 7.44999991729856
         vertex 31.8320021033287 -7.75042967870831 7.44999991729856
      endloop
   endfacet
   facet normal 1 0 0
      outer loop
         vertex 34.1044329106808 -6.65363762527704 -2.92520178481936
         vertex 34.1044329106808 -7.75042967870831 -5.34999556839466
         vertex 34.1044329106808 -7.21447868272662 -5.34999556839466
      endloop
   endfacet
   facet normal 1 0 0
      outer loop
         vertex 34.1044329106808 -4.88162972033024 -5.36416098475456
         vertex 34.1044329106808 -4.85000014305115 -7.71447457373142
         vertex 34.1044329106808 -4.08458150923252 -5.98688330501318
      endloop
   endfacet
   facet normal 1 0 0
      outer loop
         vertex 34.1044329106808 -5.58425532653928 -4.63657127693295
         vertex 34.1044329106808 -7.21447868272662 -5.34999556839466
         vertex 34.1044329106808 -4.88162972033024 -5.36416098475456
      endloop
   endfacet
   facet normal 0 -1 0
      outer loop
         vertex 31.8320021033287 -7.75042967870831 8.97971820086241
         vertex -0.0455658409919124 -7.75042967870831 8.97971820086241
         vertex 31.8320021033287 -7.75042967870831 7.44999991729856
      endloop
   endfacet
   facet normal 1 0 0
      outer loop
         vertex 31.8320021033287 7.68956355750561 8.97971820086241
         vertex 31.8320021033287 -7.25042959675193 9.47971828281879
         vertex 31.8320021033287 -7.75042967870831 8.97971820086241
      endloop
   endfacet
   facet normal 1 0 0
      outer loop
         vertex 34.1044329106808 5.18478080630302 -5.01263421028852
         vertex 34.1044329106808 4.85000014305115 -7.65360193327069
         vertex 34.1044329106808 7.15360185131431 -5.35000022500753
      endloop
   endfacet
   facet normal 1.46078047436049E-08 1 -5.1920102111814E-17
      outer loop
         vertex -0.0455658373539336 7.68956402316689 8.97971820086241
         vertex 31.8320021033287 7.68956355750561 7.44999991729856
         vertex -0.0455658882856369 7.68956402316689 -5.34999975934625
      endloop
   endfacet
   facet normal 1.0539304720575E-08 0.707106781186547 0.707106781186547
      outer loop
         vertex -0.0455658373539336 7.18956394121051 9.47971828281879
         vertex 31.8320021033287 7.68956355750561 8.97971820086241
         vertex -0.0455658373539336 7.68956402316689 8.97971820086241
      endloop
   endfacet
   facet normal -1.36357636293383E-08 0 -1
      outer loop
         vertex 34.1044329106808 7.15360185131431 -5.35000022500753
         vertex -0.0455658882856369 7.68956402316689 -5.34999975934625
         vertex 34.1044329106808 7.68956355750561 -5.35000022500753
      endloop
   endfacet
   facet normal 0 1 0
      outer loop
         vertex 31.7320004105568 4.85000014305115 -14.8702822625637
         vertex 19.7835732251406 4.85000014305115 -14.8702822625637
         vertex 13.954434543848 4.85000014305115 -12.5969452783465
      endloop
   endfacet
   facet normal 0 0 -1
      outer loop
         vertex 31.7320004105568 -4.85000014305115 -14.8702822625637
         vertex 19.7835732251406 4.85000014305115 -14.8702822625637
         vertex 31.7320004105568 4.85000014305115 -14.8702822625637
      endloop
   endfacet
   facet normal 1 0 0
      outer loop
         vertex 34.1044329106808 2.68546491861343 -6.69844402000308
         vertex 34.1044329106808 4.85000014305115 -7.72000011056662
         vertex 34.1044329106808 4.85000014305115 -7.65360193327069
      endloop
   endfacet
   facet normal -0.363341523067312 0 -0.931656018933558
      outer loop
         vertex 13.954434543848 4.85000014305115 -12.5969452783465
         vertex 19.7835732251406 -4.85000014305115 -14.8702822625637
         vertex 13.954434543848 -4.85000014305115 -12.5969452783465
      endloop
   endfacet
   facet normal 0 0 -1
      outer loop
         vertex 31.7320004105568 -4.85000014305115 -7.72000011056662
         vertex 34.1044329106808 4.85000014305115 -7.72000011056662
         vertex 34.1044329106808 -4.85000014305115 -7.72000011056662
      endloop
   endfacet
   facet normal 1 0 0
      outer loop
         vertex 34.1044329106808 -4.85000014305115 -7.71447457373142
         vertex 34.1044329106808 -4.85000014305115 -7.72000011056662
         vertex 34.1044329106808 -3.2086237333715 -6.49261800572276
      endloop
   endfacet
   facet normal 0 -1 0
      outer loop
         vertex 19.7835732251406 -4.85000014305115 -14.8702822625637
         vertex 31.7320004105568 -4.85000014305115 -14.8702822625637
         vertex 13.954434543848 -4.85000014305115 -12.5969452783465
      endloop
   endfacet
   facet normal 0 0 -1
      outer loop
         vertex 31.7320004105568 4.85000014305115 -7.72000011056662
         vertex 34.1044329106808 4.85000014305115 -7.72000011056662
         vertex 31.7320004105568 -4.85000014305115 -7.72000011056662
      endloop
   endfacet
   facet normal 0 -1 0
      outer loop
         vertex 31.8320021033287 -7.75042967870831 7.44999991729856
         vertex -0.0455658919236157 -7.75042967870831 -5.34999556839466
         vertex 34.1044329106808 -7.75042967870831 -5.34999556839466
      endloop
   endfacet
   facet normal 0 -1 0
      outer loop
         vertex 31.8320021033287 -7.75042967870831 7.44999991729856
         vertex -0.0455658409919124 -7.75042967870831 8.97971820086241
         vertex -0.0455658919236157 -7.75042967870831 -5.34999556839466
      endloop
   endfacet
   facet normal 0 0 -1
      outer loop
         vertex 34.1044329106808 -7.21447868272662 -5.34999556839466
         vertex 34.1044329106808 -7.75042967870831 -5.34999556839466
         vertex -0.0455658919236157 -7.21447868272662 -5.34999556839466
      endloop
   endfacet
   facet normal 1 0 0
      outer loop
         vertex 34.1044329106808 -4.88162972033024 -5.36416098475456
         vertex 34.1044329106808 -7.21447868272662 -5.34999556839466
         vertex 34.1044329106808 -4.85000014305115 -7.71447457373142
      endloop
   endfacet
   facet normal 0 0.70710710901201 0.707106453360933
      outer loop
         vertex 31.8320021033287 7.18956394121051 9.47971828281879
         vertex 31.8320021033287 7.68956355750561 8.97971820086241
         vertex -0.0455658373539336 7.18956394121051 9.47971828281879
      endloop
   endfacet
   facet normal 1 0 0
      outer loop
         vertex 31.8320021033287 7.18956394121051 9.47971828281879
         vertex 31.8320021033287 -7.25042959675193 9.47971828281879
         vertex 31.8320021033287 7.68956355750561 8.97971820086241
      endloop
   endfacet
   facet normal 0 -0.707106781186547 0.707106781186547
      outer loop
         vertex 31.8320021033287 -7.75042967870831 8.97971820086241
         vertex 31.8320021033287 -7.25042959675193 9.47971828281879
         vertex -0.0455658409919124 -7.75042967870831 8.97971820086241
      endloop
   endfacet
   facet normal -9.64194074430059E-09 0.707106781186547 -0.707106781186547
      outer loop
         vertex 34.1044329106808 7.15360185131431 -5.35000022500753
         vertex 34.1044329106808 4.85000014305115 -7.65360193327069
         vertex -0.0455658882856369 7.15360185131431 -5.34999975934625
      endloop
   endfacet
   facet normal -1 3.55427132170405E-09 3.55427132170405E-09
      outer loop
         vertex -0.0455658373539336 7.18956394121051 9.47971828281879
         vertex -0.0455658373539336 7.68956402316689 8.97971820086241
         vertex -0.0455658882856369 7.68956402316689 -5.34999975934625
      endloop
   endfacet
   facet normal -1.36357636293383E-08 0 -1
      outer loop
         vertex -0.0455658882856369 7.15360185131431 -5.34999975934625
         vertex -0.0455658882856369 7.68956402316689 -5.34999975934625
         vertex 34.1044329106808 7.15360185131431 -5.35000022500753
      endloop
   endfacet
   facet normal 0 1 0
      outer loop
         vertex 15.5464634299278 4.85000014305115 -11.2500004470348
         vertex 31.7320004105568 4.85000014305115 -14.8702822625637
         vertex 13.954434543848 4.85000014305115 -12.5969452783465
      endloop
   endfacet
   facet normal 1 0 0
      outer loop
         vertex 31.7320004105568 4.85000014305115 -14.8702822625637
         vertex 31.7320004105568 4.85000014305115 -7.72000011056662
         vertex 31.7320004105568 -4.85000014305115 -14.8702822625637
      endloop
   endfacet
   facet normal 0 1 0
      outer loop
         vertex 34.1044329106808 4.85000014305115 -7.65360193327069
         vertex 34.1044329106808 4.85000014305115 -7.72000011056662
         vertex 31.7320004105568 4.85000014305115 -7.72000011056662
      endloop
   endfacet
   facet normal -0.645898492854965 0 0.763423301273733
      outer loop
         vertex 13.954434543848 -4.85000014305115 -12.5969452783465
         vertex 15.5464634299278 4.85000014305115 -11.2500004470348
         vertex 13.954434543848 4.85000014305115 -12.5969452783465
      endloop
   endfacet
   facet normal 0 -1 0
      outer loop
         vertex 34.1044329106808 -4.85000014305115 -7.72000011056662
         vertex 34.1044329106808 -4.85000014305115 -7.71447457373142
         vertex 31.7320004105568 -4.85000014305115 -7.72000011056662
      endloop
   endfacet
   facet normal 0 -1 0
      outer loop
         vertex 13.954434543848 -4.85000014305115 -12.5969452783465
         vertex 31.7320004105568 -4.85000014305115 -14.8702822625637
         vertex 15.5464634299278 -4.85000014305115 -11.2500004470348
      endloop
   endfacet
   facet normal 1 0 0
      outer loop
         vertex 31.7320004105568 -4.85000014305115 -14.8702822625637
         vertex 31.7320004105568 4.85000014305115 -7.72000011056662
         vertex 31.7320004105568 -4.85000014305115 -7.72000011056662
      endloop
   endfacet
   facet normal 0 0 -1
      outer loop
         vertex -0.0455658919236157 -7.21447868272662 -5.34999556839466
         vertex 34.1044329106808 -7.75042967870831 -5.34999556839466
         vertex -0.0455658919236157 -7.75042967870831 -5.34999556839466
      endloop
   endfacet
   facet normal -1 -3.55427198783786E-09 3.55427198783786E-09
      outer loop
         vertex -0.0455658409919124 -7.75042967870831 8.97971820086241
         vertex -0.0455658409919124 -7.25042959675193 9.47971828281879
         vertex -0.0455658919236157 -7.75042967870831 -5.34999556839466
      endloop
   endfacet
   facet normal 0 -0.707106840791191 -0.707106721581899
      outer loop
         vertex -0.0455658919236157 -7.21447868272662 -5.34999556839466
         vertex 34.1044329106808 -4.85000014305115 -7.71447457373142
         vertex 34.1044329106808 -7.21447868272662 -5.34999556839466
      endloop
   endfacet
   facet normal 0 0 1
      outer loop
         vertex -0.0455658373539336 7.18956394121051 9.47971828281879
         vertex 31.8320021033287 -7.25042959675193 9.47971828281879
         vertex 31.8320021033287 7.18956394121051 9.47971828281879
      endloop
   endfacet
   facet normal 0 -0.707106781186547 0.707106781186547
      outer loop
         vertex -0.0455658409919124 -7.75042967870831 8.97971820086241
         vertex 31.8320021033287 -7.25042959675193 9.47971828281879
         vertex -0.0455658409919124 -7.25042959675193 9.47971828281879
      endloop
   endfacet
   facet normal 1.47741837285068E-09 0.707106870593507 -0.707106691779577
      outer loop
         vertex -0.0455658882856369 7.15360185131431 -5.34999975934625
         vertex 34.1044329106808 4.85000014305115 -7.65360193327069
         vertex -0.0455658991995733 4.85000014305115 -7.65360193327069
      endloop
   endfacet
   facet normal -1 0 3.43443518069364E-09
      outer loop
         vertex -0.0455658882856369 7.68956402316689 -5.34999975934625
         vertex -0.0455658882856369 7.15360185131431 -5.34999975934625
         vertex -0.0455658373539336 7.18956394121051 9.47971828281879
      endloop
   endfacet
   facet normal 0 1 0
      outer loop
         vertex 31.7320004105568 4.85000014305115 -7.72000011056662
         vertex 31.7320004105568 4.85000014305115 -14.8702822625637
         vertex 15.5464634299278 4.85000014305115 -11.2500004470348
      endloop
   endfacet
   facet normal 0 1 0
      outer loop
         vertex 34.1044329106808 4.85000014305115 -7.65360193327069
         vertex 31.7320004105568 4.85000014305115 -7.72000011056662
         vertex -0.0455658991995733 4.85000014305115 -7.65360193327069
      endloop
   endfacet
   facet normal -0.645898498202763 0 0.763423296749199
      outer loop
         vertex 15.5464634299278 -4.85000014305115 -11.2500004470348
         vertex 15.5464634299278 4.85000014305115 -11.2500004470348
         vertex 13.954434543848 -4.85000014305115 -12.5969452783465
      endloop
   endfacet
   facet normal 0 -1 0
      outer loop
         vertex 31.7320004105568 -4.85000014305115 -7.72000011056662
         vertex 34.1044329106808 -4.85000014305115 -7.71447457373142
         vertex -0.0455658991995733 -4.85000014305115 -7.71447410807014
      endloop
   endfacet
   facet normal 0 -1 0
      outer loop
         vertex 31.7320004105568 -4.85000014305115 -14.8702822625637
         vertex 31.7320004105568 -4.85000014305115 -7.72000011056662
         vertex 15.5464634299278 -4.85000014305115 -11.2500004470348
      endloop
   endfacet
   facet normal -1 0 3.43443606887206E-09
      outer loop
         vertex -0.0455658919236157 -7.75042967870831 -5.34999556839466
         vertex -0.0455658409919124 -7.25042959675193 9.47971828281879
         vertex -0.0455658919236157 -7.21447868272662 -5.34999556839466
      endloop
   endfacet
   facet normal -9.64193985612215E-09 -0.707106781186547 -0.707106781186547
      outer loop
         vertex -0.0455658991995733 -4.85000014305115 -7.71447410807014
         vertex 34.1044329106808 -4.85000014305115 -7.71447457373142
         vertex -0.0455658919236157 -7.21447868272662 -5.34999556839466
      endloop
   endfacet
   facet normal 0 0 1
      outer loop
         vertex -0.0455658409919124 -7.25042959675193 9.47971828281879
         vertex 31.8320021033287 -7.25042959675193 9.47971828281879
         vertex -0.0455658373539336 7.18956394121051 9.47971828281879
      endloop
   endfacet
   facet normal -1 1.30650312790692E-09 3.43126682622596E-09
      outer loop
         vertex -0.0455658373539336 7.18956394121051 9.47971828281879
         vertex -0.0455658882856369 7.15360185131431 -5.34999975934625
         vertex -0.0455658991995733 4.85000014305115 -7.65360193327069
      endloop
   endfacet
   facet normal 0 0 -1
      outer loop
         vertex 15.5464634299278 4.85000014305115 -11.2500004470348
         vertex 10.5900075286627 -4.85000014305115 -11.2500004470348
         vertex 10.5900075286627 4.85000014305115 -11.2500004470348
      endloop
   endfacet
   facet normal 0 1 0
      outer loop
         vertex -0.0455658991995733 4.85000014305115 -7.65360193327069
         vertex 31.7320004105568 4.85000014305115 -7.72000011056662
         vertex 15.5464634299278 4.85000014305115 -11.2500004470348
      endloop
   endfacet
   facet normal 0 0 -1
      outer loop
         vertex 15.5464634299278 -4.85000014305115 -11.2500004470348
         vertex 10.5900075286627 -4.85000014305115 -11.2500004470348
         vertex 15.5464634299278 4.85000014305115 -11.2500004470348
      endloop
   endfacet
   facet normal 0 -1 0
      outer loop
         vertex 15.5464634299278 -4.85000014305115 -11.2500004470348
         vertex 31.7320004105568 -4.85000014305115 -7.72000011056662
         vertex -0.0455658991995733 -4.85000014305115 -7.71447410807014
      endloop
   endfacet
   facet normal -1 3.58112178799885E-10 3.43530426327732E-09
      outer loop
         vertex -0.0455658409919124 -7.25042959675193 9.47971828281879
         vertex -0.0455658991995733 -4.85000014305115 -7.71447410807014
         vertex -0.0455658919236157 -7.21447868272662 -5.34999556839466
      endloop
   endfacet
   facet normal -1 2.51937692929971E-10 3.57526852567958E-09
      outer loop
         vertex -0.0455658373539336 7.18956394121051 9.47971828281879
         vertex -0.0455658991995733 4.85000014305115 -7.65360193327069
         vertex -0.0455658409919124 -7.25042959675193 9.47971828281879
      endloop
   endfacet
   facet normal 0.707106781186547 0 -0.707106781186547
      outer loop
         vertex 10.5900075286627 -4.85000014305115 -11.2500004470348
         vertex 10.0780259817839 -4.85000014305115 -11.7619819939137
         vertex 10.5900075286627 4.85000014305115 -11.2500004470348
      endloop
   endfacet
   facet normal 0 1 0
      outer loop
         vertex -0.0455658991995733 4.85000014305115 -7.65360193327069
         vertex 15.5464634299278 4.85000014305115 -11.2500004470348
         vertex 10.5900075286627 4.85000014305115 -11.2500004470348
      endloop
   endfacet
   facet normal 0.707106781186547 0 -0.707106781186547
      outer loop
         vertex 10.5900075286627 4.85000014305115 -11.2500004470348
         vertex 10.0780259817839 -4.85000014305115 -11.7619819939137
         vertex 10.0780259817839 4.85000014305115 -11.7619819939137
      endloop
   endfacet
   facet normal 0 -1 0
      outer loop
         vertex 15.5464634299278 -4.85000014305115 -11.2500004470348
         vertex -0.0455658991995733 -4.85000014305115 -7.71447410807014
         vertex 10.5900075286627 -4.85000014305115 -11.2500004470348
      endloop
   endfacet
   facet normal -1 -2.12264632953874E-11 3.38234595886888E-09
      outer loop
         vertex -0.0455658409919124 -7.25042959675193 9.47971828281879
         vertex -0.0455658991995733 4.85000014305115 -7.65360193327069
         vertex -0.0455658991995733 -4.85000014305115 -7.71447410807014
      endloop
   endfacet
   facet normal 0 0 -1
      outer loop
         vertex 10.0780259817839 -4.85000014305115 -11.7619819939137
         vertex 1.23200286179781 -4.85000014305115 -11.7619819939137
         vertex 10.0780259817839 4.85000014305115 -11.7619819939137
      endloop
   endfacet
   facet normal 0 -1 0
      outer loop
         vertex 1.23200286179781 -4.85000014305115 -11.7619819939137
         vertex 10.0780259817839 -4.85000014305115 -11.7619819939137
         vertex 10.5900075286627 -4.85000014305115 -11.2500004470348
      endloop
   endfacet
   facet normal 0 1 0
      outer loop
         vertex 10.5900075286627 4.85000014305115 -11.2500004470348
         vertex -0.0455659101135097 4.85000014305115 -11.204962618649
         vertex -0.0455658991995733 4.85000014305115 -7.65360193327069
      endloop
   endfacet
   facet normal 0 1 0
      outer loop
         vertex 10.0780259817839 4.85000014305115 -11.7619819939137
         vertex 1.23200286179781 4.85000014305115 -11.7619819939137
         vertex 10.5900075286627 4.85000014305115 -11.2500004470348
      endloop
   endfacet
   facet normal 0 -1 0
      outer loop
         vertex 10.5900075286627 -4.85000014305115 -11.2500004470348
         vertex -0.0455658991995733 -4.85000014305115 -7.71447410807014
         vertex -0.0455659137514886 -4.85000014305115 -11.204962618649
      endloop
   endfacet
   facet normal -1 -1.92856251801654E-11 3.07317038483745E-09
      outer loop
         vertex -0.0455658991995733 4.85000014305115 -7.65360193327069
         vertex -0.0455659101135097 4.85000014305115 -11.204962618649
         vertex -0.0455658991995733 -4.85000014305115 -7.71447410807014
      endloop
   endfacet
   facet normal 0 0 -1
      outer loop
         vertex 10.0780259817839 4.85000014305115 -11.7619819939137
         vertex 1.23200286179781 -4.85000014305115 -11.7619819939137
         vertex 1.23200286179781 4.85000014305115 -11.7619819939137
      endloop
   endfacet
   facet normal 0 -1 0
      outer loop
         vertex 10.5900075286627 -4.85000014305115 -11.2500004470348
         vertex -0.0455659137514886 -4.85000014305115 -11.204962618649
         vertex 1.23200286179781 -4.85000014305115 -11.7619819939137
      endloop
   endfacet
   facet normal 0 1 0
      outer loop
         vertex 10.5900075286627 4.85000014305115 -11.2500004470348
         vertex 1.23200286179781 4.85000014305115 -11.7619819939137
         vertex -0.0455659101135097 4.85000014305115 -11.204962618649
      endloop
   endfacet
   facet normal -1 3.75049408196659E-10 4.169019796052E-09
      outer loop
         vertex -0.0455658991995733 -4.85000014305115 -7.71447410807014
         vertex -0.0455659101135097 4.85000014305115 -11.204962618649
         vertex -0.0455659137514886 -4.85000014305115 -11.204962618649
      endloop
   endfacet
   facet normal -0.399664072722822 0 -0.916661676396808
      outer loop
         vertex 1.23200286179781 -4.85000014305115 -11.7619819939137
         vertex -0.0455659137514886 -4.85000014305115 -11.204962618649
         vertex 1.23200286179781 4.85000014305115 -11.7619819939137
      endloop
   endfacet
   facet normal -0.399664047680865 2.70856206368932E-09 -0.91666168731509
      outer loop
         vertex 1.23200286179781 4.85000014305115 -11.7619819939137
         vertex -0.0455659137514886 -4.85000014305115 -11.204962618649
         vertex -0.0455659101135097 4.85000014305115 -11.204962618649
      endloop
   endfacet
endsolid
