<?xml version="1.0" encoding="UTF-8" standalone="no"?>
<svg
   xmlns:dc="http://purl.org/dc/elements/1.1/"
   xmlns:cc="http://creativecommons.org/ns#"
   xmlns:rdf="http://www.w3.org/1999/02/22-rdf-syntax-ns#"
   xmlns:svg="http://www.w3.org/2000/svg"
   xmlns="http://www.w3.org/2000/svg"
   xmlns:sodipodi="http://sodipodi.sourceforge.net/DTD/sodipodi-0.dtd"
   xmlns:inkscape="http://www.inkscape.org/namespaces/inkscape"
   width="187mm"
   height="58mm"
   viewBox="0 0 187 58"
   version="1.1"
   id="svg8"
   inkscape:version="1.0.2 (e86c870879, 2021-01-15, custom)"
   sodipodi:docname="ATFMod9.svg"
   inkscape:export-filename="G:\Users\Aaron\Pictures\ATFMod9.png"
   inkscape:export-xdpi="96"
   inkscape:export-ydpi="96">
  <defs
     id="defs2">
    <clipPath
       clipPathUnits="userSpaceOnUse"
       id="clipPath903">
      <rect
         style="fill:#000000;stroke-width:0.332023"
         id="rect905"
         width="20.110992"
         height="7.7509212"
         x="99.329491"
         y="6.2779465" />
    </clipPath>
  </defs>
  <sodipodi:namedview
     id="base"
     pagecolor="#ffffff"
     bordercolor="#666666"
     borderopacity="1.0"
     inkscape:pageopacity="0.0"
     inkscape:pageshadow="2"
     inkscape:zoom="1.4"
     inkscape:cx="235.83227"
     inkscape:cy="59.142579"
     inkscape:document-units="mm"
     inkscape:current-layer="layer3"
     inkscape:document-rotation="0"
     showgrid="false"
     inkscape:snap-nodes="false"
     inkscape:window-width="1920"
     inkscape:window-height="1017"
     inkscape:window-x="-8"
     inkscape:window-y="-8"
     inkscape:window-maximized="1" />
  <metadata
     id="metadata5">
    <rdf:RDF>
      <cc:Work
         rdf:about="">
        <dc:format>image/svg+xml</dc:format>
        <dc:type
           rdf:resource="http://purl.org/dc/dcmitype/StillImage" />
        <dc:title></dc:title>
      </cc:Work>
    </rdf:RDF>
  </metadata>
  <g
     inkscape:groupmode="layer"
     id="layer3"
     inkscape:label="Layer 1">
    <path
       style="fill:#000000;stroke-width:0.124467"
       d="m 31.354485,55.763747 c 0,-0.30464 -0.135872,-0.463364 -0.84015,-0.981447 -3.824935,-2.813711 -5.260888,-4.216445 -7.334543,-7.16486 -1.448802,-2.05997 -2.728827,-4.958119 -3.016171,-6.829014 -0.0498,-0.324179 -0.127997,-0.626887 -0.173795,-0.672686 -0.0458,-0.0458 -0.200766,0.191435 -0.344372,0.527183 -0.143607,0.33575 -0.543778,1.197711 -0.889267,1.915472 l -0.628162,1.305019 0.07038,1.184319 c 0.05262,0.885375 0.215634,1.686994 0.645843,3.175786 0.733129,2.537082 1.228604,4.104714 1.488009,4.707915 0.190519,0.44302 0.190396,0.468026 -0.0018,0.360481 -0.237893,-0.133138 -0.760144,-1.409184 -1.310231,-3.201394 -0.210116,-0.684567 -0.455846,-1.468708 -0.546069,-1.742536 -0.09022,-0.273827 -0.28915,-1.141982 -0.442061,-1.929235 -0.160788,-0.827807 -0.356547,-1.494661 -0.464249,-1.581466 -0.163593,-0.131853 -0.153132,-0.220507 0.08606,-0.729362 0.149757,-0.318596 0.245037,-0.606513 0.211733,-0.639819 -0.06705,-0.06705 -0.893309,0.47515 -1.949148,1.279065 -0.754288,0.574313 -3.257863,2.136039 -3.689148,2.301284 -0.187939,0.07201 -0.31672,0.04781 -0.422254,-0.07935 -0.184572,-0.222398 -0.221805,-0.187883 0.702264,-0.650996 0.416021,-0.208495 1.228167,-0.69612 1.804769,-1.083611 0.576602,-0.387491 1.244402,-0.807743 1.484,-0.933892 0.239599,-0.126149 0.823696,-0.541323 1.297994,-0.922608 0.474298,-0.381286 0.906109,-0.693247 0.959581,-0.693247 0.232499,0 0.731939,-0.720876 0.983671,-1.419796 0.150229,-0.417105 0.392307,-1.01042 0.537949,-1.318475 0.224288,-0.474399 0.266021,-0.79816 0.272747,-2.115936 0.01152,-2.257733 -0.137111,-2.613804 -1.091094,-2.613804 -0.611627,0 -0.896821,-0.267124 -1.291454,-1.209633 -0.351093,-0.838544 -0.991097,-1.969166 -1.698663,-3.000854 -0.450532,-0.656908 -0.938569,-1.831127 -1.08658,-2.614305 -0.228339,-1.208237 -0.38115,-3.580535 -0.301038,-4.673419 l 0.08322,-1.135176 0.542374,-0.502906 c 0.651589,-0.604174 0.721162,-1.054512 0.214226,-1.386668 -0.517671,-0.339192 -0.667835,-0.873896 -0.665412,-2.369418 0.0035,-2.133822 0.394952,-4.19161 1.060862,-5.576093 0.236811,-0.492351 0.430567,-0.978999 0.430567,-1.08144 0,-0.102441 0.372542,-0.90871 0.827873,-1.7917094 0.45533,-0.882998 0.982693,-1.913507 1.171917,-2.290019 0.770128,-1.5323722 2.324206,-2.5460168 5.92615,-3.8653226 2.246785,-0.8229434 4.152845,-1.0368864 8.444433,-0.9478371 3.670609,0.076161 4.979904,0.2474787 7.465024,0.9767546 0.967477,0.2839125 2.636967,1.0797625 3.281019,1.5640665 0.492174,0.3700993 1.683873,2.1494386 1.954325,2.9180256 0.103878,0.295211 0.407102,0.988127 0.673829,1.539813 0.330004,0.6825704 0.54977,1.3766204 0.687804,2.1721914 0.234618,1.352247 0.220248,1.318027 0.589144,1.402965 0.567748,0.130725 2.462199,0.832977 3.048259,1.129956 1.1842,0.60008 1.939052,1.612232 1.719136,2.305125 -0.09307,0.293246 -0.414011,0.442152 -2.55627,1.186046 -2.338615,0.812079 -2.292811,0.766985 -2.345495,2.309091 -0.02629,0.76954 0.03275,1.698596 0.152732,2.403276 0.20277,1.190924 0.181925,1.483737 -0.276701,3.887042 -0.0741,0.388287 -0.07598,1.160643 -0.005,2.053703 0.254876,3.206459 0.264732,3.595527 0.116724,4.607755 -0.0834,0.570418 -0.290174,1.405321 -0.459483,1.85534 -0.636736,1.692409 -2.539956,7.604594 -2.909169,9.037077 -0.786023,3.04962 -0.873007,3.268378 -1.882507,4.734317 -0.333259,0.483944 -0.602737,0.988035 -0.598839,1.120202 0.0062,0.20789 0.824368,0.9633 1.473657,1.360507 0.111903,0.06845 0.398616,0.269764 0.637141,0.447351 0.238525,0.177586 0.757944,0.451032 1.154259,0.607659 0.707173,0.279477 0.812568,0.432475 0.453802,0.658778 -0.332345,0.209638 -2.778663,-1.386052 -3.741414,-2.44046 -0.511648,-0.560358 -0.580508,-0.596456 -0.990952,-0.519456 -0.242602,0.04552 -0.505966,0.122843 -0.585252,0.171844 -0.09063,0.05601 -0.171292,0.687975 -0.21723,1.701891 -0.09382,2.070791 -0.278467,3.289947 -0.511832,3.379499 -0.09864,0.03785 -0.208846,0.03931 -0.244908,0.0033 -0.03607,-0.03607 0.0273,-0.58908 0.140811,-1.228928 0.113507,-0.639848 0.237375,-1.765468 0.275261,-2.501379 0.06686,-1.298735 0.0612,-1.338018 -0.192877,-1.338018 -0.198597,0 -0.293057,0.116219 -0.39145,0.481618 -0.210375,0.781279 -0.947539,1.643771 -2.575979,3.013934 -0.919689,0.773823 -2.161423,1.437151 -3.558387,1.900872 -0.119799,0.03976 -0.217817,0.158076 -0.217817,0.262911 0,0.120336 -0.114717,0.190606 -0.311167,0.190606 -0.260864,0 -0.311167,-0.05875 -0.311167,-0.363414 z m 1.634711,-0.751275 c 1.933935,-0.679723 4.837565,-3.289465 4.837565,-4.347935 0,-0.293446 -0.397717,-0.349631 -3.059951,-0.432283 -1.577369,-0.04897 -1.816596,-0.08663 -2.387179,-0.375762 -0.694601,-0.351982 -1.013357,-0.667711 -0.511748,-0.506891 0.809918,0.259668 1.353673,0.325152 3.594008,0.432823 2.491746,0.119754 3.300674,0.06068 4.509418,-0.329329 1.320207,-0.42597 2.310365,-2.171985 3.211268,-5.662652 0.338084,-1.309945 0.762837,-2.696722 0.943898,-3.081726 0.3398,-0.72255 0.803094,-2.133472 1.129003,-3.43828 0.102592,-0.410741 0.375066,-1.390917 0.605496,-2.178169 0.569632,-1.946112 0.689664,-3.06016 0.5468,-5.075016 -0.06438,-0.907941 -0.16517,-1.864975 -0.223986,-2.126742 -0.06316,-0.281089 -0.05698,-0.751558 0.01508,-1.149158 0.106165,-0.585708 0.08765,-0.746 -0.14243,-1.233173 -0.349242,-0.739488 -0.976172,-1.172528 -1.53279,-1.058747 -0.602912,0.123244 -2.830169,0.944842 -2.909551,1.073284 -0.03754,0.06074 0.446299,0.110072 1.079695,0.110072 1.414782,0 2.448926,0.284655 2.614291,0.719599 0.196659,0.517253 0.124731,0.769261 -0.29337,1.027857 -0.36083,0.223176 -0.599424,0.248213 -2.209286,0.231831 -0.992623,-0.0101 -1.888784,0.01592 -1.991469,0.05784 -0.284556,0.116138 -0.548898,-0.106906 -0.444882,-0.375375 0.08457,-0.218287 0.09768,-0.218945 0.249676,-0.01256 0.08823,0.119799 0.196249,0.217817 0.240044,0.217817 0.13932,0 0.08553,-0.350688 -0.06129,-0.39963 -0.179688,-0.05989 0.200225,-0.827848 0.458594,-0.926993 0.184846,-0.07093 0.254485,-0.410206 0.08684,-0.423085 -1.391473,-0.106895 -1.487784,-0.209528 -1.033062,-1.10086 0.24106,-0.472515 0.854913,-0.880803 1.331922,-0.885894 0.126568,-0.0014 0.706208,-0.174514 1.288091,-0.384806 0.581882,-0.210295 1.254003,-0.430878 1.493601,-0.490188 0.607015,-0.15026 1.302397,0.08401 1.744711,0.587775 0.199991,0.227778 0.400464,0.414142 0.445493,0.414142 0.04503,0 0.04598,-0.294053 0.0021,-0.653451 -0.08992,-0.736838 -0.307173,-3.244178 -0.318141,-3.671772 -0.0039,-0.154028 -0.08015,-0.28005 -0.169342,-0.28005 -0.08919,0 -0.819248,-0.283195 -1.622359,-0.629322 -2.419464,-1.042748 -4.726774,-1.316927 -10.599932,-1.259597 -3.800547,0.0371 -5.812513,0.313073 -8.277044,1.135331 -0.376512,0.125617 -1.034631,0.298207 -1.462485,0.383533 -0.551871,0.110058 -0.783379,0.213487 -0.796708,0.355946 -0.01032,0.110444 -0.03461,0.368839 -0.05394,0.57421 -0.159962,1.699023 -0.324968,2.842869 -0.493761,3.422838 -0.109579,0.376511 -0.244831,1.408948 -0.300557,2.294303 -0.109658,1.742086 -0.19698,1.93757 -0.865521,1.93757 -0.489116,0 -2.001437,-0.619543 -2.001437,-0.819917 0,-0.0967 0.08401,-0.175819 0.186701,-0.175819 0.249712,0 0.231304,-0.325356 -0.05394,-0.953598 -0.37599,-0.828111 -1.163609,-1.473863 -0.87646,-0.718602 0.06676,0.175598 0.121386,0.439646 0.121386,0.586773 0,0.231745 -0.02255,0.243141 -0.168635,0.08525 -0.09274,-0.100245 -0.265202,-0.432522 -0.383243,-0.738397 -0.118043,-0.305875 -0.51304,-1.013951 -0.877772,-1.5735 -0.660127,-1.012722 -0.665842,-1.017576 -1.253114,-1.064284 -0.675055,-0.05369 -0.989049,0.07141 -1.329052,0.529541 -0.211508,0.284987 -0.238613,0.532983 -0.231263,2.115935 0.01561,3.360846 0.355762,4.889334 1.38182,6.209176 0.332936,0.428262 0.709407,1.11591 1.227943,2.242913 0.141738,0.308056 0.431272,0.770139 0.643411,1.026852 0.367343,0.444526 0.421224,0.46675 1.13163,0.46675 1.128138,0 1.227425,-0.09097 1.227425,-1.12458 0,-0.68759 0.03862,-0.866889 0.186699,-0.866889 0.147684,0 0.186345,0.175573 0.185001,0.840152 -0.0021,1.061445 -0.08636,1.371919 -0.399003,1.47115 -0.215896,0.06851 -0.238271,0.148411 -0.16674,0.59534 0.04544,0.283908 0.160032,1.776423 0.254648,3.3167 0.183462,2.98665 0.217478,3.147692 1.091052,5.165374 0.862234,1.991486 1.343671,2.773764 2.872515,4.667506 1.67877,2.079447 2.880382,3.208364 5.31084,4.989546 1.328334,0.97348 1.759239,1.24305 2.240402,1.401568 0.287137,0.0946 0.2769,0.09624 1.012377,-0.162261 z M 29.674184,47.889438 C 29.53727,47.812544 29.195788,47.548199 28.915334,47.302006 28.634879,47.055814 28.158794,46.649829 27.857366,46.399818 26.647464,45.396297 24.86659,43.691314 24.106937,42.809211 23.25264,41.817209 21.971032,39.974594 21.540823,39.11981 21.081425,38.207034 20.49148,35.3412 20.762979,35.3412 c 0.0555,0 0.226904,0.490088 0.380894,1.089086 0.886721,3.449202 1.25529,3.980965 6.081962,8.774912 1.568022,1.557391 2.816374,2.829918 2.774115,2.827835 -0.04226,-0.0021 -0.188853,-0.06669 -0.325766,-0.143595 z m 5.337147,-5.809554 c -0.788633,-0.434892 -1.789843,-1.260095 -1.789843,-1.475199 0,-0.261166 0.308226,-0.183529 0.629631,0.158592 0.867174,0.923063 1.595957,1.085072 4.100109,0.911454 2.048315,-0.142013 2.574026,-0.281351 3.330911,-0.882847 0.784729,-0.623626 1.097974,-0.324 0.371977,0.355805 -0.790753,0.740443 -1.547808,1.053523 -2.83162,1.171021 -0.650339,0.05952 -1.630516,0.109203 -2.17817,0.110406 -0.86145,0.0019 -1.081675,-0.04521 -1.632995,-0.349232 z m 0.699493,-1.994151 c -0.376512,-0.121414 -0.964171,-0.370447 -1.30591,-0.553406 -0.711807,-0.381086 -1.011588,-0.407793 -1.638257,-0.145954 -0.531849,0.222221 -0.914304,0.240976 -0.914304,0.04484 0,-0.251367 0.422839,-0.472449 0.911376,-0.476514 0.261658,-0.0021 1.073804,-0.140636 1.804769,-0.307687 1.1478,-0.262312 1.643016,-0.304105 3.631664,-0.306476 1.55644,-0.0019 2.564814,0.05534 3.111671,0.176534 0.444969,0.0986 0.963062,0.209581 1.151318,0.246615 0.235548,0.04633 0.342283,0.144219 0.342283,0.313895 0,0.214307 -0.08548,0.246721 -0.65345,0.247778 -0.437814,8.87e-4 -0.879358,0.106369 -1.338019,0.319864 -1.484781,0.691128 -3.726019,0.884596 -5.103141,0.440514 z m 3.789435,-0.899318 c 0.741547,-0.205878 0.292147,-0.373283 -0.955797,-0.35604 -0.565878,0.0078 -1.444317,0.0082 -1.952089,9.34e-4 -1.037256,-0.01485 -1.406021,0.158446 -0.742908,0.349124 0.583134,0.16768 3.053725,0.171683 3.650794,0.0059 z m -1.082281,-4.234842 c -0.188255,-0.07094 -0.342284,-0.17353 -0.342284,-0.227977 0,-0.134886 0.53933,-0.332668 1.411235,-0.517526 0.51171,-0.108492 0.787854,-0.241254 0.933501,-0.448805 0.573918,-0.817835 0.618358,-0.857588 0.706294,-0.631806 0.133238,0.342098 -0.669975,1.569872 -1.119715,1.711571 -0.653188,0.2058 -1.235473,0.247773 -1.589031,0.114543 z M 35.959927,33.82354 c -3.74e-4,-0.190163 0.57734,-0.473808 0.965024,-0.473808 0.456652,0 1.275211,0.300442 1.275211,0.468051 0,0.05904 -0.504015,0.103911 -1.120034,0.0997 -0.616019,-0.0042 -1.12011,-0.04648 -1.120201,-0.09394 z m 4.434284,-2.310444 c -0.550849,-0.681776 -0.725666,-1.014968 -0.89935,-1.714106 -0.118573,-0.477307 -0.374181,-1.259902 -0.568018,-1.739098 -0.491129,-1.214166 -0.460723,-1.480821 0.27504,-2.412008 0.492626,-0.62347 0.667325,-0.480822 0.299678,0.244696 -0.275698,0.544064 -0.309683,0.732407 -0.24144,1.338018 0.139773,1.240384 0.932583,3.437071 1.476493,4.091008 0.417255,0.501661 0.596923,0.879818 0.458623,0.965292 -0.0645,0.03987 -0.424957,-0.30835 -0.801026,-0.773802 z M 17.023964,30.707785 c -0.689361,-1.141282 -0.716376,-1.712891 -0.130052,-2.7518 0.255579,-0.452862 0.395821,-0.871843 0.395821,-1.182537 0,-0.52619 -0.216255,-1.265127 -0.370249,-1.265127 -0.05334,0 -0.224366,0.294053 -0.380082,0.653451 -0.155715,0.359398 -0.307839,0.581835 -0.338054,0.494305 -0.06844,-0.198276 0.207992,-1.382247 0.39192,-1.678607 0.10547,-0.169937 0.07998,-0.323044 -0.112581,-0.676165 -0.136906,-0.251065 -0.309891,-0.47592 -0.384411,-0.499677 -0.209165,-0.06668 -0.549078,1.152818 -0.549078,1.969919 0,0.402881 -0.05156,0.732508 -0.114577,0.732508 -0.215288,0 -0.266159,-0.688824 -0.119681,-1.620582 0.0805,-0.512043 0.157193,-1.088077 0.17044,-1.280076 0.01325,-0.192 0.118155,-0.44316 0.233128,-0.558133 0.195747,-0.195746 0.232828,-0.181458 0.582965,0.224623 0.383933,0.445278 0.989017,1.597335 0.99185,1.888443 8.86e-4,0.08981 0.142118,0.603343 0.313877,1.141183 0.342205,1.071578 0.552714,2.818347 0.339649,2.818347 -0.16139,0 -0.277811,-0.42388 -0.280015,-1.019506 -0.0025,-0.687397 -0.204179,-0.681961 -0.55737,0.01503 -0.4567,0.901254 -0.428167,1.584341 0.09482,2.27002 0.420304,0.551055 0.94822,0.829051 0.789649,0.415822 -0.248806,-0.64838 -0.218794,-0.742154 0.475668,-1.486241 0.619039,-0.663275 0.689137,-0.706905 0.689137,-0.428934 0,0.190251 -0.167803,0.472088 -0.435634,0.73168 -0.497209,0.481915 -0.514604,0.572752 -0.225691,1.178612 0.201065,0.421637 0.19975,0.447966 -0.03111,0.622598 -0.132583,0.100289 -0.388661,0.184123 -0.569063,0.186302 -0.275524,0.0033 -0.414925,-0.139948 -0.871268,-0.895453 z m 14.206055,-1.353638 c -1.365328,-0.17373 -1.7364,-0.272233 -1.955277,-0.519036 -0.218967,-0.246905 -0.216315,-0.249819 0.150508,-0.165421 0.20537,0.04725 0.597442,0.136975 0.871268,0.199387 0.887695,0.202325 1.973867,0.145633 2.611202,-0.136291 0.376003,-0.166324 0.63233,-0.21742 0.708516,-0.141233 0.114792,0.114792 -0.01749,0.185632 -1.266015,0.677927 -0.300826,0.118618 -0.647477,0.144818 -1.120202,0.08467 z m 11.585809,-0.265373 c -0.673146,-0.09915 -1.055485,-0.288225 -0.944842,-0.467249 0.0322,-0.0521 0.325635,-0.04381 0.652081,0.01845 0.326443,0.06225 0.945167,0.07652 1.37494,0.03172 0.641489,-0.06687 0.841996,-0.145644 1.119797,-0.439974 0.414608,-0.439279 0.702728,-0.478013 0.583737,-0.07847 -0.232734,0.781454 -1.329987,1.149946 -2.785713,0.935535 z M 29.985351,27.740002 c -0.65799,-0.06325 -1.443316,-0.269517 -1.731401,-0.454763 -0.0281,-0.01807 0.05059,-0.145221 0.174875,-0.282553 0.208956,-0.230893 0.209908,-0.249696 0.01264,-0.249696 -0.117336,0 -0.179855,-0.05418 -0.138932,-0.120392 0.04092,-0.06622 0.23525,-0.08822 0.431836,-0.04891 0.405675,0.08113 1.250986,-0.157215 1.250986,-0.352737 0,-0.07116 -0.141294,-0.102313 -0.314139,-0.06927 -0.172775,0.03303 -0.339896,0.01837 -0.37138,-0.03256 -0.08333,-0.134836 0.453899,-0.219366 2.026699,-0.318887 1.543554,-0.09767 2.251843,0.06147 2.673973,0.600823 0.120403,0.153837 0.365415,0.464103 0.54447,0.689477 0.179058,0.225376 0.297505,0.437828 0.263217,0.472115 -0.03428,0.03429 -0.755385,0.08987 -1.60244,0.123512 -0.847053,0.03365 -1.736133,0.07476 -1.975732,0.09139 -0.239599,0.01663 -0.7997,-0.0048 -1.244668,-0.04754 z m -0.07241,-0.191295 c 0.251229,-0.0964 0.257144,-0.655939 0.0079,-0.751566 -0.251637,-0.09656 -0.931266,0.192588 -0.931266,0.396212 0,0.08867 0.154028,0.217482 0.342284,0.286239 0.188256,0.06876 0.351706,0.129435 0.36322,0.134839 0.01151,0.0054 0.109534,-0.02416 0.217818,-0.06572 z m 3.993119,-0.408751 c 0,-0.283865 -0.349725,-0.638832 -0.490601,-0.497955 -0.0368,0.0368 -0.103392,0.249337 -0.147987,0.47231 -0.07775,0.388777 -0.06633,0.403717 0.278754,0.364323 0.285019,-0.03253 0.359834,-0.102954 0.359834,-0.338678 z M 33.84382,25.62397 c -1.814067,-0.659212 -4.210942,-1.176605 -4.820097,-1.040474 -0.189902,0.04244 -0.775529,0.225033 -1.301392,0.405768 -0.525863,0.180736 -0.997866,0.28686 -1.048894,0.235831 -0.17833,-0.17833 0.626767,-0.83922 1.693515,-1.390173 0.816537,-0.421725 1.2682,-0.573855 1.875921,-0.631852 1.103416,-0.105304 2.551489,0.178398 4.150029,0.813064 1.311958,0.520883 1.320572,0.522414 1.818449,0.323204 0.275134,-0.110088 0.617204,-0.200159 0.760151,-0.200159 0.3994,0 0.198674,0.575114 -0.423555,1.213552 -0.495801,0.508717 -0.544366,0.528812 -1.267557,0.524493 -0.429595,-0.0026 -1.045499,-0.111142 -1.43657,-0.253254 z m 4.163373,-0.73799 c 0.04873,-0.171142 0.11861,-0.437191 0.155292,-0.591217 0.03668,-0.154029 0.123175,-0.280051 0.19221,-0.280051 0.184628,0 0.0019,0.770477 -0.235861,0.994068 -0.181594,0.170829 -0.191987,0.159396 -0.111641,-0.1228 z m 3.678038,2.053702 c 0,-0.228188 -0.06639,-0.311167 -0.248934,-0.311167 -0.24285,0 -0.351665,0.353647 -0.165956,0.539357 0.18895,0.18895 0.41489,0.06469 0.41489,-0.22819 z m 2.978007,0.01108 c 0.104533,-0.125955 0.107157,-0.199472 0.0092,-0.259964 -0.199084,-0.12304 -0.497952,0.02399 -0.497952,0.244976 0,0.239079 0.295179,0.248132 0.488671,0.01498 z M 28.585166,12.034785 c 0.06814,-0.08557 0.19616,-0.359775 0.28448,-0.609343 0.183086,-0.51735 0.441346,-0.600445 1.873598,-0.602838 l 0.820127,-0.0014 0.237841,0.49378 c 0.130812,0.271579 0.321857,0.512521 0.424541,0.535428 0.303907,0.0678 0.622335,-0.05006 0.622335,-0.230341 0,-0.234028 -0.347133,-1.231835 -0.688047,-1.9777384 -0.157335,-0.344213 -0.477715,-1.045943 -0.711953,-1.559368 -0.234237,-0.513427 -0.518871,-1.0101401 -0.632521,-1.1038092 -0.32217,-0.2655283 -0.679306,0.050655 -1.366025,1.2093852 -0.679847,1.147132 -1.829061,3.5474414 -1.829061,3.8202714 0,0.229245 0.785959,0.250408 0.964685,0.02598 z m 1.151251,-2.3539334 c 0,-0.26185 0.633746,-1.232125 0.755592,-1.15682 0.142487,0.08807 0.613544,0.987913 0.613544,1.172042 0,0.0739 -0.293683,0.129425 -0.684569,0.129425 -0.437074,0 -0.684567,-0.05229 -0.684567,-0.144647 z m 9.621467,1.8249504 c 0.05487,-0.342283 0.138881,-0.818369 0.186701,-1.057968 l 0.08695,-0.435634 1.322395,-0.03517 c 1.151664,-0.03063 1.352394,-0.06832 1.554754,-0.291923 0.227773,-0.251686 0.22658,-0.261432 -0.0604,-0.493815 -0.241696,-0.195713 -0.497839,-0.23706 -1.46856,-0.23706 H 39.80392 l 0.03828,-0.528985 0.03827,-0.528984 1.476196,-0.08038 c 1.616373,-0.08802 1.964498,-0.230146 1.713322,-0.6994745 -0.09029,-0.1687089 -0.320285,-0.2768638 -0.714454,-0.3359734 -0.66631,-0.09992 -2.871997,0.035203 -3.177555,0.1946553 -0.152616,0.079644 -0.22643,0.3684656 -0.290414,1.1363166 -0.04718,0.566243 -0.165093,1.421603 -0.262023,1.9008004 -0.189246,0.935586 -0.231895,1.956757 -0.08775,2.100907 0.04878,0.04878 0.230813,0.07211 0.404517,0.05186 0.27507,-0.03208 0.328697,-0.117137 0.41558,-0.659165 z m -3.081997,0.217817 c 0.05161,-0.119799 0.120301,-1.099975 0.152654,-2.1781704 l 0.05882,-1.960352 0.327413,-0.0019 c 0.466644,-0.0027 0.666748,-0.167768 0.618353,-0.5100373 l -0.04201,-0.2970908 h -1.804769 -1.804769 v 0.3734004 c 0,0.3646767 0.01591,0.3743017 0.680795,0.4119707 0.374436,0.02121 0.755846,0.100858 0.84758,0.176989 0.127656,0.105944 0.16309,0.593329 0.151031,2.077366 -0.0087,1.0664214 -0.01201,1.9809554 -0.0074,2.0322974 0.01765,0.197834 0.729927,0.09003 0.822323,-0.124467 z"
       id="path974"
       sodipodi:nodetypes="csssssscsssssssssssssssssssssscssscssssssssssssssssssssscsssscsssssssssssssssssscccsssssssssssssssssssscssssssscssssccssssscsscsssssscsssssssssssscssssssccsssssssscsssssssscssssscscssscssscccsccsssssssssssssssssssssssssssssssssssscsscsssssssscsssssssssssssssssssssssssscsssssssssssscssssssssssssssssscsssscsssssccsccssccssscssssssssssssscsssscccssssssscsscsccscccssscccc" />
  </g>
</svg>
