<?xml version="1.0" encoding="UTF-8" standalone="no"?>
<svg
   xmlns:dc="http://purl.org/dc/elements/1.1/"
   xmlns:cc="http://creativecommons.org/ns#"
   xmlns:rdf="http://www.w3.org/1999/02/22-rdf-syntax-ns#"
   xmlns:svg="http://www.w3.org/2000/svg"
   xmlns="http://www.w3.org/2000/svg"
   xmlns:sodipodi="http://sodipodi.sourceforge.net/DTD/sodipodi-0.dtd"
   xmlns:inkscape="http://www.inkscape.org/namespaces/inkscape"
   width="187mm"
   height="58mm"
   viewBox="0 0 187 58"
   version="1.1"
   id="svg8"
   inkscape:version="1.0.1 (3bc2e813f5, 2020-09-07)"
   sodipodi:docname="awcycrossends.svg"
   inkscape:export-filename="C:\Users\v8vtw\Pictures\awcycrossends.png"
   inkscape:export-xdpi="96"
   inkscape:export-ydpi="96">
  <defs
     id="defs2">
    <rect
       x="5.3453903"
       y="236.8008"
       width="208.47023"
       height="48.643055"
       id="rect8187" />
    <pattern
       y="0"
       x="0"
       height="6"
       width="6"
       patternUnits="userSpaceOnUse"
       id="EMFhbasepattern" />
    <pattern
       y="0"
       x="0"
       height="6"
       width="6"
       patternUnits="userSpaceOnUse"
       id="EMFhbasepattern-4" />
    <pattern
       y="0"
       x="0"
       height="6"
       width="6"
       patternUnits="userSpaceOnUse"
       id="EMFhbasepattern-5" />
    <pattern
       y="0"
       x="0"
       height="6"
       width="6"
       patternUnits="userSpaceOnUse"
       id="EMFhbasepattern-0" />
    <pattern
       y="0"
       x="0"
       height="6"
       width="6"
       patternUnits="userSpaceOnUse"
       id="EMFhbasepattern-47" />
    <pattern
       y="0"
       x="0"
       height="6"
       width="6"
       patternUnits="userSpaceOnUse"
       id="EMFhbasepattern-57" />
    <pattern
       y="0"
       x="0"
       height="6"
       width="6"
       patternUnits="userSpaceOnUse"
       id="EMFhbasepattern-9" />
  </defs>
  <sodipodi:namedview
     id="base"
     pagecolor="#ffffff"
     bordercolor="#666666"
     borderopacity="1.0"
     inkscape:pageopacity="0.0"
     inkscape:pageshadow="2"
     inkscape:zoom="3.0126394"
     inkscape:cx="186.73437"
     inkscape:cy="106.19647"
     inkscape:document-units="mm"
     inkscape:current-layer="layer2"
     inkscape:document-rotation="0"
     showgrid="false"
     inkscape:window-width="1920"
     inkscape:window-height="1017"
     inkscape:window-x="-8"
     inkscape:window-y="-8"
     inkscape:window-maximized="1" />
  <metadata
     id="metadata5">
    <rdf:RDF>
      <cc:Work
         rdf:about="">
        <dc:format>image/svg+xml</dc:format>
        <dc:type
           rdf:resource="http://purl.org/dc/dcmitype/StillImage" />
        <dc:title />
      </cc:Work>
    </rdf:RDF>
  </metadata>
  <g
     inkscape:label="Words"
     inkscape:groupmode="layer"
     id="layer1"
     style="display:inline" />
  <g
     inkscape:groupmode="layer"
     id="layer2"
     inkscape:label="Logo"
     style="display:inline">
    <path
       style="fill:#000000;stroke-width:0.0153089"
       d="m 29.31523,53.464765 c -0.178904,-0.76732 -0.292311,-1.331585 -0.316221,-1.573368 -0.01395,-0.141154 -0.0456,-0.289849 -0.192197,-0.903224 -0.132029,-0.55242 -0.291353,-1.264058 -0.435282,-1.944227 -0.105043,-0.496418 -0.228081,-0.977142 -0.323091,-1.262387 -0.09356,-0.28089 -0.114588,-0.322179 -0.163949,-0.321866 -0.114462,7.19e-4 -0.70569,0.416688 -0.939715,0.661147 -0.155056,0.161971 -0.168321,0.226814 -0.334473,1.634969 -0.07239,0.613475 -0.111391,0.900888 -0.229588,1.691631 -0.131462,0.879487 -0.167915,1.231955 -0.129845,1.255483 0.02857,0.01766 -0.0014,0.03812 -0.05591,0.03812 -0.07786,0 -0.137696,-0.0643 -0.150839,-0.162081 -0.01566,-0.116551 -0.01891,-0.122049 -0.0535,-0.09075 -0.03248,0.0294 -0.05387,0.08721 -0.06941,0.187723 -0.0055,0.03576 -0.02165,0.07933 -0.03581,0.09683 l -0.02576,0.03181 -0.03943,-0.03101 c -0.02169,-0.01706 -0.0751,-0.09852 -0.118709,-0.181026 -0.09897,-0.187276 -0.125842,-0.22239 -0.171952,-0.224707 -0.03182,-0.0016 -0.04219,-0.01817 -0.07777,-0.124319 -0.126581,-0.377545 -0.138933,-0.673345 -0.06105,-1.461997 0.05771,-0.584277 0.104478,-1.134535 0.118514,-1.394343 0.01131,-0.208808 1.37e-4,-0.259016 -0.05748,-0.259016 -0.06295,0 -0.706196,0.345757 -1.665863,0.895436 -1.104252,0.632495 -1.425516,0.788541 -1.623436,0.788541 -0.06602,0 -0.08518,-0.0069 -0.122954,-0.04475 -0.05196,-0.05196 -0.056,-0.09514 -0.02029,-0.216551 0.05085,-0.172884 0.162463,-0.353013 0.273152,-0.440827 0.01848,-0.01466 0.02338,-0.03257 0.01647,-0.06011 -0.0085,-0.0339 0.0045,-0.05304 0.09575,-0.140727 0.125116,-0.120253 0.372273,-0.299315 0.593507,-0.429987 0.175948,-0.103923 0.243758,-0.158778 0.227934,-0.184381 -0.01604,-0.02595 -0.09945,-0.0065 -0.236198,0.05533 -0.137861,0.06225 -0.188688,0.06484 -0.196449,0.01004 -0.0089,-0.06296 0.02894,-0.122507 0.150061,-0.236093 0.271734,-0.254807 0.744606,-0.544321 1.193776,-0.730886 0.219921,-0.09134 0.421468,-0.193904 0.523582,-0.266433 0.03916,-0.02782 0.135604,-0.07554 0.214324,-0.106058 0.184499,-0.07154 0.374216,-0.179101 0.439745,-0.249321 0.05059,-0.0542 0.05147,-0.05744 0.04166,-0.153186 -0.0061,-0.05944 -0.0037,-0.109694 0.0062,-0.128092 0.0089,-0.01666 0.06939,-0.06572 0.134397,-0.109025 0.153467,-0.10225 0.212359,-0.158375 0.256211,-0.244152 0.08119,-0.15881 0.105309,-0.310994 0.236365,-1.491522 0.05889,-0.530454 0.14533,-1.253798 0.192089,-1.607433 0.04676,-0.353635 0.115622,-0.911643 0.153029,-1.240019 0.03741,-0.328375 0.08164,-0.714517 0.09829,-0.858093 0.06372,-0.549338 0.154241,-1.640523 0.154291,-1.859998 1.5e-5,-0.06945 0.0074,-0.122914 0.0184,-0.133954 0.04026,-0.04026 0.0882,-0.01877 0.192028,0.08609 0.05689,0.05745 0.194839,0.172221 0.306558,0.255039 0.195492,0.14492 0.203958,0.153506 0.225319,0.228506 0.305034,1.071061 0.512472,1.847151 0.972187,3.637245 0.294895,1.148295 0.299281,1.164868 0.370692,1.400762 0.07355,0.242933 0.09498,0.279334 0.191422,0.324995 0.08578,0.04062 0.148103,0.106013 0.164791,0.17292 0.0075,0.02989 3.94e-4,0.04669 -0.03116,0.07412 -0.03501,0.03044 -0.03949,0.04365 -0.03159,0.09307 0.0051,0.03168 -0.0014,0.14644 -0.01442,0.255021 -0.02765,0.231069 -0.02109,0.324848 0.04062,0.580141 0.04617,0.190991 0.386032,1.860746 0.595155,2.923995 0.06624,0.336795 0.158302,0.791469 0.204581,1.010386 0.189075,0.894408 0.415368,2.17253 0.433675,2.449421 0.01073,0.162027 0.0043,0.172298 -0.139797,0.221853 -0.133199,0.04582 -0.138039,0.04409 -0.159955,-0.05728 -0.02902,-0.134221 -0.107074,-0.449216 -0.1252,-0.505193 -0.0089,-0.02737 -0.02348,-0.04976 -0.03249,-0.04976 -0.02344,0 -0.0051,0.207156 0.04148,0.466921 0.02111,0.117878 0.03841,0.215749 0.03845,0.217493 3e-5,0.0017 -0.09065,0.03168 -0.201511,0.06653 -0.110872,0.03485 -0.209286,0.06632 -0.218706,0.06993 -0.01108,0.0043 -0.05107,-0.139026 -0.112695,-0.403323 z m -2.046297,-7.331924 c 0.227053,-0.151557 0.359561,-0.298183 0.359374,-0.397664 -2.92e-4,-0.155539 -0.292373,-1.429741 -0.343881,-1.500183 -0.04386,-0.05997 -0.06947,0.01758 -0.106821,0.32345 -0.04178,0.342168 -0.08632,0.906372 -0.09549,1.209402 -0.0074,0.244519 -0.005,0.300017 0.01537,0.348277 0.01981,0.04704 0.03195,0.05741 0.06731,0.05741 0.02373,0 0.07059,-0.01831 0.10412,-0.04068 z m 4.945589,5.129799 c -0.01323,-0.01323 -0.02405,-0.03682 -0.02405,-0.05241 0,-0.04247 -0.07013,-0.117595 -0.166661,-0.178522 -0.04726,-0.02984 -0.09851,-0.06906 -0.113873,-0.08716 -0.04424,-0.05213 -0.107236,-0.197364 -0.19986,-0.460708 -0.04722,-0.134244 -0.09246,-0.250701 -0.100553,-0.258794 -0.0095,-0.0095 -0.01143,0.02476 -0.0055,0.09482 0.0078,0.09341 0.0057,0.109533 -0.01496,0.109533 -0.05734,0 -0.138507,-0.187734 -0.29194,-0.675242 -0.306833,-0.974916 -0.690441,-2.487091 -0.980175,-3.86384 -0.128819,-0.612112 -0.36678,-1.654399 -0.627373,-2.747945 -0.193385,-0.81151 -0.272539,-1.2606 -0.236229,-1.34029 0.0182,-0.03995 0.08321,-0.08344 0.124734,-0.08344 0.0252,0 0.05584,0.07572 0.05584,0.137959 0,0.08602 0.118174,0.613629 0.156068,0.696798 0.02664,0.05847 0.04372,0.01521 0.03341,-0.08463 -0.0047,-0.04631 -0.02526,-0.185025 -0.04551,-0.308259 -0.03802,-0.231432 -0.04662,-0.37277 -0.02354,-0.38703 0.01768,-0.01096 0.05253,0.03036 0.09216,0.10921 0.06129,0.121919 0.124205,0.115447 0.124205,-0.01278 0,-0.0844 0.0112,-0.120662 0.03733,-0.120662 0.0589,0 0.121614,0.24068 0.299157,1.148166 0.165022,0.843492 0.229465,1.090305 0.289671,1.109412 0.0463,0.01469 0.06765,0.08538 0.07466,0.247111 0.0062,0.143262 0.0043,0.157056 -0.02618,0.185421 l -0.03289,0.03064 0.04522,0.01873 c 0.0788,0.03264 0.08962,0.06832 0.239332,0.789212 0.264232,1.272314 0.635345,2.881389 0.766186,3.322026 0.02251,0.07577 0.04438,0.149836 0.0486,0.164571 0.01969,0.06854 0.03479,0.01279 0.03524,-0.130126 0.0014,-0.452639 0.03195,-1.552922 0.05255,-1.894473 0.04684,-0.776455 0.07196,-1.100866 0.138176,-1.783484 0.02042,-0.210498 0.04152,-0.448168 0.04688,-0.528157 0.01565,-0.233031 0.06029,-0.31925 0.10719,-0.207001 0.01286,0.03077 0.07336,0.109394 0.134448,0.174717 0.182085,0.194706 0.404424,0.52325 1.104476,1.632061 0.52787,0.836093 0.653141,1.018041 0.700924,1.018041 0.02507,0 0.0042,-0.280414 -0.07188,-0.964459 -0.09266,-0.833417 -0.111842,-1.065699 -0.138426,-1.676323 -0.04942,-1.134844 -0.05854,-1.428704 -0.0601,-1.936573 -0.0014,-0.459632 0.002,-0.542855 0.02588,-0.641456 0.02778,-0.114462 0.02522,-0.165903 -0.01207,-0.242786 -0.01237,-0.0255 -0.02028,-0.09597 -0.02015,-0.179724 1.06e-4,-0.07578 -0.01508,-0.241031 -0.03376,-0.367226 -0.0321,-0.216893 -0.03291,-0.244117 -0.01489,-0.497539 0.02088,-0.293626 0.01273,-0.705009 -0.02398,-1.209589 -0.04324,-0.594368 -0.02938,-0.659772 0.145632,-0.687438 0.100819,-0.01594 0.133792,-0.04917 0.153446,-0.154668 0.02185,-0.117268 0.0452,-0.168279 0.07702,-0.168279 0.03877,0 0.04627,0.03261 0.03022,0.131272 -0.01986,0.122038 0.0037,0.169291 0.128615,0.258464 0.114577,0.08176 0.162471,0.135617 0.162368,0.182584 -4.5e-5,0.01781 -0.01709,0.07372 -0.0379,0.124233 -0.04602,0.111726 -0.04934,0.160743 -0.01085,0.160743 0.01522,0 0.04107,-0.01016 0.05741,-0.02247 0.01634,-0.01236 0.03809,-0.02269 0.04831,-0.02297 0.04979,-0.0013 0.05593,0.0647 0.05831,0.627177 0.003,0.707377 0.05177,2.188787 0.107375,3.260791 0.01935,0.373159 0.07032,1.140169 0.129693,1.951881 0.03003,0.41049 0.157586,1.477588 0.350614,2.933035 0.05853,0.441283 0.117792,0.916001 0.131705,1.054928 0.03343,0.333765 0.05788,0.457706 0.113953,0.57753 0.06185,0.132179 0.06093,0.165487 -0.0052,0.187303 -0.02845,0.0093 -0.0637,0.0303 -0.07834,0.04647 -0.024,0.02651 -0.02469,0.03903 -0.007,0.127539 0.02872,0.144478 0.003,0.176582 -0.08308,0.103658 -0.133066,-0.112742 -1.497593,-2.077137 -1.847489,-2.65967 -0.157499,-0.262216 -0.596723,-0.914206 -0.660812,-0.980921 -0.02597,-0.02703 -0.05224,-0.04605 -0.05837,-0.04227 -0.02994,0.0185 -0.05091,0.373613 -0.0755,1.277864 -0.04129,1.519026 -0.0618,1.931211 -0.147371,2.962268 -0.06032,0.726735 -0.07203,0.781503 -0.150422,0.703115 z m 6.264175,-1.292074 c -0.347061,-0.06296 -0.55558,-0.235687 -1.059361,-0.877508 -0.15063,-0.191906 -0.328627,-0.412354 -0.395545,-0.489884 -0.141249,-0.163649 -0.24127,-0.310958 -0.301767,-0.444444 -0.08251,-0.182053 -0.09331,-0.285913 -0.02972,-0.285913 0.01627,0 0.02958,-0.0069 0.02958,-0.01545 0,-0.02172 -0.140355,-0.280839 -0.158944,-0.293433 -0.0084,-0.0057 -0.0343,-5.35e-4 -0.05754,0.01143 -0.08638,0.04467 -0.08737,0.04331 -0.141468,-0.192479 -0.02869,-0.125064 -0.06394,-0.209528 -0.11056,-0.264939 -0.09018,-0.107179 -0.389979,-1.282974 -0.49507,-1.941657 -0.06774,-0.424568 -0.09762,-1.263078 -0.05721,-1.605315 0.01342,-0.113665 0.02767,-0.299671 0.03166,-0.413339 0.01085,-0.310799 0.0912,-0.89811 0.163249,-1.194093 0.140864,-0.57868 0.36839,-1.323666 0.457767,-1.49886 0.03453,-0.06769 0.07393,-0.09909 0.210254,-0.167603 0.151079,-0.07592 0.214133,-0.178887 0.666986,-1.089134 0.131952,-0.265227 0.273247,-0.530454 0.31399,-0.589392 0.07508,-0.10861 0.08197,-0.113942 0.325603,-0.251991 0.05142,-0.02913 0.143511,-0.09582 0.204643,-0.148195 0.06114,-0.05237 0.144654,-0.1149 0.185603,-0.13896 0.04143,-0.02434 0.105874,-0.08413 0.14533,-0.13483 0.03899,-0.0501 0.09429,-0.104767 0.122901,-0.121472 0.07727,-0.04513 0.230228,-0.03951 0.41261,0.01515 0.09164,0.02747 0.18224,0.04394 0.244942,0.04453 0.09928,9.34e-4 0.09951,0.001 0.10405,0.04722 0.0058,0.05921 -0.07892,0.192748 -0.219503,0.345937 -0.11063,0.120544 -0.235456,0.290021 -0.286187,0.388535 -0.03025,0.05876 -0.118858,0.306252 -0.118858,0.332013 0,0.0068 0.04437,0.01244 0.0986,0.01244 0.05486,0 0.103197,0.0074 0.108956,0.01675 0.02254,0.03648 -0.180262,0.393467 -0.55145,0.970679 -0.34178,0.531483 -0.570773,0.961648 -0.778272,1.461998 -0.5522,1.331539 -0.754828,2.817154 -0.560634,4.110433 0.118782,0.791059 0.542509,1.687135 1.110762,2.348982 0.137298,0.159914 0.253453,0.26254 0.355741,0.31431 0.0779,0.03943 0.332458,0.09997 0.420351,0.09997 0.07448,0 0.08113,-0.0036 0.162606,-0.08803 0.05667,-0.05871 0.129647,-0.167033 0.219194,-0.325314 0.163713,-0.289375 0.598005,-1.149123 0.796804,-1.577394 0.146723,-0.316085 0.279477,-0.573695 0.329608,-0.639606 0.03685,-0.04845 0.09124,-0.0331 0.176617,0.04987 0.04988,0.04848 0.07101,0.08401 0.08526,0.143433 0.02344,0.09772 0.01439,0.169156 -0.06054,0.477495 -0.07596,0.31258 -0.08116,0.345501 -0.06068,0.383776 0.01608,0.03004 0.01897,0.03048 0.04516,0.0068 0.04292,-0.03884 0.09125,-0.164487 0.140549,-0.365407 0.07119,-0.290126 0.100899,-0.321064 0.201451,-0.209769 0.149668,0.165664 0.159468,0.30915 0.05496,0.804631 -0.09624,0.45625 -0.294608,1.1065 -0.439009,1.439034 -0.196642,0.452838 -0.596373,0.96827 -0.913704,1.178173 -0.16431,0.108679 -0.467447,0.258668 -0.641046,0.317169 -0.152672,0.05145 -0.349014,0.06898 -0.488728,0.04363 z m 4.659409,-0.419265 c -0.0095,-0.01143 -0.03209,-0.06139 -0.0502,-0.110987 -0.02658,-0.07279 -0.03347,-0.128558 -0.03572,-0.289203 -0.0017,-0.121256 -0.01263,-0.240887 -0.02795,-0.306179 -0.01575,-0.06709 -0.02527,-0.174794 -0.02543,-0.288047 -2.59e-4,-0.182129 -0.01333,-0.240108 -0.0541,-0.240108 -0.01218,0 -0.02744,-0.01894 -0.03391,-0.0421 -0.02148,-0.07681 -0.0081,-1.268959 0.0245,-2.185342 0.05959,-1.674272 0.09359,-2.894922 0.09376,-3.365674 l 1.53e-4,-0.257972 -0.239279,-0.453891 c -0.279875,-0.530897 -0.489209,-0.915706 -0.92148,-1.693909 -0.480809,-0.865586 -0.782432,-1.474198 -0.821251,-1.65711 -0.0093,-0.04388 -0.0059,-0.05143 0.0291,-0.06475 0.04606,-0.01751 0.05021,-0.0039 -0.07746,-0.252988 -0.118174,-0.230489 -0.650481,-1.354019 -0.732423,-1.54591 -0.08011,-0.187615 -0.118178,-0.315187 -0.09988,-0.334774 0.02302,-0.02464 0.07088,0.0058 0.123002,0.07818 l 0.05226,0.07259 0.0093,-0.09185 c 0.01364,-0.133795 0.02525,-0.160743 0.06926,-0.160743 0.114322,0 0.346002,0.335787 0.718262,1.041003 0.210934,0.399603 0.432763,0.802907 0.96833,1.760522 0.7941,1.419883 0.912064,1.615058 0.944462,1.562638 0.03076,-0.04977 0.05845,-0.281327 0.06328,-0.529289 0.003,-0.151558 0.01241,-0.337561 0.02101,-0.413339 0.02761,-0.243335 0.06103,-0.891394 0.106578,-2.0667 0.0072,-0.185237 0.03423,-0.529686 0.06013,-0.765443 0.0259,-0.235757 0.05448,-0.507873 0.06352,-0.6047 0.02872,-0.307788 0.172365,-1.198066 0.246621,-1.528532 0.02096,-0.09328 0.03736,-0.137863 0.04712,-0.128099 0.03921,0.03921 0.0487,0.257752 0.05036,1.159092 9.49e-4,0.513612 0.0031,0.942452 0.0048,0.952978 0.0067,0.04075 0.03091,0.0161 0.04703,-0.04797 0.01462,-0.05808 0.073,-0.51618 0.126008,-0.988815 0.01675,-0.149374 0.0091,-0.259458 -0.02151,-0.308443 -0.01399,-0.02239 -0.0122,-0.03189 0.0089,-0.04751 0.06151,-0.04544 0.144268,-0.517922 0.129041,-0.736735 -0.0083,-0.119474 -0.0069,-0.126566 0.03164,-0.167115 0.03129,-0.03286 0.04048,-0.05821 0.04104,-0.113145 8.42e-4,-0.08261 0.03413,-0.117601 0.07757,-0.08156 0.02945,0.02445 0.02745,0.07981 -0.01415,0.39013 -0.01355,0.101038 -0.0263,0.267785 -0.02835,0.370547 -0.0035,0.171503 -0.0012,0.18869 0.02689,0.209375 0.02746,0.02021 0.03039,0.03884 0.02845,0.180573 -0.0012,0.08692 -0.01634,0.265757 -0.03367,0.397414 -0.02777,0.211019 -0.03046,0.289904 -0.02267,0.665936 0.01039,0.502633 -0.01172,1.04118 -0.06423,1.56291 -0.08485,0.842903 -0.09405,1.104976 -0.0599,1.704861 0.0083,0.145596 0.006,0.168239 -0.02271,0.22175 -0.03673,0.06852 -0.04183,0.184502 -0.0149,0.339097 0.01483,0.0852 0.01339,0.107132 -0.0112,0.169652 -0.04015,0.101938 -0.03317,0.247171 0.02341,0.487257 0.08239,0.349543 0.08696,0.493104 0.04139,1.29914 -0.05433,0.961078 -0.06696,1.2934 -0.09364,2.46473 -0.03997,1.75474 -0.08617,2.532613 -0.176879,2.977848 -0.04119,0.202207 -0.05665,0.560522 -0.03029,0.702521 0.02258,0.121642 0.01541,0.143891 -0.08725,0.271041 -0.09127,0.113041 -0.118753,0.178339 -0.158521,0.376717 -0.04448,0.221878 -0.08251,0.311647 -0.168452,0.397584 -0.0748,0.0748 -0.118732,0.09029 -0.149831,0.05282 z m 8.119568,-3.714742 c -0.07579,-0.01682 -0.292326,-0.07015 -0.481217,-0.118529 l -0.343436,-0.08796 -0.05051,-0.243718 c -0.04816,-0.232377 -0.100911,-0.43648 -0.203594,-0.787781 -0.02554,-0.0874 -0.04644,-0.184526 -0.04644,-0.215855 0,-0.06412 0.05157,-0.145659 0.142608,-0.225482 0.08903,-0.07807 0.14845,-0.08697 0.446784,-0.06689 0.523785,0.03525 0.986259,0.09851 1.081974,0.148009 0.04115,0.02128 0.05375,0.05013 0.08163,0.18687 0.0057,0.02777 0.02403,0.05876 0.04084,0.06889 0.0443,0.0267 0.09468,0.134014 0.171623,0.365532 0.09849,0.296376 0.15236,0.524032 0.140061,0.591931 -0.0055,0.03081 -0.01004,0.08001 -0.01004,0.109325 0,0.02932 -0.01062,0.06519 -0.02375,0.07971 -0.05509,0.06087 -0.532099,0.210825 -0.701157,0.220414 -0.07172,0.004 -0.15355,-0.004 -0.24538,-0.02446 z m -0.968926,-2.245856 c -0.182401,-0.03467 -0.58475,-0.955484 -0.905511,-2.072341 -0.170094,-0.592241 -0.190209,-0.719661 -0.147365,-0.933441 0.07539,-0.376207 0.329597,-0.9177 0.46965,-1.00043 0.02219,-0.01311 0.05825,-0.06013 0.08012,-0.104489 0.04362,-0.08849 0.158931,-0.215212 0.228616,-0.251246 0.03072,-0.01588 0.07822,-0.02144 0.154031,-0.01804 l 0.109614,0.005 -0.0036,-0.06124 c -0.01311,-0.224099 -0.01273,-0.228295 0.02495,-0.278516 0.03303,-0.04403 0.03538,-0.05696 0.02351,-0.130126 -0.02733,-0.168599 -0.01588,-0.330668 0.03578,-0.50653 0.119648,-0.407315 0.163387,-0.784089 0.163889,-1.411778 4.13e-4,-0.507063 -0.0076,-0.599731 -0.06934,-0.8015 -0.01637,-0.05351 -0.02977,-0.121067 -0.02977,-0.150124 0,-0.04799 0.0063,-0.05566 0.06979,-0.0837 0.03839,-0.01698 0.07391,-0.04161 0.07896,-0.05473 0.0051,-0.01312 -0.0074,-0.05421 -0.0277,-0.09132 -0.03468,-0.0635 -0.04289,-0.133012 -0.02679,-0.227039 0.004,-0.02381 -0.0032,-0.03067 -0.03303,-0.03085 -0.02916,-1.83e-4 -0.03944,-0.0093 -0.04318,-0.03827 -0.0075,-0.05781 -0.04446,-0.0763 -0.152674,-0.0763 -0.06839,0 -0.13972,0.01393 -0.235233,0.04593 -0.201394,0.06747 -0.205834,0.06611 -0.256099,-0.07821 -0.04633,-0.133013 -0.06585,-0.166732 -0.09654,-0.166732 -0.03367,0 -0.143035,-0.0538 -0.280876,-0.138163 -0.338923,-0.207446 -0.763832,-0.338874 -1.170418,-0.362022 -0.301011,-0.01714 -0.525172,0.05521 -0.682505,0.220252 -0.08773,0.09204 -0.135935,0.111218 -0.281936,0.112211 -0.05479,3.67e-4 -0.133871,0.01242 -0.175748,0.02679 -0.09169,0.03145 -0.146297,0.108933 -0.185466,0.263158 -0.02457,0.09672 -0.02413,0.263675 8.42e-4,0.324381 0.01468,0.0357 -0.03334,0.07938 -0.123737,0.112534 -0.117864,0.04322 -0.135774,0.06769 -0.13737,0.187635 -10e-4,0.07717 -0.01431,0.137299 -0.05318,0.240656 -0.0485,0.128936 -0.0518,0.149571 -0.05143,0.321486 3.84e-4,0.177938 0.0031,0.19284 0.08648,0.474576 0.130305,0.440275 0.249048,0.789112 0.30942,0.908995 0.02983,0.05925 0.09806,0.156366 0.151617,0.215827 0.05355,0.05946 0.116581,0.144153 0.140059,0.1882 0.05575,0.104593 0.104085,0.155382 0.20681,0.217301 0.268717,0.161972 0.539227,0.175411 0.612079,0.03041 0.03082,-0.06133 0.03975,-0.410623 0.01584,-0.619236 -0.04466,-0.389577 -0.146407,-0.796062 -0.199266,-0.796062 -0.02041,0 -0.05731,0.0759 -0.09287,0.191052 -0.04023,0.130287 -0.09384,0.1824 -0.230184,0.223814 -0.0868,0.02636 -0.114427,0.02914 -0.148628,0.01498 -0.04662,-0.01931 -0.152085,-0.166199 -0.20324,-0.283069 -0.04109,-0.09387 -0.03488,-0.160115 0.03908,-0.41656 0.09646,-0.334469 0.137891,-0.398223 0.31819,-0.489603 0.211913,-0.107409 0.311807,-0.115876 0.788748,-0.0669 0.540765,0.05553 0.753966,0.126854 1.138621,0.380898 0.190811,0.12602 0.258352,0.196727 0.30289,0.317084 0.01833,0.04951 0.06476,0.157685 0.103197,0.240376 0.08876,0.190959 0.08663,0.225862 -0.02981,0.488117 -0.0472,0.106302 -0.0935,0.221831 -0.102908,0.256736 -0.01417,0.05265 -0.05802,0.103358 -0.257364,0.297651 -0.132151,0.128805 -0.300007,0.286861 -0.373014,0.351234 -0.131893,0.116296 -0.196402,0.19689 -0.196402,0.245377 0,0.03985 -0.116868,0.156457 -0.238055,0.237513 -0.216502,0.144806 -0.45059,0.188563 -0.838152,0.156673 -0.552825,-0.04549 -0.969779,-0.167554 -1.21247,-0.354964 C 46.518822,38.69297 46.482925,38.65608 46.285485,38.419679 46.180004,38.29338 45.993207,38.08104 45.870386,37.94781 45.591722,37.645533 45.493767,37.525863 45.34588,37.307032 c -0.141221,-0.208965 -0.220215,-0.367903 -0.2831,-0.569614 -0.06584,-0.211153 -0.05846,-0.319555 0.03779,-0.555699 0.280289,-0.687657 0.82775,-1.521818 1.173264,-1.787684 0.264515,-0.203541 0.770143,-0.41778 1.302023,-0.55168 0.414657,-0.104385 0.75813,-0.153245 1.253495,-0.178292 0.527569,-0.02667 0.716764,-0.0078 1.502104,0.149606 0.763467,0.153054 0.931632,0.209295 1.148165,0.383994 0.116614,0.09408 0.512563,0.491362 0.614813,0.616876 0.173464,0.212934 0.387677,0.799611 0.473227,1.296054 0.04118,0.238953 0.04815,0.621827 0.01564,0.857862 -0.01953,0.141739 -0.01902,0.169142 0.0054,0.295803 0.02695,0.13946 0.02694,0.139625 -0.0057,0.174356 -0.01945,0.02071 -0.03828,0.06932 -0.04657,0.12021 -0.01675,0.102919 -0.04232,0.155543 -0.140268,0.288616 -0.09619,0.130694 -0.118663,0.197661 -0.129801,0.3868 -0.0176,0.29884 -0.110929,0.576738 -0.21652,0.644705 -0.110548,0.07116 -0.151954,0.310783 -0.102457,0.592985 0.0093,0.05305 0.0065,0.05913 -0.03981,0.0842 -0.09474,0.05137 -0.149488,0.112037 -0.214513,0.237684 -0.09385,0.181326 -0.172925,0.292736 -0.296406,0.417577 -0.132176,0.133632 -0.252395,0.214613 -0.350907,0.236383 -0.117282,0.02592 -0.193641,0.07295 -0.30869,0.190115 -0.109798,0.111818 -0.171272,0.212853 -0.18646,0.306439 -0.01626,0.100219 0.06627,0.224326 0.3842,0.577722 0.213681,0.237521 0.329285,0.399545 0.367796,0.515493 0.03987,0.120012 0.08509,0.379081 0.08509,0.487391 0,0.12686 -0.0528,0.355536 -0.09739,0.421777 -0.04314,0.06409 -0.08701,0.08466 -0.243252,0.114023 -0.192889,0.03625 -0.226983,0.06101 -0.322228,0.234064 -0.07056,0.128184 -0.149903,0.215076 -0.235887,0.258308 -0.06439,0.03237 -0.146743,0.04788 -0.20029,0.0377 z M 33.120364,32.951528 c -1.071958,-1.063363 -1.420247,-1.395481 -1.506232,-1.436298 -0.03543,-0.01682 -0.0934,-0.028 -0.14514,-0.02801 -0.10607,-10e-6 -0.189552,0.04497 -0.334452,0.180181 -0.155205,0.144832 -0.232837,0.203633 -0.322944,0.244601 -0.07911,0.03597 -0.11891,0.04446 -0.404271,0.08628 -0.243797,0.03572 -0.435519,0.125953 -0.646264,0.30416 -0.06056,0.05121 -0.117662,0.09311 -0.126894,0.09311 -0.02237,0 -0.826965,-0.795823 -0.826965,-0.817951 0,-0.0095 0.0453,-0.06184 0.100658,-0.116332 0.188345,-0.185359 0.299517,-0.347059 0.341763,-0.497097 0.0095,-0.03368 0.02768,-0.129618 0.04043,-0.213197 0.01403,-0.09202 0.03564,-0.172128 0.05478,-0.203086 0.01738,-0.02812 0.182587,-0.195616 0.367132,-0.372219 0.184546,-0.176603 0.334595,-0.32633 0.333443,-0.332726 -0.0012,-0.0063 -0.442111,-0.454641 -0.979909,-0.996102 -0.537797,-0.541462 -0.977814,-0.989263 -0.977814,-0.99511 0,-0.0059 0.626891,-0.637497 1.393091,-1.403662 l 1.393091,-1.393027 0.664408,0.664276 0.664407,0.664276 0.01681,-0.08258 c 0.0092,-0.04543 0.05398,-0.266933 0.09942,-0.492245 0.09647,-0.478352 0.138177,-0.588101 0.273789,-0.720473 0.123995,-0.121029 0.250371,-0.179828 0.646425,-0.300752 0.198729,-0.06068 0.322478,-0.192137 0.360746,-0.38322 0.048,-0.239704 0.137956,-0.39908 0.326106,-0.577803 0.144362,-0.13713 0.287815,-0.220641 0.493568,-0.287331 0.197351,-0.06396 0.2782,-0.109359 0.347489,-0.195092 0.06901,-0.0854 0.08145,-0.11086 0.142024,-0.290715 0.08528,-0.25324 0.216701,-0.451994 0.392517,-0.593634 0.123993,-0.0999 0.204666,-0.135437 0.366856,-0.16164 0.166017,-0.02682 0.274288,-0.0721 0.362117,-0.151456 0.08301,-0.075 0.132322,-0.181693 0.169616,-0.367029 0.04292,-0.213303 0.102481,-0.327195 0.244703,-0.467984 0.141175,-0.139746 0.289398,-0.221327 0.52986,-0.29163 0.207008,-0.06053 0.267161,-0.09009 0.36005,-0.176975 0.08598,-0.08042 0.129985,-0.174458 0.158742,-0.339189 0.03039,-0.174088 0.14966,-0.390974 0.289778,-0.526953 0.08274,-0.0803 0.333152,-0.200068 0.524644,-0.250933 0.30259,-0.08038 0.365759,-0.147535 0.441337,-0.469211 0.04524,-0.192574 0.06732,-0.239734 0.188593,-0.402816 0.145923,-0.196237 0.277625,-0.299343 0.461415,-0.36123 0.184626,-0.06217 0.423834,-0.0404 0.613794,0.05586 0.10899,0.05523 0.332976,0.2353 0.555166,0.446314 0.337426,0.320458 0.440296,0.388133 0.589988,0.388133 0.07383,0 0.101893,-0.008 0.157527,-0.04498 0.168295,-0.111841 0.826731,-0.744651 2.494144,-2.397065 1.289104,-1.27751 1.442887,-1.423723 1.477209,-1.404515 0.122908,0.06878 0.893113,0.801527 1.194942,1.136821 0.242875,0.269804 0.234368,0.232836 0.09049,0.393175 -0.06665,0.07428 -0.89997,0.916953 -1.85181,1.872608 -0.951841,0.955657 -1.770772,1.787421 -1.819848,1.848363 -0.09753,0.121114 -0.124218,0.195861 -0.10816,0.302952 0.01278,0.08521 0.135245,0.247032 0.428367,0.566011 0.370605,0.403303 0.425704,0.503427 0.444412,0.807605 0.02144,0.348576 -0.115027,0.646023 -0.376514,0.820634 -0.113653,0.07589 -0.224467,0.118108 -0.4058,0.154587 -0.16907,0.03401 -0.24945,0.07289 -0.337067,0.163042 -0.07838,0.08066 -0.121784,0.18669 -0.1372,0.335225 -0.02819,0.271559 -0.205947,0.515675 -0.475667,0.653212 -0.139478,0.07112 -0.28063,0.124727 -0.476339,0.180885 -0.175052,0.05023 -0.251246,0.15146 -0.31853,0.423181 -0.04309,0.174015 -0.09748,0.284658 -0.202786,0.412507 -0.156365,0.189842 -0.36715,0.32494 -0.608467,0.389983 -0.28811,0.07765 -0.374539,0.169184 -0.505207,0.535017 -0.173535,0.48585 -0.340938,0.64037 -0.788393,0.727728 -0.257647,0.0503 -0.396494,0.169071 -0.45147,0.386183 -0.05704,0.225256 -0.08969,0.322765 -0.148674,0.443981 -0.066,0.135621 -0.103254,0.180124 -0.220379,0.26325 -0.100507,0.07133 -0.20706,0.107606 -0.541967,0.184513 -0.155768,0.03577 -0.285581,0.06708 -0.288475,0.06957 -0.0029,0.0025 -0.03183,0.12388 -0.06431,0.269738 -0.03248,0.145858 -0.06961,0.295022 -0.08251,0.331474 -0.08047,0.227265 -0.221011,0.380893 -0.444962,0.486383 -0.103981,0.04898 -0.244795,0.0918 -0.574083,0.174572 -0.239967,0.06032 -0.439443,0.11281 -0.44328,0.116641 -0.0038,0.0038 0.24414,0.258156 0.551063,0.565166 l 0.558041,0.558198 -1.331816,1.332826 c -0.7325,0.733053 -1.364332,1.360411 -1.404075,1.394126 l -0.07225,0.0613 z m 1.67453,-0.558684 c 0.180454,-0.09887 0.285955,-0.277094 0.300701,-0.507988 0.01405,-0.220022 -0.05855,-0.413854 -0.202096,-0.539536 -0.265039,-0.232061 -0.63567,-0.14434 -0.800663,0.189502 -0.05702,0.115373 -0.05765,0.118669 -0.05765,0.30115 0,0.169713 0.0035,0.191777 0.04252,0.275284 0.108044,0.230699 0.289399,0.351676 0.510524,0.340545 0.08961,-0.0045 0.126503,-0.01504 0.206669,-0.05896 z m -1.51259,-1.140435 c 0.433213,-0.127259 0.728475,-0.569397 0.670069,-1.003387 -0.0291,-0.216212 -0.131293,-0.416707 -0.286779,-0.562626 -0.290796,-0.272903 -0.689923,-0.33358 -1.046481,-0.159088 -0.159489,0.07805 -0.340779,0.259346 -0.418798,0.418813 -0.171455,0.350444 -0.115783,0.74698 0.144803,1.031362 0.143271,0.156355 0.336501,0.264179 0.536665,0.299463 0.102192,0.01802 0.296104,0.0061 0.400521,-0.02454 z m 2.943151,-3.444501 c 0.112557,-0.03817 0.249745,-0.181801 0.327779,-0.343165 0.05535,-0.114461 0.0615,-0.13887 0.0615,-0.244308 v -0.117142 l -0.09013,-0.120956 C 36.349839,26.747818 35.87566,26.240846 35.483658,25.869406 35.20624,25.606541 35.119254,25.55311 34.94888,25.540919 c -0.294342,-0.02106 -0.553557,0.179818 -0.614845,0.476473 -0.03877,0.187661 0.0015,0.290188 0.208014,0.529731 0.201799,0.23406 0.902852,0.944972 1.043229,1.0579 0.260357,0.209446 0.446702,0.268504 0.640177,0.202885 z m 1.286649,-1.282178 c 0.11213,-0.05134 0.221558,-0.167698 0.292219,-0.310737 0.05526,-0.111876 0.05804,-0.124662 0.05731,-0.263749 -5.36e-4,-0.100853 -0.0085,-0.163961 -0.02599,-0.203537 -0.09616,-0.218757 -1.167103,-1.275905 -1.481157,-1.462067 -0.05764,-0.03416 -0.08653,-0.04072 -0.17688,-0.04012 -0.390104,0.0025 -0.691354,0.476364 -0.522004,0.820982 0.0582,0.118412 0.307934,0.401322 0.714051,0.808875 0.449834,0.451424 0.655506,0.624819 0.80971,0.682632 0.07815,0.02931 0.230529,0.01452 0.332747,-0.03227 z m 1.277102,-1.260349 c 0.140383,-0.0687 0.303749,-0.27387 0.337241,-0.423532 0.03046,-0.13609 0.01384,-0.266028 -0.0468,-0.366098 -0.231356,-0.381735 -0.950922,-1.127337 -1.35993,-1.409135 -0.0981,-0.06759 -0.118467,-0.07543 -0.213652,-0.08224 -0.198973,-0.01424 -0.360817,0.0654 -0.497443,0.244769 -0.127731,0.167689 -0.163424,0.364002 -0.09567,0.526168 0.04139,0.09906 0.211875,0.288528 0.688178,0.764788 0.454428,0.454383 0.718986,0.694546 0.835358,0.758322 0.07502,0.04111 0.255704,0.03444 0.352719,-0.01304 z m 1.318608,-1.324761 c 0.105955,-0.05198 0.255789,-0.193162 0.30401,-0.286449 0.0267,-0.05164 0.03715,-0.101476 0.04177,-0.199015 0.0061,-0.128557 0.0054,-0.131277 -0.05249,-0.225696 -0.105378,-0.17172 -0.311093,-0.402239 -0.762641,-0.854611 -0.585156,-0.586225 -0.675466,-0.65151 -0.901256,-0.65151 -0.17858,0 -0.30173,0.04928 -0.406097,0.162504 -0.162925,0.176754 -0.193109,0.447151 -0.07479,0.670025 0.06786,0.127823 0.239356,0.32607 0.61375,0.709466 0.585938,0.600027 0.774497,0.731432 1.036086,0.722031 0.0889,-0.0032 0.134426,-0.01375 0.201674,-0.04675 z m 1.301279,-1.275231 c 0.104743,-0.05308 0.236114,-0.17932 0.285301,-0.274169 0.03282,-0.0633 0.03983,-0.09794 0.04043,-0.199841 6.6e-4,-0.112568 -0.0043,-0.13346 -0.05732,-0.24071 -0.06669,-0.134944 -0.2655,-0.354612 -0.881586,-0.97409 -0.382652,-0.384759 -0.44969,-0.435985 -0.635169,-0.485373 -0.201215,-0.05358 -0.420437,0.01427 -0.560584,0.173482 -0.137247,0.155921 -0.188594,0.357072 -0.126575,0.495856 0.06847,0.1532 0.378435,0.522595 0.799961,0.953315 0.51173,0.522892 0.698622,0.639327 0.968408,0.60332 0.04848,-0.0065 0.123689,-0.02978 0.167132,-0.05179 z m -2.321955,9.837337 -1.393021,-1.393083 0.558042,-0.5582 c 0.306923,-0.30701 0.554901,-0.5613 0.551065,-0.565092 -0.0038,-0.0038 -0.188779,-0.0526 -0.41098,-0.108448 -0.2222,-0.05585 -0.427215,-0.111252 -0.455588,-0.123113 -0.0496,-0.02072 -0.172941,-0.09932 -0.247908,-0.157959 l -0.03587,-0.02807 0.07852,-0.136636 c 0.04319,-0.07515 0.08891,-0.174522 0.101592,-0.220832 0.0127,-0.04631 0.02804,-0.09348 0.0341,-0.104824 0.0061,-0.01131 0.0867,-0.03991 0.179224,-0.06348 0.230129,-0.05863 0.376717,-0.115932 0.446388,-0.174485 0.03224,-0.02709 0.09075,-0.06779 0.130045,-0.09042 0.03929,-0.02263 0.09678,-0.07049 0.127751,-0.106324 0.12575,-0.145515 0.285814,-0.469402 0.346407,-0.700952 0.01866,-0.07132 0.03491,-0.131294 0.03611,-0.133288 0.0012,-0.002 0.06722,-0.02013 0.146719,-0.04029 0.268013,-0.06798 0.474318,-0.184886 0.669972,-0.379623 0.180914,-0.180068 0.296901,-0.370164 0.415166,-0.680433 l 0.06485,-0.170133 0.07883,-0.01782 c 0.252576,-0.05708 0.524925,-0.221347 0.760962,-0.458977 0.232271,-0.233836 0.353652,-0.433121 0.411613,-0.675793 0.01655,-0.06927 0.03212,-0.127188 0.0346,-0.12869 0.0025,-0.0015 0.06626,-0.02573 0.141737,-0.05383 l 0.137219,-0.0511 0.05675,0.06589 c 0.108252,0.125684 0.132907,0.198313 0.229339,0.675455 0.04969,0.245856 0.09243,0.449088 0.09497,0.451629 0.0025,0.0025 0.301919,-0.293418 0.665285,-0.657688 l 0.660667,-0.662306 1.396806,1.396866 c 0.768243,0.76828 1.393656,1.400179 1.389805,1.404223 -0.0038,0.004 -0.451001,0.452292 -0.993666,0.996108 l -0.986666,0.988755 0.03751,0.03536 c 0.409732,0.386247 0.662305,0.634016 0.686019,0.672968 0.0173,0.02842 0.04042,0.118466 0.05561,0.216565 0.04554,0.294161 0.107156,0.412795 0.337889,0.650572 0.07944,0.08187 0.144437,0.155849 0.144437,0.164405 0,0.02039 -0.806313,0.815889 -0.82699,0.815889 -0.0088,0 -0.0794,-0.05162 -0.157044,-0.114715 -0.233538,-0.189769 -0.405478,-0.260277 -0.730457,-0.299544 -0.272049,-0.03287 -0.354999,-0.07462 -0.600487,-0.302242 -0.160274,-0.148608 -0.238713,-0.191917 -0.346813,-0.191486 -0.04738,1.83e-4 -0.111045,0.01096 -0.141476,0.02387 -0.08067,0.03429 -0.392041,0.330918 -1.486509,1.416103 -0.537115,0.532558 -0.981732,0.968286 -0.988038,0.968286 -0.0063,0 -0.638328,-0.626887 -1.404489,-1.393084 z m 1.12518,-0.0913 c 0.161017,-0.08153 0.26767,-0.214462 0.313183,-0.39034 0.104916,-0.405413 -0.148916,-0.804326 -0.511789,-0.804326 -0.200656,0 -0.370371,0.114623 -0.470915,0.318064 -0.05702,0.115373 -0.05765,0.118668 -0.05765,0.30115 0,0.169021 0.0035,0.191996 0.04185,0.273843 0.0769,0.16415 0.196923,0.279534 0.339281,0.326168 0.09237,0.03026 0.261482,0.01826 0.346037,-0.02456 z m 1.578455,-1.158045 c 0.206102,-0.06057 0.413291,-0.211501 0.528403,-0.384924 0.03164,-0.04766 0.07825,-0.145508 0.103612,-0.217449 0.03992,-0.113284 0.04612,-0.152333 0.04633,-0.291546 3.82e-4,-0.270424 -0.08063,-0.459862 -0.28247,-0.660525 -0.08688,-0.08637 -0.147399,-0.131199 -0.230836,-0.170998 -0.164034,-0.07824 -0.231056,-0.09302 -0.419267,-0.09247 -0.133874,3.98e-4 -0.188798,0.0075 -0.267905,0.03487 -0.290732,0.100438 -0.516924,0.325406 -0.604532,0.601254 -0.07128,0.224456 -0.0657,0.412554 0.01856,0.624665 0.122875,0.30933 0.411007,0.535948 0.746716,0.587302 0.07747,0.01185 0.274325,-0.0046 0.3614,-0.03018 z M 32.385391,24.39053 c -0.131397,-0.139292 -0.191422,-0.262431 -0.219322,-0.449925 -0.01187,-0.07977 -0.03134,-0.16824 -0.04325,-0.196599 -0.06889,-0.163938 -0.201886,-0.259059 -0.424943,-0.303929 -0.268575,-0.05403 -0.432901,-0.139225 -0.57411,-0.297659 -0.183812,-0.206233 -0.25513,-0.494147 -0.203148,-0.820118 0.0312,-0.195628 0.104235,-0.309652 0.411872,-0.642974 0.229088,-0.248218 0.32599,-0.362394 0.38948,-0.458917 0.05053,-0.07682 0.05516,-0.09313 0.05516,-0.194667 v -0.110815 l -0.118005,-0.142128 c -0.0649,-0.07817 -0.900398,-0.927473 -1.856654,-1.88734 -0.956255,-0.959866 -1.779343,-1.79222 -1.829081,-1.849675 -0.08588,-0.0992 -0.08932,-0.106278 -0.06844,-0.140513 0.110422,-0.180949 1.218503,-1.270067 1.380272,-1.356642 0.03935,-0.02106 0.158793,0.09229 1.542757,1.463928 1.648329,1.633654 2.274386,2.234886 2.433282,2.336791 0.05496,0.03525 0.08527,0.04365 0.157525,0.04365 0.148241,0 0.254156,-0.07057 0.604962,-0.403054 0.208914,-0.198004 0.43362,-0.377577 0.539821,-0.431393 0.251823,-0.127608 0.561314,-0.119236 0.782717,0.02118 0.11213,0.07111 0.181558,0.139952 0.295939,0.293434 0.124717,0.167352 0.130795,0.180406 0.184579,0.396414 0.04953,0.198913 0.06712,0.241231 0.130113,0.312974 0.06526,0.07432 0.144016,0.113341 0.313454,0.155302 0.189689,0.04698 0.415575,0.155116 0.511581,0.244918 0.08803,0.08234 0.191275,0.229498 0.177105,0.252426 -0.0052,0.0084 -0.01817,0.05787 -0.02876,0.109787 l -0.01925,0.09441 -0.167287,0.05545 c -0.09201,0.03049 -0.213608,0.07777 -0.270225,0.105067 -0.421377,0.203093 -0.747354,0.597378 -0.824753,0.997578 -0.01062,0.05473 -0.02663,0.107097 -0.03566,0.116371 -0.009,0.0092 -0.07186,0.02738 -0.139613,0.04024 -0.25573,0.04852 -0.40975,0.137888 -0.65201,0.37832 -0.194163,0.192698 -0.323985,0.384266 -0.410391,0.605581 -0.03287,0.0842 -0.06446,0.171964 -0.0702,0.195035 -0.0083,0.0333 -0.0235,0.04525 -0.07387,0.05794 -0.545313,0.137533 -1.069686,0.643523 -1.202628,1.160469 l -0.02492,0.09688 -0.132813,0.04995 c -0.07305,0.02748 -0.192267,0.08549 -0.264931,0.128918 -0.07267,0.04343 -0.137649,0.07896 -0.144407,0.07896 -0.0068,0 -0.05713,-0.04753 -0.111934,-0.105632 z m 1.19979,-1.695035 c 0.156347,-0.04895 0.344009,-0.200226 0.702916,-0.566616 0.400209,-0.408555 0.714248,-0.778727 0.802151,-0.945537 0.123172,-0.233739 -0.07007,-0.588937 -0.371604,-0.683046 -0.162517,-0.05073 -0.292131,-0.03397 -0.478804,0.0619 -0.08111,0.04165 -0.166702,0.119796 -0.509295,0.464957 -0.814848,0.820957 -0.889453,0.91861 -0.889453,1.16423 0,0.152351 0.03677,0.236447 0.153727,0.351545 0.168684,0.166011 0.37617,0.21963 0.590362,0.152565 z m 2.6671,-4.253064 c -0.290343,-0.09079 -0.450811,-0.397822 -0.586395,-1.122007 -0.0874,-0.4668 -0.173932,-0.719718 -0.275493,-0.805176 -0.07029,-0.05914 -0.195256,-0.09873 -0.369836,-0.117163 -0.08728,-0.0092 -0.534143,-0.02306 -0.993027,-0.03077 -0.501027,-0.0084 -0.86797,-0.02091 -0.918532,-0.03129 -0.12996,-0.02665 -0.258711,-0.09586 -0.362141,-0.19463 -0.106521,-0.10173 -0.143226,-0.189014 -0.142826,-0.33963 6.73e-4,-0.253623 0.0964,-0.440627 0.375967,-0.734474 0.293157,-0.308131 0.459634,-0.453503 0.546166,-0.476926 0.126852,-0.03434 0.05911,-0.124797 -0.276405,-0.369111 -0.430213,-0.31327 -0.614985,-0.474284 -0.805069,-0.701561 -0.416977,-0.498566 -0.856336,-1.364226 -0.950395,-1.872545 -0.09356,-0.505588 -0.122342,-1.893223 -0.0536,-2.5834835 0.02185,-0.2194225 0.08175,-0.5827948 0.137818,-0.836049 0.271779,-1.2276366 0.741867,-2.1294988 1.506661,-2.8905171 0.508475,-0.505967 1.024971,-0.7934084 1.761378,-0.9802469 0.614049,-0.1557941 1.153492,-0.2128955 2.235096,-0.2365876 0.917831,-0.020106 1.152115,-0.036819 1.829411,-0.1305092 0.493483,-0.068271 0.683519,-0.083691 1.033443,-0.083875 0.458781,-2.493e-4 0.837141,0.056221 1.243229,0.1855561 1.144482,0.3645057 1.943476,1.011402 2.40833,1.9498741 0.156947,0.3168548 0.255516,0.6387546 0.316421,1.033349 0.03816,0.2472131 0.03777,0.9406315 -7.19e-4,1.255328 -0.104859,0.8576392 -0.381668,1.9761061 -0.63979,2.5851241 -0.09826,0.231837 -0.254789,0.531902 -0.505365,0.968784 -0.427002,0.744474 -0.470456,0.83189 -0.440944,0.887033 0.02267,0.04235 0.193445,0.150907 0.354373,0.225256 0.365364,0.168798 0.562863,0.369968 0.563278,0.57375 4.15e-4,0.200036 -0.22098,0.615418 -0.450142,0.84458 -0.184784,0.184784 -0.552536,0.398449 -1.049977,0.610039 -0.283051,0.120396 -0.408408,0.186553 -0.479894,0.253261 -0.05387,0.05027 -0.127423,0.195688 -0.453769,0.897113 -0.471592,1.013609 -0.607941,1.274724 -0.769893,1.474369 -0.137121,0.169038 -0.38499,0.309975 -0.54516,0.309975 -0.182628,0 -0.282313,-0.158204 -0.437665,-0.694589 -0.08518,-0.294123 -0.127299,-0.407401 -0.155481,-0.418214 -0.03274,-0.01257 -0.07538,0.0334 -0.158291,0.170663 -0.125177,0.20723 -0.373758,0.421771 -0.576639,0.49768 -0.172635,0.06459 -0.300075,0.03129 -0.518334,-0.135431 -0.06736,-0.05145 -0.134135,-0.09358 -0.148393,-0.09363 -0.03885,-1.07e-4 -0.07027,0.05457 -0.114311,0.198943 -0.04968,0.162854 -0.128139,0.320324 -0.251504,0.504756 -0.179297,0.268052 -0.335796,0.403411 -0.524506,0.453658 -0.09808,0.02612 -0.272455,0.02578 -0.357089,-6.83e-4 z m 1.483072,-3.179127 c 0.197146,-0.04111 0.389295,-0.177444 0.426875,-0.30287 0.03223,-0.107559 0.04676,-0.113342 0.316985,-0.126075 0.24383,-0.01154 0.318936,-0.02505 0.417991,-0.07545 0.120282,-0.06121 0.195095,-0.199374 0.174372,-0.322037 -0.04678,-0.276922 -0.6511,-1.080992 -0.859327,-1.143379 -0.09014,-0.02701 -0.21735,-0.02263 -0.288609,0.0099 -0.07947,0.0363 -0.168718,0.134741 -0.289887,0.319752 -0.202819,0.309677 -0.433882,0.778881 -0.489759,0.994513 -0.10921,0.42145 0.175553,0.732349 0.591359,0.645638 z m -1.419145,-1.638018 c 0.632417,-0.07711 1.15714,-0.448703 1.406607,-0.996122 0.172718,-0.379005 0.250141,-0.809947 0.26494,-1.474686 C 38.016691,9.8548661 37.781254,9.0087214 37.248394,8.497235 37.109518,8.3639292 36.994999,8.2831934 36.8214,8.1962065 36.170126,7.8698653 35.324513,7.8714489 34.66978,8.2002465 34.182002,8.4451952 33.811069,8.8538545 33.662684,9.30977 c -0.142866,0.4389615 -0.14011,1.50499 0.0054,2.082331 0.174505,0.692451 0.567241,1.373923 1.021078,1.771759 0.263422,0.230918 0.651573,0.412782 0.984473,0.461266 0.133612,0.01946 0.483622,0.01955 0.642588,1.7e-4 z m 3.816384,-0.436078 c 0.459563,-0.09469 0.797589,-0.392793 0.935869,-0.825328 0.0655,-0.204896 0.08268,-0.341948 0.07418,-0.592319 -0.01463,-0.431404 -0.166523,-0.907802 -0.37156,-1.165346 -0.174516,-0.219207 -0.474476,-0.317865 -0.82697,-0.271993 -0.351224,0.04571 -0.639332,0.188731 -0.895969,0.444787 -0.493924,0.492802 -0.647916,1.217729 -0.374156,1.761347 0.160707,0.319119 0.488652,0.567909 0.857086,0.650213 0.130475,0.02914 0.457047,0.0284 0.601519,-0.0014 z"
       id="path880" />
  </g>
  <text
     xml:space="preserve"
     id="text8185"
     style="font-style:normal;font-weight:normal;font-size:10.5833px;line-height:1.25;font-family:sans-serif;white-space:pre;shape-inside:url(#rect8187);fill:#000000;fill-opacity:1;stroke:none;" />
</svg>
