<?xml version="1.0" encoding="UTF-8" standalone="no"?>
<svg
   xmlns:dc="http://purl.org/dc/elements/1.1/"
   xmlns:cc="http://creativecommons.org/ns#"
   xmlns:rdf="http://www.w3.org/1999/02/22-rdf-syntax-ns#"
   xmlns:svg="http://www.w3.org/2000/svg"
   xmlns="http://www.w3.org/2000/svg"
   xmlns:sodipodi="http://sodipodi.sourceforge.net/DTD/sodipodi-0.dtd"
   xmlns:inkscape="http://www.inkscape.org/namespaces/inkscape"
   sodipodi:docname="awcyscratch.svg"
   inkscape:version="1.0.1 (3bc2e813f5, 2020-09-07)"
   id="svg8"
   version="1.1"
   viewBox="0 0 187 58"
   height="58mm"
   width="187mm">
  <defs
     id="defs2">
    <pattern
       id="EMFhbasepattern"
       patternUnits="userSpaceOnUse"
       width="6"
       height="6"
       x="0"
       y="0" />
  </defs>
  <sodipodi:namedview
     inkscape:window-maximized="0"
     inkscape:window-y="0"
     inkscape:window-x="214"
     inkscape:window-height="1041"
     inkscape:window-width="1274"
     showgrid="false"
     inkscape:document-rotation="0"
     inkscape:current-layer="layer1"
     inkscape:document-units="mm"
     inkscape:cy="316.73974"
     inkscape:cx="258.74052"
     inkscape:zoom="0.7"
     inkscape:pageshadow="2"
     inkscape:pageopacity="0.0"
     borderopacity="1.0"
     bordercolor="#666666"
     pagecolor="#ffffff"
     id="base" />
  <metadata
     id="metadata5">
    <rdf:RDF>
      <cc:Work
         rdf:about="">
        <dc:format>image/svg+xml</dc:format>
        <dc:type
           rdf:resource="http://purl.org/dc/dcmitype/StillImage" />
        <dc:title />
      </cc:Work>
    </rdf:RDF>
  </metadata>
  <g
     id="layer1"
     inkscape:groupmode="layer"
     inkscape:label="Layer 1">
    <path
       id="path846"
       d="m 25.55071,53.862168 c 0.01178,-0.443623 -0.180964,-2.80837 -0.428315,-5.25501 -0.247352,-2.446635 -0.458987,-5.235156 -0.470301,-6.1967 -0.01132,-0.961553 -0.180517,-2.687664 -0.375999,-3.835788 l -0.355403,-2.087533 -0.746884,0.327006 c -0.41079,0.179847 -1.241557,0.654096 -1.846153,1.053879 -1.245529,0.823603 -1.543244,1.594258 -2.666467,6.902319 -1.188113,5.61469 -2.624306,7.802848 -3.741501,5.70046 -0.569181,-1.071102 -0.486727,-2.291954 0.424174,-6.280634 0.729101,-3.192602 0.735772,-3.783903 0.03871,-3.431395 -1.83615,0.928565 -6.5018301,2.783643 -8.0574727,3.203656 -1.554854,0.419804 -1.9195303,0.435659 -2.1233793,0.09257 -0.6068375,-1.02142 1.2802169,-3.03523 3.1605325,-3.372854 C 8.7907356,40.605595 9.1178579,40.406055 9.0893307,40.23954 9.05963,40.066175 8.8089119,40.054895 8.5027145,40.213148 8.1089769,40.416629 7.990676,40.375482 8.0541174,40.057244 c 0.1631495,-0.81855 1.9414092,-1.647288 6.1452376,-2.863926 1.155246,-0.334344 1.680382,-0.636794 1.857707,-1.069929 0.135961,-0.332102 0.394735,-0.629105 0.575052,-0.659996 0.595244,-0.101977 1.69274,-2.258602 2.018129,-3.96569 0.17601,-0.923371 1.114453,-4.609458 2.085433,-8.191309 0.970986,-3.58184 1.889927,-7.157847 2.042094,-7.946689 0.152167,-0.788826 0.363326,-1.449078 0.469244,-1.467224 0.105919,-0.01815 0.510673,0.405201 0.899456,0.940775 1.002456,1.380936 1.775552,5.183804 2.072245,10.193393 0.273841,4.623777 0.59861,6.889179 1.061031,7.401248 0.187213,0.207307 0.210166,1.006864 0.05833,2.03377 -0.151974,1.027958 -0.05127,4.52313 0.256563,8.904503 0.596793,8.494115 0.618365,10.842803 0.100401,10.93154 -0.204336,0.03501 -0.463231,-0.08487 -0.575322,-0.266386 -0.163048,-0.264047 -0.196137,-0.258378 -0.165456,0.02835 0.0211,0.197104 -0.29089,0.414784 -0.693295,0.483724 -0.646643,0.110783 -0.72915,0.03166 -0.710226,-0.681231 z M 23.051744,32.096376 c 0.517221,-0.490019 0.720589,-1.621487 0.605814,-3.370479 -0.07916,-1.206333 -0.21289,-1.728793 -0.432838,-1.691112 -0.407355,0.06979 -0.984638,1.924816 -1.223699,3.932219 -0.173281,1.455037 -0.152667,1.558667 0.293983,1.477984 0.264241,-0.0474 0.604709,-0.204629 0.75673,-0.34861 z m 44.854867,14.801376 c 0.07169,-0.2933 0.110422,-0.989707 0.08606,-1.547569 -0.0244,-0.557857 0.547541,-4.531696 1.270887,-8.830741 0.925999,-5.503381 1.243002,-8.157852 1.071248,-8.970168 -0.134118,-0.634565 -1.070906,-3.23316 -2.081643,-5.774669 -1.010731,-2.541515 -1.83048,-4.975704 -1.821661,-5.409301 0.0088,-0.433584 -0.337972,-1.73244 -0.770585,-2.886325 -0.819299,-2.185131 -1.292971,-4.2402663 -0.915809,-3.973433 0.120272,0.085089 0.355604,-0.00519 0.523026,-0.2006673 0.335404,-0.3914705 0.421118,-0.2049516 3.98261,8.6668953 1.11377,2.774447 2.070929,5.076908 2.127011,5.116584 0.197771,0.139919 1.169691,-4.115353 1.9251,-8.428481 0.78907,-4.505342 1.994968,-9.1293625 2.25441,-8.64462 0.08117,0.151638 -0.03016,1.5235938 -0.247372,3.048784 -0.408296,2.866925 -0.249493,3.344678 0.228451,0.6873704 0.360044,-2.0016582 1.316274,-5.1388406 1.521979,-4.99331 0.09005,0.063729 0.04551,0.6304002 -0.09918,1.2592397 -0.144655,0.6288281 -0.199269,1.1884158 -0.12136,1.2435397 0.193676,0.1370115 -0.3448,3.3319832 -1.349493,8.0069612 -0.460979,2.144988 -0.999553,5.544283 -1.196844,7.554003 -0.197291,2.009704 -0.781477,5.937573 -1.298186,8.728596 -0.516715,2.791019 -1.19537,6.629342 -1.508128,8.529615 -0.312753,1.900261 -0.833053,4.255793 -1.156207,5.234493 -0.542272,1.642349 -0.663342,1.792453 -1.571125,1.947974 -0.829691,0.142142 -0.963188,0.08507 -0.853216,-0.364766 z m -13.577458,1.741695 c -0.589631,-0.17976 -1.425684,-0.700008 -1.8579,-1.15611 -1.203964,-1.270516 -3.04035,-4.875931 -2.967736,-5.826618 0.03962,-0.518713 -0.07841,-0.859765 -0.33318,-0.962671 -0.576362,-0.232815 -1.074121,-6.949593 -0.785773,-10.60322 0.364958,-4.62429 2.209175,-10.057633 3.669148,-10.80988 0.302006,-0.155552 1.294273,-1.301572 2.205045,-2.546594 1.376364,-1.881464 1.959857,-2.424513 3.4559,-3.216301 1.564836,-0.828201 1.922655,-0.924812 2.739237,-0.73961 l 0.939277,0.213026 -1.075534,1.544941 c -0.591542,0.849712 -0.971643,1.618433 -0.844658,1.708262 0.300321,0.212479 -0.485063,1.405183 -2.582461,3.921824 -0.932406,1.118768 -2.184385,2.860095 -2.782167,3.869601 -1.268329,2.141899 -2.485864,6.007935 -2.683384,8.520608 -0.198089,2.519902 0.556217,6.59234 1.600517,8.641059 1.644697,3.22657 2.934813,3.345798 4.840815,0.447393 0.67022,-1.019196 1.648747,-2.500684 2.174485,-3.292201 1.439415,-2.167062 2.436424,-2.011609 1.723309,0.268695 -0.304784,0.974596 -0.302664,0.979686 0.16367,0.395416 0.613587,-0.768654 0.831015,-0.787023 0.952073,-0.0804 0.319767,1.866493 -2.652091,7.150216 -4.980512,8.854955 -1.573598,1.152096 -2.134921,1.285401 -3.570226,0.847844 z m 39.244096,-7.002193 c -1.648344,-0.148555 -2.006631,-0.564305 -2.383848,-2.766142 -0.442853,-2.584957 -0.162314,-2.936706 2.12413,-2.663326 2.151444,0.257244 2.897417,1.016355 3.166536,3.222344 l 0.211451,1.733306 -1.26878,0.263133 c -0.697839,0.144654 -1.530111,0.239513 -1.849509,0.210715 z M 34.603115,49.025938 C 34.358503,48.751455 34.104693,48.213586 34.039092,47.830671 33.97349,47.447747 33.778665,47.077432 33.606139,47.007741 33.154873,46.825462 32.343597,41.688887 31.787747,35.49463 31.525201,32.56886 31.125609,28.349628 30.89977,26.118584 30.673934,23.887536 30.578747,21.670305 30.688252,21.191393 l 0.199098,-0.870743 0.367112,0.95899 c 0.363117,0.94855 0.365979,0.949646 0.263014,0.100927 -0.07383,-0.608429 -0.01258,-0.756683 0.21046,-0.509589 0.173001,0.191653 0.441434,0.236457 0.596513,0.09954 0.372161,-0.328553 0.864719,2.574869 0.74274,4.378057 -0.04946,0.731096 0.03734,2.292834 0.19289,3.470553 0.155542,1.177719 0.428935,4.218419 0.607525,6.757133 0.178591,2.538709 0.418766,5.125258 0.533722,5.747894 0.190839,1.033631 0.225199,0.95159 0.395234,-0.943619 0.217404,-2.42315 2.224396,-11.012911 2.61243,-11.180981 0.145647,-0.06314 1.171118,1.832198 2.278808,4.211723 1.107697,2.379535 2.121278,4.406111 2.252414,4.503509 0.131128,0.09739 0.327803,-1.841386 0.437056,-4.308394 0.109251,-2.467002 0.435389,-6.562486 0.724743,-9.101075 0.289359,-2.538583 0.637475,-5.812974 0.773594,-7.276423 0.26466,-2.845364 0.634346,-4.059511 1.269163,-4.168267 0.217407,-0.03725 0.421131,-0.236321 0.452714,-0.442401 0.03158,-0.206068 0.295044,0.510212 0.585472,1.591729 0.557002,2.074221 0.517065,3.168497 -0.292847,8.020864 -0.560979,3.361046 -1.250238,18.182715 -1.013395,21.791849 0.06898,1.051097 -0.04722,2.041475 -0.285705,2.435048 -0.395475,0.652659 -0.415774,0.639693 -1.25614,-0.802195 -0.469788,-0.806061 -1.406524,-2.721328 -2.081629,-4.25616 -0.675103,-1.534818 -1.634994,-3.563475 -2.133095,-4.508109 -0.885785,-1.679899 -0.911144,-1.700501 -1.157203,-0.940083 -0.138364,0.427593 -0.538404,2.521297 -0.888976,4.652675 -1.373796,8.352173 -1.660922,9.330885 -2.47083,8.422085 z M 91.224429,33.936771 c -0.230897,-0.391389 -0.711064,-2.26176 -1.067052,-4.156395 -0.571665,-3.042154 -0.599252,-3.593743 -0.236656,-4.719262 0.494881,-1.536054 1.585543,-2.891157 2.687122,-3.338666 0.628411,-0.25529 0.84618,-0.576735 0.969901,-1.431761 0.08777,-0.606401 0.434607,-2.011527 0.77076,-3.122481 0.336168,-1.110963 0.700309,-2.815655 0.809204,-3.788213 0.108912,-0.972561 0.275203,-1.847197 0.369547,-1.943654 0.09439,-0.09644 0.21469,-0.407852 0.267417,-0.691997 0.07547,-0.406662 -0.119426,-0.520026 -0.91545,-0.532592 -0.701483,-0.01107 -1.037713,-0.169962 -1.097453,-0.5186641 -0.107982,-0.6303021 -2.442678,-2.1325219 -3.799281,-2.4445994 -0.561269,-0.1291196 -1.722785,-0.1144412 -2.58113,0.03261 -1.405166,0.2407321 -1.60881,0.3628833 -2.04398,1.2260811 -0.265838,0.5272809 -0.657033,0.9884542 -0.869326,1.0248241 -0.716823,0.1228056 -1.090981,2.5238444 -0.728894,4.6774264 0.264097,1.567018 0.531882,2.264656 1.212041,3.149966 1.193248,1.553144 1.977451,1.511223 2.327688,-0.124445 0.145362,-0.678915 0.184834,-1.698332 0.08769,-2.265364 -0.17243,-1.006485 -0.187832,-1.016734 -0.647031,-0.431765 -0.717985,0.914562 -1.455901,0.627178 -1.413786,-0.550619 0.07921,-2.214559 1.936987,-3.052442 4.568764,-2.06057 1.656553,0.624315 2.658215,1.54244 3.160507,2.896897 0.315159,0.849856 0.266829,1.143127 -0.355441,2.156081 -0.932864,1.518623 -3.242909,3.185913 -4.77287,3.444861 -2.536157,0.428912 -4.668778,-0.942079 -7.140811,-4.591601 -2.188164,-3.230434 -2.251716,-4.727992 -0.305647,-7.2025471 2.976478,-3.7847918 8.384607,-5.1509506 13.822615,-3.4917417 5.253152,1.6028039 7.345393,4.158803 7.230443,8.8331448 -0.0575,2.339704 -0.28561,3.027976 -1.841968,5.558598 -0.699234,1.136957 -1.284792,2.435442 -1.301228,2.885515 -0.03388,0.92802 -1.430236,2.249812 -3.25385,3.080099 -1.905795,0.867708 -1.965792,1.554766 -0.369018,4.225361 0.55726,0.931995 0.705889,1.442556 0.598831,2.05692 -0.149357,0.857037 -0.3365,1.047252 -1.856856,1.887441 -1.841009,1.017385 -1.844314,1.017771 -2.284802,0.271112 z"
       style="fill:#000000;stroke-width:0.287774" />
  </g>
</svg>
