<?xml version="1.0" encoding="UTF-8" standalone="no"?>
<svg
   xmlns:dc="http://purl.org/dc/elements/1.1/"
   xmlns:cc="http://creativecommons.org/ns#"
   xmlns:rdf="http://www.w3.org/1999/02/22-rdf-syntax-ns#"
   xmlns:svg="http://www.w3.org/2000/svg"
   xmlns="http://www.w3.org/2000/svg"
   xmlns:sodipodi="http://sodipodi.sourceforge.net/DTD/sodipodi-0.dtd"
   xmlns:inkscape="http://www.inkscape.org/namespaces/inkscape"
   sodipodi:docname="brawndo.svg"
   inkscape:version="1.0.2 (e86c870879, 2021-01-15, custom)"
   id="svg8"
   version="1.1"
   viewBox="0 0 187 58"
   height="58mm"
   width="187mm">
  <defs
     id="defs2" />
  <sodipodi:namedview
     id="base"
     pagecolor="#ffffff"
     bordercolor="#666666"
     borderopacity="1.0"
     inkscape:pageopacity="0.0"
     inkscape:pageshadow="2"
     inkscape:zoom="0.98994949"
     inkscape:cx="293.09849"
     inkscape:cy="185.07817"
     inkscape:document-units="mm"
     inkscape:current-layer="g54"
     inkscape:document-rotation="0"
     showgrid="false"
     inkscape:window-width="1267"
     inkscape:window-height="1040"
     inkscape:window-x="382"
     inkscape:window-y="117"
     inkscape:window-maximized="0" />
  <metadata
     id="metadata5">
    <rdf:RDF>
      <cc:Work
         rdf:about="">
        <dc:format>image/svg+xml</dc:format>
        <dc:type
           rdf:resource="http://purl.org/dc/dcmitype/StillImage" />
        <dc:title />
      </cc:Work>
    </rdf:RDF>
  </metadata>
  <g
     inkscape:label="Layer 1"
     inkscape:groupmode="layer"
     id="layer1">
    <g
       transform="matrix(0.02076405,0,0,-0.02076405,-27.705843,107.2247)"
       fill="#000000"
       stroke="none"
       id="g54">
      <path
         d="m 1752.7484,5138.9579 c 1.4141,-5.8497 16.3318,-39.1378 33.4138,-74.3624 16.499,-35.6199 88.674,-193.4843 160.4537,-350.7657 71.7796,-157.2813 187.1055,-410.139 256.8881,-561.9662 69.7825,-151.8271 125.8944,-279.7334 125.1441,-283.6468 -0.3548,-4.4962 -90.5336,-112.4692 -199.701,-240.1301 -108.772,-128.2437 -198.5756,-234.2601 -198.9508,-236.2167 -0.7502,-3.9134 253.6645,-549.684 256.9948,-550.8296 0.3954,-0.583 89.6363,102.4986 198.0332,228.7857 108.0015,126.87 199.3865,230.5547 201.926,230.5749 3.1226,0.4157 18.6028,-29.9376 34.9143,-66.5359 43.1712,-97.5328 36.8857,-93.285 74.4272,-48.2475 141.2749,168.1614 252.774,297.4036 259.7692,302.1482 4.6635,3.163 14.0514,1.8702 20.5446,-3.9389 8.8453,-6.7672 14.5073,-6.3314 22.2528,2.3263 5.8092,6.4932 16.8648,16.5449 25.026,22.0801 28.1685,19.9563 25.776,25.9934 -25.3187,63.682 -26.3281,18.7404 -51.2622,34.1708 -56.1336,32.5691 -4.2882,-1.2065 -63.1503,-67.513 -130.6955,-147.3688 -67.5454,-79.8557 -125.0539,-144.3932 -127.5934,-144.4134 -2.3521,0.958 -10.0921,16.1347 -16.6866,34.6416 l -12.378,33.3084 116.3301,135.9231 c 132.0086,154.2168 514.6673,602.6948 528.4094,618.824 6.1843,8.45 9.1192,7.8874 12.7181,-2.4382 2.2049,-7.0156 19.7429,-50.4418 38.2795,-96.5952 19.1196,-45.7579 35.4715,-87.4353 36.8857,-93.285 2.2049,-7.0154 6.4933,-5.8091 19.0899,6.99 8.7239,8.4702 16.4694,17.1278 16.2615,18.689 0.7706,1.3738 -18.3692,49.6712 -41.6908,107.8989 -23.3216,58.2279 -41.8784,106.9208 -41.5033,108.8773 0.7705,1.3737 95.0298,112.1145 210.0063,246.2685 176.1499,204.5817 207.6746,244.687 205.0338,257.3645 -6.2396,23.0032 -248.6514,533.5089 -254.5212,534.6343 -2.3521,0.958 -91.8007,-100.5623 -198.2612,-224.685 -106.4606,-124.1227 -195.3263,-225.2476 -197.2829,-224.8725 -2.5396,-0.021 -15.4599,27.8138 -28.6288,62.288 -13.3563,33.4961 -25.1109,62.1208 -25.9015,63.2868 -1.1862,1.7487 -13.1999,-10.6549 -25.9638,-26.9718 -13.7422,-16.1292 -95.8002,-113.4881 -182.3139,-215.5711 -154.4546,-181.3559 -158.3273,-185.6848 -171.2936,-176.606 -11.988,8.8911 -335.0412,244.2689 -496.5676,361.9576 -319.9102,233.2537 -417.7711,304.7581 -420.7061,305.3208 -1.9565,0.3751 -2.7069,-3.538 -0.7098,-8.9923 z m 331.0361,-281.029 c 112.9915,-82.5195 294.3731,-215.6791 403.4311,-294.9089 108.4752,-79.625 199.8425,-145.3204 202.3821,-145.3001 4.8916,-0.9379 20.5702,17.3559 217.0218,248.4733 70.0647,82.4156 128.7188,150.2834 129.6972,150.0959 3.3303,-1.1457 32.4758,-79.254 30.955,-84.5409 -0.5626,-2.9351 -22.6132,-30.657 -49.91,-61.9372 -62.3394,-71.2184 -214.6698,-249.4314 -341.4523,-397.5505 -53.6154,-62.7481 -111.8742,-131.1988 -130.2597,-153.0306 -18.1979,-20.8536 -60.0076,-69.637 -92.1353,-107.598 l -58.2588,-68.4508 -9.7372,20.6309 c -127.0603,278.9427 -291.6958,639.6387 -345.5824,757.9899 -64.0395,142.1049 -72.5705,158.4474 -119.9544,220.7813 -28.031,36.3096 -49.1732,66.2269 -46.2383,65.6643 2.5395,0.021 97.0498,-67.7991 210.0412,-150.3186 z m 1418.5132,296.5358 c 5.1602,-10.1177 56.2387,-119.3093 114.662,-243.0948 58.4234,-123.7853 105.7358,-226.1693 105.5482,-227.1476 -0.7706,-1.3737 -79.5387,-94.7989 -176.7126,-207.5166 -147.6873,-172.5106 -620.1698,-724.4654 -1214.7914,-1418.8367 -72.0009,-84.5799 -133.3822,-153.4463 -135.3388,-153.0711 -5.287,1.5208 -227.6617,473.6996 -226.7441,481.1306 1.1457,3.3303 86.0982,105.2055 190.0393,226.7684 103.9411,121.5628 377.0574,440.4234 607.0105,708.7315 229.5576,268.891 485.8292,568.667 569.4485,666.2336 83.2241,98.1495 153.1011,179.5868 155.4329,181.1684 1.9364,2.1644 7.2636,-4.4355 11.4455,-14.3657 z"
         id="path2"
         style="stroke-width:0.70437" />
      <path
         d="m 3343.7668,4896.2986 c -32.4827,-42.4574 -46.9603,-88.8738 -41.517,-134.5454 2.5545,-26.3538 104.7117,-244.737 119.0517,-254.5862 47.3488,-33.4206 136.417,42.3089 154.6513,132.1259 11.5024,52.0583 9.6929,58.4909 -51.3106,187.3351 -49.6847,105.8816 -56.8013,116.3745 -81.2793,123.6031 -24.4781,7.2288 -71.3615,-17.7606 -99.5961,-53.9325 z m 60.6701,-38.003 c 3.1427,-2.124 28.1523,-51.5469 56.1779,-111.6907 52.0569,-109.3793 55.0931,-122.6397 34.9789,-148.1973 -9.2866,-11.4051 -12.2214,-10.8424 -22.5011,4.314 -6.326,9.327 -29.1509,54.2741 -50.8101,100.0118 -21.659,45.7376 -41.3211,86.0211 -43.6933,89.5188 -13.838,20.4028 7.8022,75.0817 25.8477,66.0434 z"
         id="path4"
         style="stroke-width:0.70437" />
      <path
         d="m 3135.1341,4649.2596 -44.7041,-53.2997 80.8733,-170.6889 c 44.3167,-94.2026 84.0159,-172.813 88.7198,-174.7291 10.9895,-6.164 114.3275,117.543 131.0101,156.9439 21.4932,48.6214 15.9837,78.0774 -33.5135,184.9372 -52.8679,113.0847 -75.0291,148.2689 -95.3657,150.6465 -26.3942,2.5247 -79.026,-36.5766 -127.0199,-93.8099 z m 145.8128,-107.069 c 53.2431,-111.1282 56.1118,-127.9064 29.7325,-151.7557 -10.868,-9.0733 -14.9688,-9.3013 -20.1288,0.8164 -12.2768,20.6106 -96.5209,197.5244 -100.3275,209.4112 -4.2019,12.4699 21.4933,48.6214 33.4206,47.3488 3.9131,-0.7502 29.8809,-47.8211 57.3032,-105.8207 z"
         id="path6"
         style="stroke-width:0.70437" />
      <path
         d="m 3041.2702,4537.9359 c -24.59,-27.7422 -24.59,-27.7422 19.4987,-117.8439 16.0834,-32.4975 25.8611,-58.2076 21.9479,-57.4572 -3.9133,0.7503 -28.5127,23.2164 -54.5061,48.9926 -53.1728,53.3009 -50.0503,53.7165 -99.2101,-4.3075 l -28.255,-33.6321 44.5044,-93.2243 c 24.0515,-51.775 60.8158,-129.8226 81.2887,-173.8116 20.0777,-43.4059 39.3241,-80.5669 43.0498,-82.2955 2.7473,-1.5409 17.3005,10.883 31.2303,27.9905 l 25.5482,30.0942 -17.7054,39.9083 c -9.9451,22.1922 -29.0242,62.871 -42.9229,90.8925 -13.8988,28.0216 -24.4673,54.8975 -23.717,58.8107 0.1673,3.5179 30.0537,-20.469 65.2878,-53.5953 35.6294,-33.7093 67.888,-61.1936 72.1966,-62.5268 7.8264,-1.5006 53.3821,43.0146 60.484,58.8956 2.8742,7.056 -140.7055,324.1584 -159.6832,352.1394 -5.1398,7.5782 -11.5522,3.229 -39.0367,-29.0296 z"
         id="path8"
         style="stroke-width:0.70437" />
      <path
         d="m 2860.6848,4326.0905 -25.3403,-31.6553 34.8022,-101.5069 c 19.2004,-55.9163 33.0534,-102.693 30.7217,-104.2745 -2.3318,-1.5815 -27.0325,33.5824 -54.3536,78.8842 l -50.6685,82.2349 -14.1376,-15.5464 c -51.3242,-56.0875 -49.5956,-52.3619 -35.9708,-95.0379 7.4055,-22.2124 23.7979,-68.9689 36.1961,-104.8168 12.5858,-34.8698 22.2164,-66.6373 21.6536,-69.5721 -0.5626,-2.9349 -25.8461,31.8336 -56.6852,77.3027 -30.8391,45.4692 -57.3088,81.9865 -59.0576,80.8004 -1.7487,-1.1861 -15.8864,-16.7325 -31.1697,-35.6091 l -28.6503,-33.0494 104.3783,-153.8958 c 75.1207,-110.7583 105.7317,-152.1267 110.3953,-148.9637 14.5734,9.8843 72.7714,85.9537 72.8983,94.5508 -0.04,5.079 -8.4444,30.0186 -17.2439,55.5409 -23.5495,62.3286 -17.5529,69.8002 15.6787,18.2938 15.2318,-23.7129 29.8404,-42.7421 32.7754,-43.3048 2.9349,-0.5627 21.3406,18.7296 41.2672,43.3089 l 36.3756,44.2466 -64.0894,197.3921 c -35.6334,107.752 -66.8165,196.3936 -69.3561,196.3733 -2.5396,-0.02 -16.4897,-14.5882 -30.4194,-31.6959 z"
         id="path10"
         style="stroke-width:0.70437" />
      <path
         d="m 2539.9498,3951.9534 -31.7121,-41.0836 15.495,-56.7271 c 111.6691,-406.8331 110.6706,-404.106 40.1783,-261.2711 -11.111,21.4013 -17.6043,27.2105 -35.2139,30.5867 l -21.5228,4.1264 4.2937,25.0408 c 5.6068,31.8889 0.1579,53.7261 -22.6671,98.673 -15.8756,30.9362 -20.9951,35.9749 -38.6047,39.3511 -31.306,6.0021 -55.3941,-11.1865 -121.0233,-86.3383 -24.7776,-28.7204 -45.6622,-55.6517 -46.8078,-58.982 -0.1672,-3.5179 18.3491,-47.1316 41.7976,-96.7624 23.4484,-49.6307 60.0048,-126.1171 80.4778,-170.106 21.0559,-43.5935 39.9069,-80.1716 42.8419,-80.7342 2.352,-0.9582 18.2585,13.2348 34.728,30.3626 34.1046,35.0465 34.1654,27.4278 -7.5715,116.5715 -14.8972,30.7487 -26.8394,58.395 -25.8813,60.747 -0.02,2.5396 7.9128,12.1756 16.6366,20.6457 15.116,15.3589 16.6773,15.5667 27.3524,-0.1726 6.3259,-9.3271 20.0168,-35.7874 30.3572,-58.5624 26.2363,-56.2508 30.3371,-56.0229 78.7263,0.6274 21.6755,25.7654 48.577,57.6286 59.7998,71.1981 19.5515,22.6227 20.4893,27.5142 11.837,59.094 -8.2368,28.4573 -7.3394,38.4281 5.6121,55.7232 8.3083,11.5927 20.5095,24.9747 28.0877,30.1145 10.6804,8.095 14.4061,6.3664 25.8719,-10.5388 7.5121,-11.0757 16.9606,-19.9872 20.4784,-20.1545 3.5179,-0.1674 20.1951,15.3993 36.4566,34.0883 l 30.3991,34.2355 -19.1248,21.9236 c -10.4471,11.6385 -44.9916,56.2968 -75.998,98.2482 -31.0063,41.9513 -72.6675,97.1023 -92.6035,122.7314 -42.0363,53.1945 -40.475,53.4023 -92.6966,-12.656 z m -117.9844,-271.5183 c 23.327,-34.3934 29.0647,-67.95 15.363,-89.1584 -7.7254,-11.1974 -15.0756,-20.4381 -17.0322,-20.063 -1.9566,0.3751 -13.4428,19.82 -25.3444,42.3872 -21.4108,39.0974 -21.6387,43.1983 -9.4781,61.6593 16.4086,24.7465 22.6537,25.5778 36.4917,5.1749 z m 252.8874,62.5781 c -0.3752,-1.9566 -7.7253,-11.1972 -16.4491,-19.6675 l -16.2819,-16.1495 -14.2887,52.4388 c -21.9222,78.7521 -20.5688,80.5211 15.182,31.5745 18.1669,-24.2757 32.2128,-46.2397 31.8377,-48.1963 z"
         id="path12"
         style="stroke-width:0.70437" />
      <path
         d="m 2146.6309,3492.841 c -25.1527,-30.6771 -46.6202,-58.0037 -46.7875,-61.5215 -2.4587,-10.1785 159.8505,-348.6215 166.4909,-348.3733 8.2015,0.4562 109.0405,119.0638 122.9096,143.7902 28.3008,52.3874 23.4862,117.2097 -13.1161,174.9409 -12.652,18.6539 -20.7065,24.2553 -37.1299,25.8827 l -21.898,2.1698 3.8984,25.6237 c 7.0465,47.334 -26.7625,122.2794 -56.6746,124.9715 -26.3941,2.5247 -69.5113,-29.2724 -117.6928,-87.484 z m 93.061,-33.0561 c 18.7903,-28.9593 20.1181,-48.4851 3.5015,-71.6705 -14.0969,-20.6253 -19.1963,-18.1263 -35.1124,17.889 -6.9697,16.5503 -14.1268,32.1223 -15.1254,34.8494 -3.1631,4.6636 11.6843,29.2023 23.5308,38.0881 4.2681,3.7459 12.5304,-3.4166 23.2055,-19.156 z m 69.3925,-127.4099 c 6.3261,-9.327 14.8772,-28.2091 19.6822,-42.8229 7.1977,-20.6513 6.1127,-31.6002 -5.8603,-49.083 -7.5175,-12.7585 -16.4289,-22.207 -19.3639,-21.6443 -2.9349,0.5628 -15.0039,19.6121 -26.9055,42.1794 -23.5955,43.5733 -22.3231,55.5006 9.3431,77.8291 10.0977,7.6996 14.4063,6.3665 23.1044,-6.4583 z"
         id="path14"
         style="stroke-width:0.70437" />
      <path
         d="m 3920.2414,4509.3852 c -14.1174,-18.0859 -23.3432,-37.1097 -21.5336,-43.5422 2.8081,-9.1597 0.1006,-12.6978 -9.0787,-12.9663 -19.9212,-0.7448 -41.4696,-17.9132 -57.255,-47.3435 -8.4754,-15.1106 -21.8224,-31.8228 -29.9834,-37.3579 -13.9906,-9.4891 -79.057,-81.706 -92.1759,-102.519 -3.0819,-5.4947 -8.3081,-11.5926 -11.4104,-14.5477 -26.9623,-24.2447 -48.4501,-49.0316 -48.9723,-57.0457 -0.1471,-6.0575 17.0767,-59.0589 39.4198,-117.0991 22.5512,-59.6014 37.9855,-108.71 33.905,-111.4776 -3.4978,-2.3722 -10.4727,-9.6562 -15.699,-15.7541 -9.6818,-10.8222 -10.6602,-10.6346 -57.8309,73.9725 -48.9398,85.9605 -58.6164,98.9726 -69.6922,91.4606 -5.2464,-3.5583 -176.6061,-196.38 -202.3416,-227.4526 -4.0604,-5.3071 -6.1237,-16.0685 -3.5233,-23.667 3.4113,-11.3039 2.0577,-13.0729 -9.6819,-10.8221 -11.3444,1.6678 -19.1102,-4.4503 -53.3822,-43.0147 -22.466,-24.5994 -41.8096,-48.7833 -43.7257,-53.4872 -1.9162,-4.704 0.9729,-24.022 7.1721,-41.9459 l 11.3996,-33.121 -16.1697,18.8214 c -8.6781,10.285 -19.5003,19.967 -24.3919,20.9048 -9.783,1.8757 -47.9884,-33.3989 -53.9042,-51.0286 -5.3328,-17.2345 118.9708,-244.428 136.5803,-247.8042 10.7614,-2.0633 41.784,27.4885 79.868,78.0003 10.057,12.7788 26.9014,31.8633 38.1447,42.8933 12.9918,12.216 18.1777,23.3931 15.1819,31.5744 -3.9941,10.9086 -1.4747,13.4684 13.1595,15.734 26.1457,4.1157 53.4427,35.3959 62.7346,70.6353 8.7091,34.844 -0.6935,62.5107 -52.7963,153.1347 -24.3661,42.1996 -28.568,54.6694 -21.5729,59.4139 6.9954,4.7445 10.9288,1.4546 17.2953,-12.9515 16.3317,-39.1379 90.3472,-158.3056 98.549,-157.8496 9.1798,0.2686 49.4688,43.765 45.515,49.5944 -23.1597,37.9112 -102.7051,189.0744 -101.9548,192.9877 2.6057,16.2359 18.005,-3.9591 61.9926,-81.3631 29.9213,-52.9004 51.6668,-84.962 57.5367,-86.0873 5.8699,-1.1255 16.5503,6.9695 29.5221,21.7251 148.1027,169.3882 138.6287,157.0047 130.2651,176.8652 -10.1527,23.7534 -4.8807,48.6065 6.9804,31.1183 13.4427,-19.8198 31.1994,-17.1385 52.8747,8.6268 11.0354,12.5911 18.3653,24.3714 16.7837,26.7031 -1.5814,2.3318 7.913,12.1756 20.9251,21.852 14.1781,10.4674 24.2353,23.2462 24.1745,30.8648 0.9176,7.431 -21.7198,53.3564 -48.4784,101.5932 -64.3997,113.7742 -63.6239,138.9823 0.5276,31.8485 43.7596,-73.3033 47.1102,-76.9884 66.6763,-80.7398 28.3711,-5.4394 62.3691,18.4705 76.3448,54.3334 7.4769,17.8375 16.951,30.221 29.7959,36.3796 27.834,12.9205 44.2224,40.2066 33.5474,55.946 -8.303,12.2416 -7.7199,12.637 6.392,6.8886 11.9476,-3.812 18.5676,-1.0243 32.9131,12.9609 27.525,27.1795 25.8827,37.1299 -16.7972,97.5477 -20.164,29.7299 -44.9254,72.5125 -54.6829,95.683 -16.5192,38.1594 -19.4743,41.2616 -40.8299,48.906 -27.6208,9.3527 -53.1028,-4.5258 -88.3125,-47.9818 z m 82.7718,32.3086 c 18.8565,-12.7437 39.0813,-50.0923 42.4263,-77.6118 3.1172,-23.4187 6.0926,-29.0606 18.8308,-34.0385 10.7818,-4.6028 20.8536,-18.1979 36.1261,-46.9899 20.037,-38.3269 20.4527,-41.4493 7.6482,-52.6871 l -14.5532,-12.424 -22.7844,39.8679 c -22.2016,40.2633 -23.18,40.4508 -37.7535,30.5665 -16.9051,-11.4658 -15.2426,-23.9558 7.2935,-57.1833 24.9085,-36.7251 27.9649,-52.5251 14.5978,-66.6978 -14.9283,-14.3805 -13.7422,-16.1293 -81.5534,108.9487 -26.9663,49.7981 -50.5617,93.3714 -53.3293,97.4519 -5.1399,7.5783 22.7197,41.7935 52.0543,62.5404 14.178,10.4673 24.316,13.0878 30.9968,8.257 z m -99.5462,-109.2199 c 18.2129,-5.5205 94.849,-134.8262 103.562,-174.0248 7.7145,-36.4715 -7.863,-67.463 -46.1696,-90.0395 -18.2789,-10.6954 -36.2177,9.4794 -80.8287,91.5671 -44.7985,81.1095 -50.2474,102.9467 -34.4824,134.9165 11.9327,22.5619 42.058,42.143 57.9187,37.5807 z m -77.3135,-104.3542 c 1.4142,-5.8495 -3.2089,-14.0916 -9.6212,-18.4407 -16.9052,-11.4658 -10.8937,-30.3681 42.2077,-123.7194 46.5676,-82.4627 49.7912,-94.745 29.3884,-108.583 -9.327,-6.3259 -4.978,-12.7383 -89.0195,138.7798 l -23.783,42.595 -13.1796,-13.1943 c -15.6989,-15.7542 -32.5581,-8.4647 -28.6193,12.0798 1.5006,7.8265 19.2828,31.8026 38.8343,54.4251 30.2115,33.2573 37.9772,39.3753 43.4923,33.7538 4.3288,-3.8727 8.8858,-11.8464 10.2999,-17.6961 z m -113.0753,-103.0761 c 3.9538,-5.8293 37.8951,-48.3434 74.604,-94.938 63.1382,-78.0328 67.2997,-85.4234 61.5311,-96.9958 -10.9747,-20.21 -18.1979,-20.8535 -30.8499,-2.1996 -11.4659,16.9053 -12.4442,17.0928 -28.143,1.3386 -22.2785,-23.6211 -22.2785,-23.6211 -10.9396,-49.1232 6.1788,-15.3846 6.6552,-26.1257 -0.5073,-34.388 -5.8092,-6.4933 -11.8261,-11.4253 -13.7827,-11.0502 -1.5613,-0.2078 -24.0921,56.8539 -50.6172,124.8243 l -47.0992,124.6572 15.0754,20.4378 c 20.4892,27.5141 22.2381,28.7004 30.7284,17.4369 z m 79.0099,-34.9264 c 11.6937,-21.006 28.1321,-49.0073 36.8302,-61.832 30.0484,-44.3032 -0.421,-20.7118 -42.0619,31.8999 -38.6857,49.5091 -39.289,51.6533 -27.0473,59.9561 11.6588,7.9076 12.8449,6.1586 32.279,-30.024 z m -187.539,-123.792 c 8.3433,-17.3208 32.314,-58.9374 52.1231,-93.1636 l 37.0382,-63.3932 25.2133,23.0584 c 24.0477,22.2678 24.6306,22.6632 29.6436,6.4879 2.808,-9.1596 4.8254,-17.1534 4.6378,-18.1318 -2.1037,-5.6823 -64.2959,-70.8431 -67.2309,-70.2805 -8.2219,2.0836 -122.1849,206.5019 -121.4953,218.0338 1.1254,5.8699 6.3314,14.5075 13.3266,19.2519 10.4929,7.1166 13.0527,4.5974 26.7436,-21.8629 z m -50.7155,-34.3974 c 26.4899,-39.0569 105.787,-183.5797 109.031,-198.4015 1.6422,-9.9504 -1.3994,-20.5243 -8.3947,-25.2687 -13.9905,-9.489 -13.1998,-10.6549 -78.0355,108.7814 -26.9662,49.7981 -50.5617,93.3713 -53.3293,97.452 -3.9538,5.8293 1.6274,16.4234 16.3681,29.8255 2.3317,1.5816 8.4298,-3.6447 14.3604,-12.3887 z m -39.5792,-34.5041 c 1.8094,-6.4324 4.0144,-13.4479 5.9913,-16.3626 1.5815,-2.3318 -2.4384,-12.7182 -9.7886,-21.9587 -13.7219,-18.6689 -20.2961,-2.7016 66.7006,-157.322 22.9923,-41.4291 24.6142,-48.8399 16.3264,-62.9721 -5.0185,-7.6592 -11.4106,-14.5478 -14.3456,-13.9852 -4.4961,0.355 -49.6697,79.5078 -91.138,159.4715 l -15.4802,30.3532 -15.6988,-15.7541 c -13.3672,-14.1727 -15.9067,-14.1929 -24.2095,-1.9512 -8.6982,12.8246 -6.0116,18.9023 27.282,57.6541 46.2653,53.5077 51.1164,57.6489 54.3604,42.8271 z m -96.0689,-104.3081 c 27.2808,-40.2227 100.0846,-178.9365 102.7659,-196.6931 4.7187,-28.2902 -9.8601,-62.0088 -33.7605,-78.219 -30.8958,-20.9548 -37.7845,-14.5627 -98.0228,91.8209 -52.123,93.1636 -53.5168,96.4737 -43.0848,111.2089 6.1843,8.4499 11.9935,14.9433 13.9501,14.5681 1.9566,-0.375 25.3241,-39.8476 51.6871,-87.5014 52.5185,-93.7465 56.8675,-100.1589 69.6922,-91.4606 15.1565,10.2797 6.6917,42.8378 -27.3711,100.5893 -54.4751,94.1216 -64.8154,116.8966 -55.904,126.3451 13.1593,15.734 15.3035,16.3371 20.0479,9.3418 z m -44.3411,-196.8888 c 70.7461,-125.6408 72.14,-128.9508 57.0241,-144.3096 l -12.5967,-12.799 -20.4325,38.9098 c -11.2985,20.423 -28.5477,52.1298 -37.474,69.0552 -26.1957,51.1718 -21.477,22.8817 10.0003,-53.6452 26.7126,-66.992 28.8109,-85.144 13.467,-96.402 -9.9099,-6.7213 -23.4795,4.5016 -47.3894,38.4995 -11.4658,16.9053 -30.0078,39.2243 -41.0378,50.4675 -17.731,18.6135 -16.5246,14.3251 11.0247,-35.0776 44.7782,-78.5698 49.1677,-90.0613 35.7602,-99.1549 -9.3271,-6.3259 -13.8435,-3.4314 -27.4939,17.9498 -28.2793,42.9498 -106.5981,187.2851 -105.2851,194.1333 0.7503,3.9132 9.6617,13.3617 20.1545,20.4783 14.3656,11.4456 20.0278,11.8815 27.5196,3.3452 4.932,-6.0169 26.637,-32.9994 47.3637,-59.7945 21.705,-26.9824 39.2484,-46.5743 40.2066,-44.2223 -0.021,2.5396 -13.0218,40.5318 -30.9551,84.541 -30.9147,79.4618 -30.9147,79.4618 -14.8609,99.7121 9.4742,12.3834 17.8228,18.8969 21.9439,16.5855 2.5597,-2.5193 26.9055,-42.1794 53.0608,-88.2721 z"
         id="path16"
         style="stroke-width:0.70437" />
      <path
         d="m 3967.1544,4481.6269 c -1.9161,-4.7041 3.5126,-24.0017 12.2512,-41.9055 13.8988,-28.0215 18.623,-32.4772 25.6182,-27.7328 16.9053,11.4658 15.537,36.0708 -2.6502,62.8858 -17.001,25.0664 -26.7842,26.942 -35.2192,6.7525 z"
         id="path18"
         style="stroke-width:0.70437" />
      <path
         d="m 3870.9589,4368.7217 c -1.4803,-10.366 47.7482,-108.0461 74.0506,-148.0812 10.2796,-15.1565 30.1401,-6.7929 31.9348,13.1485 1.8553,12.3227 -72.1145,150.2456 -82.896,154.8484 -9.8033,4.4153 -21.8373,-5.4488 -23.0894,-19.9157 z"
         id="path20"
         style="stroke-width:0.70437" />
      <path
         d="m 3727.2293,4116.3391 c 8.9668,-22.0046 18.9321,-46.7363 21.9277,-54.9177 4.9928,-13.6356 7.9276,-14.1983 18.4003,-4.542 11.6386,10.447 10.4321,14.7354 -7.1922,44.4854 -11.0907,18.862 -26.6776,38.0787 -34.7321,43.68 -11.9881,8.8911 -11.76,4.7904 1.5963,-28.7057 z"
         id="path22"
         style="stroke-width:0.70437" />
      <path
         d="m 3088.9453,3556.6159 c -20.5093,-24.9747 -36.1474,-48.3476 -35.3365,-52.0528 1.2063,-4.2885 -7.3299,-11.7803 -19.0089,-17.1482 -25.6898,-12.3174 -49.8238,-48.2611 -51.7453,-76.7994 -0.8163,-20.129 -2.5651,-21.315 -22.4661,-24.5995 -18.7349,-2.4936 -25.7302,-7.2382 -51.6737,-36.7494 -16.8445,-19.0845 -48.0142,-54.6935 -69.3144,-78.5024 -22.2785,-23.6211 -41.9971,-49.7616 -44.8714,-56.8175 -3.2493,-9.0126 2.9498,-26.9367 17.827,-55.1457 29.7338,-53.8787 24.1121,-59.3937 -7.5581,-7.6794 -22.9721,38.8896 -23.9503,39.077 -38.5238,29.1928 -13.9906,-9.4889 -124.3644,-132.8615 -129.7377,-145.0167 -2.1238,-3.1427 4.8255,-17.1535 14.7098,-31.727 16.2103,-23.9005 18.5623,-24.8585 32.5528,-15.3695 15.1564,10.2796 16.1347,10.0919 34.778,-24.9247 10.3201,-20.2355 33.1047,-60.1035 49.7508,-89.6659 34.8737,-61.4569 41.9298,-64.3311 70.352,-27.181 18.3653,24.3714 19.1559,23.2056 -41.0823,129.5892 -40.8245,72.7404 -50.81,100.0117 -36.1354,97.1982 2.5396,0.02 19.1654,-27.0027 36.2272,-59.6878 17.6446,-32.2896 40.8245,-72.7405 52.6857,-90.2285 l 21.3501,-31.4788 21.5283,19.708 c 12.2215,10.8423 22.8614,24.0164 23.7992,28.908 1.1255,5.8698 -9.0274,29.6232 -22.6981,53.544 -14.2537,23.5253 -23.4079,44.5516 -21.6592,45.7377 2.3318,1.5816 14.3806,-14.9284 27.4481,-36.7048 29.1105,-49.1949 34.1896,-49.1545 83.5369,9.8478 19.739,23.6009 45.8701,54.0905 58.0712,67.4723 16.2616,18.6891 19.1156,28.2847 14.5182,41.3374 -5.7835,14.8016 -5.013,16.1752 5.2059,8.6375 9.4282,-6.3718 15.2779,-4.9577 33.7039,11.795 12.2215,10.8425 22.6536,25.5778 23.3836,32.0307 0.3347,7.0357 10.4119,17.2749 25.1933,25.5979 48.6119,28.7151 59.6176,94.0541 24.4295,145.9356 -18.1871,26.8153 -22.7036,29.7097 -64.1678,35.6309 -24.0623,4.1062 -43.2534,9.8141 -43.0861,13.332 1.1456,3.3303 3.6852,3.3505 6.4528,-0.7299 3.9537,-5.8295 10.1784,-2.4587 24.5238,11.5264 23.0694,22.4552 27.8393,36.7548 17.955,51.3282 -4.349,6.4124 -4.5973,13.0527 -1.6827,15.0296 4.0807,2.7676 16.5248,-14.3252 38.1232,-52.4443 17.8323,-31.3113 41.9905,-71.9497 53.8517,-89.4377 l 21.7454,-32.0617 21.9438,16.5853 c 11.451,9.4687 22.8817,21.4771 24.5901,27.7423 1.7082,6.2652 -11.4201,35.6604 -31.229,69.8865 -67.1473,115.3152 -70.7258,123.1012 -57.0038,141.77 9.4741,12.3835 10.1838,21.3757 1.653,37.7183 -20.6606,43.0107 -32.7349,38.2256 -92.91,-34.929 z m 80.9165,19.9859 c 1.4141,-5.8497 -3.2089,-14.0918 -9.6211,-18.4409 -17.4882,-11.8612 -10.4984,-30.9511 42.2076,-123.7192 46.1722,-81.8799 49.3959,-94.1622 30.5543,-107.7923 -6.4122,-4.3492 -15.0902,5.9359 -46.3854,59.6068 -20.5998,35.3919 -44.3829,77.9869 -52.123,93.1634 l -14.2941,28.6046 -16.0943,-15.1712 c -13.3872,-11.6331 -18.2586,-13.2348 -23.0031,-6.2397 -11.4658,16.9053 -6.2801,28.0823 32.4476,71.3709 40.4764,44.4746 49.636,47.2827 56.3115,18.6176 z m -107.0177,-103.2233 c 16.6312,-3.1886 34.4432,-31.9604 26.1351,-43.553 -10.6199,-15.7139 -15.3036,-16.3372 -27.104,-6.4677 -14.3603,12.3888 -29.5168,2.109 -27.0029,-19.1655 2.3467,-24.7924 21.5986,-38.1191 61.0858,-41.1255 20.5243,-1.3993 41.8798,-9.0437 50.5376,-16.7891 21.8521,-20.9251 30.8539,-71.8432 17.5677,-96.1742 -14.2441,-26.6829 -47.8671,-48.6361 -60.438,-40.1403 -18.2735,13.1391 -31.9645,39.5993 -25.0097,49.4229 11.7856,16.5044 17.0523,17.5233 27.332,2.3669 10.6751,-15.7394 28.9944,-10.1233 33.1209,11.3996 4.5015,23.4795 -15.3534,38.9502 -57.7959,45.059 -45.3774,6.6714 -63.6509,19.8105 -75.6539,55.0756 -14.8109,44.4248 21.0277,107.0312 57.2253,100.0913 z m -90.9898,-104.2677 c 17.6096,-3.3761 43.3494,-46.3463 47.318,-78.5496 2.7014,-20.2962 7.0707,-29.2481 13.9189,-30.5611 8.8048,-1.6882 66.3011,-82.6963 64.4052,-89.9398 -0.1876,-0.9784 -5.9967,-7.4716 -13.367,-14.1727 -12.8044,-11.2378 -13.7829,-11.0501 -39.0866,26.2579 -21.7455,32.0615 -27.4481,36.7048 -37.9612,32.1277 -15.9674,-6.5742 -15.4506,-22.3946 2.3412,-48.6268 25.3037,-37.3081 31.9388,-60.8941 21.4865,-73.0899 -5.8093,-6.4933 -11.8262,-11.4254 -14.1782,-10.4673 -5.8699,1.1254 -114.0696,193.282 -117.9168,210.2479 -6.4474,24.5643 48.5823,81.4629 73.04,76.7737 z m -87.72,-97.7947 c 2.2048,-7.0155 29.5665,-57.3965 60.6741,-112.0456 55.869,-97.4317 56.4722,-99.5759 44.8538,-112.5624 -6.392,-6.8886 -13.5749,-12.6114 -15.5314,-12.2364 -8.4096,1.1052 -122.6613,217.2432 -119.2042,224.6946 7.4769,17.8375 25.0056,24.6197 29.2077,12.1498 z m -46.762,-40.2268 c 32.4408,-50.3405 118.7481,-216.4927 115.2909,-223.9441 -7.477,-17.8377 -25.0057,-24.6197 -29.0201,-11.1716 -1.8096,6.4325 -13.108,26.8556 -24.3863,44.7392 -19.2058,32.0818 -20.5796,32.8523 -33.384,21.6145 -18.426,-16.7527 -18.0104,-19.8752 9.5591,-71.8175 24.1987,-45.7174 24.4065,-47.2786 9.8533,-59.7025 -14.5533,-12.4239 -15.5316,-12.2364 -25.2688,8.3946 -5.3677,11.6791 -31.9387,60.8941 -59.6756,109.3184 -48.149,84.7947 -49.3554,89.0831 -39.5062,103.423 5.6014,8.0546 11.5982,15.5262 12.764,16.3169 1.1659,0.7908 14.0257,-19.4245 28.487,-44.5111 24.3659,-42.1995 27.3212,-45.3018 37.2312,-38.5805 20.4028,13.838 19.3233,26.7234 -4.8551,69.9014 -15.4601,27.8136 -21.867,47.299 -19.596,56.4991 4.7702,14.2994 18.1576,25.9327 22.5066,19.5202 z m -89.7024,-118.7141 c 7.9076,-11.6588 7.1775,-18.1117 -4.8362,-30.5154 -18.2181,-18.3139 -18.426,-16.7527 43.3938,-125.468 46.5676,-82.4628 49.3959,-94.1621 29.9713,-108.1878 -8.1611,-5.5352 -14.0916,3.209 -54.3333,76.3449 -64.4201,116.3137 -58.3019,108.548 -76.7279,91.7952 -15.9065,-14.1929 -26.293,-10.173 -26.2673,11.1217 -0.2482,6.6404 53.5143,75.4459 75.2302,96.1322 2.3317,1.5815 8.0343,-3.0618 13.5694,-11.2228 z m 328.2038,172.3863 c -14.1174,-18.086 -28.9795,-16.2508 -35.199,4.2128 l -4.8052,14.6139 25.0206,-1.7542 25.4158,-2.3372 z"
         id="path24"
         style="stroke-width:0.70437" />
      <path
         d="m 2943.594,3311.6442 c -7.1627,-8.2625 2.0726,-39.4469 20.6551,-66.845 9.8844,-14.5734 30.6624,1.2211 28.7515,20.3516 -2.0982,18.152 -26.6316,56.8338 -35.4161,55.9823 -3.7055,-0.811 -9.5348,-4.7647 -13.9905,-9.4889 z"
         id="path26"
         style="stroke-width:0.70437" />
      <path
         d="m 3538.7525,3619.9819 -12.3483,-19.4393 116.5877,-288.5991 c 143.6955,-356.174 145.4848,-360.067 127.7741,-343.9931 -7.2841,6.9751 -28.7813,32.3963 -47.3436,57.2549 -19.1452,24.4632 -41.8082,49.0938 -50.8411,54.8826 -8.4499,6.1843 -69.9512,50.4323 -136.1768,99.136 -226.7738,166.2049 -241.5092,176.6371 -244.8395,177.7827 -1.9566,0.3751 -4.2478,-6.2854 -5.7484,-14.112 -2.0835,-8.2218 -9.7885,-21.9586 -18.117,-31.0117 -7.7456,-8.6577 -14.3049,-19.0642 -14.6598,-23.5603 0.228,-4.1009 95.3616,-76.6039 211.1005,-160.6645 115.156,-84.4559 253.1019,-184.9453 305.9657,-223.9874 53.4468,-38.6466 100.6081,-73.0454 105.7075,-75.5445 6.0777,-2.6866 -0.7651,22.4607 -16.7014,61.0156 -14.3548,36.2231 -87.8981,218.6923 -163.4385,406.6157 -75.1451,187.3405 -138.8904,341.5602 -140.6596,342.9136 -2.3519,0.9581 -9.5144,-7.3043 -16.2615,-18.6892 z"
         id="path28"
         style="stroke-width:0.70437" />
      <path
         d="m 2542.6119,2931.5927 c -20.5094,-24.9745 -44.704,-53.2997 -53.6154,-62.7482 -19.5718,-20.0829 -19.1561,-23.2055 10.598,-79.6237 l 22.2218,-42.8028 -30.028,41.7638 c -25.4915,36.3298 -30.2157,40.7855 -40.1256,34.0641 -16.3222,-11.0704 -123.9487,-135.9839 -127.7607,-147.9313 -1.7083,-6.2654 3.4923,-21.4621 11.7951,-33.7039 15.0241,-22.1516 20.894,-23.2771 37.9664,-8.2934 5.6216,5.515 13.7167,-5.1654 40.8706,-53.9852 19.0183,-33.0601 42.7811,-73.1156 53.8516,-89.4379 l 19.7686,-29.1469 21.1734,15.2117 c 32.4366,23.7021 32.1681,32.8821 -4.2871,96.6706 -61.7996,106.1758 -71.3493,127.785 -62.6052,133.7157 6.9954,4.7444 11.3242,0.8716 17.8985,-15.0958 22.8653,-50.0261 89.7441,-156.1614 98.924,-155.8928 5.6621,0.4358 17.6959,10.2999 27.753,23.0786 15.8662,19.2721 16.9917,25.1419 7.2543,45.7728 -6.1586,12.8449 -17.4571,33.268 -25.3644,44.9267 -7.9075,11.6588 -13.0879,24.3162 -11.9422,27.6465 1.541,2.7473 14.1726,-13.3671 28.0309,-36.3095 24.5536,-41.2214 24.949,-41.8042 39.5224,-31.9199 15.1564,10.2796 117.3892,125.5773 123.5331,139.1063 2.3115,4.121 -4.2627,20.0884 -14.147,34.6618 l -17.7918,26.2323 -24.0476,-22.2678 c -22.6941,-20.4986 -24.2554,-20.7063 -30.8093,-7.2786 -4.7647,9.5349 -2.1186,20.6917 8.709,34.8441 11.5979,15.5261 13.6612,26.2876 8.6482,42.4628 -10.2136,31.3721 -23.3471,36.9329 -46.6647,21.118 -16.9053,-11.4658 -20.4231,-11.2984 -24.8127,0.193 -2.9957,8.1813 2.1699,21.8979 12.9974,36.0504 23.6118,27.9297 24.0935,41.0229 5.5514,63.342 -19.3327,23.4848 -32.9482,15.9525 -83.066,-44.4235 z m 73.4651,23.443 c 5.5352,-8.1611 6.3868,-16.9457 2.889,-19.3179 -4.0806,-2.7676 -15.5114,-14.7758 -24.7979,-26.181 -17.6149,-20.4581 -17.8024,-21.4364 1.1753,-49.4175 11.0705,-16.3222 20.3517,-28.7515 21.5176,-27.9607 0.5828,0.3953 8.3285,9.053 16.8445,19.0843 14.7003,18.4814 15.6785,18.2939 24.2094,1.9514 7.1369,-13.0326 5.2411,-20.276 -9.4795,-36.2178 -12.2012,-13.3819 -16.2211,-23.7683 -12.2673,-29.5976 3.9537,-5.8295 12.0892,-21.589 18.0603,-35.4121 10.1326,-21.214 12.6923,-23.7333 18.8766,-15.2833 3.4773,4.9118 15.0957,17.8983 25.173,28.1375 17.4477,16.9404 19.5919,17.5435 25.9584,3.1374 6.7415,-12.4496 3.0968,-20.8793 -20.5149,-48.809 -43.9337,-51.9261 -47.2437,-53.3199 -60.9549,-24.3201 -6.1586,12.8449 -34.1033,62.8305 -60.8617,111.0674 l -48.7522,86.9387 26.7138,30.8849 c 39.1028,45.2452 44.7446,48.2206 56.2105,31.3154 z m -36.5754,-190.7705 c 32.8968,-58.5422 59.0927,-109.714 59.5083,-112.8366 0.2685,-9.1797 -17.7419,-29.055 -23.2366,-25.973 -2.7473,1.541 -15.2118,21.1733 -28.4871,44.5111 -21.4107,39.0974 -23.5753,41.0338 -34.6511,33.5217 -21.5686,-14.6288 -20.3016,-26.5359 6.6444,-73.7943 24.5738,-43.761 25.1973,-48.4446 14.1619,-61.0358 -6.3921,-6.8887 -13.1795,-13.1944 -15.1361,-12.8194 -3.3304,1.1457 -119.0624,206.9176 -122.6815,219.7828 -1.2064,4.2884 3.9996,12.9259 11.5777,18.0657 13.9906,9.4889 14.3859,8.9059 41.1242,-36.7914 l 27.1335,-46.2801 11.223,13.5695 c 17.2197,21.0411 16.2009,26.3077 -10.5576,74.5446 -22.9923,41.4291 -24.0112,46.6958 -12.5804,58.7041 6.5796,7.867 12.7841,13.7773 14.3454,13.9851 1.9567,-0.3751 29.298,-48.2166 61.612,-107.154 z m -146.9856,-15.4331 c 5.1399,-7.5781 3.2642,-17.3613 -5.2316,-29.9322 -15.6583,-20.8333 -16.0537,-20.2504 43.3939,-125.4681 24.1783,-43.1779 44.0281,-82.483 44.256,-86.5839 0.2281,-4.1008 -5.1857,-11.1771 -11.5979,-15.5262 -11.6589,-7.9073 -13.4278,-6.554 -44.9309,48.6782 -18.0198,30.333 -41.8029,72.928 -52.123,93.1635 l -19.8294,36.7656 -15.6989,-15.7541 c -13.9499,-14.5682 -16.4895,-14.5884 -22.045,-3.8877 -8.1556,18.2992 -6.0521,23.9815 26.0757,61.9426 40.8517,46.4312 47.8468,51.1757 57.7311,36.6023 z"
         id="path30"
         style="stroke-width:0.70437" />
      <path
         d="m 4137.3319,4130.6927 -40.9729,-31.1939 29.8201,-40.2024 c 19.3531,-26.0245 32.9428,-39.787 39.3754,-37.9775 6.4326,1.8097 1.0647,13.4887 -19.4947,43.8014 -22.9315,33.8104 -25.5319,41.4088 -16.9552,43.8215 8.3893,1.4345 17.4424,-6.8939 36.4202,-34.875 19.7686,-29.1469 27.0527,-36.122 34.0479,-31.3775 6.9953,4.7445 3.2089,14.0917 -16.9552,43.8216 -20.164,29.7299 -23.9503,39.0772 -16.955,43.8216 4.6635,3.1629 11.907,1.2671 15.8607,-4.5623 4.3491,-6.4123 15.9216,-12.181 26.2876,-13.6613 10.366,-1.4802 22.3339,-7.8319 26.6829,-14.2443 7.5121,-11.0757 7.3246,-12.0541 -10.868,-9.0733 -18.1926,2.9808 -18.3801,2.0026 -10.4726,-9.6562 9.0936,-13.4076 38.5495,-7.8981 45.0684,7.5876 6.5391,12.9462 -13.1688,34.4743 -32.9225,37.2474 -19.7539,2.773 -37.4849,21.3866 -27.5749,28.1079 3.4975,2.3723 7.4109,1.622 9.7831,-1.8757 1.9769,-2.9147 6.8684,-3.8525 9.7831,-1.8757 10.4928,7.1168 -5.0534,21.2543 -21.0614,19.7592 -8.3891,-1.4343 -15.8,-3.0563 -16.5705,-4.4301 -0.7705,-1.3735 -19.4044,-16.565 -42.3265,-32.963 z"
         id="path32"
         style="stroke-width:0.70437" />
      <path
         d="m 4264.2452,4213.3661 c -7.3098,-14.3198 24.3606,-66.034 47.3178,-78.5496 15.2982,-7.4973 42.9243,6.9845 39.0975,21.4108 -1.8096,6.4326 0.5221,8.014 12.054,7.3246 8.4094,-1.1053 19.9009,3.2844 26.6884,9.5901 11.0556,10.0516 9.8492,14.34 -12.9151,51.6683 -22.7642,37.3283 -26.3024,40.0351 -41.7071,36.3959 -9.555,-2.2252 -20.2355,-10.3203 -25.2539,-17.9793 -5.3935,-9.6159 -13.5547,-15.1511 -23.3176,-15.815 -10.3458,-1.0592 -17.9239,-6.199 -21.964,-14.0458 z m 41.4642,-5.9211 c 23.4794,-4.5016 24.6858,-8.79 3.4517,-16.383 -8.7643,-3.3911 -17.9645,-1.12 -22.3136,5.2923 -9.4889,13.9904 -6.5741,15.9673 18.8619,11.0907 z m 53.6653,7.4607 c 11.8613,-17.4882 19.4138,-33.6431 15.9162,-36.0153 -6.4123,-4.3491 -44.9308,48.678 -42.4721,58.8565 2.2507,11.7397 4.4151,9.8034 26.5559,-22.8412 z m -34.3784,-49.7009 c 5.1399,-7.5781 7.1571,-15.572 3.6596,-17.9443 -2.9148,-1.9767 -11.3646,4.2074 -18.0861,14.1175 -6.7213,9.9099 -8.7386,17.9037 -3.6594,17.9442 4.6837,0.6235 12.5507,-5.9562 18.0859,-14.1174 z"
         id="path34"
         style="stroke-width:0.70437" />
      <path
         d="m 4355.4116,4270.9434 c 3.163,-4.6635 7.867,-6.5797 11.3647,-4.2074 2.9146,1.9769 16.8997,-12.3686 31.5082,-31.3978 16.1901,-21.3608 29.572,-33.5621 35.4217,-32.1479 6.4326,1.8095 1.46,12.9056 -17.1224,40.3036 -17.0011,25.0664 -24.1583,40.6385 -20.0979,45.9457 8.3081,11.5925 -6.9292,11.4711 -27.9352,-0.2228 -12.4495,-6.7415 -16.6975,-13.027 -13.1391,-18.2734 z"
         id="path36"
         style="stroke-width:0.70437" />
      <path
         d="m 4221.0415,4167.8929 c 4.3491,-6.4124 10.2393,-10.0773 13.1541,-8.1004 2.9146,1.9768 2.8538,9.5954 0.2536,17.1939 -3.3911,8.7643 -7.9075,11.6587 -13.154,8.1004 -4.6634,-3.163 -4.6027,-10.7816 -0.2537,-17.1939 z"
         id="path38"
         style="stroke-width:0.70437" />
      <path
         d="m 3810.3776,3777.0193 c 44.2925,-17.6204 56.9242,-33.7348 45.5744,-55.9013 -4.04,-7.8468 -7.8521,-19.7943 -8.1868,-26.83 -0.5018,-10.5537 -19.3434,-24.1839 -101.3705,-76.4136 l -100.8888,-63.3202 73.2168,30.0834 c 110.0228,44.8336 142.7888,51.737 147.447,31.0656 1.4141,-5.8497 5.5352,-8.1611 9.0328,-5.7889 15.1564,10.2797 16.7325,-15.8864 3.7553,-54.4763 -7.8318,-22.3338 -12.9568,-41.1297 -11.0003,-41.5049 1.3738,-0.7704 19.7795,18.522 41.0797,42.3306 26.714,30.885 50.9693,51.5914 84.2171,71.5881 54.6289,33.6472 67.3266,33.7484 127.3734,0.4291 l 41.2104,-23.1152 -7.0506,26.7086 c -13.8932,51.856 -31.1534,35.8939 246.3253,224.0912 247.749,168.0332 250.6636,170.0101 268.1976,200.6266 35.6308,64.1676 37.3755,139.3964 4.5596,187.7803 -14.6288,21.5687 -22.2879,26.5871 -46.9333,30.298 l -29.7244,3.6703 -250.6635,-170.0101 c -182.4598,-123.7516 -251.8496,-168.2613 -255.0127,-163.5979 -2.7676,4.0806 -5.4286,19.2978 -5.55,34.5351 -1.0998,15.4249 -2.9498,26.9366 -4.6985,25.7505 -2.3318,-1.5815 -12.1204,-23.5402 -22.0762,-49.0167 -22.5983,-57.0308 -50.4174,-96.3253 -77.6685,-108.8502 -11.2836,-5.9509 -20.4028,-13.8381 -20.1748,-17.9389 -0.3549,-4.4962 -4.6027,-10.7817 -9.8493,-14.34 -13.4075,-9.0935 -98.4856,-21.6889 -144.5929,-21.4702 l -37.5105,0.092 z m 260.0904,65.7613 c 3.3911,-8.7644 7.446,-27.2915 10.8776,-41.1349 6.9033,-32.766 9.671,-36.8465 22.4956,-28.1483 6.9952,4.7444 6.8738,19.9818 -2.3817,53.7057 -11.5008,45.8187 -11.1256,47.7754 8.1113,60.8227 11.0757,7.512 21.7968,10.528 24.1689,7.0303 3.163,-4.6635 5.4949,-3.082 7.9737,4.5569 1.5207,5.2869 30.4396,29.1564 62.6888,51.8802 56.1497,38.934 60.6255,41.1187 71.0524,32.0197 11.8004,-9.8694 11.8004,-9.8694 11.4712,6.9293 0.087,13.676 6.666,21.543 29.7959,36.3796 16.7176,10.4874 31.1239,16.8539 32.7054,14.5221 1.9767,-2.9146 7.01,-21.6294 11.6682,-42.3008 10.1271,-45.0481 13.4979,-51.2728 22.5767,-38.3066 5.4137,7.0761 8.3487,6.5136 12.3226,-1.8555 6.1789,-15.3844 -27.5708,-45.9346 -36.2691,-33.11 -4.3491,6.4124 -7.8467,4.0401 -16.3019,-13.61 -10.5794,-20.7927 -12.3281,-21.9789 -24.6711,-17.584 -11.3646,4.2074 -13.6963,2.626 -15.3642,-8.7184 -3.5637,-18.5878 -17.4477,-16.9402 -19.3583,2.1901 -1.4345,8.3891 -5.2208,17.7364 -9.1544,21.0263 -3.9334,3.2898 -4.4354,-7.2639 -1.7743,-22.4809 5.697,-28.4778 -1.4048,-44.3586 -12.4753,-28.0364 -3.1629,4.6634 -9.3824,25.1271 -14.0403,45.7985 -9.9195,43.4869 -10.3149,44.0698 -17.893,38.93 -3.4977,-2.3722 -4.7905,-11.76 -2.9607,-20.7321 16.8432,-78.7925 17.5071,-88.5554 7.5567,-90.1976 -9.1597,-2.8081 -12.343,4.3949 -20.2652,42.4277 -9.7319,44.4652 -21.7806,60.9751 -22.3284,31.6662 -1.0243,-18.5677 -14.224,-29.2225 -17.8634,-13.8178 -1.4142,5.8496 -4.7647,9.5348 -7.6794,7.558 -5.8294,-3.9538 4.9617,-58.7648 12.8692,-70.4236 3.3505,-3.6852 5.4745,-0.5425 5.7889,9.0329 0.5221,8.014 5.5204,18.2128 10.7669,21.7712 9.3269,6.3259 9.9301,4.1817 9.1339,-18.4868 -0.5478,-29.3088 -13.0836,-49.7265 -30.4855,-47.9116 -6.4528,0.73 -12.0946,-2.2454 -12.8449,-6.1586 -2.6461,-11.1568 -122.3563,-90.6469 -127.1008,-83.6516 -1.9769,2.9146 -10.0057,29.8107 -17.6595,58.6635 l -12.7275,52.6467 31.4787,21.35 c 30.3128,20.5594 31.874,20.7673 36.0963,5.7579 z m 317.1792,207.4639 c 7.7402,-15.1766 7.7402,-15.1766 9.4944,9.8438 1.379,23.064 3.3155,25.2283 53.4482,59.2305 36.7251,24.9084 53.463,32.8562 56.626,28.1928 3.5583,-5.2464 5.3072,-4.0604 6.9951,4.7445 1.3131,6.8481 8.0803,15.6934 15.6585,20.8333 10.4929,7.1166 15.7799,5.5959 23.2919,-5.48 6.3259,-9.327 6.3867,-16.9456 1.1403,-20.504 -4.6636,-3.163 -10.721,-3.016 -13.4885,1.0647 -3.5584,5.2464 -5.3072,4.0602 -6.8079,-3.7662 -1.5004,-7.8265 2.0579,-13.0729 12.2567,-18.0712 25.3091,-13.4736 35.2542,-35.6657 26.444,-57.8121 -7.1019,-15.8809 -11.9529,-20.0222 -24.2553,-20.7064 -8.2016,-0.4561 -14.8218,-3.2439 -14.5937,-7.3447 0.061,-7.6187 -27.3172,-28.7408 -38.0584,-29.2172 -3.1225,-0.4156 -11.2984,20.4232 -17.5583,45.9659 -9.0679,34.7023 -14.0405,45.7983 -19.2868,42.24 -4.6636,-3.163 -1.9419,-25.9988 5.2963,-51.729 10.0462,-34.8899 10.5428,-48.1706 2.3817,-53.7058 -10.4929,-7.1168 -11.6791,-5.3679 -22.7846,39.8679 -8.2973,36.076 -12.8746,46.5892 -19.2868,42.24 -8.1612,-5.5352 -10.5038,-54.7854 -4.5583,-89.9034 2.4329,-11.1163 0.9729,-24.0219 -2.6921,-29.912 -4.8309,-6.6809 -7.5782,-5.1398 -12.7787,10.057 -3.9942,10.9085 -13.7314,31.5394 -22.45,46.9036 -8.1355,15.7595 -16.0834,32.4975 -17.102,37.7641 -5.0131,16.1753 14.1375,15.5465 22.6683,-0.7961 z"
         id="path40"
         style="stroke-width:0.70437" />
      <path
         d="m 4030.8228,3792.0609 c 3.391,-8.7642 7.9074,-11.6587 13.1539,-8.1004 13.4075,9.0936 17.2345,-5.3328 5.4488,-21.8372 -13.139,-18.2735 -5.0036,-34.0331 11.3187,-22.9627 6.4124,4.3491 11.6588,7.9075 11.2635,8.4904 0,0 -4.2425,17.5489 -9.296,38.8032 l -8.9007,38.2203 -13.9905,-9.489 c -8.7441,-5.9305 -12.3888,-14.3603 -8.9977,-23.1246 z"
         id="path42"
         style="stroke-width:0.70437" />
      <path
         d="m 4118.2635,3851.3668 c 3.3911,-8.7644 7.9075,-11.6587 13.1539,-8.1004 13.4077,9.0935 17.2345,-5.3328 5.4489,-21.8373 -6.1843,-8.4499 -8.2475,-19.2113 -5.0845,-23.8748 4.7445,-6.9952 8.6374,-5.2059 16.1752,5.013 6.1843,8.4499 6.4381,25.6439 0.9891,47.4811 l -7.6942,33.9318 -13.9905,-9.4888 c -8.7441,-5.9306 -12.3888,-14.3603 -8.9979,-23.1246 z"
         id="path44"
         style="stroke-width:0.70437" />
      <path
         d="m 4256.0044,3948.1926 c 3.6393,-15.4047 4.8254,-17.1535 11.2378,-12.8044 2.9146,1.9768 2.8538,9.5955 0.2536,17.1939 -5.9913,16.3628 -15.3386,12.5764 -11.4914,-4.3895 z"
         id="path46"
         style="stroke-width:0.70437" />
      <path
         d="m 4309.7359,3971.869 c 7.3394,-38.428 13.7463,-57.9133 17.8268,-55.1457 5.2466,3.5583 -9.559,71.8175 -16.6352,77.2312 -3.5382,2.7068 -4.4355,-7.2637 -1.1916,-22.0855 z"
         id="path48"
         style="stroke-width:0.70437" />
      <path
         d="m 4286.3321,3942.378 c -1.1457,-3.3302 0.2684,-9.18 2.6406,-12.6776 2.3723,-3.4976 4.8916,-0.9377 6.2046,5.9104 1.1254,5.8698 -0.2888,11.7195 -2.6407,12.6775 -2.935,0.5628 -6.0372,-2.3924 -6.2045,-5.9103 z"
         id="path50"
         style="stroke-width:0.70437" />
      <path
         d="m 4489.1798,4106.3415 c 3.4516,-16.383 4.8254,-17.1534 15.3183,-10.0368 13.4076,9.0936 15.9013,-9.6413 2.9093,-21.8575 -14.7408,-13.4021 -2.4641,-34.0129 13.8583,-22.9424 6.4123,4.349 9.2865,11.405 6.5189,15.4857 -2.7677,4.0805 -1.0592,10.3458 3.6042,13.5088 4.6635,3.163 11.907,1.267 15.4654,-3.9794 4.7445,-6.9952 7.2841,-6.975 8.7845,0.8515 1.5006,7.8264 -2.0577,13.0729 -12.2565,18.071 -7.8467,4.0401 -19.0642,14.305 -24.5994,22.4661 -7.5122,11.0759 -13.1943,13.1796 -21.3556,7.6444 -5.8293,-3.9538 -10.057,-12.7788 -8.2474,-19.2114 z"
         id="path52"
         style="stroke-width:0.70437" />
      <path
         style="fill:#000000;stroke-width:4.67957"
         d="m 6904.6643,4179.8044 1.3838,31.5871 13.9831,-1.521 c 19.8739,-2.1628 23.6124,-6.8396 24.6573,-30.8455 1.0157,-23.3385 -6.0602,-30.807 -29.1875,-30.807 -12.1038,0 -12.2071,0.3007 -10.8366,31.5871 z m 27.1213,-7.9132 c 0,2.422 -3.1587,4.4035 -7.0193,4.4035 -7.2366,0 -9.2969,-5.5218 -4.0269,-10.7918 3.7386,-3.7386 11.0462,0.4881 11.0462,6.3883 z m -2.3398,18.4422 c 1.5908,2.5737 -0.3907,4.6796 -4.4034,4.6796 -4.0125,0 -7.2955,-2.1059 -7.2955,-4.6796 0,-2.5738 1.9815,-4.6795 4.4034,-4.6795 2.4218,0 5.7048,2.1057 7.2955,4.6795 z m 30.4172,-11.699 v 30.4173 h 18.4421 c 22.4647,0 25.9217,-4.7597 26.3399,-36.2667 0.344,-25.9112 -5.426,-31.5295 -15.6186,-15.2085 -3.2147,5.1475 -7.9328,9.3592 -10.4848,9.3592 -2.5519,0 -4.6399,-4.2117 -4.6399,-9.3592 0,-5.1995 -3.1198,-9.3592 -7.0194,-9.3592 -5.5194,0 -7.0193,6.4994 -7.0193,30.4171 z m 30.7406,7.5426 c 4.0338,6.5269 -8.1468,14.5833 -13.6813,9.0488 -4.5014,-4.5014 -0.1645,-14.2514 6.3385,-14.2514 2.27,0 5.5742,2.3411 7.3428,5.2026 z m 35.6557,-28.4182 c -12.0618,11.2372 -13.5128,33.3144 -2.8879,43.9392 11.1847,11.1848 37.4408,9.4531 46.1961,-3.0467 10.268,-14.6596 9.0559,-28.4203 -3.546,-40.2591 -13.5513,-12.7308 -26.5549,-12.9379 -39.7622,-0.6332 z m 30.9578,22.6034 c -1.5838,13.6121 -16.4667,19.6004 -23.0186,9.2618 -5.5872,-8.8166 -5.1572,-11.6456 3.0128,-19.8155 10.2972,-10.2973 21.7301,-4.2662 20.0058,10.5537 z m 36.7388,-23.5871 c -10.3145,11.3974 -10.8817,52.2766 -0.7253,52.2766 5.0326,0 7.0193,-5.1359 7.0193,-18.1453 0,-17.2792 9.0689,-32.0604 15.6392,-25.49 1.6935,1.6943 3.0791,12.2042 3.0791,23.3572 0,14.9052 1.8598,20.2781 7.0193,20.2781 6.7588,0 9.8016,-15.7772 7.6716,-39.7763 -1.7412,-19.619 -26.2715,-27.3422 -39.7032,-12.5003 z m 65.4197,1.1408 c -13.0574,10.2709 -15.9147,26.3344 -7.4858,42.084 6.0553,11.3143 37.8439,12.6199 46.7249,1.919 8.1099,-9.7718 2.2527,-14.1572 -10.9027,-8.1632 -20.802,9.4781 -36.705,-12.6314 -19.41,-26.9851 5.4669,-4.5371 8.5317,-4.6761 12.6348,-0.573 4.1032,4.1033 4.0551,5.4172 -0.1982,5.4172 -3.0886,0 -5.6155,3.1588 -5.6155,7.0194 0,4.6795 4.6795,7.0193 14.0387,7.0193 11.768,0 14.0387,-1.8493 14.0387,-11.4335 0,-11.0894 -14.9966,-26.0029 -26.1478,-26.0029 -2.9409,0 -10.8955,4.3643 -17.677,9.6988 z m 57.8635,20.7183 c 0,23.9178 1.4998,30.4172 7.0194,30.4172 3.8996,0 7.0193,-4.1597 7.0193,-9.3592 0,-6.2393 3.1198,-9.359 9.3592,-9.359 6.2394,0 9.3591,3.1197 9.3591,9.359 0,5.1995 3.1197,9.3592 7.0193,9.3592 5.5195,0 7.0194,-6.4994 7.0194,-30.4172 0,-23.9178 -1.4999,-30.4171 -7.0194,-30.4171 -4.6795,0 -7.0193,4.6795 -7.0193,14.0387 0,10.919 -2.0798,14.0387 -9.3591,14.0387 -7.2794,0 -9.3592,-3.1197 -9.3592,-14.0387 0,-9.3592 -2.3398,-14.0387 -7.0193,-14.0387 -5.5195,0 -7.0194,6.4993 -7.0194,30.4171 z m 73.4107,-27.395 c -1.7695,1.7695 -3.2172,12.1171 -3.2172,22.9946 0,13.2632 -2.312,20.6648 -7.0194,22.4711 -14.853,5.6997 -6.0355,12.3465 16.3785,12.3465 17.6784,0 23.3979,-1.7156 23.3979,-7.0194 0,-3.8606 -3.0434,-7.0193 -6.763,-7.0193 -4.7289,0 -7.1919,-6.5752 -8.1892,-21.8621 -1.3371,-20.4928 -7.1999,-29.2991 -14.5876,-21.9114 z m 71.6559,19.9858 c 0,18.0249 -1.6997,23.7877 -7.0195,23.7877 -3.8606,0 -7.0192,3.1587 -7.0192,7.0193 0,5.1996 5.4595,7.0194 21.0579,7.0194 15.5987,0 21.0582,-1.8198 21.0582,-7.0194 0,-3.8606 -3.0434,-7.0193 -6.763,-7.0193 -4.7289,0 -7.1919,-6.5752 -8.1892,-21.8621 -2.0368,-31.2209 -13.1252,-32.8479 -13.1252,-1.9256 z m 42.4556,-10.6779 c -11.5898,14.7341 -12.1865,24.1517 -2.414,38.1039 9.1838,13.1116 34.6787,14.1372 45.805,1.8428 11.3567,-12.549 9.9633,-36.1533 -2.6557,-44.9921 -15.2806,-10.7031 -29.7581,-8.9098 -40.7353,5.0454 z m 34.7571,20.4269 c 0,8.5764 -2.8159,12.0988 -10.5498,13.197 -11.4982,1.6325 -18.0288,-8.4027 -13.3695,-20.5445 1.6909,-4.4073 7.0414,-6.7482 13.3695,-5.8495 7.7339,1.0983 10.5498,4.6206 10.5498,13.197 z m 65.9277,-28.7466 c -1.5317,2.4773 -1.5193,7.7995 0.035,11.8269 1.5459,4.0278 -1.6059,14.4689 -7.004,23.2027 -5.3997,8.7339 -9.8162,17.2106 -9.8162,18.837 0,6.408 13.8564,2.4857 18.4822,-5.2318 4.675,-7.7993 5.2121,-7.7993 11.2775,0 3.5029,4.504 10.064,8.1892 14.5805,8.1892 7.7681,0 7.7545,-0.6951 -0.2512,-12.8688 -4.6544,-7.0779 -9.6423,-20.0662 -11.0841,-28.863 -2.6113,-15.9301 -10.9169,-23.6616 -16.2129,-15.0922 z m 50.8488,7.4759 c -13.6094,13.6094 -14.8222,30.8398 -2.9285,41.6035 10.8263,9.7975 35.3036,10.0106 44.9231,0.3909 16.5628,-16.5629 2.1104,-53.4808 -20.9364,-53.4808 -5.2646,0 -14.7407,5.1687 -21.0582,11.4862 z m 30.4435,9.3472 c 8.6279,10.3959 1.5352,25.9622 -11.8278,25.9622 -9.4565,0 -11.3836,-2.3106 -11.3836,-13.6487 0,-11.9575 4.2789,-17.4359 14.6356,-18.7389 1.6147,-0.2034 5.4743,2.6883 8.5758,6.4254 z m 35.4325,-10.0193 c -9.9789,15.2297 -7.6443,49.9634 3.3603,49.996 6.5736,0.018 8.1892,-4.0759 8.1892,-20.7577 0,-11.4301 1.8672,-21.9359 4.1495,-23.3462 8.1209,-5.0191 15.8116,11.2589 13.1291,27.7893 -1.898,11.6961 -0.9109,16.3388 3.4757,16.3388 9.9604,0 13.6549,-36.5577 5.0255,-49.7279 -9.4726,-14.4571 -27.9533,-14.6018 -37.3293,-0.2918 z m 81.7431,19.1023 c 0,23.1035 1.7049,30.5707 7.4854,32.7889 11.0184,4.2282 32.2138,-7.6246 32.7884,-18.3358 0.2742,-5.1 2.2043,-13.2859 4.29,-18.1909 4.9505,-11.641 -12.2888,-26.1786 -31.0436,-26.1786 -13.4974,0 -13.5202,0.053 -13.5202,29.9164 z m 28.0773,-6.2424 c 0,2.4218 -3.1586,4.4034 -7.0192,4.4034 -7.2366,0 -9.297,-5.5217 -4.0269,-10.7918 3.7386,-3.7388 11.0461,0.4881 11.0461,6.3884 z m -2.3397,18.4421 c 1.59,2.5737 -0.3909,4.6795 -4.4034,4.6795 -4.0126,0 -7.2956,-2.1058 -7.2956,-4.6795 0,-2.5737 1.9816,-4.6797 4.4034,-4.6797 2.4219,0 5.7049,2.106 7.2956,4.6797 z m 44.4558,-26.3687 c 0,8.6616 -4.2111,21.1011 -9.359,27.6455 -5.1476,6.544 -9.3592,13.1455 -9.3592,14.6697 0,6.2041 15.7603,2.2102 21.3779,-5.4175 5.7439,-7.7993 6.1822,-7.7993 9.2057,0 1.7457,4.504 7.1609,8.1892 12.0332,8.1892 11.1376,0 11.0313,-3.9756 -0.5005,-18.7182 -5.0331,-6.4345 -9.1979,-18.5429 -9.255,-26.9076 -0.071,-10.3528 -2.3453,-15.2085 -7.1235,-15.2085 -4.8489,0 -7.0194,4.8693 -7.0194,15.7474 z m 74.6116,-7.1176 c -12.0219,9.7349 -14.429,33.1225 -4.625,44.9359 7.8144,9.4156 34.8798,9.3637 44.3287,-0.088 10.6844,-10.6846 9.4842,-11.6689 -12.5347,-10.2798 -18.4288,1.1621 -19.8881,0.3962 -19.8881,-10.444 0,-10.8628 1.4379,-11.6074 20.1117,-10.419 18.4948,1.1779 19.7279,0.5624 15.3386,-7.6387 -8.8085,-16.4587 -26.7533,-19.0075 -42.7312,-6.0694 z m 51.7367,-5.7053 c 0,8.6345 25.4591,57.8978 29.8864,57.8299 5.2667,-0.088 26.3489,-44.0985 26.2967,-54.9049 -0.035,-6.9972 -7.656,-7.7575 -11.7273,-1.1691 -1.59,2.5737 -7.9079,4.6795 -14.0386,4.6795 -6.1306,0 -12.448,-2.1058 -14.0387,-4.6795 -3.1456,-5.0897 -16.3785,-6.5076 -16.3785,-1.7545 z m 32.7571,25.1529 c 0,2.5738 -2.1059,4.6795 -4.6797,4.6795 -2.5738,0 -4.6795,-2.1057 -4.6795,-4.6795 0,-2.5738 2.1057,-4.6797 4.6795,-4.6797 2.5738,0 4.6797,2.1059 4.6797,4.6797 z m 35.8766,-24.9577 c -1.7156,1.7156 -3.1197,15.5189 -3.1197,30.6734 v 27.5539 l 22.2279,-1.4255 22.228,-1.4255 0.5217,-21.058 c 0.2865,-11.582 2.0916,-24.7433 4.0104,-29.2474 5.0193,-11.782 -9.8558,-10.7771 -17.3169,1.1709 -3.2147,5.1475 -7.1986,9.3592 -8.853,9.3592 -1.6537,0 -4.1095,-4.2117 -5.4556,-9.3592 -2.4609,-9.4105 -8.4485,-12.0336 -14.2426,-6.2395 z m 29.6372,36.6564 c 0,3.8609 -3.1587,7.0195 -7.0193,7.0195 -3.8606,0 -7.0194,-3.1586 -7.0194,-7.0195 0,-3.8606 3.1588,-7.0192 7.0194,-7.0192 3.8606,0 7.0193,3.1586 7.0193,7.0192 z m 28.0774,-9.359 c 0,23.9178 1.4998,30.4172 7.0194,30.4172 5.1832,0 7.0193,-5.4234 7.0193,-20.7325 0,-17.9077 1.4291,-20.9365 10.4812,-22.228 5.7648,-0.8224 11.1836,-5.1805 12.0421,-9.6846 1.2805,-6.7145 -1.872,-8.1892 -17.5005,-8.1892 h -19.0615 z m 68.188,-23.0636 c -10.6399,10.6399 -9.1399,12.8917 6.5037,9.7632 17.7904,-3.5582 23.55,4.9618 6.2223,9.2042 -22.7886,5.5793 -26.657,20.6289 -8.3807,32.604 10.8476,7.1075 12.5611,7.1004 23.5469,-0.1062 13.7911,-9.0362 11.277,-19.3987 -2.8696,-11.8279 -9.4828,5.0752 -20.2573,2.0089 -16.1714,-4.6021 1.2752,-2.0636 8.6799,-5.0241 16.4547,-6.5791 10.8645,-2.1728 14.1362,-5.3452 14.1362,-13.7071 0,-20.992 -24.1659,-30.0337 -39.4421,-14.7574 z m 80.3882,-2.2992 c -8.7656,5.1056 -11.0789,20.6847 -3.7444,25.2176 2.4446,1.5105 6.7619,-1.5829 9.5939,-6.8742 2.8321,-5.2916 7.1492,-8.385 9.5939,-6.8742 5.8975,3.645 5.7156,28.9345 -0.2353,32.6119 -8.5044,5.256 -4.8652,11.6989 6.6081,11.6989 9.5375,0 11.7819,-2.9262 14.4761,-18.8722 5.31,-31.43 -13.2653,-50.32 -36.2926,-36.9078 z m 52.6452,25.6319 v 30.6863 l 19.4116,-1.4397 c 23.6126,-1.751 32.8522,-12.6666 23.456,-27.7122 -4.4465,-7.12 -4.7677,-11.3588 -1.1354,-14.9907 2.7851,-2.7851 5.0638,-7.8014 5.0638,-11.1473 0,-9.4572 -13.1339,-7.1586 -18.7182,3.2757 -2.7549,5.1475 -7.0407,9.3592 -9.5239,9.3592 -2.4831,0 -4.5148,-4.2117 -4.5148,-9.3592 0,-5.1995 -3.1197,-9.359 -7.0194,-9.359 -5.5258,0 -7.0193,6.5291 -7.0193,30.6862 z m 29.4945,9.0259 c 0.5076,2.5386 -2.7625,5.3253 -7.2665,6.1926 -5.1224,0.987 -8.1893,-1.3088 -8.1893,-6.1286 0,-8.1414 13.8295,-8.1987 15.4558,-0.071 z m 26.6603,-30.3531 c 0,6.0315 2.3697,9.3491 5.8494,8.1892 3.2173,-1.0718 5.8494,-4.7575 5.8494,-8.1892 0,-3.4315 -2.6321,-7.1167 -5.8494,-8.1892 -3.4797,-1.1602 -5.8494,2.1577 -5.8494,8.1892 z m -205.9009,46.7958 c 0,2.5737 2.1058,4.6795 4.6795,4.6795 2.5737,0 4.6797,-2.1058 4.6797,-4.6795 0,-2.5738 -2.106,-4.6797 -4.6797,-4.6797 -2.5737,0 -4.6795,2.1059 -4.6795,4.6797 z m -1573.4486,86.4099 c -1.2239,6.4026 -1.1229,12.7432 0.2244,14.0907 1.3474,1.3477 491.6984,2.4498 1089.669,2.4498 h 1087.219 v -13.9275 -13.9274 l -1087.4435,-0.1592 -1087.4436,-0.1592 -2.2254,11.6408 z m 478.4301,117.1515 v 44.4558 h 596.6446 596.6448 v -44.4558 -44.4559 h -596.6448 -596.6446 z m 84.2322,-13.9112 c 0,5.3348 2.458,12.1574 5.4621,15.1616 4.163,4.1631 3.3283,6.2642 -3.5097,8.8352 -4.9344,1.8551 -11.7363,6.6621 -15.1152,10.6825 -4.8443,5.7637 -6.6797,6.0084 -8.68,1.1566 -1.3951,-3.3836 -7.9231,-8.2 -14.5067,-10.703 -9.0977,-3.4589 -10.6644,-5.8568 -6.5286,-9.9927 2.9929,-2.9927 5.4416,-9.8063 5.4416,-15.1409 0,-8.1963 2.9008,-9.6995 18.7182,-9.6995 15.8175,0 18.7183,1.5034 18.7183,9.6995 z m 79.5526,0.6597 c 0,5.6975 2.1058,11.6607 4.6796,13.2513 6.8416,4.2283 5.7135,11.699 -1.7669,11.699 -3.5455,0 -9.1119,3.2118 -12.3699,7.1373 -5.0467,6.0809 -7.0364,6.1863 -13.4417,0.7111 -4.1351,-3.5344 -11.4901,-7.843 -16.3445,-9.5748 -8.4365,-3.0096 -8.4631,-3.5499 -0.6024,-12.2359 4.5231,-4.9979 7.1653,-11.8458 5.8715,-15.2174 -1.6903,-4.4048 2.7594,-6.1301 15.811,-6.1301 15.628,0 18.1632,1.445 18.1632,10.3592 z m 81.8722,-3.7265 c -1.3999,3.6478 0.9421,10.486 5.2046,15.1959 7.2893,8.0546 7.0471,8.8305 -4.076,13.0595 -6.5041,2.4728 -12.9672,7.2644 -14.3623,10.6481 -2.0002,4.8508 -3.8356,4.6063 -8.68,-1.1567 -3.3789,-4.0202 -10.1807,-8.8274 -15.1152,-10.6825 -6.838,-2.5709 -7.6727,-4.6721 -3.5097,-8.8352 3.0041,-3.004 5.4621,-9.8268 5.4621,-15.1616 0,-8.2043 2.8997,-9.6993 18.8108,-9.6993 14.3106,0 18.202,1.5865 16.2657,6.6325 z m 81.9126,3.7265 c 0,5.6975 2.1059,11.6607 4.6797,13.2513 7.3231,4.526 5.4876,11.699 -2.9938,11.699 -4.2204,0 -10.6702,3.6851 -14.3327,8.1892 -5.0992,6.2707 -7.2536,6.7479 -9.196,2.0375 -1.3951,-3.3837 -7.8581,-8.1753 -14.3623,-10.6481 -11.1231,-4.229 -11.3653,-5.0049 -4.0759,-13.0595 4.2623,-4.7099 6.6044,-11.5481 5.2045,-15.1959 -1.9362,-5.046 1.9551,-6.6327 16.2658,-6.6327 16.2964,0 18.8107,1.3849 18.8107,10.3592 z m 80.7699,-4.229 c -1.2929,3.3714 1.3388,10.2097 5.8523,15.1959 7.8871,8.7152 7.7468,9.2398 -3.6214,13.562 -6.5042,2.4728 -12.9672,7.2644 -14.3623,10.6481 -1.9424,4.7104 -4.0968,4.2332 -9.196,-2.0375 -3.6625,-4.5041 -10.1122,-8.1892 -14.3326,-8.1892 -8.4814,0 -10.3169,-7.173 -2.9938,-11.699 2.5737,-1.59 4.6797,-7.5538 4.6797,-13.2513 0,-8.9133 2.5352,-10.3592 18.1632,-10.3592 13.0516,0 17.5012,1.7245 15.8109,6.1302 z m 83.015,3.5693 c 0,5.3346 2.4579,12.1574 5.4621,15.1614 4.163,4.1631 3.3283,6.2644 -3.5097,8.8354 -4.9346,1.8551 -11.7363,6.6621 -15.1153,10.6823 -4.8443,5.7639 -6.6797,6.0084 -8.68,1.1567 -1.3955,-3.3836 -7.8582,-8.1751 -14.3622,-10.648 -11.1233,-4.2291 -11.3654,-5.005 -4.0761,-13.0596 4.2625,-4.7097 6.6046,-11.5481 5.2047,-15.1959 -1.9364,-5.0458 1.955,-6.6325 16.2656,-6.6325 15.9111,0 18.8109,1.4945 18.8109,9.6993 z m 82.2965,-0.6668 c 0.2229,5.4441 2.0269,13.5836 4.0104,18.0877 2.3819,5.4091 1.5759,8.1892 -2.3756,8.1892 -3.2899,0 -9.7886,3.4454 -14.4418,7.6563 -7.8328,7.0888 -8.6779,7.0888 -11.3981,0 -1.6165,-4.2109 -6.9243,-7.6563 -11.7964,-7.6563 -9.4559,0 -11.9248,-6.9117 -4.1789,-11.6989 2.5737,-1.5901 4.6795,-7.5415 4.6795,-13.2243 0,-8.7376 2.7078,-10.403 17.5484,-10.7921 14.7743,-0.3874 17.6122,1.1054 17.9525,9.4384 z m 81.4883,0.6668 c 0,5.3346 2.4487,12.1482 5.4415,15.1411 4.1358,4.1356 2.5691,6.5336 -6.5285,9.9925 -6.5836,2.5031 -13.2438,7.3194 -14.8008,10.7031 -2.3385,5.0827 -3.3224,5.0827 -5.6611,0 -1.5564,-3.3837 -7.9973,-8.1164 -14.3123,-10.5173 -10.6307,-4.0418 -10.9673,-5.1 -4.5418,-14.2736 3.817,-5.4494 6.0043,-12.3465 4.8607,-15.3266 -1.3619,-3.5513 4.4031,-5.4187 16.7314,-5.4187 15.9112,0 18.8109,1.4945 18.8109,9.6995 z m 80.9484,-0.2335 c 1.1443,5.2061 3.6292,13.1507 5.5224,17.6547 2.6132,6.2171 1.1886,8.1893 -5.9169,8.1893 -5.1474,0 -10.6812,3.4453 -12.2971,7.6563 -2.6107,6.8033 -3.8395,6.8825 -11.0296,0.711 -4.4505,-3.8197 -12.1001,-8.376 -16.9993,-10.1248 -8.5543,-3.0538 -8.5718,-3.4254 -0.4404,-9.3707 5.0872,-3.7199 7.5274,-9.7812 6.1141,-15.1862 -2.0138,-7.7006 0.1892,-8.9954 15.3073,-8.9954 13.9208,0 18.1005,2.0042 19.7402,9.4655 z m 81.7808,-1.8887 c -0.7057,4.1671 1.5776,11.0239 5.0741,15.2373 5.5419,6.6776 4.8541,8.2324 -5.3589,12.1155 -6.4442,2.4499 -12.9906,7.223 -14.5473,10.6066 -2.3387,5.0828 -3.3224,5.0828 -5.6611,0 -1.5564,-3.3836 -8.2172,-8.2 -14.8007,-10.703 -9.0977,-3.459 -10.6644,-5.8569 -6.5286,-9.9927 2.9929,-2.9928 5.4416,-9.8063 5.4416,-15.141 0,-8.2062 2.8994,-9.6994 18.8321,-9.6994 14.7644,0 18.555,1.636 17.5488,7.5767 z m 80.6082,2.7825 c 0,5.6975 2.1058,11.6605 4.6795,13.2512 7.7458,4.7872 5.277,11.699 -4.1788,11.699 -4.8723,0 -10.1805,3.4453 -11.7965,7.6563 -2.6108,6.8033 -3.8396,6.8825 -11.0298,0.711 -4.4502,-3.8197 -12.0634,-8.3618 -16.9178,-10.0937 -8.4365,-3.0095 -8.463,-3.5499 -0.6032,-12.2359 4.5232,-4.9979 7.1654,-11.8458 5.8716,-15.2174 -1.6908,-4.4048 2.7595,-6.1301 15.8111,-6.1301 15.628,0 18.1632,1.445 18.1632,10.3592 z m 81.8721,-3.7268 c -1.4008,3.648 0.9427,10.4862 5.2046,15.1961 7.2894,8.0545 7.0472,8.8306 -4.076,13.0594 -6.5041,2.4729 -12.9671,7.2646 -14.3622,10.6482 -2.0004,4.8509 -3.8357,4.6063 -8.6801,-1.1567 -3.3788,-4.0204 -10.1807,-8.8274 -15.1152,-10.6825 -6.838,-2.5709 -7.6726,-4.6721 -3.5095,-8.8352 3.004,-3.0042 5.4619,-9.8268 5.4619,-15.1616 0,-8.2042 2.8997,-9.6994 18.8109,-9.6994 14.3105,0 18.2019,1.5865 16.2656,6.6326 z m 81.9128,3.7268 c 0,5.6975 2.1057,11.6605 4.6795,13.2512 7.3231,4.526 5.4876,11.699 -2.9938,11.699 -4.2204,0 -10.67,3.6852 -14.3327,8.1892 -5.0992,6.2708 -7.2536,6.748 -9.1959,2.0375 -1.3955,-3.3836 -7.8581,-8.1753 -14.3624,-10.6482 -11.123,-4.2288 -11.3652,-5.0049 -4.0758,-13.0594 4.2622,-4.7099 6.6043,-11.5481 5.2046,-15.1961 -1.9363,-5.0458 1.9551,-6.6324 16.2656,-6.6324 16.2964,0 18.8109,1.3848 18.8109,10.3592 z m 80.8126,-2.7613 c -1.093,4.179 1.4928,11.0768 5.7436,15.3284 7.1876,7.1875 7.1309,7.9437 -0.8065,10.7679 -4.6953,1.6714 -12.1783,6.1631 -16.6286,9.9829 -7.1901,6.1711 -8.4191,6.0919 -11.0297,-0.7111 -1.6165,-4.2109 -6.9242,-7.6563 -11.7965,-7.6563 -9.4558,0 -11.9248,-6.9117 -4.1788,-11.6989 2.5737,-1.59 4.6795,-7.5538 4.6795,-13.2513 0,-8.8974 2.5403,-10.3592 18.0021,-10.3592 14.3071,0 17.5942,1.56 16.0149,7.598 z m -1143.0742,160.9821 v 54.3396 l 31.5871,-1.3831 c 28.7007,-1.2575 31.7237,-2.3457 33.0824,-11.9128 1.3407,-9.4391 -0.4759,-10.5289 -17.5483,-10.5289 -17.0616,0 -19.0438,-1.1868 -19.0438,-11.4024 0,-9.4372 2.6148,-11.6552 15.1703,-12.8689 26.1282,-2.5256 22.2177,-26.9463 -4.3448,-27.1324 -8.1054,-0.053 -10.5373,-3.2331 -11.6989,-15.2801 -1.2219,-12.6726 -3.6122,-15.4556 -14.3352,-16.6894 l -12.8688,-1.4803 z m 103.4656,-47.1875 c -15.2964,8.478 -23.5496,24.956 -23.7471,47.4132 -0.3622,41.164 42.0219,65.989 79.5399,46.5878 47.6906,-24.6618 28.8774,-100.8148 -24.7947,-100.3657 -10.8979,0.088 -24.8471,2.9552 -30.9981,6.3647 z m 46.2805,26.2265 c 18.676,18.6759 8.8341,46.7956 -16.3784,46.7956 -11.0781,0 -17.5497,-2.8037 -20.8935,-9.0515 -7.0923,-13.252 -5.9226,-28.7962 2.9005,-38.5455 10.091,-11.1505 22.714,-10.8562 34.3714,0.8012 z m 57.1715,19.8881 1.3231,52.6451 20.6827,1.4786 c 26.3639,1.8838 40.3746,-1.7014 51.9696,-13.2957 10.8069,-10.8068 12.2604,-36.0777 2.818,-48.991 -5.5444,-7.5824 -5.2269,-10.7426 2.3223,-23.1224 11.7139,-19.2091 11.1687,-21.3589 -5.4172,-21.3589 -11.2642,0 -16.1925,3.3831 -23.86,16.3786 -5.315,9.0081 -12.6142,16.3785 -16.2207,16.3785 -4.3741,0 -6.5571,-5.4528 -6.5571,-16.3785 0,-15.1179 -1.0923,-16.3786 -14.1919,-16.3786 h -14.192 z m 57.1492,11.3599 c 4.2184,10.9928 -8.0158,21.9225 -20.2075,18.053 -6.4876,-2.059 -9.881,-7.0456 -9.881,-14.5197 0,-9.4351 2.3172,-11.3834 13.5381,-11.3834 8.3537,0 14.6916,3.006 16.5504,7.8501 z m 91.5802,-10.5008 v 54.1258 l 24.5678,-0.071 c 29.6968,-0.088 45.8696,-7.5323 54.2357,-24.9806 12.2801,-25.6109 -5.7628,-54.5029 -34.0367,-54.5029 -14.0497,0 -16.2536,-1.6166 -17.5485,-12.8689 -1.1637,-10.1077 -4.2417,-13.1864 -14.3494,-14.3495 l -12.8689,-1.4803 z m 55.2108,10.0795 c 1.6644,11.651 -10.1105,22.795 -20.0544,18.9791 -4.2108,-1.6165 -7.079,-8.5898 -7.079,-17.2129 0,-13.0535 1.2805,-14.3489 12.8689,-13.0155 8.8741,1.0205 13.302,4.5129 14.2645,11.2493 z m 47.7398,-9.7688 v 53.8151 h 25.5174 c 30.6518,0 46.5362,-6.4685 53.5192,-21.7943 7.0967,-15.5755 6.5249,-25.7005 -2.1511,-38.0871 -6.7814,-9.6818 -6.6013,-11.694 2.3399,-26.1612 12.6785,-20.5143 12.3986,-21.5873 -5.6282,-21.5873 -12.7023,0 -16.8187,2.7934 -24.1347,16.3784 -4.8511,9.0081 -11.6475,16.3785 -15.1027,16.3785 -4.0603,0 -6.2824,-5.7934 -6.2824,-16.3785 0,-15.0786 -1.1143,-16.3784 -14.0388,-16.3784 h -14.0386 z m 55.2322,14.613 c 1.5335,10.7494 -8.643,17.2271 -20.1356,12.8169 -3.8606,-1.4821 -7.0192,-7.8726 -7.0192,-14.2026 0,-9.7947 1.917,-11.2885 12.8687,-10.0283 8.9522,1.0294 13.3001,4.5039 14.2861,11.414 z m 51.6665,-49.7096 c -0.4015,10.295 -0.7305,28.1943 -0.7305,39.7763 0,11.5819 0.329,27.4716 0.7305,35.3105 l 0.7304,14.2525 31.5872,-1.3831 c 28.7006,-1.2575 31.7236,-2.3457 33.0823,-11.9128 1.063,-7.4904 -0.9621,-10.6619 -7.0192,-10.99 -4.6831,-0.2529 -13.7793,-0.78 -20.2137,-1.1691 -19.3556,-1.1726 -14.5388,-14.5125 5.8495,-16.1998 15.0859,-1.2487 17.5484,-3.0545 17.5484,-12.8689 0,-10.2336 -1.9748,-11.4163 -19.0615,-11.4163 -15.6257,0 -18.7813,-1.4768 -17.5079,-8.1893 1.1337,-5.9738 6.9229,-8.5786 21.4011,-9.6282 17.5339,-1.2716 19.8478,-2.7714 19.8478,-12.8689 0,-11.0314 -1.1408,-11.4297 -32.7569,-11.4297 h -32.7571 z m 80.2838,-15.7848 c 0,1.613 8.4233,18.1928 18.7182,36.8427 10.2952,18.6501 18.7184,36.2822 18.7184,39.1826 0,2.907 -7.3498,5.2735 -16.3786,5.2735 -14.3507,0 -16.3785,1.4485 -16.3785,11.6987 0,11.5041 0.6244,11.699 37.4366,11.699 24.6483,0 37.4366,-1.8014 37.4366,-5.2733 0,-2.9004 -8.4232,-20.5325 -18.7184,-39.1826 -10.2949,-18.6499 -18.7182,-35.2293 -18.7182,-36.8427 0,-1.613 9.4761,-2.9336 21.058,-2.9336 19.3424,0 21.0581,-0.9533 21.0581,-11.699 0,-11.6121 -0.313,-11.6987 -42.1161,-11.6987 -23.1639,0 -42.1161,1.3194 -42.1161,2.9334 z m 93.5914,8.2648 c 0,6.159 3.1587,12.4103 7.0193,13.8917 5.0753,1.9477 7.0194,9.9029 7.0194,28.7249 0,18.8222 -1.9441,26.7775 -7.0194,28.7251 -3.8606,1.4821 -7.0193,7.7327 -7.0193,13.8917 0,10.454 1.7103,11.1983 25.7375,11.1983 24.027,0 25.7376,-0.7446 25.7376,-11.1983 0,-6.159 -3.1586,-12.4103 -7.0192,-13.8917 -5.0754,-1.9476 -7.0195,-9.9029 -7.0195,-28.7251 0,-18.822 1.9441,-26.7772 7.0195,-28.7249 3.8606,-1.4821 7.0192,-7.7327 7.0192,-13.8917 0,-10.454 -1.7103,-11.1982 -25.7376,-11.1982 -24.0268,0 -25.7375,0.7446 -25.7375,11.1982 z m 70.1935,42.6166 v 53.8151 h 22.6994 c 45.4149,0 66.2123,-17.5495 66.2123,-55.8715 0,-35.7542 -20.4736,-51.7584 -66.2123,-51.7584 h -22.6994 z m 52.6644,-24.5676 c 13.0549,9.9721 14.5254,28.1943 3.4152,42.3186 -5.4798,6.9665 -14.022,12.6664 -18.9828,12.6664 -7.9812,0 -9.0194,-3.5016 -9.0194,-30.4174 0,-26.2261 1.1655,-30.4171 8.4646,-30.4171 4.6557,0 11.9107,2.6323 16.1224,5.8495 z m 59.6452,24.7815 v 54.0288 l 31.5869,-1.3831 c 28.7009,-1.2575 31.7239,-2.3457 33.0825,-11.9128 1.5052,-10.5958 -5.1892,-13.135 -28.4028,-10.7737 -5.422,0.5518 -8.1892,-2.4289 -8.1892,-8.8201 0,-7.9128 2.9533,-9.6533 16.3784,-9.6533 14.3507,0 16.3785,-1.4486 16.3785,-11.699 0,-10.2505 -2.0278,-11.6989 -16.3785,-11.6989 -13.2587,0 -16.3784,-1.7826 -16.3784,-9.3592 0,-7.7993 3.1197,-9.359 18.7182,-9.359 16.8464,0 18.7182,-1.1691 18.7182,-11.6989 0,-11.3647 -0.9356,-11.699 -32.7569,-11.699 h -32.7569 z m 88.9117,-2.8297 c 0,32.122 1.9139,52.3819 5.1365,54.3736 2.8299,1.7492 16.0307,-7.584 29.3945,-20.7819 13.3419,-13.176 25.7709,-23.9564 27.6204,-23.9564 1.8493,0 3.3626,10.6688 3.3626,23.7086 0,23.1032 0.3289,23.6708 12.8687,22.2279 l 12.8687,-1.4803 1.323,-52.6451 c 1.5617,-62.1132 -0.2105,-63.6338 -34.0802,-29.2474 -12.6753,12.8689 -24.7046,23.3979 -26.7317,23.3979 -2.027,0 -3.6855,-10.529 -3.6855,-23.3979 0,-22.8779 -0.313,-23.3977 -14.0387,-23.3977 h -14.0387 z m 134.7197,-10.2529 -1.3531,40.9461 -13.1499,1.5069 c -10.4858,1.2027 -12.856,3.5727 -11.6989,11.6989 1.3371,9.3969 4.4601,10.2972 40.0575,11.5502 38.3186,1.3496 38.6064,1.2735 38.6064,-10.2182 0,-9.151 -2.6968,-11.8874 -12.8687,-13.058 -12.826,-1.475 -12.8734,-1.6165 -14.2209,-42.4268 -1.3159,-39.8331 -1.6608,-40.9463 -12.6868,-40.9463 -11.0263,0 -11.3712,1.1125 -12.6865,40.9463 z m 282.7207,164.4598 c -33.7698,11.6642 -56.89,31.5296 -72.8976,62.6351 -11.5659,22.4745 -13.4213,31.3379 -13.281,63.4475 0.2618,59.938 20.9453,96.4449 68.841,121.5061 19.8926,10.4085 29.357,12.2426 63.1744,12.2426 33.9976,0 43.2764,-1.8185 63.8704,-12.518 44.7987,-23.2748 67.1572,-63.3826 67.1572,-120.4702 0,-41.8042 -11.075,-72.1556 -35.0935,-96.1743 -36.2437,-36.2434 -91.2077,-48.1338 -141.7709,-30.6688 z m 79.0713,67.272 c 42.9334,28.6812 42.6161,95.623 -0.5678,119.8937 -48.3973,27.2009 -102.3724,-10.2325 -96.2667,-66.7638 2.918,-27.0171 11.8676,-42.1607 32.2671,-54.5989 20.0199,-12.2071 44.9444,-11.6401 64.5674,1.4697 z m -1800.5934,-63.7936 c -28.5339,10.1107 -59.2418,39.2625 -71.5868,67.9591 -8.955,20.8166 -10.2365,30.5157 -8.5247,64.5204 2.2698,45.0869 8.7713,61.1493 35.3157,87.249 27.0294,26.5763 53.3259,36.6187 94.7538,36.1856 55.2359,-0.5784 93.1093,-22.304 112.7782,-64.6955 13.5244,-29.1484 12.6134,-30.4173 -21.8409,-30.4173 -28.9137,0 -31.6229,0.9445 -45.8027,15.9802 -20.0393,21.2479 -41.9622,25.3676 -69.6998,13.0981 -16.1529,-7.1452 -23.1062,-13.8937 -30.8963,-29.9858 -12.2328,-25.2696 -12.5518,-42.3373 -1.2515,-66.946 12.1627,-26.4867 24.922,-36.1139 51.211,-38.6398 27.6556,-2.6575 49.0464,7.0797 59.3579,27.02 6.884,13.3122 8.6236,13.9595 37.5157,13.9595 27.3369,0 30.297,-0.9285 30.297,-9.5095 0,-14.9874 -11.5462,-38.8013 -27.7743,-57.2841 -28.3703,-32.3121 -95.533,-45.6154 -143.8524,-28.4939 z m 193.2069,-3.8283 c -1.3035,2.1092 19.6029,52.1221 46.4587,111.1398 68.1581,149.7826 67.8229,149.167 82.1078,150.8276 6.6546,0.7729 14.2425,-1.3318 16.8618,-4.6797 9.7113,-12.4105 118.0806,-253.2465 115.6924,-257.1106 -1.3636,-2.2066 -16.0768,-4.0119 -32.696,-4.0119 -29.926,0 -30.2919,0.1592 -38.0271,16.3787 l -7.8103,16.3784 h -52.0816 -52.0816 l -7.8103,-16.3784 c -7.7352,-16.2211 -8.1011,-16.3787 -38.0271,-16.3787 -16.6192,0 -31.2832,1.7262 -32.5867,3.8348 z m 153.7709,99.5336 c -5.148,16.22 -21.212,51.0573 -23.5432,51.0573 -2.6202,0 -25.4596,-50.8978 -25.4596,-56.737 0,-2.2535 11.7238,-4.0973 26.0529,-4.0973 24.2946,0 25.8436,0.6597 22.9499,9.777 z m 142.8594,27.6596 v 131.0278 l 12.8688,-0.1061 c 10.3776,-0.088 21.4747,-9.6977 57.3247,-49.6773 24.4507,-27.2673 45.1578,-51.4389 46.0158,-53.7146 3.9912,-10.5868 16.9547,-0.2688 62.0948,49.4233 39.0096,42.9431 51.2059,53.6113 61.5237,53.815 l 12.8688,0.2547 v -131.0277 -131.028 h -32.7569 -32.7571 v 56.1548 c 0,32.0275 -1.8948,56.1548 -4.4098,56.1548 -2.4255,0 -14.4091,-11.5819 -26.6301,-25.7377 -12.2212,-14.1556 -25.7744,-25.7374 -30.1185,-25.7374 -4.3439,0 -17.7929,11.5818 -29.8865,25.7374 -12.0936,14.1558 -23.9313,25.7377 -26.306,25.7377 -2.3974,0 -4.3178,-24.9752 -4.3178,-56.1548 v -56.1548 h -32.7569 -32.757 z M 7467.79,4704.7719 c -1.4839,2.4012 24.0321,62.4166 56.7019,133.3678 56.8473,123.4586 59.956,129.0021 72.3392,129.0021 7.1165,0 14.6301,-2.6321 16.6966,-5.8493 11.5375,-17.9612 117.6246,-253.7783 115.6237,-257.0156 -1.3159,-2.1286 -15.9895,-3.8704 -32.6087,-3.8704 -29.926,0 -30.2919,0.1592 -38.0269,16.3787 l -7.8104,16.3784 h -52.0816 -52.0816 l -7.8104,-16.3784 c -7.7352,-16.2211 -8.1011,-16.3787 -38.0271,-16.3787 -16.6192,0 -31.4308,1.9645 -32.9147,4.3654 z m 153.9452,99.755 c -1.7915,5.7911 -8.0372,20.0053 -13.8794,31.5871 l -10.6222,21.0581 -12.1738,-27.4898 c -6.6954,-15.1194 -12.1736,-29.3335 -12.1736,-31.5871 0,-2.2535 11.7238,-4.0973 26.0529,-4.0973 24.8632,0 25.9043,0.4811 22.7961,10.529 z m 201.3295,-93.0503 c -29.3562,13.6699 -59.8633,47.5999 -67.5803,75.1625 -7.9017,28.2217 -4.3268,84.5493 6.8234,107.5174 22.1961,45.721 64.4107,70.4025 119.4297,69.8272 55.2358,-0.5784 93.1092,-22.304 112.7783,-64.6955 13.5811,-29.2712 12.7152,-30.4173 -22.9865,-30.4173 -29.9016,0 -32.512,0.8596 -42.1246,13.8606 -14.0035,18.9411 -41.8257,26.3318 -67.8681,18.0288 -46.3058,-14.7631 -58.7147,-81.1409 -22.7035,-121.4443 9.7862,-10.9528 17.9584,-14.8981 34.7895,-16.7952 27.8853,-3.1431 44.9362,3.9503 59.0235,24.5542 10.7486,15.7211 12.1593,16.2821 40.9461,16.2821 33.8629,0 36.1837,-3.7469 22.5575,-36.4169 -23.9239,-57.3596 -109.8703,-84.9004 -173.085,-55.4636 z m 234.9364,-7.9503 c -1.7156,1.7156 -3.1197,60.6784 -3.1197,131.0279 v 127.9081 h 35.0968 35.0967 v -46.7956 -46.7958 h 39.7763 39.7764 v 46.7958 46.7956 h 35.1707 35.1708 l -1.2434,-129.858 -1.2433,-129.8578 -33.9269,-1.3743 -33.9269,-1.3742 v 54.02 54.02 h -39.7763 -39.7764 v -53.815 -53.815 h -31.9769 c -17.5875,0 -33.3811,1.4043 -35.0968,3.1197 z m -905.106,290.4326 c -9.5486,3.3307 -6.6836,14.5367 5.8092,22.7224 6.4123,4.2015 10.3797,9.7087 8.8164,12.2382 -1.5633,2.5295 4.7722,10.8758 14.0789,18.5472 17.7237,14.6093 21.4045,22.6257 10.3889,22.6257 -3.5928,0 -14.6661,-9.6363 -24.6073,-21.414 -16.8513,-19.9642 -19.7638,-21.5001 -43.0221,-22.6885 -17.3757,-0.8878 -25.6712,0.6119 -27.3323,4.9409 -2.4954,6.5028 35.7259,76.4409 41.8296,76.5407 6.9969,0.1238 3.1898,-10.9438 -12.8688,-37.3791 -9.0082,-14.8291 -16.3785,-29.2527 -16.3785,-32.0525 0,-10.7939 14.4197,1.2186 28.047,23.3666 17.8323,28.9812 28.3028,25.6895 11.1868,-3.5168 -6.7614,-11.5374 -11.0622,-22.2084 -9.5573,-23.7132 1.5049,-1.5051 14.1808,9.3663 28.1687,24.1582 26.0706,27.5691 36.8965,30.8515 39.6518,12.0224 1.046,-7.1481 -3.5312,-15.9598 -13.7868,-26.5409 -8.4439,-8.7119 -12.6232,-15.8399 -9.2872,-15.8399 6.5887,0 30.3791,23.71 44.1583,44.0089 11.2329,16.5479 29.0412,15.3597 28.3697,-1.8928 -0.2504,-6.4344 -2.0642,-15.408 -4.0307,-19.9413 -6.5566,-15.1149 9.7238,-4.0282 18.7807,12.7894 6.0654,11.2628 12.5105,16.3308 22.8169,17.9417 20.7062,3.2363 23.4625,-2.4069 12.0766,-24.7252 -11.0233,-21.6073 -8.5318,-31.7921 3.8597,-15.7791 4.2826,5.5341 13.8139,17.8263 21.1807,27.316 9.696,12.4901 15.9459,16.5866 22.6358,14.8372 6.7064,-1.7545 11.3761,1.3354 17.0229,11.2609 7.8858,13.8609 14.8009,17.914 14.8009,8.6749 0,-2.7842 -7.3704,-17.6377 -16.3787,-33.0077 -9.0081,-15.3701 -16.3784,-29.8726 -16.3784,-32.2277 0,-9.7973 15.1144,2.6124 26.181,21.4962 11.6443,19.8698 25.1949,28.9092 34.6115,23.0895 6.1962,-3.8294 6.0179,-19.2768 -0.3608,-31.1936 -4.5442,-8.4908 -3.9877,-9.1472 5.2657,-6.2103 19.1492,6.0778 5.3058,-5.4968 -16.5637,-13.8488 -16.6373,-6.3539 -22.8379,-6.9359 -28.0252,-2.631 -3.6634,3.0405 -9.2486,3.9287 -12.4117,1.9738 -3.1629,-1.9547 -21.3293,-3.9584 -40.3699,-4.4524 -40.3215,-1.047 -44.6807,3.1496 -29.2357,28.1402 8.17,13.2191 8.8051,16.4973 3.1964,16.4973 -3.8499,0 -13.7984,-11.0495 -22.1081,-24.5544 -12.955,-21.0546 -15.8164,-23.4319 -20.0761,-16.6788 -4.6396,7.3551 -5.838,7.3611 -18.1459,0.088 -10.27,-6.0666 -15.0525,-6.6142 -21.6704,-2.4812 -6.7298,4.2028 -11.5214,3.3854 -23.0897,-3.9392 -8.0286,-5.0834 -15.8261,-13.1133 -17.3276,-17.8441 -3.0287,-9.5426 -11.0048,-13.8373 -19.9222,-10.7267 z m 78.3827,43.8083 c 0,2.8113 4.2116,10.4655 9.3592,17.0095 10.1944,12.9602 11.9002,19.9952 4.8482,19.9952 -4.6652,0 -28.2461,-32.1604 -28.2461,-38.5227 0,-1.9765 3.1587,-3.5934 7.0194,-3.5934 3.8606,0 7.0193,2.3001 7.0193,5.1114 z m 111.991,8.4798 c 10.5245,14.7803 12.3984,23.8454 4.9294,23.8454 -4.673,0 -23.2775,-27.0763 -23.3116,-33.9269 -0.035,-7.8173 9.2741,-2.7097 18.3822,10.0815 z m 56.0918,2.1698 c 11.1832,18.0949 12.5152,27.1261 3.4901,23.6626 -5.2581,-2.0176 -21.8268,-30.2887 -21.8268,-37.2425 0,-7.2909 10.0274,0.1415 18.3367,13.5799 z m -572.6919,-48.7984 c -2.7284,4.4147 1.61,9.409 18.004,20.7252 7.5412,5.2055 3.6266,5.9524 -27.0314,5.1569 -27.4736,-0.7128 -36.7536,0.6845 -39.719,5.9843 -3.2534,5.8135 -5.6552,5.9501 -15.0848,0.8578 -17.5665,-9.4857 -54.7822,-9.7351 -60.2297,-0.4033 -2.4838,4.2547 -4.5799,5.5573 -4.6582,2.8951 -0.3143,-10.6906 -26.1913,-19.4198 -56.2971,-18.9907 -27.1022,0.3855 -30.4172,1.4485 -30.4172,9.7465 0,6.643 3.9415,9.9973 13.7477,11.6989 10.5684,1.8341 17.3276,8.3378 29.2279,28.1234 18.1179,30.123 18.6512,32.6998 6.087,29.4142 -11.2087,-2.931 -14.375,-7.4376 -18.7358,-26.6659 -2.6495,-11.6826 -3.9464,-12.8781 -6.7773,-6.2476 -6.4486,15.1044 1.5773,31.799 18.7332,38.9672 31.3143,13.084 62.4835,-11.5115 55.737,-43.9818 -2.1343,-10.272 -0.3544,-8.942 9.8266,7.344 6.8382,10.9386 14.325,19.8881 16.6374,19.8881 6.6249,0 5.0122,-5.63 -7.3724,-25.7375 -12.7453,-20.6932 -14.1336,-25.7376 -7.0833,-25.7376 2.6057,0 12.1852,11.6424 21.2877,25.8717 9.1025,14.2296 18.515,24.6575 20.9167,23.1731 2.4017,-1.4839 -0.8604,-10.9789 -7.249,-21.0991 -12.4116,-19.6613 -14.4678,-27.9457 -6.9362,-27.9457 2.5738,0 4.6796,3.2248 4.6796,7.1662 0,3.9413 2.9659,8.3042 6.5909,9.6953 3.625,1.3902 9.145,8.6954 12.2666,16.2316 3.1217,7.5364 7.5544,13.7025 9.8504,13.7025 2.2961,0 0.9601,-7.6936 -2.9689,-17.097 -11.2674,-26.9665 -4.1878,-25.286 17.8117,4.2283 14.7342,19.767 23.8993,22.0592 31.4903,7.8753 4.0188,-7.5092 3.5323,-12.1827 -2.1752,-20.8933 -10.3287,-15.7637 -9.6297,-22.4573 1.7114,-16.3877 4.9848,2.6677 13.7958,13.271 19.58,23.5624 5.7841,10.2916 13.3764,18.712 16.8716,18.712 4.4667,0 2.6881,-6.2569 -5.9859,-21.058 -18.3149,-31.2521 -2.4888,-27.9767 16.9583,3.5096 18.5273,29.9973 24.1773,22.0781 6.1704,-8.6484 -17.1129,-29.201 -4.6348,-25.2965 15.8396,4.9563 11.9699,17.6866 18.3828,22.8818 29.3046,23.741 19.0933,1.5016 20.9322,-4.0006 8.6434,-25.8656 -5.7639,-10.2554 -9.1032,-20.0228 -7.4208,-21.7052 4.6124,-4.6125 16.2032,6.7054 27.5584,26.9092 11.1041,19.7572 24.0174,26.6296 34.1837,18.1924 10.0385,-8.3312 -0.8612,-28.0544 -17.3233,-31.3469 -15.8533,-3.1707 -21.1553,-9.7821 -10.977,-13.6878 4.0437,-1.5511 12.7831,0.7375 19.4209,5.0864 6.6379,4.3494 13.1765,6.8002 14.5303,5.4463 2.8178,-2.8177 -26.6048,-21.677 -33.6907,-21.5949 -2.5737,0.035 -7.6625,1.9423 -11.3083,4.2499 -3.9472,2.4985 -11.3544,2.3991 -18.3104,-0.2459 -19.1994,-7.2996 -23.693,2.4365 -11.1684,24.1986 10.1321,17.6048 9.5425,22.4939 -1.7993,14.9223 -2.8325,-1.8909 -10.865,-12.561 -17.8501,-23.7111 -8.7628,-13.988 -14.9372,-19.4145 -19.916,-17.5041 -4.5733,1.7545 -12.7245,-3.2451 -22.2585,-13.6538 -14.7467,-16.0995 -27.5207,-20.7649 -32.923,-12.0237 z m -195.6427,26.5056 c -1.555,1.5546 -5.5911,1.7209 -8.9692,0.3696 -3.733,-1.4945 -2.6242,-2.6028 2.8273,-2.8274 4.933,-0.2033 7.6969,0.9021 6.1419,2.4579 z m 53.1026,10.8514 c 15.1427,15.1428 18.8212,41.7418 7.1161,51.4562 -5.2263,4.3374 -8.4369,2.7866 -15.7674,-7.6164 -18.2275,-25.8669 -29.3502,-51.9634 -23.207,-54.4489 11.9994,-4.8548 18.5886,-2.6606 31.8583,10.6091 z m 125.6486,8.0104 c 10.1307,12.879 12.761,25.1066 5.4009,25.1066 -4.15,0 -23.7795,-28.4619 -23.7795,-34.4793 0,-6.8629 9.3643,-2.0873 18.3786,9.3727 z m 167.8681,12.0037 c 3.0886,3.0886 5.6155,8.6795 5.6155,12.4242 0,5.4049 -1.9297,5.0623 -9.3591,-1.6607 -9.6137,-8.7002 -12.2462,-16.3785 -5.6155,-16.3785 2.059,0 6.2706,2.5269 9.3591,5.6155 z m 543.7656,-46.3482 c 0,5.9084 9.441,26.44 20.9801,45.6259 11.5389,19.1856 21.0151,36.3964 21.058,38.2461 0.2405,10.3735 -15.3691,-5.8329 -35.0161,-36.3547 -12.3425,-19.174 -24.236,-34.862 -26.4304,-34.862 -6.4554,0 -4.9554,3.757 14.7289,36.8906 10.2949,17.3293 18.7182,33.3315 18.7182,35.5607 0,8.4878 -25.0506,-19.689 -38.4105,-43.2038 -7.6768,-13.5121 -16.0029,-25.8313 -18.5022,-27.3761 -10.6851,-6.6038 -7.7508,3.5849 9.6917,33.6508 10.2368,17.6455 17.9066,32.7886 17.044,33.6513 -0.8631,0.8631 -9.413,-1.7103 -19.001,-5.7154 -13.7469,-5.7439 -16.9145,-9.2648 -14.9825,-16.6526 1.5936,-6.0925 0.1415,-9.3689 -4.1314,-9.3689 -8.5916,0 -8.6029,20.5738 -0.014,27.701 3.6112,2.997 13.6138,7.636 22.2279,10.309 20.5208,6.3673 82.8898,8.905 86.2251,3.5083 1.4308,-2.3148 -8.0698,-22.8558 -21.1121,-45.6467 -13.0437,-22.7911 -23.7146,-44.8734 -23.7146,-49.072 0,-4.1986 -2.1058,-7.6339 -4.6795,-7.6339 -2.5738,0 -4.6797,4.8341 -4.6797,10.7424 z m -486.6749,12.6548 c -5.1475,5.1476 -9.3591,12.4188 -9.3591,16.1584 0,13.8031 11.1682,30.6536 24.1149,36.3844 7.3269,3.2432 13.3216,9.5458 13.3216,14.0056 0,10.2423 19.6987,23.4892 29.3961,19.7679 4.0242,-1.544 8.4664,-5.8036 9.8716,-9.4653 3.2642,-8.5063 -1.5617,-21.415 -6.7967,-18.1796 -2.1916,1.3548 -2.8803,5.3409 -1.5304,8.8588 3.4469,8.9825 -6.5998,13.951 -14.6688,7.2543 -4.8491,-4.0244 -5.4425,-7.9533 -2.1348,-14.1338 6.5979,-12.3282 5.7138,-14.845 -4.1186,-11.7244 -12.6182,4.0047 -23.5131,-1.5228 -30.6861,-15.5665 -9.0832,-17.7845 -2.1259,-33.3598 14.9015,-33.3598 16.1473,0 24.4845,7.5831 24.4845,22.2702 0,6.1678 2.065,9.7629 4.6796,8.1471 15.7601,-9.7403 -5.4418,-39.7763 -28.0775,-39.7763 -7.7992,0 -18.1982,4.1595 -23.3978,9.359 z m 895.2439,-1.6997 c -3.4233,8.9207 2.4288,14.5243 17.2447,16.5123 8.3894,1.1249 15.957,8.7464 26.9076,27.0967 17.4029,29.163 18.5231,33.8786 7.0462,29.6603 -9.9259,-3.6482 -17.5485,-14.8781 -17.5485,-25.8531 0,-12.0031 -9.1225,-12.2829 -10.8229,-0.3325 -2.2968,16.1431 7.1151,28.6712 25.3149,33.6964 31.3756,8.6632 57.4247,-13.0185 51.504,-42.8686 l -3.0059,-15.154 11.5589,16.9587 c 12.4991,18.3381 22.05,24.0633 33.0809,19.8303 15.2798,-5.8634 -0.4722,-34.4493 -18.9834,-34.4493 -7.2687,0 -11.4337,-2.6754 -11.4337,-7.3449 0,-19.9182 42.8842,13.4549 52.697,41.0098 1.1974,3.3614 3.9809,4.4197 6.1865,2.3522 2.2053,-2.0676 -0.9781,-13.1611 -7.0739,-24.6524 -18.8507,-35.5337 -5.2068,-32.1984 15.724,3.844 7.0995,12.2253 14.8141,22.2279 17.1432,22.2279 6.8047,0 5.0166,-6.7818 -7.864,-29.8278 -6.6545,-11.9061 -9.8132,-21.6475 -7.0194,-21.6475 2.7938,0 5.0798,2.9335 5.0798,6.5188 0,3.5852 3.0537,7.6904 6.7863,9.1229 3.7324,1.4325 11.0097,10.6071 16.1715,20.3886 5.8044,10.9988 9.4643,14.5714 9.5921,9.3631 0.1061,-4.6319 -3.1043,-14.8247 -7.1512,-22.6508 -7.204,-13.931 -7.1427,-14.1607 2.9257,-10.9651 6.971,2.2124 9.2526,1.5953 7.0821,-1.9171 -1.7616,-2.8494 -5.7099,-5.1938 -8.7754,-5.2095 -3.0652,-0.016 -11.2329,-2.9818 -18.1504,-6.5907 -12.1217,-6.3241 -47.3434,-7.5531 -53.0454,-1.851 -1.5245,1.5246 -9.1522,0.3697 -16.9488,-2.5675 -12.6627,-4.7706 -15.1308,-4.1615 -23.1267,5.7069 -4.9233,6.0761 -8.9512,8.7568 -8.9512,5.9574 0,-11.4655 -24.931,-21.2096 -57.0193,-22.2856 -25.209,-0.8454 -33.0351,0.474 -35.1253,5.9207 z m 20.6837,4.5272 c -1.5547,1.5547 -5.5911,1.7209 -8.9692,0.3697 -3.733,-1.4945 -2.6242,-2.6028 2.8273,-2.8274 4.933,-0.2034 7.6969,0.902 6.1419,2.4579 z m 54.6664,11.5704 c 13.4025,15.928 16.3249,41.7967 5.7165,50.601 -7.6326,6.3343 -9.345,4.4758 -30.397,-32.988 -10.7576,-19.1443 -13.2329,-27.1473 -8.9313,-28.8778 13.3227,-5.36 22.0974,-2.4191 33.6118,11.2648 z m 58.9106,28.7921 c 0,7.8528 -1.1744,8.4565 -7.0194,3.6059 -3.8607,-3.2041 -7.0193,-8.6604 -7.0193,-12.125 0,-3.677 2.9222,-5.1782 7.0193,-3.6059 3.8608,1.4821 7.0194,6.9377 7.0194,12.125 z m 129.0223,-40.5158 c -11.0173,11.0173 -9.5564,37.9339 2.4063,44.3361 12.6318,6.7605 16.906,2.3852 7.1757,-7.3452 -15.3482,-15.3482 -6.1759,-34.9853 16.3413,-34.9853 13.4052,0 30.9626,17.0286 44.4509,43.1119 8.748,16.9166 5.7248,20.9442 -11.1352,14.8349 -9.4798,-3.4351 -12.4719,-7.3852 -11.5929,-15.3049 0.7588,-6.8298 -0.9267,-9.9714 -4.6796,-8.7223 -8.0968,2.696 -10.1072,16.6431 -3.5397,24.5566 6.25,7.5307 51.2482,21.7785 57.1883,18.1073 2.1816,-1.3477 -0.5536,-9.7658 -6.0789,-18.7056 -5.5251,-8.9397 -8.8433,-17.4563 -7.3739,-18.9259 5.7274,-5.7274 17.1183,3.5451 26.1834,21.314 9.2645,18.1602 23.5217,27.5133 33.0048,21.6523 8.095,-5.003 5.1633,-12.4958 -3.7785,-9.6578 -6.7435,2.1405 -12.625,-4.5111 -28.4585,-32.1849 -21.1235,-36.9187 -33.2349,-51.2052 -33.2349,-39.2033 0,3.6839 3.0917,10.7856 6.8706,15.7816 19.1013,25.2542 -0.9268,20.8416 -22.4911,-4.9551 -15.3077,-18.3128 -19.9685,-21.058 -35.7534,-21.058 -10.2616,0 -21.3475,3.1964 -25.5047,7.3536 z m -632.9577,4.9563 c -3.3173,8.6446 9.4471,34.8787 22.8895,47.0439 16.6815,15.0965 30.4062,-3.7867 20.2202,-27.8197 -6.8258,-16.1045 9.815,-3.5439 20.506,15.4784 5.7191,10.1758 12.3696,18.5015 14.7785,18.5015 6.6765,0 5.4236,-4.4168 -7.5159,-26.4964 -9.4096,-16.0562 -10.4103,-20.2994 -4.7876,-20.2994 3.91,0 10.316,5.2646 14.2361,11.699 3.9201,6.4343 10.6512,17.4469 14.9584,24.4721 11.5504,18.8398 13.0169,5.0676 1.8014,-16.9168 -11.9034,-23.3324 -11.9673,-25.5125 -0.5695,-19.4126 4.9847,2.6679 13.6782,13.0618 19.3186,23.0976 7.3656,13.1052 14.2848,19.053 24.5536,21.1068 20.4056,4.0812 23.3628,-4.8507 9.4603,-28.5735 -6.4954,-11.0836 -9.5859,-20.1521 -6.868,-20.1521 11.6995,0 41.1645,42.6718 35.6389,51.6127 -1.544,2.4981 0.3343,4.5421 4.173,4.5421 3.839,0 8.3167,4.2115 9.9506,9.3592 1.6342,5.1475 6.0613,9.359 9.839,9.359 5.2575,0 5.7709,-2.0509 2.1892,-8.7438 -2.5739,-4.809 -3.1918,-10.2315 -1.3742,-12.0499 1.8184,-1.8183 -0.3767,-5.3668 -4.8771,-7.8855 -7.0137,-3.9252 -26.8356,-36.1796 -26.8356,-43.6676 0,-8.8323 11.4922,0.8189 24.5318,20.6024 16.6464,25.2551 28.0086,31.2926 38.7247,20.5765 8.6616,-8.6617 8.8141,-7.2319 -2.8843,-27.059 -5.4609,-9.2558 -7.5386,-16.6461 -4.6795,-16.6461 7.2347,0 22.0263,15.6371 30.7507,32.5081 4.0635,7.8581 10.3708,14.2875 14.0162,14.2875 4.9735,0 3.7894,-4.9646 -4.7433,-19.8881 -6.2542,-10.9385 -11.3967,-21.5416 -11.4277,-23.5624 -0.1415,-8.7678 18.9533,7.598 28.339,24.2976 7.7472,13.7844 13.8526,18.8074 24.8636,20.4552 20.403,3.0536 23.1075,-4.9512 9.5113,-28.1513 -12.5016,-21.3321 -10.6381,-24.5833 7.0062,-12.2246 6.8609,4.8054 10.3004,5.5495 9.1071,1.9701 -1.0541,-3.1636 -7.6112,-9.2068 -14.5707,-13.4294 -10.2057,-6.1924 -13.799,-6.5322 -18.5756,-1.7563 -4.7765,4.7764 -3.8621,9.5018 4.7272,24.4258 16.0654,27.9144 0.6916,24.2861 -16.6724,-3.9347 l -13.8064,-22.4384 -71.6769,0.4192 c -51.9934,0.3042 -72.2002,1.9899 -73.583,6.1381 -1.0488,3.1452 2.4217,13.0537 7.7112,22.0189 15.5727,26.3936 -0.8171,20.3411 -17.2529,-6.3716 -11.6384,-18.9147 -16.3443,-22.7398 -28.3975,-23.0825 -7.9462,-0.2264 -15.6648,1.5582 -17.1526,3.9662 -1.6272,2.6339 -6.6374,2.2723 -12.5795,-0.9073 -7.8432,-4.1976 -10.9489,-3.8157 -15.0962,1.8562 -4.496,6.1485 -6.8235,6.2539 -16.749,0.7587 -15.6089,-8.6425 -27.5949,-8.2899 -31.1276,0.9162 z m 21.9401,6.8402 c 0,2.8112 4.2116,10.4655 9.359,17.0096 10.1946,12.9601 11.9004,19.9951 4.8483,19.9951 -4.6652,0 -28.2459,-32.1603 -28.2459,-38.5229 0,-1.9763 3.1586,-3.5932 7.0192,-3.5932 3.8606,0 7.0194,2.3002 7.0194,5.1114 z m 196.2231,8.4799 c 10.5245,14.7803 12.3984,23.8453 4.9294,23.8453 -4.6729,0 -23.2774,-27.0763 -23.3116,-33.9269 -0.035,-7.8172 9.2742,-2.7097 18.3822,10.0816 z m 528.7244,-15.4669 c -13.3948,16.1398 28.4772,64.5672 43.1449,49.8996 9.2518,-9.2519 -2.5294,-28.9808 -19.31,-32.3371 -15.4434,-3.0886 -19.5359,-15.6869 -5.0961,-15.6869 11.8087,0 42.4808,36.0852 42.4808,49.9778 0,14.4782 5.6744,13.6793 12.8688,-1.8118 7.6735,-16.5228 7.3827,-22.7575 -1.7085,-36.6317 -4.1566,-6.3438 -5.4169,-11.5343 -2.8007,-11.5343 6.1238,0 26.1863,24.3247 43.4208,52.6451 7.4398,12.2255 15.7532,22.2279 18.4743,22.2279 3.3912,0 3.3072,-3.0644 -0.267,-9.7426 -4.233,-7.9093 -3.6207,-10.9078 3.2536,-15.9343 8.1153,-5.9341 8.1252,-6.9103 0.2388,-23.448 -10.4606,-21.9361 -0.9092,-20.1795 14.5768,2.6808 12.5356,18.5042 22.034,24.8989 31.5555,21.245 15.6795,-6.0167 2.1051,-32.5043 -18.6145,-36.3219 -12.9534,-2.3868 -15.0699,-13.352 -2.577,-13.352 6.1341,0 17.6311,8.0315 28.4674,19.8861 9.9978,10.9373 18.1778,17.6664 18.1778,14.9533 0,-9.288 -31.1335,-38.9331 -44.3785,-42.2574 -9.9938,-2.5084 -14.7478,-1.2487 -19.4228,5.1444 -5.9682,8.1618 -6.8619,8.1629 -24.902,0.035 -14.8498,-6.6963 -20.1209,-7.2683 -25.5395,-2.7713 -5.2314,4.3415 -9.2038,4.3951 -16.9885,0.2281 -16.2122,-8.6765 -22.8772,1.5618 -12.6346,19.4092 13.789,24.0258 9.1695,23.8337 -14.3791,-0.5978 -23.4129,-24.2903 -37.2707,-28.8764 -48.0413,-15.8986 z m 108.0152,6.5551 c 0,2.5738 -2.1057,4.6797 -4.6795,4.6797 -2.5739,0 -4.6797,-2.1059 -4.6797,-4.6797 0,-2.5737 2.1058,-4.6795 4.6797,-4.6795 2.5738,0 4.6795,2.1058 4.6795,4.6795 z m 18.7182,31.3116 c 0,9.3026 -8.3906,7.3191 -14.0903,-3.3307 -7.0118,-13.1015 -0.4651,-22.7007 7.7853,-11.4169 3.4678,4.7425 6.305,11.379 6.305,14.7476 z m -93.5912,0.2511 c 0,5.7089 -1.3105,5.932 -7.0194,1.1939 -3.8606,-3.2039 -7.0193,-8.9843 -7.0193,-12.8449 0,-5.7088 1.3106,-5.9317 7.0193,-1.1938 3.8606,3.2041 7.0194,8.9842 7.0194,12.8448 z m 145.0666,-3.5972 c 0,8.9476 -9.1154,9.3109 -13.804,0.55 -7.104,-13.2737 -6.1165,-15.4501 4.4448,-9.7978 5.1476,2.7549 9.3592,6.9164 9.3592,9.2476 z m 20.3865,-34.9228 c -1.3089,3.4105 1.2379,11.7217 5.6592,18.4695 6.6585,10.162 7.083,14.3668 2.4712,24.4877 -8.7224,19.144 1.744,24.5177 11.3959,5.8513 7.3508,-14.2147 7.3813,-16.3465 0.3981,-28.1672 -8.7639,-14.8361 -9.3217,-18.3638 -2.9041,-18.3638 8.5784,0 33.0556,38.5747 30.1955,47.5865 -1.8281,5.7598 -0.3698,8.5683 4.4507,8.5683 3.9434,0 9.4238,4.2115 12.1789,9.359 2.7547,5.1475 7.0155,9.3592 9.4683,9.3592 7.0151,0 3.0727,-19.7039 -5.7647,-28.81 -10.8282,-11.1577 -28.3255,-46.063 -23.0901,-46.063 2.3107,0 6.8231,3.1586 10.0273,7.0193 3.2038,3.8606 8.1414,7.0194 10.9718,7.0194 2.8307,0 0.5644,-4.5826 -5.0368,-10.1834 -12.1672,-12.1675 -56.3838,-16.6554 -60.4216,-6.1328 z m -1348.4864,63.4629 c 0.9222,2.7667 3.6773,5.0306 6.1224,5.0306 2.4451,0 5.2002,-2.2639 6.1224,-5.0306 0.9224,-2.7669 -1.8328,-5.0306 -6.1224,-5.0306 -4.2896,0 -7.0447,2.2637 -6.1224,5.0306 z m 678.5371,0 c 0.9215,2.7667 3.6774,5.0306 6.1224,5.0306 2.4451,0 5.2002,-2.2639 6.1224,-5.0306 0.9214,-2.7669 -1.8327,-5.0306 -6.1224,-5.0306 -4.2896,0 -7.0447,2.2637 -6.1224,5.0306 z"
         id="path56" />
    </g>
  </g>
</svg>
