<?xml version="1.0" encoding="UTF-8" standalone="no"?>
<svg
   xmlns:dc="http://purl.org/dc/elements/1.1/"
   xmlns:cc="http://creativecommons.org/ns#"
   xmlns:rdf="http://www.w3.org/1999/02/22-rdf-syntax-ns#"
   xmlns:svg="http://www.w3.org/2000/svg"
   xmlns="http://www.w3.org/2000/svg"
   xmlns:sodipodi="http://sodipodi.sourceforge.net/DTD/sodipodi-0.dtd"
   xmlns:inkscape="http://www.inkscape.org/namespaces/inkscape"
   width="187mm"
   height="58mm"
   viewBox="0 0 187 58"
   version="1.1"
   id="svg8"
   inkscape:version="1.0.1 (3bc2e813f5, 2020-09-07)"
   sodipodi:docname="crossends.svg"
   inkscape:export-filename="C:\Users\Root\Documents\3D Models\path2100.png"
   inkscape:export-xdpi="96"
   inkscape:export-ydpi="96">
  <defs
     id="defs2">
    <rect
       x="5.3453903"
       y="236.8008"
       width="208.47023"
       height="48.643055"
       id="rect8187" />
    <pattern
       y="0"
       x="0"
       height="6"
       width="6"
       patternUnits="userSpaceOnUse"
       id="EMFhbasepattern" />
    <pattern
       y="0"
       x="0"
       height="6"
       width="6"
       patternUnits="userSpaceOnUse"
       id="EMFhbasepattern-4" />
    <pattern
       y="0"
       x="0"
       height="6"
       width="6"
       patternUnits="userSpaceOnUse"
       id="EMFhbasepattern-5" />
    <pattern
       y="0"
       x="0"
       height="6"
       width="6"
       patternUnits="userSpaceOnUse"
       id="EMFhbasepattern-0" />
    <pattern
       y="0"
       x="0"
       height="6"
       width="6"
       patternUnits="userSpaceOnUse"
       id="EMFhbasepattern-47" />
    <pattern
       y="0"
       x="0"
       height="6"
       width="6"
       patternUnits="userSpaceOnUse"
       id="EMFhbasepattern-57" />
    <pattern
       y="0"
       x="0"
       height="6"
       width="6"
       patternUnits="userSpaceOnUse"
       id="EMFhbasepattern-9" />
  </defs>
  <sodipodi:namedview
     id="base"
     pagecolor="#ffffff"
     bordercolor="#666666"
     borderopacity="1.0"
     inkscape:pageopacity="0.0"
     inkscape:pageshadow="2"
     inkscape:zoom="2.666715"
     inkscape:cx="126.99732"
     inkscape:cy="116.03491"
     inkscape:document-units="mm"
     inkscape:current-layer="layer2"
     inkscape:document-rotation="0"
     showgrid="false"
     inkscape:window-width="1920"
     inkscape:window-height="1017"
     inkscape:window-x="-8"
     inkscape:window-y="-8"
     inkscape:window-maximized="1" />
  <metadata
     id="metadata5">
    <rdf:RDF>
      <cc:Work
         rdf:about="">
        <dc:format>image/svg+xml</dc:format>
        <dc:type
           rdf:resource="http://purl.org/dc/dcmitype/StillImage" />
        <dc:title />
      </cc:Work>
    </rdf:RDF>
  </metadata>
  <g
     inkscape:label="Words"
     inkscape:groupmode="layer"
     id="layer1"
     style="display:inline" />
  <g
     inkscape:groupmode="layer"
     id="layer2"
     inkscape:label="Logo"
     style="display:inline">
    <path
       style="fill:#000000;stroke-width:0.0120436"
       d="m 37.0892,52.180507 c -0.194675,-0.190352 -0.752297,-0.742475 -1.23916,-1.226938 -1.657664,-1.649494 -2.054712,-2.027611 -2.202572,-2.09756 -0.08185,-0.03872 -0.239956,-0.05212 -0.337858,-0.02863 -0.09159,0.02197 -0.250754,0.132264 -0.41678,0.288813 -0.192474,0.181486 -0.316982,0.27969 -0.426541,0.336426 -0.142317,0.0737 -0.226749,0.09432 -0.524405,0.128075 -0.482586,0.05472 -0.763373,0.176239 -1.140068,0.493382 -0.06848,0.05766 -0.139307,0.115407 -0.15739,0.128336 l -0.03288,0.02351 -0.147777,-0.135122 c -0.212688,-0.194476 -1.129352,-1.114187 -1.129228,-1.132982 6e-5,-0.0087 0.09897,-0.119121 0.219796,-0.245359 0.393306,-0.410904 0.462323,-0.54957 0.538502,-1.081934 0.01483,-0.103622 0.03376,-0.187595 0.04974,-0.220595 0.03513,-0.07258 0.211201,-0.251757 0.701677,-0.714084 0.228387,-0.21528 0.41568,-0.396829 0.416207,-0.403443 5.26e-4,-0.0066 -0.684625,-0.697625 -1.522559,-1.535578 l -1.523515,-1.523551 2.149777,-2.149752 2.149777,-2.149751 1.021562,1.021508 1.021562,1.021508 0.135917,-0.678285 c 0.07475,-0.373056 0.14917,-0.724049 0.165367,-0.779982 0.145735,-0.503266 0.430649,-0.74217 1.115212,-0.935122 0.31646,-0.0892 0.394103,-0.125721 0.517597,-0.243482 0.118807,-0.113289 0.184484,-0.240232 0.219681,-0.424605 0.04924,-0.257931 0.08439,-0.348047 0.209249,-0.536478 0.1373,-0.207206 0.318896,-0.387884 0.53462,-0.531921 0.184382,-0.12311 0.301367,-0.176987 0.519704,-0.239349 0.188176,-0.05375 0.290465,-0.09773 0.386212,-0.166049 0.158258,-0.112931 0.258308,-0.274934 0.350083,-0.566863 0.06642,-0.211272 0.133438,-0.35756 0.228979,-0.499811 0.180058,-0.268088 0.394075,-0.469436 0.62151,-0.584719 0.09184,-0.04655 0.124799,-0.05513 0.347234,-0.09034 0.08925,-0.01413 0.204546,-0.04112 0.256206,-0.05997 0.178955,-0.06531 0.326406,-0.187561 0.411982,-0.341571 0.05447,-0.09803 0.08555,-0.199915 0.115062,-0.377203 0.01347,-0.08089 0.03512,-0.181154 0.04812,-0.222807 0.08903,-0.285236 0.331277,-0.570203 0.637168,-0.749535 0.150114,-0.08801 0.294841,-0.146098 0.529935,-0.21271 0.290915,-0.08243 0.409622,-0.141837 0.539843,-0.270173 0.08158,-0.0804 0.107562,-0.115724 0.146485,-0.199165 0.04464,-0.0957 0.059,-0.151111 0.102523,-0.395768 0.02281,-0.128212 0.09003,-0.269317 0.222639,-0.467352 0.114684,-0.171266 0.207673,-0.276014 0.301707,-0.33986 0.158746,-0.107783 0.528123,-0.270098 0.699166,-0.307234 0.268599,-0.05832 0.36012,-0.09937 0.469702,-0.210683 0.113955,-0.115758 0.151445,-0.207691 0.240814,-0.590536 0.04372,-0.187299 0.07243,-0.256775 0.158746,-0.384137 0.243301,-0.359016 0.42678,-0.534294 0.689634,-0.658809 0.32231,-0.15268 0.70086,-0.143759 1.048549,0.02471 0.197586,0.09574 0.54785,0.374307 0.906137,0.720662 0.222668,0.215252 0.407292,0.376028 0.521032,0.453728 0.156154,0.106677 0.263822,0.136964 0.426886,0.120086 0.120038,-0.01242 0.218542,-0.08281 0.578757,-0.413574 0.506475,-0.46506 1.452493,-1.383308 2.613466,-2.536745 1.522391,-1.512511 2.355465,-2.335649 2.608274,-2.577166 0.241487,-0.230701 0.428027,-0.397215 0.444987,-0.397215 0.01526,0 0.194021,0.144802 0.379722,0.307583 0.552682,0.484469 1.431728,1.367579 1.734223,1.742238 l 0.07794,0.09653 -0.0633,0.0734 c -0.266917,0.309511 -0.79243,0.842007 -3.230558,3.273476 -2.111411,2.105644 -2.45789,2.464064 -2.679804,2.772155 -0.02346,0.03258 -0.03273,0.269858 -0.0131,0.335384 0.03397,0.113374 0.257749,0.395485 0.629841,0.79401 0.276013,0.295621 0.342644,0.371356 0.440724,0.500943 0.187811,0.248139 0.243796,0.415295 0.26156,0.780951 0.01372,0.282321 -0.02261,0.493518 -0.120558,0.700908 -0.07214,0.152754 -0.127505,0.232826 -0.247012,0.357267 -0.207272,0.215829 -0.503383,0.366741 -0.807051,0.411312 -0.417078,0.06122 -0.665144,0.274291 -0.73973,0.635386 -0.01046,0.05064 -0.01902,0.124538 -0.01902,0.16422 0,0.276209 -0.292986,0.721276 -0.594841,0.903605 -0.211427,0.127707 -0.481292,0.238688 -0.791596,0.325538 -0.212967,0.05961 -0.260454,0.08288 -0.334516,0.163911 -0.112133,0.122692 -0.182545,0.282552 -0.23381,0.53083 -0.03759,0.182026 -0.08521,0.296267 -0.188612,0.45243 -0.14292,0.215849 -0.304112,0.377965 -0.518266,0.521239 -0.192407,0.128725 -0.300133,0.174475 -0.608203,0.258298 -0.143027,0.03892 -0.282209,0.110511 -0.366441,0.188494 -0.14213,0.131586 -0.209698,0.253682 -0.325973,0.589027 -0.131412,0.379 -0.256321,0.608197 -0.42345,0.776992 -0.187917,0.18979 -0.38306,0.282121 -0.750648,0.355166 -0.112745,0.0224 -0.236536,0.05172 -0.27509,0.06515 -0.201712,0.07024 -0.381748,0.253329 -0.446881,0.454449 -0.01104,0.0341 -0.03836,0.143592 -0.06071,0.243324 -0.04371,0.195026 -0.11748,0.39674 -0.20989,0.573867 -0.09386,0.179909 -0.128033,0.224256 -0.208815,0.270982 -0.04008,0.02318 -0.09514,0.06173 -0.122354,0.08565 -0.117521,0.103312 -0.268167,0.154124 -0.838338,0.28276 -0.228527,0.05156 -0.417627,0.0953 -0.42022,0.09721 -0.0026,0.0019 -0.04442,0.181101 -0.09296,0.398203 -0.0999,0.446887 -0.128282,0.546048 -0.196562,0.686869 -0.179541,0.370283 -0.459108,0.577903 -0.974002,0.723342 -0.09072,0.02562 -0.40208,0.105648 -0.691904,0.177826 -0.289824,0.07218 -0.525577,0.134623 -0.523897,0.138762 0.0017,0.0041 0.385138,0.393345 0.852129,0.864898 0.466992,0.471554 0.850656,0.861824 0.852588,0.867269 0.0029,0.0082 -3.502887,3.50382 -4.111721,4.099847 l -0.181987,0.178158 z m 1.314088,-1.906036 c 0.288725,-0.09267 0.517248,-0.365911 0.584634,-0.699027 0.01574,-0.0778 0.01913,-0.140447 0.01467,-0.270982 -0.0051,-0.148161 -0.01058,-0.184366 -0.04333,-0.284205 -0.09479,-0.288999 -0.290743,-0.497485 -0.549087,-0.584208 -0.458357,-0.153866 -0.93602,0.173425 -1.037179,0.710666 -0.02682,0.142427 -0.01838,0.369803 0.01856,0.49981 0.09236,0.325126 0.328527,0.570133 0.620464,0.643698 0.09925,0.02501 0.287948,0.01741 0.391271,-0.01575 z m -2.279243,-1.794962 c 0.566054,-0.123958 1.008953,-0.584803 1.112331,-1.157403 0.02255,-0.124925 0.01895,-0.391142 -0.0069,-0.511854 -0.09471,-0.44183 -0.375148,-0.805725 -0.774504,-1.005003 -0.199733,-0.09967 -0.397231,-0.145163 -0.630147,-0.145163 -0.674834,0 -1.260692,0.480618 -1.396158,1.145361 -0.03055,0.149888 -0.0333,0.377606 -0.0064,0.530163 0.04936,0.280144 0.188723,0.543679 0.397403,0.75151 0.228599,0.227669 0.516267,0.370988 0.831695,0.414358 0.117557,0.01616 0.34736,0.0055 0.472725,-0.02197 z m 4.589036,-5.307203 c 0.111798,-0.03753 0.234524,-0.117033 0.310914,-0.201414 0.123911,-0.136873 0.255769,-0.376564 0.299285,-0.544038 0.0374,-0.143941 0.01858,-0.326996 -0.04203,-0.408847 -0.02008,-0.02711 -0.06827,-0.09265 -0.107087,-0.14564 -0.262014,-0.357655 -1.253845,-1.402311 -1.783295,-1.878275 -0.267476,-0.240455 -0.424641,-0.312476 -0.680465,-0.311824 -0.156979,3.97e-4 -0.247542,0.02136 -0.386229,0.08938 -0.425233,0.20856 -0.627672,0.719864 -0.440306,1.11209 0.07281,0.152424 0.370234,0.485794 1.124243,1.260125 0.604,0.620279 0.879427,0.856967 1.13808,0.978005 0.188252,0.08809 0.398896,0.106837 0.566893,0.05044 z m 1.914301,-1.938809 c 0.12465,-0.04184 0.217564,-0.100205 0.31558,-0.198221 0.14039,-0.140389 0.2432,-0.317455 0.289543,-0.498667 0.0454,-0.177519 0.02654,-0.415032 -0.04577,-0.576547 -0.09781,-0.218482 -1.282265,-1.425696 -1.923091,-1.960051 -0.139015,-0.115919 -0.336456,-0.252496 -0.412702,-0.28548 -0.06282,-0.02717 -0.271719,-0.02611 -0.376155,0.0019 -0.196897,0.05284 -0.403878,0.211349 -0.536746,0.411038 -0.195432,0.293717 -0.209817,0.648706 -0.03683,0.908857 0.06118,0.092 0.274135,0.348234 0.439986,0.529395 0.241919,0.264249 0.755509,0.786961 1.008392,1.026303 0.476916,0.451379 0.721551,0.6321 0.909777,0.672092 0.08878,0.01886 0.263996,0.0043 0.368011,-0.03064 z m 1.888045,-1.914354 c 0.282547,-0.05906 0.577508,-0.361363 0.67037,-0.687054 0.03732,-0.130896 0.03821,-0.352246 0.0018,-0.451905 -0.02906,-0.07957 -0.202047,-0.341699 -0.341768,-0.517874 -0.361667,-0.456036 -1.04779,-1.162042 -1.474564,-1.517296 -0.113721,-0.09466 -0.336573,-0.259849 -0.440919,-0.326826 -0.09587,-0.06153 -0.335442,-0.08112 -0.492462,-0.04025 -0.376693,0.09804 -0.69853,0.506046 -0.69853,0.885563 0,0.100105 0.03203,0.246319 0.07046,0.321655 0.07528,0.147568 0.429602,0.540723 1.012973,1.124002 0.550444,0.550359 1.0192,0.9799 1.21797,1.116076 0.06869,0.04706 0.152016,0.08949 0.197644,0.100651 0.06092,0.0149 0.188329,0.01179 0.277004,-0.0067 z m 2.02012,-2.028554 c 0.162471,-0.04155 0.300012,-0.126601 0.462429,-0.285943 0.155426,-0.152479 0.214012,-0.269847 0.236422,-0.473626 0.01913,-0.17397 0.0015,-0.254303 -0.0871,-0.397549 -0.163872,-0.264857 -0.507318,-0.652626 -1.166935,-1.317533 -0.422735,-0.426125 -0.674655,-0.659966 -0.869907,-0.807478 -0.193316,-0.146049 -0.307892,-0.188274 -0.510727,-0.188215 -0.345789,1.21e-4 -0.611121,0.144809 -0.750968,0.409571 -0.0671,0.127042 -0.110246,0.309415 -0.109896,0.464552 6.27e-4,0.27776 0.16561,0.56241 0.581064,1.00253 0.553743,0.586617 1.102712,1.127128 1.323031,1.302646 0.329875,0.262796 0.62578,0.359281 0.892584,0.291045 z m 1.979447,-1.952163 c 0.0524,-0.0134 0.129027,-0.04016 0.170292,-0.05947 0.222038,-0.103899 0.42523,-0.321781 0.487975,-0.523255 0.03836,-0.123163 0.03722,-0.329998 -0.0024,-0.440706 -0.06573,-0.1836 -0.161042,-0.332895 -0.32721,-0.512552 -0.203108,-0.219594 -1.299433,-1.352052 -1.433572,-1.480819 -0.302125,-0.290027 -0.558456,-0.414718 -0.853487,-0.415176 -0.328694,-5.06e-4 -0.620902,0.187242 -0.786973,0.505654 -0.07045,0.135068 -0.0857,0.196236 -0.0856,0.343243 1.21e-4,0.131687 3.85e-4,0.133057 0.04995,0.228829 0.02742,0.05299 0.07827,0.136597 0.112989,0.185786 0.207887,0.294514 0.7532,0.910604 1.221734,1.380309 0.501272,0.502524 0.78833,0.718466 1.0481,0.788443 0.115437,0.0311 0.275958,0.03098 0.398219,-2.89e-4 z M 46.452738,51.7039 c -1.356118,-1.343048 -3.461096,-3.447629 -3.457837,-3.457186 0.0017,-0.0049 0.385113,-0.394534 0.852105,-0.865884 0.466991,-0.47135 0.850402,-0.8603 0.852025,-0.864334 0.0016,-0.004 -0.263941,-0.07438 -0.590138,-0.156334 -0.622742,-0.156451 -0.732317,-0.189725 -0.860087,-0.261177 -0.126552,-0.07077 -0.319839,-0.221732 -0.311553,-0.243326 0.0039,-0.01017 0.04224,-0.07682 0.0852,-0.148116 0.118991,-0.19749 0.162358,-0.293807 0.197562,-0.438778 l 0.0322,-0.132576 0.222126,-0.05586 c 0.23265,-0.05851 0.495371,-0.144951 0.621954,-0.204643 0.04106,-0.01936 0.103939,-0.06197 0.139736,-0.09469 0.0358,-0.03272 0.10437,-0.07944 0.152386,-0.103835 0.153577,-0.07802 0.281487,-0.223854 0.440139,-0.50181 0.151096,-0.264714 0.264031,-0.544043 0.331875,-0.820839 0.03572,-0.145715 0.0453,-0.162857 0.09122,-0.163187 0.0461,-3.37e-4 0.318464,-0.07357 0.425485,-0.114406 0.453658,-0.173122 0.829534,-0.482762 1.111354,-0.915508 0.09421,-0.144661 0.209901,-0.383708 0.285611,-0.590138 0.09709,-0.264713 0.121925,-0.319156 0.145611,-0.319156 0.04896,0 0.268217,-0.06585 0.399018,-0.11983 0.417996,-0.172519 0.820369,-0.48852 1.120262,-0.87979 0.215947,-0.281744 0.33983,-0.553427 0.406819,-0.892174 l 0.01329,-0.06718 0.06883,-0.0214 c 0.03785,-0.01177 0.136061,-0.0486 0.218238,-0.08186 l 0.149415,-0.06046 0.04328,0.05156 c 0.136174,0.162212 0.20973,0.284939 0.252424,0.421164 0.01349,0.04306 0.0826,0.370038 0.153566,0.726628 l 0.129031,0.648344 1.021731,-1.021677 1.02173,-1.021676 2.149777,2.149751 2.149778,2.149752 -1.52843,1.529555 -1.528431,1.529555 0.427386,0.403462 c 0.489447,0.462049 0.667184,0.64322 0.701035,0.714576 0.01428,0.0301 0.0383,0.144223 0.06,0.285045 0.0732,0.475057 0.148537,0.620039 0.52849,1.016992 0.120831,0.126238 0.219739,0.236649 0.219796,0.245359 1.2e-4,0.01881 -0.9166,0.938558 -1.129581,1.133308 l -0.148131,0.135451 -0.04457,-0.03392 c -0.02451,-0.01866 -0.09876,-0.07948 -0.165004,-0.135154 -0.357706,-0.300657 -0.644922,-0.422924 -1.120057,-0.476803 -0.09274,-0.01052 -0.19931,-0.02455 -0.236831,-0.03118 -0.245009,-0.04332 -0.403858,-0.139952 -0.717609,-0.436556 -0.150673,-0.142438 -0.291333,-0.24382 -0.382402,-0.275622 -0.07484,-0.02614 -0.233194,-0.02841 -0.312671,-0.0045 -0.03166,0.0095 -0.08579,0.03607 -0.120296,0.05898 -0.148036,0.09829 -0.654318,0.587052 -2.252104,2.174164 -0.689256,0.684653 -1.305451,1.293063 -1.369321,1.352024 l -0.116126,0.1072 z M 46.7837,50.269074 c 0.378547,-0.131646 0.608774,-0.509499 0.58846,-0.965792 -0.0079,-0.178038 -0.02996,-0.266558 -0.104906,-0.421527 -0.147412,-0.304794 -0.409416,-0.480515 -0.716455,-0.480515 -0.288719,0 -0.546244,0.159229 -0.698842,0.432099 -0.08954,0.16012 -0.128748,0.324643 -0.127764,0.536183 0.0021,0.444421 0.260043,0.812157 0.642525,0.915902 0.122172,0.03314 0.29406,0.0264 0.416982,-0.01635 z m 2.27851,-1.767162 c 0.328842,-0.04032 0.613587,-0.179447 0.849003,-0.414817 0.219129,-0.219084 0.357808,-0.491124 0.404819,-0.794114 0.02212,-0.142572 0.0071,-0.424936 -0.03022,-0.567034 -0.03785,-0.144237 -0.149199,-0.375683 -0.23507,-0.488614 -0.224288,-0.294962 -0.542938,-0.492124 -0.902867,-0.558639 -0.127126,-0.02349 -0.353468,-0.02392 -0.485401,-9.16e-4 -0.512723,0.08941 -0.949735,0.46685 -1.115993,0.963859 -0.04639,0.138678 -0.06527,0.259899 -0.0666,0.427548 -0.0014,0.181913 0.01477,0.292375 0.066,0.449743 0.209507,0.643582 0.857645,1.063746 1.516329,0.982979 z M 34.899439,37.992924 c -0.168473,-0.158488 -0.296091,-0.351257 -0.362802,-0.548018 -0.01496,-0.04413 -0.03058,-0.13235 -0.03668,-0.207179 -0.01757,-0.215428 -0.0593,-0.339525 -0.159708,-0.474882 -0.124068,-0.167253 -0.315241,-0.26375 -0.62461,-0.315279 -0.287068,-0.04781 -0.537915,-0.171967 -0.741324,-0.366908 -0.321066,-0.307697 -0.445996,-0.679221 -0.401364,-1.193592 0.03726,-0.429387 0.115752,-0.562875 0.697122,-1.185545 0.386848,-0.41433 0.601389,-0.687392 0.630307,-0.802236 0.01859,-0.07384 0.0093,-0.295474 -0.01368,-0.327105 -0.23273,-0.32003 -0.535121,-0.63153 -3.04903,-3.140876 -1.187851,-1.185694 -2.276307,-2.27775 -2.418791,-2.42679 -0.339345,-0.354958 -0.505857,-0.543657 -0.49565,-0.561689 0.0045,-0.0079 0.05485,-0.07037 0.111955,-0.13883 0.404517,-0.484948 1.494424,-1.551298 1.965457,-1.922979 0.05177,-0.04085 0.09814,-0.07427 0.103038,-0.07427 0.01555,0 0.159175,0.123347 0.308667,0.265086 0.225762,0.214053 0.554646,0.538273 2.138267,2.107942 1.539862,1.526297 2.134207,2.108919 2.709602,2.656158 0.598662,0.569367 0.78816,0.739353 0.92754,0.832034 0.07015,0.04665 0.09544,0.05651 0.16276,0.06348 0.265645,0.0275 0.427208,-0.07106 0.961089,-0.586274 0.355241,-0.34282 0.711684,-0.62444 0.905014,-0.715037 0.356759,-0.167184 0.727589,-0.168926 1.059835,-0.005 0.232177,0.114567 0.389301,0.258345 0.593464,0.543055 0.143902,0.200675 0.184609,0.286299 0.231526,0.486995 0.0611,0.261345 0.09478,0.373027 0.135978,0.450866 0.05232,0.09884 0.164076,0.208222 0.261459,0.255892 0.0758,0.0371 0.121955,0.05106 0.313135,0.09472 0.179961,0.04109 0.540411,0.199029 0.696161,0.305035 0.10815,0.07361 0.22195,0.204318 0.320773,0.368428 l 0.04099,0.06807 -0.02842,0.08355 c -0.01563,0.04595 -0.03217,0.121626 -0.03675,0.168168 -0.0046,0.04654 -0.01179,0.08675 -0.016,0.08936 -0.0042,0.0026 -0.09844,0.0324 -0.209384,0.0662 -0.237617,0.0724 -0.433534,0.154126 -0.609779,0.254354 -0.609477,0.346602 -1.015898,0.886397 -1.133664,1.505698 -0.01439,0.07569 -0.02737,0.138949 -0.02884,0.140587 -0.0015,0.0016 -0.09437,0.02131 -0.206441,0.04371 -0.235832,0.04715 -0.368882,0.09279 -0.518509,0.177899 -0.395939,0.225204 -0.827659,0.692741 -1.046108,1.132896 -0.0371,0.07476 -0.101148,0.233106 -0.142323,0.351883 l -0.07487,0.215959 -0.150385,0.04418 c -0.429771,0.126248 -0.789209,0.34392 -1.132733,0.685973 -0.368956,0.367376 -0.57683,0.716149 -0.66318,1.112689 -0.01316,0.06044 -0.02767,0.113447 -0.03225,0.117804 -0.0046,0.0044 -0.07065,0.02844 -0.146828,0.05352 -0.151609,0.04992 -0.359732,0.151106 -0.549767,0.267293 -0.06722,0.0411 -0.127741,0.07472 -0.134491,0.07472 -0.0068,0 -0.05615,-0.04127 -0.109776,-0.09172 z m 1.696536,-2.64945 c 0.169266,-0.04135 0.360503,-0.153025 0.584885,-0.34153 0.433022,-0.363789 1.277532,-1.265703 1.655147,-1.767655 0.05099,-0.06778 0.119464,-0.173463 0.152163,-0.234851 l 0.05945,-0.111614 -8.91e-4,-0.138501 c -7.6e-4,-0.118127 -0.0054,-0.150558 -0.03186,-0.220452 -0.07392,-0.195597 -0.236038,-0.400244 -0.391657,-0.494415 -0.135121,-0.08176 -0.255664,-0.118757 -0.408434,-0.12534 -0.31885,-0.01374 -0.574035,0.10586 -0.906163,0.424702 -0.125058,0.120055 -1.22929,1.261294 -1.420972,1.468594 -0.186971,0.202207 -0.308151,0.407657 -0.346466,0.587409 -0.02313,0.108493 -0.01515,0.260761 0.01954,0.373083 0.06035,0.195373 0.265047,0.412995 0.485525,0.516169 0.170731,0.0799 0.384038,0.104884 0.549732,0.0644 z m 4.32516,-6.485288 C 40.720156,28.832176 40.562765,28.756382 40.425247,28.619384 40.159811,28.354949 39.986338,27.907885 39.84303,27.118929 39.709616,26.38444 39.596676,26.03561 39.441089,25.877488 39.336084,25.770773 39.156388,25.711364 38.84288,25.67972 c -0.07595,-0.0077 -0.600135,-0.01796 -1.228449,-0.02412 -0.602784,-0.0059 -1.182264,-0.01661 -1.287735,-0.02379 -0.366953,-0.02496 -0.54899,-0.06479 -0.711507,-0.155694 -0.101467,-0.05675 -0.307622,-0.226642 -0.358068,-0.295076 -0.175568,-0.238171 -0.169756,-0.655132 0.01445,-1.036891 0.07259,-0.150441 0.231392,-0.350356 0.510881,-0.643154 0.387512,-0.405965 0.684219,-0.658117 0.791304,-0.672481 0.06285,-0.0084 0.07766,-0.02791 0.0548,-0.07211 -0.02915,-0.05637 -0.182574,-0.193522 -0.367524,-0.328545 -0.936833,-0.683942 -1.176973,-0.903175 -1.569786,-1.433121 -0.459246,-0.61957 -0.898756,-1.456039 -1.135901,-2.161831 -0.103648,-0.308477 -0.139859,-0.474845 -0.179564,-0.824988 -0.05549,-0.48932 -0.07922,-0.967526 -0.08726,-1.758369 -0.01143,-1.124143 0.02677,-1.817345 0.136399,-2.474964 0.371942,-2.231104 1.167128,-3.8869329 2.487157,-5.179042 0.290339,-0.2841974 0.484047,-0.4463077 0.759191,-0.6353495 1.022562,-0.7025672 2.283509,-1.0531989 4.231072,-1.1765342 0.356254,-0.022561 0.767339,-0.035886 1.318777,-0.042749 1.109187,-0.013804 1.661539,-0.053032 2.54366,-0.1806522 0.695668,-0.1006452 1.04137,-0.1338144 1.521062,-0.1459418 0.911735,-0.02305 1.752003,0.1331102 2.659851,0.4943221 1.180656,0.4697558 2.07865,1.1641386 2.734847,2.1147455 0.502996,0.7286719 0.788089,1.4625521 0.902976,2.3244201 0.04132,0.309965 0.04891,0.447659 0.04911,0.891228 2.41e-4,0.528993 -0.02446,0.869152 -0.102778,1.415125 -0.124208,0.865905 -0.421449,2.129672 -0.691176,2.938644 -0.249435,0.748109 -0.473509,1.208541 -1.169541,2.403201 -0.34739,0.596252 -0.461055,0.806577 -0.518913,0.960187 -0.03467,0.09204 -0.03072,0.101058 0.07991,0.182514 0.108241,0.0797 0.18487,0.122438 0.469701,0.261976 0.300692,0.14731 0.476441,0.262356 0.614225,0.402077 0.302447,0.306698 0.315855,0.573623 0.05494,1.09379 -0.175057,0.349005 -0.413131,0.662104 -0.651103,0.856289 -0.352465,0.287613 -0.894018,0.581499 -1.613846,0.875794 -0.105984,0.04333 -0.23902,0.102033 -0.295637,0.130448 -0.137779,0.06915 -0.315112,0.189005 -0.359725,0.243129 -0.03949,0.04791 -0.229795,0.44496 -0.720323,1.502876 -0.3528,0.76088 -0.640017,1.351543 -0.773039,1.589759 -0.267813,0.479598 -0.480748,0.712732 -0.80233,0.878436 -0.311386,0.160451 -0.523447,0.16152 -0.681531,0.0034 -0.156905,-0.156904 -0.255,-0.381831 -0.425544,-0.975745 -0.128945,-0.449049 -0.194401,-0.634766 -0.223722,-0.634766 -0.02286,0 -0.126703,0.143849 -0.204312,0.283026 -0.195547,0.350673 -0.714596,0.746307 -1.055785,0.80475 -0.185553,0.03178 -0.388104,-0.04622 -0.638648,-0.245949 -0.0975,-0.07772 -0.229231,-0.167384 -0.245929,-0.167384 -0.01727,0 -0.08021,0.147933 -0.12298,0.289047 -0.05313,0.175296 -0.07572,0.231807 -0.159214,0.398279 -0.179225,0.357365 -0.458923,0.736891 -0.666396,0.904243 -0.149824,0.12085 -0.311442,0.189754 -0.51948,0.221475 -0.124659,0.01901 -0.170646,0.01973 -0.288317,0.0045 z m 2.103667,-4.991993 c 0.341585,-0.07056 0.594435,-0.254795 0.660213,-0.481063 0.04221,-0.14521 0.107912,-0.174272 0.394423,-0.174481 0.545139,-3.97e-4 0.826231,-0.09072 0.941525,-0.302559 0.05006,-0.09198 0.05686,-0.227738 0.01756,-0.350683 -0.112303,-0.351312 -0.611421,-1.070925 -1.014684,-1.462943 -0.141403,-0.137458 -0.211253,-0.177102 -0.347343,-0.197133 -0.114124,-0.0168 -0.250275,-0.0011 -0.331669,0.03835 -0.153208,0.07417 -0.412104,0.426516 -0.702674,0.956321 -0.235415,0.429234 -0.427108,0.874599 -0.475954,1.10579 -0.02254,0.106666 -0.02212,0.273427 9.04e-4,0.364012 0.06308,0.248136 0.255781,0.449269 0.483179,0.50431 0.09564,0.02315 0.262669,0.02319 0.374522,1.2e-4 z m -2.411509,-2.498579 c 0.243782,-0.0164 0.48184,-0.05228 0.672704,-0.101367 0.207158,-0.05328 0.308734,-0.09049 0.480397,-0.175994 0.900312,-0.448434 1.387783,-1.215861 1.561949,-2.458987 0.106547,-0.760477 0.106636,-1.827591 2.17e-4,-2.646667 -0.234363,-1.803921 -1.002159,-2.813236 -2.399716,-3.154574 -0.320442,-0.07826 -0.587379,-0.109254 -0.940905,-0.109233 -0.732495,4.8e-5 -1.41408,0.200517 -1.996296,0.587165 -0.351933,0.233718 -0.679113,0.567039 -0.890595,0.907311 -0.08286,0.133319 -0.215774,0.411061 -0.261725,0.546904 -0.1145,0.338496 -0.165486,0.877098 -0.154483,1.631911 0.01367,0.93743 0.103695,1.497418 0.344176,2.140785 0.447205,1.196422 1.164071,2.11395 1.964405,2.514272 0.3339,0.167014 0.69172,0.275884 1.007575,0.306562 0.267814,0.02601 0.372487,0.02805 0.612292,0.01191 z m 6.061689,-0.678213 c 0.634827,-0.120282 1.081735,-0.446429 1.353328,-0.98764 0.261217,-0.520536 0.297528,-1.191366 0.104067,-1.922662 -0.269627,-1.019222 -0.673854,-1.421147 -1.429281,-1.421147 -0.959186,0 -1.82799,0.636437 -2.21301,1.621126 -0.119599,0.305874 -0.16734,0.582884 -0.157531,0.914056 0.01173,0.395959 0.110765,0.7093 0.321322,1.016623 0.286582,0.418286 0.790992,0.723966 1.312806,0.795579 0.122415,0.0168 0.591189,0.0063 0.708299,-0.01593 z"
       id="path1091" />
  </g>
  <text
     xml:space="preserve"
     id="text8185"
     style="font-style:normal;font-weight:normal;font-size:10.5833px;line-height:1.25;font-family:sans-serif;white-space:pre;shape-inside:url(#rect8187);fill:#000000;fill-opacity:1;stroke:none;" />
</svg>
