<?xml version="1.0" encoding="UTF-8" standalone="no"?>
<svg
   xmlns:dc="http://purl.org/dc/elements/1.1/"
   xmlns:cc="http://creativecommons.org/ns#"
   xmlns:rdf="http://www.w3.org/1999/02/22-rdf-syntax-ns#"
   xmlns:svg="http://www.w3.org/2000/svg"
   xmlns="http://www.w3.org/2000/svg"
   xmlns:sodipodi="http://sodipodi.sourceforge.net/DTD/sodipodi-0.dtd"
   xmlns:inkscape="http://www.inkscape.org/namespaces/inkscape"
   viewBox="0 0 706.77163 219.2126"
   width="187mm"
   height="58mm"
   version="1.1"
   id="svg1129"
   sodipodi:docname="hetda.svg"
   inkscape:version="1.0.1 (3bc2e813f5, 2020-09-07)">
  <metadata
     id="metadata1133">
    <rdf:RDF>
      <cc:Work
         rdf:about="">
        <dc:format>image/svg+xml</dc:format>
        <dc:type
           rdf:resource="http://purl.org/dc/dcmitype/StillImage" />
        <dc:title></dc:title>
      </cc:Work>
    </rdf:RDF>
  </metadata>
  <sodipodi:namedview
     pagecolor="#ffffff"
     bordercolor="#666666"
     borderopacity="1"
     objecttolerance="10"
     gridtolerance="10"
     guidetolerance="10"
     inkscape:pageopacity="0"
     inkscape:pageshadow="2"
     inkscape:window-width="1920"
     inkscape:window-height="1017"
     id="namedview1131"
     showgrid="false"
     showguides="false"
     units="mm"
     inkscape:zoom="0.52128368"
     inkscape:cx="296.90162"
     inkscape:cy="161.85599"
     inkscape:window-x="1912"
     inkscape:window-y="-8"
     inkscape:window-maximized="1"
     inkscape:current-layer="g1125" />
  <defs
     id="defs995">
    <marker
       id="DistanceX"
       orient="auto"
       refX="0"
       refY="0"
       style="overflow:visible">
      <path
         d="M 3,-3 -3,3 M 0,-5 V 5"
         style="stroke:#000000;stroke-width:0.5"
         id="path983" />
    </marker>
    <pattern
       id="Hatch"
       patternUnits="userSpaceOnUse"
       width="8"
       height="8"
       x="0"
       y="0">
      <path
         d="M8 4 l-4,4"
         stroke="#000000"
         stroke-width="0.25"
         linecap="square"
         id="path986" />
      <path
         d="M6 2 l-4,4"
         stroke="#000000"
         stroke-width="0.25"
         linecap="square"
         id="path988" />
      <path
         d="M4 0 l-4,4"
         stroke="#000000"
         stroke-width="0.25"
         linecap="square"
         id="path990" />
    </pattern>
    <symbol
       id="*MODEL_SPACE" />
    <symbol
       id="*PAPER_SPACE" />
  </defs>
  <g
     inkscape:groupmode="layer"
     inkscape:label="0"
     id="g1125">
    <path
       style="opacity:0.982;fill:#000000;stroke:none;stroke-width:4.79585;stroke-linecap:round;stroke-miterlimit:4;stroke-dasharray:none"
       d=""
       id="path1874" />
    <path
       style="opacity:0.982;fill:#000000;stroke:none;stroke-width:4.79585;stroke-linecap:round;stroke-miterlimit:4;stroke-dasharray:none"
       d=""
       id="path1878" />
    <path
       style="opacity:0.982;fill:#000000;stroke:none;stroke-width:4.79585;stroke-linecap:round;stroke-miterlimit:4;stroke-dasharray:none"
       d=""
       id="path1882" />
    <g
       id="g1903"
       transform="matrix(0.52035481,0,0,0.52035481,33.186962,5.629054)">
      <path
         style="opacity:0.982;fill:#000000;stroke:none;stroke-width:4.79585;stroke-linecap:round;stroke-miterlimit:4;stroke-dasharray:none"
         d="m 193.63354,351.47385 c -14.99691,-2.75009 -26.46663,-12.42634 -31.29179,-26.39884 -2.33649,-6.76591 -3.14968,-13.68071 -3.63778,-30.93325 -0.24627,-8.70447 -0.55554,-17.18635 -0.68726,-18.84862 -0.25622,-3.23312 -2.14541,-8.10514 -3.68216,-9.49588 -1.09819,-0.99385 -1.18778,-1.84069 -0.15271,-1.4435 0.66772,0.25623 0.73515,-0.56488 0.59948,-7.29958 -0.14638,-7.26656 -0.20634,-7.66899 -1.41425,-9.49217 -1.3796,-2.08233 -4.2994,-3.78776 -7.37115,-4.30543 l -1.91834,-0.32329 4.0348,-1.90908 c 3.53378,-1.67202 3.92087,-1.97463 3.1173,-2.43698 -0.50462,-0.29034 -3.20724,-0.61123 -6.00582,-0.71308 l -5.08832,-0.18517 2.0411,-2.10014 c 4.55938,-4.69126 5.91711,-8.40952 7.91631,-21.67958 1.88747,-12.52842 4.92842,-26.45423 6.47474,-29.65064 1.8865,-3.89959 4.6401,-6.66182 8.52307,-8.54981 2.56688,-1.24806 6.687,-2.4172 16.15468,-4.5841 6.98996,-1.59982 13.62648,-3.35197 14.74783,-3.89366 2.20549,-1.06542 4.77549,-3.8212 5.23212,-5.61037 0.26722,-1.04698 0.35506,-0.99639 1.44578,0.83269 0.64007,1.07335 2.06566,2.47039 3.17627,3.11267 1.10824,0.6409 8.69478,3.13595 16.85898,5.54454 8.16419,2.40859 15.87923,4.94271 17.14454,5.63138 2.95437,1.60797 7.11342,5.97194 8.72787,9.1579 1.2527,2.47208 3.56201,12.94967 5.30618,24.07468 1.78762,11.40218 3.3639,16.63483 7.1616,23.77377 l 2.15032,4.04218 h -1.94859 c -1.29474,0 -2.89434,0.51992 -4.76706,1.54945 -2.87231,1.57906 -3.48083,2.28368 -1.97918,2.29173 0.4616,0.002 -0.23979,0.62375 -1.55865,1.3806 -1.53438,0.88054 -2.78653,2.06823 -3.477,3.298 -0.99986,1.78083 -1.07906,2.51287 -1.07906,9.97325 v 8.05136 l 1.07906,-0.98284 c 1.28578,-1.17112 2.93236,-2.06256 3.80516,-2.06008 0.34705,9.6e-4 -0.0165,0.39663 -0.80776,0.87921 -1.90017,1.15881 -4.51117,4.16988 -5.34377,6.16258 -0.36726,0.87896 -1.13335,3.37652 -1.70243,5.55011 -0.94634,3.61459 -1.05989,5.58981 -1.33002,23.13541 l -0.29535,19.18342 -1.5305,4.55606 c -2.17129,6.46356 -5.40991,11.91242 -9.9108,16.67451 -8.73412,9.24101 -18.7541,13.85784 -30.96296,14.26658 -3.03337,0.10156 -6.52289,-1.4e-4 -7.75448,-0.22599 z m 15.517,-9.82999 c 9.28174,-1.96715 19.80569,-8.88589 26.27905,-17.27657 3.19617,-4.14283 3.66459,-7.28505 4.75604,-31.90408 0.497,-11.2103 0.80349,-20.48801 0.6811,-20.61712 -0.1224,-0.12911 -1.2859,0.87996 -2.58555,2.24238 l -2.36301,2.47712 v 5.76237 c 0,3.16931 -0.17652,5.87147 -0.39227,6.00481 -0.21575,0.13334 -0.96875,-0.93299 -1.67334,-2.36962 -0.70459,-1.43663 -1.45675,-2.61206 -1.67147,-2.61206 -0.21472,0 -0.88346,1.56465 -1.48609,3.47699 -0.60263,1.91235 -2.24147,5.41938 -3.64186,7.7934 -1.40038,2.37402 -2.85605,5.37921 -3.23482,6.67819 -0.40251,1.38044 -0.83336,2.12765 -1.03691,1.7983 -0.5818,-0.94137 -3.83103,-0.67193 -4.99705,0.41439 -0.96054,0.89488 -1.04961,1.43927 -1.04961,6.41568 0,5.88513 0.15737,6.28214 2.691,6.78887 1.0116,0.20231 1.76482,-0.006 2.71191,-0.75134 1.23456,-0.97111 1.31604,-1.27498 1.39243,-5.19303 l 0.0812,-4.16156 0.27854,3.99658 c 0.22613,3.24457 0.45903,4.12834 1.23772,4.69679 2.49412,1.82073 4.54615,1.14319 6.78528,-2.24037 1.56418,-2.36363 2.00706,-2.16089 0.73096,0.33461 -3.30378,6.46078 -13.26142,12.99035 -23.37866,15.3302 -5.22137,1.20755 -13.49698,1.10037 -18.57204,-0.24055 -7.28449,-1.9247 -13.99879,-6.4033 -18.43972,-12.29975 -2.78721,-3.70073 -3.1621,-4.6386 -1.25429,-3.13792 1.89997,1.49452 4.96055,1.35319 6.61941,-0.30567 l 1.29965,-1.29964 -0.15519,-6.30153 -0.15518,-6.30153 -2.32082,-3.48789 c -1.41556,-2.1274 -2.79291,-5.00833 -3.53113,-7.38586 -0.66567,-2.14389 -1.37289,-4.07413 -1.57159,-4.28941 -0.47189,-0.51129 -3.05295,3.81104 -3.38394,5.66687 -0.14113,0.79131 -0.41654,-1.90635 -0.61202,-5.99482 -0.35042,-7.32902 -0.37717,-7.46556 -1.90153,-9.70805 l -1.54611,-2.27448 -0.12544,19.29295 c -0.11706,18.00494 -0.0608,19.5484 0.84219,23.11936 1.86525,7.37607 5.47832,13.4947 10.94286,18.53143 5.21704,4.80861 11.03533,7.89911 17.5305,9.31168 3.91941,0.8524 12.2436,0.8626 16.21985,0.0199 z M 185.9214,316.1402 c 0.66161,-0.1773 1.07907,-0.65916 1.07907,-1.24555 0,-0.90631 0.0463,-0.8992 0.88443,0.13587 0.59814,0.73867 1.39856,1.09223 2.47266,1.09223 2.4946,0 3.3571,-1.45802 3.3571,-5.67509 0,-4.4975 -0.91021,-5.77706 -3.96363,-5.57205 -0.46548,0.0313 -1.27397,0.75821 -1.79665,1.61547 l -0.95033,1.55866 -0.002,-1.82998 c -0.002,-2.33301 -0.69119,-3.60643 -2.27727,-4.20946 -1.79231,-0.68143 -3.77039,0.25197 -4.40759,2.07982 -0.57516,1.6499 -0.68597,9.91359 -0.14368,10.71479 0.94886,1.4019 3.38623,1.96814 5.74768,1.33529 z m 29.65145,-0.88594 c 1.18203,-1.804 0.82082,-9.64364 -0.48841,-10.60057 -1.19166,-0.87099 -3.18086,-0.87109 -4.37273,-2.1e-4 -0.78659,0.57473 -0.95687,1.39741 -1.09815,5.30529 -0.19803,5.47748 0.32153,6.48371 3.34778,6.48371 1.42152,0 2.00772,-0.26672 2.61151,-1.18822 z m -15.92805,-0.28535 c 1.15721,-0.91026 1.26364,-1.28637 1.26364,-4.46563 0,-2.82453 -0.18126,-3.66621 -0.97245,-4.51544 -1.37273,-1.47346 -3.10693,-1.80053 -4.54628,-0.85743 -1.11727,0.73207 -1.19547,1.04695 -1.19547,4.81391 0,3.78312 0.0776,4.09165 1.26365,5.02459 0.695,0.54669 1.63705,0.99398 2.09345,0.99398 0.4564,0 1.39846,-0.44729 2.09346,-0.99398 z m 7.97783,0.0348 c 0.80509,-0.80508 0.95917,-1.59861 0.95917,-4.93973 0,-4.53343 -0.34252,-5.13156 -2.93862,-5.13156 -2.72113,0 -3.77557,1.62532 -3.77557,5.8197 0,3.79542 0.91185,5.21076 3.3571,5.21076 0.79931,0 1.86505,-0.4263 2.39792,-0.95917 z m 5.15555,-12.44215 c 1.94547,-1.62297 0.95509,-2.71683 -1.13461,-1.25314 -0.78757,0.55163 -3.14615,0.69497 -11.61071,0.70563 l -10.62237,0.0134 -2.30317,-2.76754 c -6.43912,-7.73739 -9.86491,-14.64656 -14.18963,-28.61782 l -3.11751,-10.07129 -0.53837,-8.99532 c -0.2961,-4.94743 -0.41858,-9.18915 -0.27217,-9.42604 0.56965,-0.92171 5.78538,-3.49973 9.80523,-4.8465 6.90068,-2.31194 14.2136,-2.40025 21.40253,-0.25844 1.32344,0.39429 2.79738,1.0029 3.27543,1.35245 0.83465,0.61031 0.82653,0.75853 -0.20443,3.73134 -0.79888,2.30362 -1.06672,4.13888 -1.0467,7.17225 0.0309,4.67602 1.36207,9.73325 2.62616,9.97669 0.68281,0.1315 0.78576,-0.45899 0.79378,-4.55311 0.005,-2.7121 0.32472,-5.88014 0.75424,-7.48111 1.0885,-4.0571 3.24166,-8.15767 4.63928,-8.83523 4.22131,-2.04647 12.30979,-2.65522 17.45913,-1.31399 4.43188,1.15436 8.25492,3.03245 8.56181,4.20603 0.14669,0.56093 -0.25453,2.75243 -0.89159,4.86999 -1.1831,3.93253 -2.36988,9.69838 -2.84781,13.83581 -0.23302,2.01732 -0.16059,2.29216 0.5677,2.15421 0.56929,-0.10784 0.87825,-0.69076 0.97142,-1.83275 0.26497,-3.248 1.61428,-9.77881 2.76415,-13.37879 2.00725,-6.28428 1.56526,-7.55444 -3.33029,-9.57011 -1.87394,-0.77157 -4.5508,-1.64188 -5.94859,-1.93402 -5.51739,-1.15317 -14.51961,-0.33857 -18.39279,1.66432 -1.71822,0.88853 -4.30302,6.04826 -5.14667,10.27372 -0.92004,4.60801 -0.97453,4.63918 -0.83856,0.47959 0.0934,-2.85643 0.43072,-4.74278 1.12716,-6.30275 1.36915,-3.06674 0.77414,-4.16248 -2.99594,-5.51718 -8.98851,-3.22985 -20.50268,-2.51369 -29.15941,1.81364 -4.50091,2.24992 -6.20535,3.67456 -5.89165,4.92446 0.14429,0.57488 0.4963,4.98505 0.78226,9.80038 0.51735,8.71181 0.53414,8.80135 3.39331,18.08925 4.64484,15.0886 7.81582,21.4813 14.84521,29.92797 l 2.41018,2.89612 11.61246,-0.016 c 10.64224,-0.0146 11.70262,-0.0912 12.69153,-0.91614 z m 24.11485,-80.36573 c 1.93849,-1.00242 2.59221,-2.50699 3.76641,-8.66861 0.8642,-4.53485 1.01267,-7.08187 1.00641,-17.26507 -0.004,-6.56999 -0.1659,-12.18509 -0.35969,-12.478 -0.44901,-0.67867 -2.83496,-1.8758 -4.56669,-2.29129 -1.84174,-0.44189 -4.79378,0.43836 -6.61806,1.9734 l -1.52411,1.28245 0.28653,12.01343 c 0.3934,16.49474 1.16403,20.79326 4.42183,24.66494 1.44145,1.71306 1.66759,1.76152 3.58737,0.76875 z m -66.50129,-1.32401 c 1.27765,-1.27764 1.69331,-3.80985 3.40257,-20.72879 0.90503,-8.95833 1.12396,-10.27829 1.16545,-7.02647 0.0732,5.7364 1.55623,8.22543 4.90102,8.22543 2.05236,0 4.21279,-1.82672 4.25399,-3.59689 0.0197,-0.84491 0.094,-0.81747 0.62419,0.23034 1.30842,2.58595 4.37563,3.07594 6.63237,1.05955 l 1.50849,-1.34783 1.80831,0.89468 c 1.65955,0.82108 1.95058,0.83524 3.53777,0.17207 2.08115,-0.86956 2.68254,-2.22384 2.68254,-6.04087 0,-2.46607 -0.15525,-2.9336 -1.26364,-3.80546 -1.48919,-1.1714 -4.06272,-1.29696 -5.6234,-0.27436 -1.01672,0.66618 -1.18019,0.63242 -2.20149,-0.45471 -0.60677,-0.64588 -1.7078,-1.30711 -2.44674,-1.46941 -1.51589,-0.33294 -3.96363,0.7242 -4.73221,2.04377 -0.4601,0.78994 -0.4897,0.78777 -0.50342,-0.0369 -0.0264,-1.58793 -2.62478,-3.6799 -4.57065,-3.6799 -1.29734,0 -2.11632,0.36399 -3.15419,1.40187 -1.35769,1.35768 -1.40187,1.36787 -1.40187,0.32339 0,-3.63946 -8.35192,-6.0508 -12.46922,-3.60006 -2.81797,1.67734 -2.87863,1.88394 -2.86516,9.75973 0.0223,13.04698 2.71983,26.83904 5.5737,28.49768 1.54024,0.89516 3.95657,0.63815 5.14159,-0.54688 z M 226.6631,198.8531 c 1.02746,-0.96526 1.10212,-1.41389 1.10212,-6.62322 0,-5.18474 -0.0778,-5.65851 -1.07907,-6.56765 -1.54029,-1.39864 -3.42751,-1.71904 -5.36274,-0.91045 -1.30079,0.54351 -1.72019,1.04382 -1.96388,2.34275 l -0.30985,1.65166 -1.13566,-1.13567 c -1.59401,-1.594 -4.62135,-1.57386 -6.23671,0.0415 -1.02911,1.02911 -1.17716,1.60609 -1.17716,4.58759 0,3.92865 0.42105,4.96281 2.44714,6.01054 1.74787,0.90386 3.79413,0.57265 5.05247,-0.8178 l 0.88487,-0.97778 0.25774,1.12486 c 0.34027,1.48507 3.13848,2.92534 5.0029,2.57505 0.77863,-0.1463 1.91165,-0.73192 2.51783,-1.30138 z m -17.75252,-1.91096 c 0.93984,-0.88293 1.10998,-1.52144 1.10998,-4.16547 0,-2.54608 -0.19255,-3.32765 -1.04277,-4.23266 -1.37557,-1.46423 -3.99956,-1.49617 -5.52062,-0.0672 -0.94999,0.89246 -1.10997,1.5146 -1.10997,4.31627 0,2.63405 0.18736,3.46086 0.95917,4.23266 1.32134,1.32136 4.15369,1.27911 5.60421,-0.0836 z"
         id="path1858" />
      <path
         style="opacity:0.982;fill:#000000;stroke:none;stroke-width:4.79585;stroke-linecap:round;stroke-miterlimit:4;stroke-dasharray:none"
         d="m 195.54239,151.99449 c -5.33001,-2.11363 -8.16778,-3.67825 -11.89902,-6.56058 -6.24805,-4.82652 -11.34729,-11.33405 -14.26213,-18.20096 -1.35153,-3.184 -3.25061,-9.73423 -2.91697,-10.06108 0.0846,-0.0829 1.87957,0.915 3.98882,2.21749 4.47408,2.76282 6.81971,3.50504 9.92028,3.13905 4.36879,-0.51569 8.68425,-3.87798 10.02245,-7.80877 0.93033,-2.73272 0.75994,-6.76369 -0.39625,-9.37415 -1.97653,-4.46261 -5.23224,-4.88476 -8.69557,-1.1275 -1.37281,1.48933 -2.05467,2.72336 -2.27862,4.12384 l -0.31957,1.99853 -2.68677,-0.27676 c -3.36413,-0.34654 -4.52653,-1.5107 -4.0979,-4.1041 0.91586,-5.54134 4.06877,-10.105527 8.55332,-12.381863 3.74558,-1.901239 7.64373,-2.008491 14.16834,-0.389822 5.592,1.387303 5.61413,1.386839 12.02066,-0.251895 5.92494,-1.515546 12.65472,-1.201754 16.25533,0.757943 4.31594,2.349026 6.24828,6.202471 6.27346,12.510407 0.0116,2.90959 -0.002,2.9403 -1.48698,3.2372 -2.53641,0.50728 -2.68022,0.41157 -2.94773,-1.96182 -0.20402,-1.81006 -0.59805,-2.57601 -1.97367,-3.83668 -1.46966,-1.34684 -2.07077,-1.57513 -4.14755,-1.57513 -2.97075,0 -4.78993,0.88821 -6.55273,3.19937 -1.18645,1.55551 -1.34365,2.16867 -1.34365,5.24077 0,3.8759 0.54421,4.96929 3.77485,7.58406 1.52721,1.23607 2.28722,1.48021 5.10332,1.63934 3.90205,0.22048 8.21494,-0.46062 13.51129,-2.13374 2.11074,-0.66678 3.9476,-1.10244 4.08191,-0.96813 0.40419,0.40419 -1.78669,6.53711 -3.70692,10.37677 -4.63192,9.26192 -11.17907,16.29887 -20.08965,21.59255 -3.40294,2.02164 -11.12618,5.27426 -12.46898,5.25127 -0.41618,-0.007 -2.8477,-0.84215 -5.40337,-1.85561 z m -5.38698,-26.68074 c 2.90334,-1.78697 5.23559,-5.1427 5.94322,-8.55132 0.4296,-2.06938 0.38151,-3.28815 -0.25055,-6.34973 -0.43021,-2.08384 -0.92437,-4.03177 -1.09812,-4.32873 -0.4652,-0.79508 -3.44098,-3.20907 -3.67159,-2.97846 -0.10882,0.10882 0.22032,1.80823 0.73141,3.77647 1.64751,6.34454 1.09408,10.09848 -2.00838,13.62307 -3.0883,3.50849 -8.36924,4.71864 -12.4875,2.86156 -1.59089,-0.71739 -1.96263,-0.74786 -2.30792,-0.18917 -0.29203,0.47253 0.032,0.96475 1.1155,1.69468 2.50464,1.68727 4.2104,2.11168 8.03911,2.0002 3.10111,-0.0903 3.98094,-0.31904 5.99482,-1.55857 z m 32.6318,0.50039 c 2.58699,-1.08091 1.84122,-1.88097 -1.6216,-1.73964 -5.26584,0.21491 -8.77607,-1.99494 -12.14683,-7.64699 -2.16369,-3.62805 -2.38681,-5.72271 -0.91656,-8.60464 0.8921,-1.74867 1.24758,-3.3571 0.74194,-3.3571 -1.15524,0 -2.74124,1.42178 -3.38737,3.03664 -2.74435,6.8588 -0.0822,14.09318 6.42591,17.46221 2.49062,1.28931 3.55722,1.56207 6.10832,1.56207 1.69995,0 3.85823,-0.32065 4.79619,-0.71255 z"
         id="path1860" />
      <path
         style="opacity:0.982;fill:#000000;stroke:none;stroke-width:4.79585;stroke-linecap:round;stroke-miterlimit:4;stroke-dasharray:none"
         d="m 195.39321,397.47383 c -7.88421,-0.57626 -15.00242,-2.67408 -22.39872,-6.60117 -4.13495,-2.19546 -5.447,-2.36334 -4.31594,-0.55223 0.32196,0.51555 0.44244,0.93736 0.26772,0.93736 -0.95282,0 -13.01264,-7.35129 -19.49214,-11.8818 -4.28968,-2.99937 -5.83348,-4.99749 -6.6377,-8.59111 -0.88831,-3.96943 -1.79016,-3.31982 -1.95666,1.40939 l -0.13929,3.95658 -2.95426,-4.40309 c -8.11711,-12.0979 -13.81354,-26.86428 -15.51141,-40.20896 -0.76279,-5.99522 -0.88403,-6.46379 -1.67251,-6.46379 -0.5688,0 -0.72121,1.2054 -0.83014,6.56541 l -0.13343,6.5654 -3.79359,-9.94166 c -2.08648,-5.46792 -3.9494,-10.03796 -4.13984,-10.15566 -0.19043,-0.11769 -0.61792,2.30812 -0.94996,5.39069 -1.42462,13.2254 1.02688,26.98493 7.05239,39.58296 2.16459,4.52567 2.55282,4.9282 4.58861,4.7576 0.4616,-0.0387 0.83928,0.23923 0.83928,0.61758 0,0.37836 0.8436,2.31813 1.87466,4.31062 1.03106,1.99248 1.72165,3.62269 1.53463,3.62269 -0.59275,0 -6.40147,-4.78901 -9.81278,-8.09017 -4.1074,-3.97478 -9.06438,-10.29885 -12.00762,-15.31923 -1.23974,-2.11466 -2.78393,-4.192 -3.43153,-4.61633 -1.37255,-0.89932 -1.430779,-0.6288 -0.45808,2.12813 0.39566,1.12141 0.71667,2.8211 0.71337,3.77708 -0.005,1.47056 -0.42101,0.77832 -2.701687,-4.49646 -3.256341,-7.5313 -3.993358,-10.11131 -4.000806,-14.00531 -0.0052,-2.72512 -0.709445,-5.43984 -1.401535,-5.40274 -0.155486,0.008 -0.876193,0.53752 -1.601566,1.17596 -1.191184,1.04843 -1.320552,1.47641 -1.336345,4.421 l -0.0175,3.26021 -2.500332,-2.66562 c -4.43463,-4.72778 -10.044133,-11.95546 -10.696149,-13.78168 -0.353646,-0.99052 -0.643737,-3.84637 -0.655473,-6.4529 -0.01535,-3.41081 -0.183249,-4.67547 -0.62053,-4.67416 -1.086952,0.003 -3.625239,1.83175 -3.946076,2.84263 -0.173212,0.54574 -0.462249,0.98733 -0.642304,0.98131 -0.180051,-0.006 -1.135284,-1.89439 -2.122736,-4.19637 C 64.870217,300.7504 56.83047,289.94786 47.081449,281.30768 l -2.517823,-2.23145 v -5.99925 c 0,-4.63552 -0.183718,-6.38451 -0.808202,-7.69407 -0.444512,-0.93215 -0.974948,-1.69482 -1.178747,-1.69482 -0.760364,0 -2.896409,4.37127 -3.21593,6.58118 l -0.331268,2.29115 -2.454618,-4.79585 c -3.053054,-5.96509 -4.640096,-10.36513 -6.013905,-16.67342 -0.941066,-4.32122 -1.060508,-6.16919 -0.999166,-15.4588 l 0.06967,-10.55087 -1.442944,1.67854 c -2.090385,2.43171 -3.718083,5.84802 -4.406255,9.24813 l -0.601483,2.97179 -1.266755,-4.7911 c -0.696716,-2.6351 -1.40734,-6.19388 -1.579164,-7.9084 -0.64499,-6.43591 1.554875,-15.44065 5.263717,-21.54606 0.946241,-1.55768 3.712109,-4.96294 6.146373,-7.56723 4.169968,-4.46125 7.765497,-9.90754 7.44942,-11.28394 -0.07708,-0.33564 0.370577,-1.3275 0.994789,-2.20413 1.660397,-2.33181 2.10508,-4.74905 1.064989,-5.78914 -0.785783,-0.78579 -0.707037,-0.96541 1.506272,-3.43578 1.284472,-1.43366 3.078912,-4.09239 3.987646,-5.90829 1.354826,-2.70731 1.648099,-3.05263 1.629218,-1.91834 -0.01267,0.76081 -0.615566,3.70329 -1.339783,6.53884 -0.724216,2.83554 -1.172967,5.15554 -0.997225,5.15554 0.535824,0 4.278375,-4.25577 4.278375,-4.86507 0,-0.31363 0.126761,-0.44347 0.28169,-0.28854 0.401044,0.40104 -0.733026,5.59944 -1.59511,7.31174 -0.398401,0.79132 -1.452836,2.33833 -2.343191,3.43781 -1.975462,2.43946 -2.083079,3.2571 -0.372179,2.82769 l 1.246649,-0.31289 -0.955096,1.33996 c -0.525303,0.73698 -1.410014,1.75109 -1.966026,2.25357 -0.556012,0.50248 -1.010931,1.19114 -1.010931,1.53035 0,1.25657 1.008832,1.16485 3.113274,-0.28305 1.18919,-0.81818 2.162164,-1.35861 2.162164,-1.20096 0,0.78647 -1.730524,3.4545 -3.451956,5.32203 -1.210375,1.3131 -1.82559,2.3727 -1.647331,2.83724 0.24987,0.65115 0.50871,0.62705 2.125641,-0.19784 3.155975,-1.61006 6.811809,-4.81484 9.114523,-7.98999 1.216459,-1.67734 2.303894,-2.95756 2.416524,-2.84493 0.11263,0.11263 -0.411824,1.42348 -1.165452,2.913 -1.876373,3.70859 -5.686852,7.44556 -9.512352,9.32884 -3.050309,1.50166 -4.117338,2.8603 -2.246382,2.8603 1.671303,0 6.984301,-1.87924 8.777506,-3.10465 0.97515,-0.66639 1.895993,-1.21161 2.046316,-1.21161 0.498148,0 -2.222347,4.98949 -4.314613,7.91315 -1.132579,1.58263 -3.372832,4.16564 -4.978341,5.74002 -1.605508,1.57437 -2.919106,3.03111 -2.919106,3.2372 0,0.55159 3.249732,0.45683 3.596889,-0.10489 0.775973,-1.25555 1.079694,-0.26213 0.458312,1.49906 -0.383958,1.08825 -0.698104,3.34267 -0.698104,5.00983 0,2.60334 0.273302,3.55948 1.936227,6.7738 2.692695,5.20479 3.149419,5.5818 3.580041,2.95517 0.4387,-2.67591 2.81241,-8.85787 4.117203,-10.72263 l 1.006714,-1.43875 -0.257262,1.81672 c -0.514925,3.6363 1.580305,10.65504 3.354709,11.23784 0.30197,0.0992 0.841504,-0.50912 1.198964,-1.35177 0.35746,-0.84266 1.212509,-2.74144 1.900109,-4.21952 l 1.250183,-2.68742 -0.23801,5.63513 c -0.211147,4.99914 -0.14927,5.63512 0.548262,5.63512 0.598638,0 0.786272,0.46147 0.786272,1.93375 0,2.23559 0.861035,4.42287 2.533976,6.43705 l 1.176777,1.4168 0.750719,-1.45174 c 0.412899,-0.79845 1.129078,-1.75973 1.591514,-2.13617 0.759605,-0.61836 0.803046,-0.59184 0.449875,0.27472 -2.061479,5.05811 -2.321908,6.102 -2.512591,10.07129 -0.204524,4.25754 0.188813,5.95302 1.231551,5.30858 0.293262,-0.18125 0.533203,-0.98559 0.533203,-1.78741 0,-1.97716 1.255794,-4.48092 2.971597,-5.92467 1.7974,-1.51241 2.071833,-1.49672 2.193796,0.12547 0.102866,1.36813 2.062073,3.47699 3.230261,3.47699 0.367842,0 0.859374,-0.34052 1.092289,-0.75673 0.274856,-0.49113 0.423489,0.49277 0.423489,2.80331 0,3.00541 0.232363,4.03856 1.49151,6.63164 0.820331,1.68939 2.042199,3.71906 2.715268,4.51038 l 1.223758,1.43875 0.05226,-2.15813 c 0.04158,-1.71728 0.228536,-1.17846 0.915202,2.63772 1.586895,8.81917 2.764008,10.1677 3.872287,4.43616 l 0.672326,-3.47699 0.280241,7.43357 c 0.268625,7.12562 0.549106,8.91707 2.201363,14.06026 0.516715,1.60845 0.945814,2.2323 1.412302,2.0533 0.479533,-0.18402 0.670077,0.1415 0.670077,1.14475 0,1.97674 1.970731,7.17022 3.80625,10.03063 1.54269,2.40407 6.86652,7.72079 7.73113,7.72079 0.24874,0 0.46703,-1.13302 0.4851,-2.51782 0.0181,-1.38481 0.41042,-9.31595 0.87192,-17.62476 0.46149,-8.30882 0.77735,-15.18994 0.70191,-15.29139 -0.34327,-0.46159 -3.18234,1.16786 -4.25411,2.44158 -1.18746,1.41123 -1.18925,1.41161 -1.18925,0.25431 0,-1.78416 1.69657,-8.00827 3.07671,-11.28733 0.68176,-1.61978 1.23955,-3.17026 1.23955,-3.44552 0,-0.6902 -3.30949,0.73923 -4.66941,2.01681 l -1.08561,1.01988 v -2.6446 c 0,-3.14708 1.34665,-8.68121 3.04629,-12.51892 1.62198,-3.66233 5.44383,-9.13171 8.44274,-12.08222 1.33042,-1.30894 2.41894,-2.57501 2.41894,-2.81348 0,-0.23847 -1.38556,-0.34536 -3.07903,-0.23753 l -3.07904,0.19606 1.01934,-1.45905 c 2.32546,-3.32858 4.62273,-5.78886 8.11715,-8.69309 4.56992,-3.79809 5.29616,-5.57203 3.88831,-9.4977 l -0.87925,-2.45167 -2.69898,-0.14219 c -1.48443,-0.0782 -3.98336,0.15453 -5.55315,0.51719 l -2.85417,0.65937 0.21487,-2.23621 c 0.21191,-2.20542 -0.31971,-3.7702 -2.01384,-5.92751 -0.68319,-0.86999 -0.74793,-0.86676 -2.33883,0.11646 -2.15677,1.33297 -5.60252,5.05092 -7.18721,7.75499 -1.783267,3.04292 -2.735296,5.84671 -3.493425,10.28836 l -0.654869,3.83668 0.129493,-4.31626 c 0.114822,-3.82741 0.308172,-4.65082 1.707094,-7.27006 2.338197,-4.37786 1.361997,-6.40352 -1.80267,-3.74062 l -1.502709,1.26444 0.0024,-2.08087 c 0.0024,-2.00644 2.987596,-14.25647 4.524715,-18.56696 0.411581,-1.1542 0.748331,-2.61094 0.748331,-3.2372 0,-1.01409 -0.21599,-1.13867 -1.974151,-1.13867 h -1.974146 l 1.76791,-1.95687 c 2.420357,-2.67904 3.575917,-5.60728 3.729967,-9.45188 0.1214,-3.02976 0.0648,-3.2277 -0.96401,-3.37368 -0.74442,-0.10561 -2.480935,0.85982 -5.445286,3.02739 -2.393773,1.75036 -4.432768,3.10201 -4.531102,3.00367 -0.09833,-0.0983 0.895304,-1.23673 2.208082,-2.52977 1.831273,-1.80373 2.38517,-2.69009 2.379535,-3.80777 -0.01285,-2.55439 -0.58238,-2.87755 -2.626478,-1.49039 -2.645843,1.79552 -3.186873,1.60852 -2.041878,-0.70572 0.527444,-1.06605 0.846497,-2.05078 0.709005,-2.18826 -0.423824,-0.42383 -6.225516,0.79157 -8.456744,1.77161 -1.16179,0.5103 -2.199028,0.84114 -2.304973,0.7352 -0.105941,-0.10595 1.10847,-1.21482 2.698694,-2.46417 2.971175,-2.33428 3.64256,-3.35115 3.116954,-4.72085 -0.205061,-0.53438 -0.047,-0.78695 0.492525,-0.78695 1.245449,0 3.705453,-1.43534 3.502665,-2.04371 -0.106036,-0.3181 -1.386936,-0.58058 -3.047913,-0.62457 -2.943138,-0.078 -6.409404,-1.2935 -8.598173,-3.01519 l -1.171378,-0.9214 2.752805,-0.33036 c 4.524183,-0.54294 12.157704,-4.51483 17.679266,-9.19892 1.681904,-1.4268 3.057994,-2.38166 3.057994,-2.12191 0,0.25974 -2.592082,3.06434 -5.760175,6.23243 -5.672122,5.67212 -5.7436,5.77067 -4.675957,6.4469 1.62226,1.02752 3.762573,1.3311 5.608511,0.79551 0.90573,-0.2628 1.719711,-0.40489 1.808842,-0.31575 0.08913,0.0891 -1.35691,1.91985 -3.213428,4.06827 l -3.375484,3.90622 h 3.064996 c 3.652009,0 6.608255,-0.95246 9.060515,-2.91914 0.98915,-0.79328 1.79845,-1.31007 1.79845,-1.14841 0,0.64339 -1.19456,2.50345 -3.01345,4.69227 l -1.914,2.30328 2.58362,-0.32383 c 3.13319,-0.39272 6.92535,-1.65474 9.80007,-3.26147 2.90654,-1.62448 2.79507,-0.62129 -0.30827,2.77425 -2.70492,2.9596 -2.44838,3.81272 0.74524,2.47835 l 1.77057,-0.73979 -0.33099,1.54923 c -0.5118,2.39553 -2.30513,6.57618 -3.95554,9.22124 -1.64938,2.64341 -1.41673,3.65323 0.62712,2.72199 1.95031,-0.88862 1.90553,-0.72711 -0.60866,2.19513 -3.67018,4.26584 -6.66039,8.52523 -9.00664,12.82948 -2.28334,4.18885 -2.527899,5.28604 -1.49351,6.70065 0.59702,0.81647 0.77647,0.63403 2.17935,-2.21564 2.85999,-5.80946 8.02313,-10.99924 13.74534,-13.81628 1.6311,-0.80299 3.10412,-1.45998 3.27337,-1.45998 0.41058,0 -2.43206,5.60478 -3.0301,5.97439 -1.06235,0.65657 -2.34647,2.97809 -1.97751,3.57508 0.29801,0.48219 1.34174,0.17618 4.58842,-1.34527 l 4.20267,-1.96943 -0.32269,3.14956 c -0.39587,3.86392 -1.3868,6.92387 -3.21446,9.92619 -0.76513,1.25688 -1.39115,2.41923 -1.39115,2.58301 0,0.57212 4.33501,-0.30225 6.18975,-1.24848 1.02873,-0.52481 2.53874,-1.76499 3.35557,-2.75595 1.76182,-2.13738 1.77387,-2.05922 0.77068,4.99743 -0.77905,5.48005 -2.01186,10.61092 -3.82822,15.93288 -2.01844,5.91404 -0.19469,5.59388 4.36394,-0.76607 3.98918,-5.56548 6.70112,-13.38899 7.78791,-22.46681 0.63459,-5.30075 1.60492,-33.6439 1.57619,-46.04019 -0.041,-17.67417 1.98358,-27.93448 8.0495,-40.79422 l 2.37814,-5.04165 -3.69179,0.2639 -3.69178,0.2639 2.33846,-0.75788 c 4.01686,-1.30185 6.693,-3.39319 9.41835,-7.36021 l 1.12046,-1.63094 -1.2832,-1.10376 c -0.70576,-0.60707 -2.60148,-1.87639 -4.21271,-2.82071 -2.29535,-1.34526 -3.07396,-1.597052 -3.59679,-1.163146 -0.36699,0.304583 -0.66727,0.931406 -0.66727,1.392936 0,0.60559 -0.52428,0.92299 -1.88362,1.14036 -2.72964,0.43649 -3.98932,2.20825 -3.78744,5.32708 0.15314,2.36583 0.13095,2.40972 -1.28292,2.53793 -3.05196,0.27674 -5.99482,-2.97134 -5.99482,-6.61658 v -1.48127 l -1.48566,0.86639 c -1.45765,0.85006 -2.92767,2.33288 -5.14242,5.1872 l -1.11284,1.43421 0.2385,-1.76813 c 0.14005,-1.03825 1.24928,-3.26605 2.68712,-5.39684 3.01966,-4.47493 3.2037,-4.929522 2.0929,-5.169441 -1.08816,-0.235028 5.38383,-1.181465 10.99525,-1.607903 3.63472,-0.276219 4.19637,-0.436667 4.19637,-1.198782 0,-1.628491 -1.16536,-3.455599 -2.6261,-4.11734 -1.40485,-0.636424 -1.37511,-0.647806 0.94755,-0.362617 4.91416,0.60339 9.66931,3.821843 11.80658,7.991108 1.05124,2.050716 1.20187,2.100062 2.75782,0.903489 0.98602,-0.75828 1.06005,-1.015581 0.56063,-1.948752 -1.06684,-1.993395 -0.0297,-1.65109 2.19363,0.724034 l 2.20871,2.359467 -0.24566,-3.349398 -0.24565,-3.349397 1.38577,1.550953 c 0.76218,0.853024 1.52845,1.550952 1.70284,1.550952 0.17438,0 1.21991,-0.739825 2.3234,-1.644055 2.57692,-2.111584 7.47475,-5.067313 8.39952,-5.068906 0.39346,-6.77e-4 -0.68561,0.913944 -2.39792,2.032495 -6.96146,4.547487 -13.02263,12.304313 -19.3967,24.823053 -7.46277,14.65696 -11.52779,28.54462 -13.40614,45.80039 -0.40197,3.69281 -0.95588,14.48348 -1.23092,23.97927 -0.60783,20.98611 -1.13431,27.63601 -2.66861,33.70715 -2.23957,8.86187 -5.0905,12.82524 -11.57405,16.0903 -8.78027,4.42168 -14.44119,11.13458 -16.69874,19.80192 -1.06142,4.07507 -0.29992,4.32918 2.74287,0.91525 2.2507,-2.52522 6.15509,-5.53081 7.18477,-5.53081 0.21593,0 -0.25249,1.27791 -1.04093,2.8398 -1.64193,3.25265 -3.14534,8.33461 -3.64228,12.31198 l -0.34166,2.73455 2.93988,-2.44659 c 4.07033,-3.38736 11.71773,-7.78441 12.38253,-7.11961 0.10671,0.10671 -1.00796,1.7853 -2.47705,3.73021 -2.23945,2.96477 -8.40087,14.18835 -8.40087,15.30294 0,0.18704 0.91721,0.48671 2.03824,0.66594 3.01099,0.48138 5.9024,2.38095 7.32869,4.81473 0.95064,1.62215 1.44956,3.60284 2.14104,8.4999 3.13146,22.17695 10.78492,41.15882 23.60322,58.53996 1.31313,1.78056 2.55557,3.1335 2.76098,3.00656 0.2054,-0.12695 0.62661,1.00599 0.93601,2.51765 0.3094,1.51166 0.8461,3.39591 1.19268,4.18722 l 0.63013,1.43876 0.56284,-2.15813 c 1.30433,-5.00129 1.86263,-5.24873 2.92583,-1.29677 1.26474,4.7011 5.22247,9.93553 10.48963,13.8734 1.96003,1.46538 2.66754,1.77372 2.96509,1.29228 0.26382,-0.42688 -0.33883,-1.3575 -1.85491,-2.86432 -1.23514,-1.22761 -2.65679,-2.94687 -3.15924,-3.8206 -0.97089,-1.68833 -1.04951,-1.64902 1.34979,-0.67491 0.42042,0.17069 0.8026,-0.12423 1.01071,-0.77994 0.31084,-0.97937 0.4085,-0.9228 1.37196,0.79481 0.88627,1.57997 4.02471,3.99353 5.22612,4.01903 0.20442,0.004 0.50277,-0.64758 0.66299,-1.44871 l 0.29133,-1.45661 1.07943,1.5765 c 0.95453,1.39408 2.51926,2.77476 4.45074,3.92725 0.48862,0.29155 0.56149,-0.12534 0.34069,-1.9491 -0.16061,-1.32657 -0.0654,-2.62802 0.22227,-3.03936 0.42121,-0.60223 0.7953,-0.40347 2.29704,1.22042 0.98663,1.06689 2.2721,2.57759 2.8566,3.3571 l 1.06273,1.41729 1.2399,-1.37419 c 0.68194,-0.75581 1.28278,-1.29534 1.3352,-1.19896 0.0524,0.0964 0.8745,1.67589 1.82686,3.51003 0.95235,1.83414 1.97746,3.41677 2.27803,3.51696 0.3896,0.12987 0.54647,-1.55015 0.54647,-5.85263 0,-3.31913 0.16529,-6.03478 0.3673,-6.03478 0.20202,0 0.28606,2.37395 0.18674,5.27544 -0.21677,6.33316 0.42765,6.91495 2.78886,2.51782 0.81445,-1.51669 1.90137,-3.29715 2.41539,-3.95658 l 0.93458,-1.19896 0.0106,2.03824 c 0.0143,2.7386 1.05249,2.68145 2.41491,-0.13294 0.92233,-1.90527 3.53486,-4.54302 4.49959,-4.54302 0.57405,0 1.72774,3.23805 1.74595,4.90035 l 0.0173,1.57405 1.22357,-1.43875 c 0.67297,-0.79132 1.73384,-2.50538 2.35749,-3.80902 l 1.1339,-2.37025 0.50278,1.32241 c 0.27653,0.72733 0.50278,1.9558 0.50278,2.72994 0,0.77415 0.1902,1.40754 0.42267,1.40754 0.62322,0 2.8493,-3.06221 3.84853,-5.29406 l 0.86993,-1.94305 0.60919,1.47071 c 0.86541,2.08931 1.17656,2.13475 3.0933,0.45184 0.93899,-0.82445 1.70726,-1.35367 1.70726,-1.17604 0,0.57417 -2.98591,4.75368 -4.91999,6.88674 -1.03464,1.14108 -1.7585,2.19735 -1.60858,2.34727 0.42287,0.42287 4.62855,-1.30207 6.83305,-2.80255 4.20088,-2.85929 6.90297,-7.51406 7.26317,-12.51192 l 0.23201,-3.21915 2.45467,2.14988 2.45468,2.14989 0.1426,-3.45052 c 0.0861,-2.0842 0.38906,-3.6548 0.76503,-3.96639 2.57427,-2.13344 10.35187,-14.15863 13.98174,-21.61761 4.36024,-8.9598 6.55453,-15.86239 10.00635,-31.47715 2.03394,-9.2008 3.40218,-14.36207 4.11168,-15.51005 1.30512,-2.11174 4.10542,-3.60905 6.74969,-3.60905 h 1.98453 l -0.34386,-2.99741 c -0.67192,-5.85705 -3.39417,-12.1667 -6.8564,-15.89182 l -1.28666,-1.38436 1.7515,0.26753 c 2.41683,0.36914 6.59663,2.49144 9.28963,4.7168 1.23855,1.02348 2.41906,1.86087 2.62334,1.86087 1.07561,0 1.27994,-6.48204 0.28723,-9.11212 -0.34845,-0.9232 -0.81378,-2.10855 -1.03405,-2.6341 -0.29897,-0.71332 0.12076,-0.53096 1.65573,0.71938 4.08495,3.32745 3.96459,3.29739 3.62523,0.90531 -1.10061,-7.75797 -5.56618,-14.0124 -12.11161,-16.96342 -1.50144,-0.67693 -3.25113,-1.49601 -3.88818,-1.82017 -1.23534,-0.62858 -6.00462,-6.53515 -5.60196,-6.9378 0.1318,-0.1318 1.38304,0.73327 2.78056,1.92236 1.80022,1.53175 3.41851,2.40663 5.5514,3.0012 1.65576,0.46157 3.09206,0.75517 3.19178,0.65245 0.0997,-0.10271 -1.51948,-2.12908 -3.59822,-4.50303 -4.54457,-5.18995 -6.48651,-8.65359 -7.45441,-13.29566 -0.69671,-3.34147 -0.53953,-10.45167 0.23077,-10.4387 0.16683,0.003 1.03484,0.75794 1.92888,1.67807 1.98671,2.04467 4.6695,2.84126 8.18138,2.42928 1.43723,-0.16861 2.71272,-0.40613 2.83441,-0.52783 0.1217,-0.12169 -0.56664,-0.98647 -1.52965,-1.92174 -1.96702,-1.91034 -2.07773,-2.26263 -2.43003,-7.73242 l -0.25192,-3.91141 3.13366,1.63338 c 5.20381,2.71241 5.94425,2.09624 2.83165,-2.35638 -1.19109,-1.70387 -2.16562,-3.25721 -2.16562,-3.45186 0,-0.19466 0.94962,0.52141 2.11027,1.59125 5.35675,4.93768 14.58197,10.45171 15.66846,9.36522 0.41811,-0.41811 -0.1105,-1.38541 -2.1626,-3.95735 -2.66423,-3.33912 -11.77944,-16.48846 -11.77944,-16.99267 0,-0.14104 1.13302,0.2515 2.51782,0.87231 5.71519,2.56214 7.60659,1.76328 3.24468,-1.37044 -1.31475,-0.94456 -3.06763,-2.63735 -3.89528,-3.76178 -1.42063,-1.93001 -3.89153,-6.65436 -3.62154,-6.92436 0.0685,-0.0685 0.92819,0.12211 1.91043,0.42357 2.93395,0.90045 3.24147,-0.081 0.86964,-2.77558 -1.09171,-1.24025 -1.98492,-2.43312 -1.98492,-2.65083 0,-0.21771 0.99134,0.27321 2.20299,1.09094 2.1676,1.4629 5.89125,2.83535 9.42695,3.47454 1.46809,0.26541 1.79844,0.18331 1.79844,-0.44694 0,-0.42464 -0.63547,-1.30679 -1.41215,-1.96032 -1.52822,-1.28591 -3.06796,-3.58547 -3.62167,-5.40885 l -0.34734,-1.1438 1.70308,1.299 c 2.69042,2.05209 6.1405,3.14673 9.91784,3.14673 1.84357,0 3.35173,-0.16186 3.35146,-0.35969 -2.7e-4,-0.19783 -1.06954,-0.96012 -2.37616,-1.69398 -6.97727,-3.91877 -12.57652,-11.99897 -13.70382,-19.77579 l -0.34639,-2.3896 1.94762,2.87751 c 5.54652,8.19471 13.34899,12.59085 23.35157,13.15696 l 4.79585,0.27143 -2.36346,0.83927 c -2.60857,0.92632 -7.73273,1.10904 -10.31695,0.36789 -0.90399,-0.25926 -1.74881,-0.36619 -1.87739,-0.23761 -0.54559,0.54558 2.80663,3.92386 5.01833,5.05733 1.98185,1.01567 2.28836,1.33724 1.75212,1.83815 -0.53768,0.50227 -0.28149,0.85118 1.48336,2.02017 2.22615,1.47453 3.47202,2.69833 3.11275,3.0576 -0.11583,0.11584 -1.25995,-0.10519 -2.54248,-0.49117 -4.6742,-1.40673 -7.95842,-0.64592 -7.22239,1.67312 0.37176,1.17131 -0.0325,1.21717 -2.31665,0.26281 -3.87634,-1.61964 -4.14383,-0.62029 -0.78468,2.93152 2.31741,2.45033 3.76953,5.06122 4.50441,8.09894 0.31889,1.31812 0.14741,1.21466 -2.04507,-1.23382 -2.67448,-2.98677 -9.07088,-8.38927 -9.46547,-7.99469 -0.14036,0.14036 -0.37684,1.43383 -0.52552,2.87439 -0.4466,4.32712 1.12854,7.4804 5.21552,10.44099 l 1.8034,1.30638 -2.16959,0.24454 c -1.19327,0.1345 -2.30148,0.37644 -2.46269,0.53765 -0.1612,0.1612 0.47629,1.96697 1.41666,4.01282 3.10393,6.75286 4.20075,11.69242 4.18039,18.82665 -0.0106,3.70437 -0.076,3.98892 -0.71716,3.11731 -3.71641,-5.05245 -6.15483,-7.43759 -5.28419,-5.16873 0.79686,2.0766 1.35338,10.66463 0.9565,14.76043 l -0.41824,4.31627 -0.28558,-5.03565 c -0.42912,-7.56689 -3.11504,-14.1833 -7.3846,-18.19097 l -1.24187,-1.1657 -1.42444,1.3647 c -0.78344,0.75058 -1.66662,2.09852 -1.96262,2.9954 -0.5627,1.70501 -0.23879,4.72817 0.61765,5.76456 0.27246,0.32971 0.35196,0.59948 0.17666,0.59948 -1.187,0 -8.02046,-1.66891 -9.95389,-2.43099 -1.29225,-0.50936 -2.44947,-0.92611 -2.57159,-0.92611 -0.51269,0 -0.15591,6.68012 0.48551,9.09038 1.3155,4.94319 3.52472,8.66408 7.46431,12.57177 3.67883,3.64905 3.69477,3.67561 2.04592,3.40803 l -1.66182,-0.26967 2.87624,5.4643 c 3.11239,5.91296 5.49152,12.18926 6.58263,17.36539 1.0256,4.86536 0.9975,4.92575 -1.46834,3.15492 -1.18654,-0.85211 -2.27973,-1.42689 -2.42933,-1.2773 -0.14959,0.1496 0.35954,1.53476 1.13142,3.07814 2.41303,4.82491 3.02981,7.34319 2.87605,11.74274 l -0.14018,4.01088 -0.95917,-1.49433 c -1.23263,-1.92038 -4.07842,-5.13666 -4.32594,-4.88914 -0.10469,0.10469 0.16557,8.31252 0.60058,18.23964 l 0.79092,18.04931 1.32253,-0.68391 c 3.33632,-1.72528 7.86464,-11.00634 10.74692,-22.02646 0.85758,-3.27887 1.13458,-3.89635 1.15249,-2.56914 0.0148,1.09358 0.29263,1.85038 0.74284,2.02314 1.62825,0.62482 3.57157,-7.57049 3.647,-15.37999 l 0.05,-5.17577 1.2015,3.71679 c 1.14355,3.5375 2.0958,4.59446 2.7062,3.00377 0.77509,-2.01985 1.82062,-11.7439 1.54478,-14.36732 -0.37034,-3.52218 0.26425,-2.85554 1.44934,1.52252 0.44766,1.65382 0.95826,3.00694 1.13465,3.00694 0.5436,0 1.9475,-6.81223 1.941,-9.41844 -0.006,-2.43251 0.0154,-2.46848 1.65162,-2.77544 2.0227,-0.37947 3.61366,-2.2632 3.62879,-4.29659 l 0.0111,-1.49398 2.02712,2.18179 c 1.11492,1.19999 2.42506,2.92534 2.91142,3.83411 l 0.88431,1.65231 0.7915,-1.43618 c 0.58108,-1.05435 0.79224,-2.66698 0.79425,-6.06558 10e-4,-2.54616 0.14984,-4.53882 0.32962,-4.42814 0.6421,0.39535 1.83112,-1.97666 1.82377,-3.63828 -0.004,-0.93046 -0.31164,-2.98484 -0.68338,-4.56529 -0.37173,-1.58046 -0.60002,-2.94941 -0.50732,-3.04211 0.0927,-0.0927 0.82027,0.98458 1.61681,2.39397 2.56168,4.53259 2.49067,4.68586 2.25674,-4.87105 -0.11945,-4.87978 -0.35813,-9.43616 -0.53041,-10.12528 -0.26856,-1.07425 0.10819,-0.85194 2.64148,1.55865 1.62509,1.54638 3.12063,2.81161 3.32342,2.81161 0.62721,0 1.58043,-2.52188 1.89819,-5.02194 l 0.30304,-2.38422 2.25642,3.00247 c 2.30306,3.06453 3.67099,6.60391 4.76031,12.31684 l 0.54868,2.87752 0.89036,-2.07773 c 2.2201,-5.18079 2.07905,-12.21335 -0.34164,-17.03283 -0.65298,-1.30006 -1.10378,-2.44721 -1.00178,-2.54921 0.10201,-0.10201 1.13322,0.21746 2.29158,0.70994 2.62689,1.11682 5.59312,1.61284 5.97264,0.99877 0.15795,-0.25559 -1.51064,-2.36556 -3.708,-4.68884 -2.19736,-2.32328 -4.40343,-4.93659 -4.90237,-5.80736 l -0.90716,-1.58323 1.38675,0.42872 c 1.83772,0.56814 8.251,0.47049 8.85635,-0.13485 0.31658,-0.31659 -0.37598,-1.04531 -2.05743,-2.16486 -4.70668,-3.13379 -9.2983,-8.78788 -10.24716,-12.6183 -0.33591,-1.35601 -0.17856,-1.27285 2.73588,1.44599 3.7592,3.50689 8.24147,6.03187 9.13012,5.14322 0.47031,-0.47031 0.28914,-0.91422 -0.8783,-2.15211 -1.61906,-1.71676 -4.95376,-6.58439 -4.95376,-7.23095 0,-0.22479 0.67461,0.15893 1.49913,0.85272 1.54043,1.29618 2.66136,1.392 2.46804,0.21096 -0.0601,-0.36726 -0.97393,-3.14961 -2.0307,-6.18299 -1.05676,-3.03337 -1.92477,-6.01587 -1.92893,-6.62776 -0.007,-1.05889 0.0996,-1.02421 2.21549,0.71938 3.60925,2.97424 4.9412,4.46818 4.65308,5.21901 -0.39519,1.02984 1.14977,5.36751 2.7296,7.66371 0.9855,1.43238 1.22714,2.14356 0.85484,2.51586 -0.3723,0.37231 -0.0931,1.05681 0.98776,2.42148 6.06827,7.66182 11.2616,20.33355 13.00433,31.73059 0.57675,3.77183 0.7401,16.94519 0.22054,17.78585 -0.16598,0.26856 -0.92479,-0.4941 -1.68624,-1.6948 -0.76146,-1.20069 -1.58056,-2.18308 -1.82023,-2.18308 -0.23966,0 -0.53515,2.21209 -0.65664,4.91575 -0.27654,6.15444 -2.29084,12.5307 -6.93131,21.94103 -2.77895,5.63539 -3.23796,6.31903 -3.54206,5.27544 -0.19216,-0.65943 -0.3709,-1.79245 -0.39719,-2.51783 -0.0347,-0.95684 -0.29669,-1.31886 -0.95452,-1.31886 -0.7944,0 -0.91269,0.39886 -0.95502,3.22009 -0.12416,8.27665 -4.18908,15.36827 -12.52582,21.85245 -7.67847,5.97219 -13.64101,12.91337 -16.99297,19.78205 -1.02619,2.10283 -1.91301,3.88741 -1.97071,3.96574 -0.0577,0.0783 -1.11425,-0.53878 -2.3479,-1.37135 -1.23364,-0.83258 -2.36349,-1.39326 -2.51078,-1.24597 -0.1473,0.14729 -0.027,0.95847 0.26723,1.80261 0.29427,0.84414 0.53486,2.95934 0.53465,4.70044 -4.8e-4,5.4167 -2.4487,9.36046 -8.80491,14.1845 -1.01823,0.77277 -2.77114,2.53422 -3.89537,3.91434 l -2.04405,2.50928 -0.75795,-3.0714 c -0.41687,-1.68927 -1.49217,-4.16167 -2.38956,-5.49422 l -1.63162,-2.42282 -0.3256,4.3132 c -0.55389,7.33721 -2.62697,13.87134 -6.13756,19.34497 -1.7272,2.693 -2.27437,2.63315 -1.1696,-0.12794 0.96444,-2.41039 0.96447,-2.40926 -0.0599,-2.40295 -0.55421,0.003 -1.47776,1.22125 -2.71905,3.58552 -4.05876,7.7306 -11.4421,15.93942 -19.09316,21.22785 -2.00347,1.3848 -3.73712,2.51782 -3.85256,2.51782 -0.5585,0 4.30387,-9.05192 4.96449,-9.24202 1.44452,-0.41567 6.47879,-17.49076 8.30411,-28.16563 0.88738,-5.18959 1.58959,-12.07414 1.99337,-19.5431 0.30281,-5.60146 0.27434,-5.87492 -0.61167,-5.87492 -0.76599,0 -1.03116,0.55301 -1.5092,3.14739 -0.79376,4.30788 -4.07644,14.11907 -6.0875,18.19415 l -1.65673,3.3571 0.23451,-2.2867 c 0.12899,-1.25768 0.37846,-4.65675 0.5544,-7.55347 0.2843,-4.68097 0.23286,-5.26677 -0.46246,-5.26677 -0.4484,0 -0.8886,0.51179 -1.03128,1.19897 -0.13691,0.65943 -0.37194,1.79245 -0.52228,2.51782 -0.15035,0.72537 -1.78338,4.62928 -3.62894,8.67536 -4.92839,10.80461 -8.31011,19.32106 -11.74232,29.57157 -2.36409,7.06052 -3.05135,8.6802 -3.05245,7.19378 -9.6e-4,-1.05509 0.23048,-2.75352 0.51391,-3.77429 1.05197,-3.78862 -0.15449,-3.19928 -6.86245,3.35221 -6.2428,6.09718 -12.7063,11.53312 -19.25118,16.19067 -2.54049,1.80789 -3.37959,2.19281 -3.68896,1.69225 -0.31616,-0.51156 -1.18833,-0.23211 -4.1432,1.32751 -6.56358,3.46435 -13.86702,5.67034 -20.4339,6.17202 -1.89829,0.14502 -3.99096,0.32017 -4.65039,0.38922 -0.65943,0.069 -3.14128,-0.0164 -5.51523,-0.18993 z"
         id="path1862" />
      <path
         style="opacity:0.982;fill:#000000;stroke:none;stroke-width:4.79585;stroke-linecap:round;stroke-miterlimit:4;stroke-dasharray:none"
         d="m 261.44792,210.21433 c -2.40713,-10.38149 -2.76487,-16.8479 -1.84489,-33.34783 0.98181,-17.60872 0.93003,-18.09551 -3.84983,-36.19204 -3.34963,-12.68163 -4.46599,-15.9834 -7.62119,-22.54051 -6.0684,-12.61127 -13.95521,-21.904862 -23.23428,-27.378601 -1.97277,-1.163742 -3.31545,-2.115896 -2.98373,-2.115896 0.86814,0 6.03833,2.673523 9.09512,4.70312 l 2.61602,1.736936 1.86589,-1.02205 c 1.84908,-1.012839 2.53134,-0.812286 1.14652,0.337018 -0.39566,0.328367 -0.71938,1.213934 -0.71938,1.967927 0,1.051412 0.27132,1.438993 1.16422,1.663098 0.64032,0.16071 1.52203,0.09197 1.95934,-0.152767 0.60012,-0.335844 1.14694,-0.09314 2.22971,0.989627 l 1.4346,1.434598 1.37914,-2.414791 c 0.75853,-1.328133 2.28947,-3.193998 3.4021,-4.146366 2.85443,-2.443282 9.05306,-4.638645 9.05306,-3.206312 0,0.248205 -0.2189,0.586568 -0.48644,0.751917 -0.51613,0.318983 -2.55177,4.07224 -2.20865,4.07224 0.11105,0 1.35637,-0.537425 2.76736,-1.194278 4.73489,-2.204208 10.69825,-1.336914 14.79487,2.151719 l 1.19896,1.021024 -1.13894,-0.321176 c -1.98939,-0.560999 -2.09187,0.73854 -0.22149,2.808821 2.11139,2.337052 2.85437,4.096912 3.27751,7.763312 0.40025,3.46808 0.29112,3.35359 -3.8057,-3.99221 -3.02171,-5.418067 -4.55188,-6.793626 -7.56062,-6.796664 -1.73168,-0.0017 -4.23415,0.828123 -4.20375,1.394048 0.008,0.15549 1.45286,1.252196 3.21002,2.437126 l 3.19482,2.15442 -1.65136,0.27461 c -0.90825,0.15103 -2.15521,0.54775 -2.77103,0.88159 -1.18024,0.63982 -2.47722,3.17686 -2.47722,4.84569 0,2.28954 -4.2744,1.5069 -6.66972,-1.22122 -1.27092,-1.4475 -1.48323,-2.06449 -1.48323,-4.31034 0,-1.44157 -0.13191,-2.62103 -0.29314,-2.62103 -0.63932,0 -4.9823,3.96533 -4.9823,4.54906 0,0.34268 1.28742,1.81498 2.86093,3.27177 3.15387,2.91993 6.18988,4.29727 10.80725,4.90291 l 2.87751,0.37742 -1.91834,0.60634 c -1.05509,0.33349 -3.39307,0.62293 -5.19551,0.6432 -1.80244,0.0203 -3.20368,0.19872 -3.11386,0.39654 0.0898,0.19783 0.87506,1.72595 1.74497,3.39582 4.27625,8.20865 7.70208,19.68269 8.74897,29.30273 0.62166,5.71249 0.37846,17.34047 -0.4972,23.77263 -0.80895,5.94216 -0.53615,18.06147 0.6626,29.43615 1.2897,12.23775 1.05936,15.91329 -0.55969,8.93067 z"
         id="path1864" />
      <path
         style="opacity:0.982;fill:#000000;stroke:none;stroke-width:4.79585;stroke-linecap:round;stroke-miterlimit:4;stroke-dasharray:none"
         d="m 24.460683,186.76237 c -2.081516,-6.49807 -2.917152,-11.94107 -2.917152,-19.00118 0,-6.38844 0.508414,-9.88934 2.902524,-19.98658 1.322542,-5.57788 1.351455,-5.93313 0.624488,-7.673 l -0.762258,-1.82435 -1.800856,2.09095 c -2.163161,2.51162 -2.472747,2.2285 -2.766837,-2.53031 -0.258024,-4.17519 0.919479,-7.68981 3.830095,-11.43211 1.07662,-1.38425 2.127667,-2.73987 2.335661,-3.01249 0.207993,-0.27261 0.208392,-0.77037 8.63e-4,-1.10613 -0.292242,-0.47285 -1.004233,-0.33319 -3.158677,0.61961 l -2.781393,1.23006 0.262264,-3.72082 c 0.324671,-4.60621 1.664743,-8.24587 4.715289,-12.80681 3.382498,-5.05726 3.300023,-6.05838 -0.972327,-11.802536 C 18.128379,87.949426 14.462784,79.910914 12.376011,70.376259 10.819281,63.263415 10.803343,52.807372 12.339884,46.675738 17.492805,26.112785 36.521843,11.93191 57.51243,13.012123 c 2.769605,0.142528 7.236923,0.709144 9.927378,1.259146 6.840196,1.398324 17.26193,5.092462 19.235994,6.818486 1.497788,1.309587 1.756189,1.370473 4.585963,1.080554 9.290605,-0.95185 22.119085,3.502109 29.608895,10.280005 l 2.86096,2.589016 2.8617,-2.007373 c 3.44549,-2.416871 8.76513,-4.929022 12.68841,-5.991984 1.58263,-0.428794 5.30541,-0.912175 8.27284,-1.074179 2.96744,-0.162005 5.39534,-0.45594 5.39534,-0.653189 0,-0.638541 -3.34278,-3.314593 -4.44496,-3.558397 -0.58865,-0.130211 -2.68667,-0.512293 -4.66227,-0.849073 l -3.59199,-0.612325 3.59199,-1.745031 c 7.31818,-3.555249 15.45925,-5.329522 24.45396,-5.329522 9.44995,0 17.07116,1.795948 26.5731,6.261983 l 4.75196,2.233485 1.95891,-2.386138 c 2.56911,-3.129406 5.93708,-6.462613 6.53003,-6.462613 0.26923,0 0.47116,1.644333 0.47116,3.836682 0,2.110175 0.11096,3.836683 0.24657,3.836683 0.13562,0 1.48445,-1.009344 2.99741,-2.242987 7.60708,-6.202683 18.07781,-8.181313 27.43494,-5.184323 4.39497,1.40766 4.40132,1.426552 1.15047,3.42106 -0.61809,0.379221 -0.7442,0.709713 -0.40646,1.065178 0.34816,0.366427 1.16714,0.311482 2.83384,-0.190122 4.22126,-1.270413 14.93991,-0.677352 23.53326,1.302092 6.51741,1.501258 11.82239,3.498735 18.59142,7.000199 l 6.12219,3.166873 2.03076,-1.965234 c 6.09968,-5.902875 15.53462,-8.47095 23.66518,-6.441368 2.39329,0.59742 2.50624,0.57679 4.79585,-0.875937 2.78662,-1.768069 6.30934,-2.910629 13.13551,-4.260377 8.54169,-1.688957 12.87255,-2.122873 21.58134,-2.162264 9.70441,-0.04389 12.23712,0.445618 18.70383,3.614992 3.27143,1.603351 4.88421,2.81043 8.16656,6.112263 6.33255,6.370128 8.86339,12.076371 10.29076,23.202435 2.48671,19.383306 -1.84187,39.234081 -12.25944,56.221661 l -2.4761,4.03767 3.90617,7.75324 c 2.14839,4.26429 3.81602,7.84339 3.70585,7.95355 -0.11016,0.11017 -1.45522,-0.1274 -2.98902,-0.52793 -1.53379,-0.40053 -2.88914,-0.62782 -3.01188,-0.50508 -0.12274,0.12274 0.78528,2.76111 2.01782,5.86305 2.07362,5.21869 2.638,7.30308 1.97738,7.30308 -0.14499,0 -0.90421,-0.33127 -1.68717,-0.73615 -1.27843,-0.6611 -1.4523,-0.66123 -1.70555,-0.001 -0.15565,0.40563 0.37177,1.75605 1.17723,3.01418 7.37077,11.51313 9.74121,26.51066 6.31261,39.93916 -0.99703,3.90498 -3.61147,10.27474 -5.40811,13.1762 l -0.8909,1.43875 0.27936,-2.15813 c 0.15365,-1.18697 0.40601,-10.35904 0.56079,-20.38238 0.31287,-20.26001 0.0955,-22.46612 -2.69327,-27.34046 -1.53825,-2.68859 -5.39561,-6.56723 -8.29573,-8.34151 -1.00301,-0.61364 -1.7563,-1.18308 -1.67396,-1.26542 0.0823,-0.0823 1.51904,0.13606 3.19268,0.48531 l 3.04298,0.63501 -0.28121,-1.40603 c -1.29517,-6.47568 -8.90578,-19.46477 -15.34655,-26.1919 l -3.78815,-3.95658 h 2.94361 c 2.53872,0 2.94361,-0.12139 2.94361,-0.88257 0,-1.528875 -2.86778,-6.69714 -4.464,-8.044957 -1.74996,-1.477631 -5.91456,-3.53005 -7.177,-3.537004 -0.76152,-0.0043 -0.78,-0.117398 -0.17695,-1.083753 0.37035,-0.593486 0.81106,-1.672553 0.97936,-2.397926 0.37804,-1.629449 -0.0306,-1.658919 -4.98773,-0.359689 -1.97829,0.518503 -3.83959,0.946433 -4.13623,0.95095 -0.33799,0.0051 -0.62632,-1.468864 -0.77234,-3.948358 -0.55366,-9.401546 -5.83348,-16.008582 -15.1021,-18.898386 -2.18273,-0.680541 -3.9686,-1.382026 -3.9686,-1.558854 0,-0.176823 0.97117,-1.133293 2.15814,-2.125479 3.22063,-2.692115 2.93723,-3.137456 -1.80817,-2.841401 -5.12557,0.319774 -8.00291,-0.802504 -11.21756,-4.3753 l -2.20684,-2.452693 2.34085,-0.309541 c 2.48518,-0.328626 6.78478,-2.054902 6.10318,-2.450405 -0.22288,-0.12933 -1.43859,-0.38501 -2.70159,-0.568177 -3.44736,-0.499959 -11.70373,-3.559359 -10.6339,-3.940398 0.27398,-0.09758 5.08463,0.796523 10.69034,1.986898 5.6057,1.190375 10.66897,2.169058 11.2517,2.174851 0.80075,0.008 0.59102,0.233098 -0.85884,0.921886 -1.05509,0.501244 -2.7816,1.666681 -3.83668,2.589859 -1.47827,1.293449 -1.78915,1.810757 -1.3552,2.255001 0.42743,0.437557 0.9359,0.446553 2.10981,0.03733 1.9797,-0.690129 5.00812,-0.686549 8.02351,0.0095 l 2.37689,0.548653 0.21796,3.647719 c 0.39647,6.635099 3.457,10.086051 5.46801,6.165542 0.43973,-0.857259 1.15939,-2.020929 1.59926,-2.585938 0.79615,-1.022663 0.80471,-1.017939 1.9012,1.048958 2.82388,5.323052 10.43992,6.851337 15.08053,3.02615 1.66536,-1.372722 4.48846,-5.980345 3.97734,-6.491463 -0.12703,-0.127029 -0.66688,0.0024 -1.19968,0.28748 -0.53279,0.285143 -1.45687,0.518441 -2.05349,0.518441 -1.04764,0 -1.03446,-0.05336 0.38514,-1.558652 0.80845,-0.857259 2.25358,-2.742745 3.21138,-4.18997 1.50584,-2.275289 1.74147,-3.012399 1.74147,-5.447804 v -2.816487 l -1.67855,0.195961 -1.67855,0.195962 V 41.62507 c 0,-2.428439 -0.27934,-3.731284 -1.18252,-5.5153 -0.65039,-1.284681 -1.10662,-2.411689 -1.01385,-2.504461 0.22049,-0.220486 1.73899,1.789525 2.77355,3.671284 0.57604,1.047765 1.17071,1.485988 2.0165,1.485988 0.99211,0 1.25421,-0.291427 1.51569,-1.685243 0.17389,-0.926883 0.21257,-2.227133 0.086,-2.889446 -0.19966,-1.04444 -0.0956,-1.162746 0.78464,-0.891721 3.07063,0.945486 6.00025,3.593267 7.22515,6.530073 1.12279,2.691986 0.94141,6.404621 -0.45997,9.414939 -0.65685,1.410994 -1.19427,2.628525 -1.19427,2.705624 0,0.0771 0.53771,0.275139 1.19492,0.440087 1.35243,0.339438 4.50581,-0.796912 5.36358,-1.932817 0.46642,-0.617649 0.62215,-0.356608 0.90247,1.512687 0.59691,3.980467 -0.0177,10.251788 -1.32091,13.478212 -1.72102,4.260809 -5.54733,10.583801 -6.56591,10.850167 -0.48137,0.125882 -1.11087,0.904843 -1.39888,1.73103 -0.49285,1.413784 -0.43611,1.547425 0.96457,2.271738 1.44486,0.74717 3.33297,0.71345 5.38616,-0.09619 0.77364,-0.305069 0.70729,-0.07556 -0.39649,1.371576 -1.72447,2.260899 -5.1138,4.390743 -8.56568,5.38264 -1.60043,0.459884 -2.75761,1.063538 -2.75761,1.438526 0,1.38134 0.66995,2.240948 2.45707,3.152674 1.02256,0.521669 1.85919,1.125572 1.85919,1.342009 0,0.216437 -1.24092,0.668235 -2.75761,1.003988 -1.51669,0.335758 -2.90964,0.700477 -3.09545,0.810489 -0.1858,0.110012 0.83931,2.424093 2.27803,5.142407 1.43873,2.71831 2.61586,5.09115 2.61586,5.27296 0,0.18182 -0.66749,-0.0146 -1.48332,-0.43648 -0.81583,-0.42188 -1.5721,-0.67828 -1.6806,-0.56978 -0.10849,0.1085 0.41953,1.68906 1.17339,3.51235 l 1.37066,3.31509 2.4546,-0.10328 c 4.82504,-0.20302 9.03295,-3.69012 10.41308,-8.62933 0.42685,-1.52759 0.88432,-3.16355 1.0166,-3.635458 0.20411,-0.728149 0.0351,-0.808134 -1.11661,-0.528464 -1.25339,0.304359 -1.15408,0.113326 1.29906,-2.499081 3.3259,-3.541838 4.28331,-4.908695 6.41895,-9.164103 3.07896,-6.135033 3.62669,-9.704227 3.63051,-23.657747 0.004,-13.510836 -0.28314,-15.555269 -2.95185,-21.03846 -0.94239,-1.936243 -2.82717,-4.466751 -5.09473,-6.840181 -6.44083,-6.741533 -13.26712,-11.055978 -22.16393,-14.008342 -16.47616,-5.467532 -30.80665,-2.725247 -41.36423,7.915469 l -3.71679,3.746051 v -4.300906 -4.300906 h -1.38578 c -4.32656,0 -13.315,2.547314 -18.91006,5.359089 l -2.79098,1.402595 1.99254,1.933692 c 1.09589,1.063531 1.895,2.031232 1.77578,2.150446 -0.11921,0.119214 -2.02595,-0.907197 -4.2372,-2.280913 -8.03627,-4.992447 -17.13577,-8.510963 -27.36006,-10.579348 -4.63339,-0.93734 -6.88636,-1.097911 -15.26701,-1.088084 -9.24708,0.01084 -13.5986,0.447348 -19.663,1.97242 -1.09439,0.275216 -1.03164,0.123363 0.71938,-1.740966 l 1.91834,-2.04248 -4.79586,0.254058 c -5.93309,0.314304 -12.31894,2.256913 -17.50486,5.325075 l -3.59689,2.128037 -0.65339,-1.516707 c -0.35937,-0.834189 -0.87341,-2.05624 -1.14233,-2.71567 -0.45973,-1.127354 -0.54028,-1.031652 -1.34862,1.602362 -0.47283,1.54073 -0.96428,2.905911 -1.09211,3.033737 -0.12782,0.127827 -1.81667,-0.62902 -3.753,-1.681881 -9.21954,-5.013043 -21.35681,-7.429143 -31.77739,-6.325754 -5.05228,0.534962 -13.06448,2.240451 -13.44911,2.862795 -0.12662,0.204873 0.62554,1.519473 1.67147,2.921333 1.04593,1.40186 1.84902,2.594159 1.78465,2.649554 -0.0644,0.0554 -2.38308,0.354177 -5.15269,0.66396 -9.55955,1.069244 -19.16712,3.642005 -27.65385,7.405283 -2.1529,0.954666 -4.08165,1.735756 -4.28609,1.735756 -0.20445,0 0.23481,-0.633089 0.97613,-1.406862 L 121.8952,34.5101 119.31821,32.86451 C 113.39134,29.079788 105.9378,26.079164 98.896557,24.643216 93.202977,23.482103 93.00463,23.646815 92.99091,29.547437 L 92.98008,34.20652 91.388903,31.568801 C 89.083066,27.746386 88.35731,27.125143 84.152924,25.374853 75.279186,21.680707 64.22603,20.008922 54.916035,20.952788 41.089589,22.354539 31.646674,26.57434 23.856213,34.832639 9.4438855,50.110465 9.3557298,74.476388 23.656896,89.922972 c 1.728457,1.866892 4.245341,4.230197 5.593077,5.251786 2.08217,1.578296 3.803606,3.713371 3.803606,4.71757 0,0.148522 -0.8093,-0.07617 -1.798445,-0.49932 -0.989145,-0.423153 -2.068212,-0.880763 -2.397927,-1.016918 -0.72231,-0.298273 -0.823642,1.89721 -0.146005,3.16338 0.41498,0.7754 9.587445,9.01961 10.902919,9.79955 0.34791,0.20627 1.377047,-0.72919 2.672951,-2.42964 3.248552,-4.26269 3.227448,-4.14361 0.666293,-3.75954 -1.224532,0.18363 -2.226421,0.18745 -2.226421,0.008 0,-0.17896 1.186974,-2.49007 2.637719,-5.13579 1.450746,-2.645733 2.637719,-4.969957 2.637719,-5.164942 0,-0.19499 -1.428329,-0.624032 -3.174066,-0.953425 l -3.174066,-0.598906 3.263312,-1.722685 3.263312,-1.72269 -1.88769,-0.384143 C 39.498693,88.500086 36.207189,86.612002 34.066425,83.609447 l -1.029824,-1.444395 2.386901,-0.251265 c 1.770171,-0.186347 2.76369,-0.612253 3.845171,-1.648382 0.802049,-0.768411 1.452706,-1.518593 1.445905,-1.667073 -0.0068,-0.148479 -1.125773,-1.02531 -2.486603,-1.948512 -3.23898,-2.197359 -6.355086,-6.483034 -7.567198,-10.407399 -0.727463,-2.355248 -0.964295,-4.467188 -0.964295,-8.599053 v -5.47703 l 1.414939,0.731694 c 1.524054,0.788118 7.697182,1.03596 7.697182,0.30903 0,-0.232466 -0.733255,-0.981945 -1.629455,-1.66551 -3.528643,-2.691428 -4.813389,-8.610539 -2.747754,-12.659519 1.610782,-3.157393 5.513685,-5.874476 8.43828,-5.874476 1.388607,0 1.3804,-0.01955 0.720388,1.716408 -0.738179,1.941556 0.22173,4.518201 1.68322,4.518201 0.811147,0 1.253502,-0.397723 1.623802,-1.459967 0.279921,-0.802981 0.968002,-2.10465 1.529069,-2.892596 1.217142,-1.709318 5.493189,-4.269146 7.141933,-4.275472 1.006741,-0.0039 0.861447,0.193055 -1.025301,1.389595 -2.326884,1.475666 -4.664509,4.484132 -5.586826,7.190109 -0.305607,0.896619 -0.55565,2.900487 -0.55565,4.453038 0,2.642226 -0.05935,2.791058 -0.927642,2.326361 -1.926247,-1.030896 -2.429455,-0.648457 -2.429455,1.846394 0,3.224192 1.276772,6.886963 3.1728,9.102044 0.874278,1.021398 1.450016,1.996666 1.279417,2.167264 -0.458004,0.458004 2.651129,3.500709 4.448824,4.353771 4.111705,1.951131 11.804638,-0.294944 12.274003,-3.583595 0.144916,-1.01534 0.472981,-0.717335 2.530263,2.298398 2.218955,3.25273 2.424606,3.424743 3.357097,2.807862 0.762038,-0.504121 1.222487,-1.816636 1.977451,-5.636701 0.54126,-2.738763 1.157838,-5.357241 1.37017,-5.818842 0.339671,-0.738437 1.172183,-0.840856 6.929044,-0.852442 l 6.542987,-0.01317 -4.230388,-2.466555 c -2.740528,-1.597882 -4.007281,-2.584955 -3.59689,-2.80275 0.911308,-0.483628 18.501615,-3.455603 19.15793,-3.236832 0.30232,0.100773 -1.206193,0.97454 -3.352251,1.941703 -4.746595,2.139147 -5.115444,3.119935 -1.252207,3.329636 l 2.649723,0.143829 -1.460548,1.767961 c -2.210404,2.675655 -6.048631,4.34682 -10.586889,4.609535 -2.900753,0.167922 -3.952709,0.426732 -4.588063,1.128787 -0.788026,0.870758 -0.744427,0.992771 0.989087,2.768046 l 1.813446,1.857141 -1.60816,0.336981 c -3.015484,0.631873 -7.648426,3.267784 -10.162696,5.782058 -4.224825,4.224821 -6.552396,9.779306 -6.552396,15.636544 v 2.752282 L 64.37707,85.453909 c -0.97234,-0.406272 -3.831867,-0.852713 -6.354505,-0.992095 l -4.58661,-0.253422 2.512155,2.584562 2.512153,2.584562 -2.304499,0.818484 c -3.814814,1.354901 -6.059641,3.309719 -7.679214,6.687141 -0.798232,1.664612 -1.596949,3.756369 -1.774926,4.648339 l -0.323596,1.62178 1.847556,-0.3466 1.847556,-0.34661 -3.206342,2.93803 c -6.053575,5.54701 -9.642814,11.34545 -12.315441,19.89569 -1.258459,4.02605 -1.414098,5.03808 -1.007192,6.54922 l 0.481276,1.78732 2.511477,-0.6686 c 1.381312,-0.36773 2.529634,-0.67117 2.551826,-0.6743 0.02219,-0.003 -1.596408,1.68521 -3.59689,3.75187 -4.468785,4.61662 -7.809642,10.09246 -9.919832,16.25914 -3.097718,9.05256 -3.277703,14.68214 -0.918256,28.72118 0.919314,5.47004 1.583155,10.03385 1.475203,10.1418 -0.107952,0.10795 -0.858681,-1.87161 -1.668286,-4.39903 z"
         id="path1866" />
      <path
         style="opacity:0.982;fill:#000000;stroke:none;stroke-width:4.79585;stroke-linecap:round;stroke-miterlimit:4;stroke-dasharray:none"
         d="m 198.96672,62.839754 c -1.17412,-1.265011 -2.9211,-2.937564 -3.88219,-3.716786 -1.70268,-1.380478 -1.7547,-1.520571 -2.03063,-5.469346 l -0.28319,-4.052578 2.57514,2.543155 c 1.41633,1.398735 3.19336,3.379154 3.94897,4.400931 0.7556,1.021777 1.58964,1.856459 1.85341,1.85485 0.26377,-0.0016 1.19291,-1.237435 2.06475,-2.746279 0.87184,-1.508845 2.1117,-3.390794 2.75523,-4.18211 l 1.17007,-1.438756 0.002,3.716787 c 0.001,2.044232 0.10079,3.716786 0.22107,3.716786 0.12028,0 1.34655,-0.665009 2.72504,-1.477797 3.74038,-2.205414 11.03406,-5.806017 11.27436,-5.565713 0.11557,0.115567 -0.82414,0.95382 -2.08824,1.862784 -5.13724,3.693986 -9.50757,7.676766 -10.0256,9.136555 -0.51586,1.453681 -0.55146,1.469642 -1.07907,0.483801 -0.30008,-0.560712 -0.54561,-1.357384 -0.54561,-1.770383 0,-0.412998 -0.17329,-0.750906 -0.3851,-0.750906 -0.93925,0 -4.34854,3.008248 -4.88956,4.314399 -0.3282,0.792344 -0.74292,1.440625 -0.92161,1.440625 -0.17869,0 -1.28552,-1.035009 -2.45964,-2.300019 z"
         id="path1868" />
      <path
         style="opacity:0.982;fill:#000000;stroke:none;stroke-width:4.79585;stroke-linecap:round;stroke-miterlimit:4;stroke-dasharray:none"
         d="m 188.43829,58.253664 c -4.02989,-3.869903 -6.82473,-5.91677 -11.74891,-8.604592 -3.19524,-1.744095 -3.26461,-1.817627 -1.43876,-1.525158 4.57586,0.732971 13.54861,5.371473 16.36906,8.462052 0.83677,0.916914 0.96733,1.483452 0.71937,3.121458 l -0.30294,2.001223 z"
         id="path1870" />
      <path
         style="opacity:0.982;fill:#000000;stroke:none;stroke-width:4.79585;stroke-linecap:round;stroke-miterlimit:4;stroke-dasharray:none"
         d="m 130.64919,81.445674 c -1.05509,-0.188911 -1.54067,-0.374099 -1.07907,-0.41153 1.87081,-0.151702 0.75389,-1.463574 -1.9039,-2.236215 -3.88815,-1.130315 -6.15018,-2.387015 -8.91028,-4.950222 -2.23399,-2.074622 -5.13203,-5.971628 -5.13203,-6.901054 0,-0.221792 1.63419,1.021963 3.63152,2.763902 3.37754,2.945654 7.5203,5.83786 12.81271,8.944996 1.90076,1.115921 3.94842,3.395478 2.87595,3.201652 -0.2071,-0.03743 -1.23981,-0.222619 -2.2949,-0.411529 z"
         id="path1872" />
      <path
         style="opacity:0.982;fill:#000000;stroke:none;stroke-width:4.79585;stroke-linecap:round;stroke-miterlimit:4;stroke-dasharray:none"
         d="m 142.39903,73.79081 c -2.24206,-0.480249 -4.66996,-1.027993 -5.39533,-1.21721 -0.85995,-0.22432 -1.31886,-0.156659 -1.31886,0.194451 0,0.296164 -1.34884,-0.139402 -2.99741,-0.967924 -3.24675,-1.631712 -5.80047,-3.297781 -5.50605,-3.592196 0.10136,-0.101366 1.89425,0.43662 3.98419,1.195526 4.22764,1.535154 13.04054,3.680806 13.44736,3.273989 0.14395,-0.143959 0.011,-0.730338 -0.29556,-1.303064 -0.30651,-0.572726 -0.43298,-1.16564 -0.28103,-1.317587 0.34889,-0.348887 3.89718,0.805264 4.98126,1.620249 0.6941,0.521812 0.54821,0.571072 -0.98344,0.332064 -1.46946,-0.229304 -1.79845,-0.134815 -1.79845,0.516539 0,0.438449 0.32372,0.921402 0.71938,1.073231 0.87008,0.33388 0.9587,1.146072 0.1199,1.098857 -0.32972,-0.01856 -2.4339,-0.426675 -4.67596,-0.906925 z"
         id="path1876" />
      <path
         style="opacity:0.982;fill:#000000;stroke:none;stroke-width:4.79585;stroke-linecap:round;stroke-miterlimit:4;stroke-dasharray:none"
         d="m 137.15473,78.023682 c -3.6517,-0.605701 -3.75328,-1.037464 -0.14812,-0.629587 2.38768,0.270135 2.99598,0.204754 3.00184,-0.322639 0.006,-0.523435 0.10433,-0.511345 0.47224,0.05795 1.0094,1.561938 0.89108,1.593751 -3.32596,0.894276 z"
         id="path1880" />
      <path
         style="opacity:0.982;fill:#000000;stroke:none;stroke-width:4.796;stroke-linecap:round;stroke-miterlimit:4;stroke-dasharray:none"
         d="m 134.00629,76.183673 c -3.62058,-0.962999 -8.1374,-2.826573 -7.76164,-3.202336 0.12719,-0.127182 1.08197,-0.0022 2.12175,0.27782 3.89235,1.048099 7.01426,1.4849 7.30068,1.021467 0.31019,-0.501898 3.37485,1.681104 3.37485,2.403956 0,0.636439 -1.21335,0.515743 -5.03564,-0.500907 z"
         id="path1884" />
      <path
         style="opacity:0.982;fill:#000000;stroke:none;stroke-width:0.0479585;stroke-linecap:round;stroke-miterlimit:4;stroke-dasharray:none"
         d="m 262.77495,76.576151 c 0,-0.30429 0.9172,-1.414361 2.03823,-2.466826 1.7624,-1.654601 1.87598,-1.872023 0.83928,-1.606563 -4.33718,1.110587 -11.07951,2.339533 -11.35021,2.068838 -0.17791,-0.177919 0.19892,-0.890837 0.8374,-1.584262 l 1.16089,-1.260775 -1.67855,0.268774 c -0.9232,0.147825 -2.07666,0.112541 -2.56325,-0.07841 -0.78019,-0.306163 -0.72352,-0.42202 0.47958,-0.9806 2.02725,-0.941215 6.45466,-2.439459 7.20876,-2.439459 0.46907,0 0.35374,0.412423 -0.4007,1.432858 -0.58265,0.788071 -0.94619,1.546028 -0.80787,1.684349 0.44643,0.446431 11.14518,-2.480356 14.81986,-4.054172 5.17783,-2.217593 5.22384,-2.21517 2.66546,0.140398 -1.28569,1.183778 -3.76755,2.862019 -5.51523,3.729423 -3.69174,1.83228 -3.63982,1.80043 -3.37202,2.068228 0.71538,0.715377 11.46275,-2.622352 14.23726,-4.421556 2.08285,-1.350676 1.60223,-0.186298 -0.52809,1.279402 -3.54444,2.438635 -8.74233,4.839172 -12.63278,5.834181 -4.21825,1.078846 -5.43802,1.165466 -5.43802,0.38617 z"
         id="path1886" />
      <path
         style="opacity:0.982;fill:#000000;stroke:none;stroke-width:0.048;stroke-linecap:round;stroke-miterlimit:4;stroke-dasharray:none"
         d="m 269.00955,81.363902 c 0,-1.324914 1.52791,-2.783515 5.21028,-4.973946 6.40706,-3.811196 14.62594,-10.517855 13.68318,-11.165569 -0.26218,-0.180129 0.36834,-1.070486 1.4177,-2.001955 1.78752,-1.586692 1.87025,-1.612666 1.52746,-0.479585 -2.32471,7.684189 -9.0013,14.331116 -15.9637,15.892784 -1.3848,0.310612 -2.51782,0.74622 -2.51782,0.968018 0,0.221797 1.13302,0.424612 2.51782,0.450698 1.38481,0.02608 3.7048,0.197518 5.15555,0.38096 2.2847,0.288892 1.8354,0.369595 -3.3571,0.602999 -3.29715,0.148207 -6.37249,0.431492 -6.83409,0.629521 -0.56855,0.243911 -0.83928,0.145874 -0.83928,-0.303925 z"
         id="path1888" />
    </g>
  </g>
  <desc
     id="desc1127">hetda.dxf - scale = 25.400000, origin = (0.000000, 0.000000), method = file</desc>
</svg>
