<?xml version="1.0" encoding="UTF-8" standalone="no"?>
<svg
   xmlns:dc="http://purl.org/dc/elements/1.1/"
   xmlns:cc="http://creativecommons.org/ns#"
   xmlns:rdf="http://www.w3.org/1999/02/22-rdf-syntax-ns#"
   xmlns:svg="http://www.w3.org/2000/svg"
   xmlns="http://www.w3.org/2000/svg"
   xmlns:sodipodi="http://sodipodi.sourceforge.net/DTD/sodipodi-0.dtd"
   xmlns:inkscape="http://www.inkscape.org/namespaces/inkscape"
   width="187mm"
   height="58mm"
   viewBox="0 0 187 58"
   version="1.1"
   id="svg8"
   inkscape:version="1.0.1 (3bc2e813f5, 2020-09-07)"
   sodipodi:docname="Hoodrat.svg">
  <defs
     id="defs2" />
  <sodipodi:namedview
     id="base"
     pagecolor="#ffffff"
     bordercolor="#666666"
     borderopacity="1.0"
     inkscape:pageopacity="0.0"
     inkscape:pageshadow="2"
     inkscape:zoom="0.49497475"
     inkscape:cx="105.00877"
     inkscape:cy="-168.10787"
     inkscape:document-units="mm"
     inkscape:current-layer="layer2"
     inkscape:document-rotation="0"
     showgrid="false"
     inkscape:window-width="1346"
     inkscape:window-height="1040"
     inkscape:window-x="104"
     inkscape:window-y="0"
     inkscape:window-maximized="0" />
  <metadata
     id="metadata5">
    <rdf:RDF>
      <cc:Work
         rdf:about="">
        <dc:format>image/svg+xml</dc:format>
        <dc:type
           rdf:resource="http://purl.org/dc/dcmitype/StillImage" />
        <dc:title />
      </cc:Work>
    </rdf:RDF>
  </metadata>
  <g
     inkscape:label="Layer 1"
     inkscape:groupmode="layer"
     id="layer1"
     style="display:inline" />
  <g
     inkscape:groupmode="layer"
     id="layer2"
     inkscape:label="wall"
     style="display:inline;opacity:1">
    <path
       style="fill:#000000;stroke:#000000;stroke-width:1.34983;stroke-linecap:round;stroke-opacity:1"
       d=""
       id="path1052"
       transform="scale(0.26458333)" />
    <g
       aria-label="HOODRAT"
       id="text12"
       style="font-style:normal;font-variant:normal;font-weight:normal;font-stretch:normal;font-size:14.0449px;line-height:1.25;font-family:'Ruthless Wreckin ONE';-inkscape-font-specification:'Ruthless Wreckin ONE, Normal';font-variant-ligatures:normal;font-variant-caps:normal;font-variant-numeric:normal;font-variant-east-asian:normal;display:inline;fill:#000000;fill-opacity:1;stroke:none;stroke-width:0.263913"
       transform="translate(0.37797618,-1.8898809)">
      <path
         d="m 14.994997,43.021152 q 0.162419,0.151443 0.280327,0.46785 0.117909,0.316407 0.205529,0.665298 0.09745,0.09087 0.194903,0.181731 0.09745,0.09087 0.226289,0.180634 0.522286,0.377684 1.087634,0.728722 0.552575,0.345201 1.098213,0.671789 0.0485,-0.410215 0.08533,-0.794883 0.02405,-0.390505 0.05504,-0.762399 0.03283,-0.139416 0.112771,-0.01023 0.073,0.110575 0.149294,0.315309 0.06352,0.198896 0.12704,0.397792 0.05075,0.193057 0.05075,0.193057 0.08543,0.286118 0.17085,0.572237 0.08542,0.286118 0.133625,0.586108 0.992729,0.530925 1.955518,0.924629 0.96279,0.393703 1.951478,0.629379 0.988688,0.235675 2.03466,0.312224 1.045972,0.07655 2.223677,-0.03377 0.129935,0.121155 0.220101,0.363113 0.108777,0.235022 0.181428,0.515302 0.09126,0.273345 0.138366,0.541949 0.06572,0.261668 0.109525,0.436113 0.0011,0.03139 0.03104,0.168607 0.03578,0.124447 0.05988,0.274442 0.02994,0.137221 0.02155,0.256928 0.01023,0.112771 -0.04561,0.133578 -0.319699,0.02375 -0.645237,0.06027 -0.312764,0.04236 -0.645238,0.06028 -1.029905,0.02345 -2.029172,-0.155294 -1.012041,-0.184579 -1.972635,-0.515511 -0.967531,-0.349543 -1.888355,-0.801279 -0.933599,-0.457573 -1.825233,-0.973179 -0.05434,0.42299 -0.115619,0.827367 -0.07405,0.398539 -0.153941,0.809852 0.926313,0.608666 1.884363,1.04653 0.951113,0.419252 1.890153,0.493256 0.302185,0.01457 0.590499,-0.0081 0.281377,-0.04127 0.582465,-0.05808 0.129935,0.121154 0.232875,0.36895 0.096,0.229185 0.168654,0.509465 0.09126,0.273344 0.138366,0.541948 0.06572,0.261668 0.109525,0.436114 0.0011,0.03139 0.03104,0.168607 0.03578,0.124447 0.05988,0.274442 0.02994,0.137221 0.02155,0.256927 0.01023,0.112771 -0.04561,0.133578 -0.301087,0.01682 -0.595239,0.05224 -0.27554,0.02849 -0.577725,0.01392 -0.62408,-0.05359 -1.247811,-0.276892 -0.642342,-0.216363 -1.282139,-0.539659 -0.639797,-0.323295 -1.251501,-0.741847 -0.630316,-0.411615 -1.237279,-0.874327 -0.08977,0.128838 -0.224794,0.221548 -0.153638,0.09965 -0.391953,0.114266 -0.09381,-0.166412 -0.218653,-0.501431 -0.137619,-0.340857 -0.257723,-0.720037 -0.544191,-0.464906 -1.037285,-0.906461 -0.487257,-0.454328 -0.903708,-0.860853 -0.344548,-0.327336 -0.609906,-0.726575 -0.265359,-0.399239 -0.609906,-0.726575 0.148945,0.485014 0.320892,1.088637 0.159173,0.597785 0.26251,1.216377 0.103337,0.618593 0.104482,1.190479 -0.01747,0.578823 -0.227642,1.038687 -0.0058,0.01277 -0.144507,0.181031 -0.138668,0.168257 -0.307626,0.368998 -0.187569,0.207676 -0.357624,0.377031 -0.170055,0.169355 -0.239763,0.152938 -0.106582,-0.17225 -0.245298,-0.544494 -0.138717,-0.372243 -0.25408,-0.795583 -0.133975,-0.416403 -0.191307,-0.797778 -0.07594,-0.374439 -0.02559,-0.552177 0,0 0.103639,-0.09161 0.10364,-0.09161 0.23173,-0.202936 0.12809,-0.111323 0.25618,-0.222646 0.109478,-0.104387 0.139766,-0.136871 0.08503,-0.08468 0.156183,-0.206579 0.06532,-0.109128 0.112024,-0.21132 0.170405,-0.339059 0.181683,-0.735403 -0.0015,-0.402182 -0.06466,-0.770782 -0.07629,-0.204734 -0.12704,-0.397792 -0.04491,-0.205831 -0.108428,-0.404727 -0.07629,-0.204734 -0.153685,-0.440854 -0.08433,-0.254732 -0.113168,-0.360567 -0.112071,-0.329181 -0.179981,-0.653622 -0.06791,-0.32444 -0.117209,-0.655816 -0.0091,-0.08139 -0.0055,-0.156931 -0.0091,-0.08139 0.0073,-0.151093 0.01168,-0.02555 0.03722,-0.01387 0.297094,0.228436 0.546386,0.527679 0.236517,0.293404 0.473035,0.586809 0.137968,0.171152 0.197098,0.244503 0.04636,0.06751 0.177388,0.220053 0.03248,0.03029 0.104387,0.109478 0.07774,0.06641 0.03248,0.03029 l -0.02555,-0.01168 q 0.624128,0.594095 1.357383,1.253507 0.733255,0.659412 1.54096,1.291081 0.318554,-0.595637 0.493303,-1.349652 -0.09635,-0.05948 -0.205482,-0.124797 -0.109128,-0.06532 -0.212417,-0.14341 -0.681412,-0.434968 -1.116475,-0.834557 -0.447837,-0.405428 -0.743134,-0.941888 0.01133,0.144157 -0.0025,0.106932 -0.01387,-0.03722 -0.01023,-0.11277 l 0.01277,0.0058 q 0,0 -0.0069,-0.01861 l -0.0058,0.01277 q -0.121552,-0.240861 -0.231427,-0.50727 -0.104037,-0.279182 -0.197496,-0.615299 -0.04161,-0.111673 -0.133975,-0.416404 -0.105135,-0.310568 -0.166109,-0.616397 -0.05514,-0.318602 -0.01282,-0.546338 0.04232,-0.227737 0.282826,-0.179584 z"
         style="font-style:normal;font-variant:normal;font-weight:normal;font-stretch:normal;font-size:14.0449px;font-family:'Ruthless Wreckin ONE';-inkscape-font-specification:'Ruthless Wreckin ONE, Normal';font-variant-ligatures:normal;font-variant-caps:normal;font-variant-numeric:normal;font-variant-east-asian:normal;stroke-width:0.263913"
         id="path841" />
      <path
         d="m 20.508316,41.241217 q -0.03512,-0.225922 -0.05855,-0.444056 -0.03512,-0.225921 -0.05076,-0.455743 -0.15972,-0.03891 -0.292189,-0.144053 -0.144157,-0.112928 -0.311677,-0.190792 -0.07795,-0.186957 -0.155963,-0.576473 -0.07801,-0.389515 -0.132651,-0.814095 -0.05854,-0.444055 -0.06254,-0.818008 -0.0079,-0.393429 0.06997,-0.560949 0.16752,0.07786 0.323365,0.19858 0.151945,0.10124 0.342828,0.14404 0.222047,0.04669 0.533673,0.03492 0.311625,-0.01177 0.638826,-0.04691 0.315513,-0.04293 0.61155,-0.08196 0.292136,-0.0585 0.498582,-0.08972 0.51027,-0.08193 1.051704,-0.15998 0.549222,-0.08973 1.09067,-0.117141 0.549235,-0.0391 1.086807,0.0153 0.545361,0.04271 1.059597,0.233449 0.697331,0.245229 1.211645,0.739806 0.522102,0.48289 0.876748,1.141114 0.350746,0.638748 0.572975,1.39439 0.210542,0.747854 0.296441,1.530798 0.09369,0.771256 0.06272,1.526963 -0.01149,0.751806 -0.104816,1.398459 -0.05443,0.385654 -0.186774,0.78691 -0.120651,0.409043 -0.30753,0.790835 -0.186879,0.381793 -0.455575,0.709072 -0.249219,0.323379 -0.588056,0.553291 -0.471254,0.327331 -0.98545,0.28851 -0.494721,-0.04272 -0.989495,-0.288002 Q 25.663519,47.713967 25.231047,47.375183 24.7791,47.040298 24.436233,46.744339 23.984273,46.358816 23.42322,45.883726 22.858266,45.389162 22.324464,44.847844 21.778973,44.29874 21.350337,43.726233 20.9178,43.13425 20.738462,42.542202 q -0.09357,-0.3155 -0.1404,-0.650488 -0.04683,-0.334989 -0.08976,-0.650501 z m 2.286297,-1.075706 q -0.315513,0.04293 -0.853047,0.140452 -0.529746,0.08583 -0.99329,0.09764 0.0078,0.08959 0.01563,0.179183 0.0078,0.08959 0.01563,0.179182 0.08963,0.144105 0.198736,0.28431 0.105205,0.120729 0.202623,0.253146 0.60397,0.739962 1.324782,1.405882 0.716911,0.646445 1.449398,1.269514 0.487024,0.408887 1.036376,0.825549 0.55714,0.404973 1.207706,0.568411 0.662255,0.171225 1.168586,-0.0821 0.514118,-0.265016 0.864578,-0.740339 0.369936,-0.479224 0.584026,-1.079163 0.21409,-0.59994 0.287963,-1.141413 -0.08576,-0.225909 -0.148123,-0.385602 -0.07405,-0.167481 -0.175373,-0.319374 -0.105218,-0.171369 -0.261076,-0.342724 -0.167547,-0.179144 -0.440286,-0.428376 -0.561066,-0.525729 -1.238908,-0.724218 -0.670055,-0.210177 -1.394598,-0.237258 -0.724543,-0.02708 -1.452947,0.07828 -0.728405,0.105362 -1.398381,0.199022 z"
         style="font-style:normal;font-variant:normal;font-weight:normal;font-stretch:normal;font-size:14.0449px;font-family:'Ruthless Wreckin ONE';-inkscape-font-specification:'Ruthless Wreckin ONE, Normal';font-variant-ligatures:normal;font-variant-caps:normal;font-variant-numeric:normal;font-variant-east-asian:normal;stroke-width:0.263913"
         id="path843" />
      <path
         d="m 26.547753,33.111679 q 0.0031,-0.228613 0.01648,-0.447595 0.0031,-0.228613 0.02611,-0.457817 -0.150971,-0.06505 -0.264008,-0.190853 -0.12326,-0.13543 -0.275414,-0.240192 -0.04562,-0.197355 -0.05744,-0.594428 -0.01182,-0.397074 0.0053,-0.824815 0.01648,-0.447595 0.07503,-0.816957 0.05796,-0.389216 0.162724,-0.541369 0.152154,0.104762 0.285636,0.249823 0.132891,0.125207 0.313939,0.199302 0.211123,0.08314 0.520333,0.123608 0.30921,0.04047 0.637683,0.0605 0.31825,0.0104 0.616646,0.02138 0.297805,-0.0089 0.506565,-0.0051 0.516787,0.0045 1.06365,0.01801 0.556494,0.0033 1.094908,0.06676 0.548046,0.05323 1.06897,0.196695 0.530556,0.133239 1.005688,0.407228 0.646549,0.358305 1.070986,0.931872 0.434069,0.563345 0.673738,1.271576 0.239078,0.688377 0.331913,1.470529 0.08261,0.772521 0.03647,1.558811 -0.03651,0.776067 -0.193323,1.515973 -0.13696,0.739315 -0.337027,1.361282 -0.118114,0.371135 -0.315643,0.744634 -0.187307,0.383131 -0.435356,0.728328 -0.24805,0.345197 -0.567657,0.622974 -0.299752,0.277187 -0.672244,0.447247 -0.519325,0.24398 -1.019805,0.119781 -0.480626,-0.12479 -0.927456,-0.449299 -0.446238,-0.304655 -0.816017,-0.710943 -0.389633,-0.405698 -0.678224,-0.754789 -0.381183,-0.455627 -0.854959,-1.017789 -0.474367,-0.582016 -0.910209,-1.204922 -0.446064,-0.632537 -0.773006,-1.26862 -0.327534,-0.655937 -0.405418,-1.269628 -0.03953,-0.3267 -0.02973,-0.664804 0.0098,-0.338103 0.0202,-0.656353 z m 2.433903,-0.678536 q -0.31825,-0.0104 -0.864522,-0.0041 -0.536641,-0.0039 -0.99564,-0.06971 -0.0073,0.08964 -0.01453,0.179274 -0.0073,0.08964 -0.01453,0.179274 0.06429,0.157057 0.148433,0.313522 0.08355,0.136611 0.157473,0.283445 0.471829,0.830483 1.071229,1.60749 0.598809,0.757152 1.21688,1.493861 0.411851,0.48452 0.883854,0.987122 0.481634,0.492379 1.095742,0.762229 0.624331,0.279483 1.165874,0.114325 0.551175,-0.175379 0.976135,-0.585457 0.444813,-0.410668 0.756145,-0.966397 0.311331,-0.55573 0.474646,-1.077245 -0.0468,-0.237062 -0.08161,-0.404932 -0.04503,-0.177501 -0.119539,-0.344189 -0.0751,-0.186541 -0.200136,-0.381532 -0.135255,-0.204621 -0.362512,-0.495925 -0.465327,-0.612092 -1.100471,-0.921059 -0.625512,-0.31919 -1.335342,-0.466963 -0.709831,-0.147773 -1.445599,-0.165611 -0.735769,-0.01784 -1.411977,-0.03745 z"
         style="font-style:normal;font-variant:normal;font-weight:normal;font-stretch:normal;font-size:14.0449px;font-family:'Ruthless Wreckin ONE';-inkscape-font-specification:'Ruthless Wreckin ONE, Normal';font-variant-ligatures:normal;font-variant-caps:normal;font-variant-numeric:normal;font-variant-east-asian:normal;stroke-width:0.263913"
         id="path845" />
      <path
         d="m 30.056026,26.195126 q -0.05911,-0.0075 -0.06379,-0.128241 -0.0047,-0.120728 0.02396,-0.267256 0.0089,-0.149032 0.03506,-0.275855 0.02613,-0.126824 0.03114,-0.166232 0.02254,-0.177336 0.0662,-0.442088 0.05476,-0.273351 0.109527,-0.546703 0.06587,-0.281951 0.157535,-0.53059 0.09167,-0.248639 0.207717,-0.374046 0.07882,0.01002 0.204223,0.126067 0.127911,0.09635 0.259413,0.243204 0.131502,0.146857 0.2433,0.291211 0.122903,0.135754 0.20531,0.196283 0.0369,0.02471 0.0713,0.06913 0.0369,0.02471 0.07381,0.04942 0.0025,-0.0197 0.03582,-0.0455 0.141519,0.06804 0.287717,0.256812 0.717283,0.42153 1.582841,0.621638 0.719031,0.171474 1.545511,0.206436 0.826481,0.03496 1.697378,0.03553 0.870896,5.63e-4 1.739289,0.02083 0.879497,0.01167 1.70456,0.13655 0.825063,0.124883 1.559876,0.408485 0.737317,0.263898 1.321351,0.788627 0.424228,0.364262 0.605582,0.8278 0.181354,0.463539 0.197563,0.966156 0.01621,0.502617 -0.07971,1.021016 -0.08732,0.529503 -0.189334,1.017094 -0.275992,1.226326 -0.78059,2.203352 -0.495997,0.988131 -1.261095,1.651737 -0.745393,0.666111 -1.765982,0.97689 -1.000886,0.313283 -2.300262,0.218218 -0.05911,-0.0075 -0.06379,-0.128241 -0.0047,-0.120728 0.01536,-0.27836 0.01753,-0.137928 0.04366,-0.264752 0.02613,-0.126823 0.03114,-0.166231 0.02254,-0.177336 0.0662,-0.442088 0.05476,-0.273352 0.109528,-0.546703 0.06587,-0.281951 0.157535,-0.530591 0.09167,-0.248639 0.207717,-0.374045 0.615832,0.03822 1.191169,0.0012 0.586441,-0.0456 1.117692,-0.208338 0.550955,-0.160233 1.049223,-0.457307 0.498269,-0.297073 0.937755,-0.761796 0.207387,-0.21391 0.400079,-0.469731 0.212395,-0.253318 0.387887,-0.531348 -0.04158,-0.14544 -0.131172,-0.306994 -0.176676,-0.34281 -0.453288,-0.608222 -0.268013,-0.254308 -0.594051,-0.445913 -0.323534,-0.211308 -0.676788,-0.346305 -0.361855,-0.146101 -0.709014,-0.250289 -0.696822,-0.188674 -1.40867,-0.259123 -0.709343,-0.09015 -1.428704,-0.101491 -0.716856,-0.03104 -1.438721,-0.02267 -0.730465,-0.0027 -1.447321,-0.03378 0.395924,0.350653 0.822656,0.695211 0.418132,0.333454 0.832672,0.616396 0.417045,0.263238 0.833003,0.456259 0.407358,0.181918 0.77923,0.249203 0.166231,0.03114 0.339976,0.0032 0.176249,-0.04768 0.367193,-0.05344 0.07348,0.209561 0.0345,0.595041 -0.03648,0.365776 -0.139578,0.783151 -0.100598,0.397671 -0.229499,0.781734 -0.126397,0.364359 -0.232759,0.571085 -0.190945,0.0058 -0.353585,0.02514 -0.17124,0.0083 -0.353585,0.02514 -0.182344,0.01687 -0.476487,-0.110614 -0.283038,-0.136084 -0.591876,-0.30548 -0.297734,-0.177996 -0.547461,-0.33988 -0.258325,-0.172987 -0.369037,-0.247125 -1.19311,-0.852417 -2.290961,-1.90296 -1.097851,-1.050544 -1.958924,-2.231172 -0.221093,-0.308411 -0.279544,-0.636197 -0.06521,-0.03832 -0.09961,-0.08274 -0.0455,-0.03582 -0.110712,-0.07414 -0.07381,-0.04943 -0.185605,-0.193779 -0.122902,-0.135754 -0.245805,-0.271508 -0.131502,-0.146857 -0.248309,-0.251803 -0.125406,-0.11605 -0.184518,-0.123563 z"
         style="font-style:normal;font-variant:normal;font-weight:normal;font-stretch:normal;font-size:14.0449px;font-family:'Ruthless Wreckin ONE';-inkscape-font-specification:'Ruthless Wreckin ONE, Normal';font-variant-ligatures:normal;font-variant-caps:normal;font-variant-numeric:normal;font-variant-east-asian:normal;stroke-width:0.263913"
         id="path847" />
      <path
         d="m 40.796961,19.347218 q 0.01328,-0.202122 0.116572,-0.585709 0.103287,-0.383587 0.24309,-0.788197 0.144967,-0.423789 0.307635,-0.760532 0.167833,-0.355922 0.312052,-0.471364 0.03172,0.11139 0.0461,0.248967 0.01438,0.137577 0.07745,0.247123 0.13316,-0.303548 0.322381,-0.509722 0.02434,-0.01402 0.03652,-0.02102 0.0052,-0.01918 0.02951,-0.0332 0.0734,0.07119 0.167815,0.178892 0.02839,0.16192 -0.0092,0.378058 -0.03246,0.196957 -0.106608,0.434117 0.335264,0.24455 0.815114,0.486892 0.472841,0.23017 1.020557,0.449646 0.55288,0.200297 1.130104,0.386579 0.577224,0.186282 1.121254,0.343055 0.549194,0.137595 1.009499,0.261539 0.472476,0.116937 0.796682,0.17338 0.153435,0.04132 0.507149,0.06456 0.358879,0.0041 0.743944,0.02548 0.378058,0.0092 0.688249,0.04133 0.322362,0.02509 0.395759,0.09628 0.04721,0.05385 0.04757,0.167084 0.01254,0.106226 -0.01144,0.233474 -0.03099,0.115076 -0.06898,0.21798 -0.02582,0.0959 -0.04132,0.153435 -0.115459,0.390595 -0.26559,0.833563 -0.13796,0.435961 -0.335301,0.825078 -0.05349,0.160442 -0.110659,0.258182 -0.05717,0.09774 -0.09553,0.08741 -0.05717,0.09774 -0.121353,0.183308 -0.05902,0.06639 -0.130204,0.139785 -0.282909,0.324936 -0.689745,0.575363 -0.394664,0.243419 -0.749126,0.528519 0.198802,0.06382 0.390595,0.115459 0.191794,0.05164 0.364408,0.09812 0.819548,0.241247 1.457631,0.392491 0.638084,0.151244 1.232279,0.198106 0.606367,0.03985 1.22454,-0.04053 0.630346,-0.08739 1.422247,-0.316416 0.04425,0.217616 -0.05387,0.582024 -0.07894,0.369572 -0.244933,0.756845 -0.14681,0.392438 -0.333822,0.743196 -0.167833,0.355922 -0.301358,0.546238 -0.791901,0.229022 -1.422247,0.316415 -0.618174,0.08039 -1.22454,0.04053 -0.594196,-0.04686 -1.232279,-0.198106 -0.638083,-0.151244 -1.457631,-0.392491 -0.160443,-0.05349 -0.345229,-0.09296 -0.172614,-0.04648 -0.352236,-0.10513 -0.06013,0.261503 -0.17411,0.570216 -0.106973,0.320885 -0.240133,0.624433 -0.120989,0.296541 -0.263,0.556567 -0.129839,0.253018 -0.228691,0.39096 -0.42379,-0.144967 -0.758689,-0.276284 -0.322728,-0.138325 -0.622956,-0.322016 -0.281048,-0.178526 -0.55361,-0.426762 -0.260391,-0.255244 -0.559505,-0.63405 -0.349298,0.26592 -0.679416,0.537005 -0.349297,0.26592 -0.698595,0.53184 -0.05754,-0.01549 -0.04573,-0.135734 0.01181,-0.12024 0.06013,-0.261503 0.02914,-0.146428 0.0723,-0.268512 0.04316,-0.122083 0.05349,-0.160442 0.08632,-0.244167 0.201775,-0.634762 0.115459,-0.390595 0.285135,-0.715166 -0.119128,-0.206921 -0.219076,-0.408679 -0.119127,-0.206921 -0.212068,-0.396507 -0.662757,-1.32009 -1.053682,-2.618409 -0.38576,-1.317499 -0.308259,-2.674817 -0.06639,-0.05902 -0.113598,-0.112868 -0.05422,-0.06602 -0.101427,-0.119876 -0.101426,-0.119875 -0.115806,-0.257452 -0.0022,-0.144584 -0.04794,-0.280318 z m 1.952939,1.646923 q 0.316433,0.887432 0.784823,1.898062 0.473554,0.991449 1.126,1.815084 0.427493,-0.327144 0.83765,-0.628102 0.422328,-0.307965 0.856829,-0.622937 0.03467,-0.05237 0.06418,-0.08557 0.02951,-0.03319 0.05902,-0.06639 l 0.02102,0.03652 q 0.295446,-0.21871 0.597899,-0.425249 0.295446,-0.218711 0.590891,-0.437422 Q 46.41241,22.28888 45.169073,21.902666 43.918728,21.504281 42.7499,20.994141 Z"
         style="font-style:normal;font-variant:normal;font-weight:normal;font-stretch:normal;font-size:14.0449px;font-family:'Ruthless Wreckin ONE';-inkscape-font-specification:'Ruthless Wreckin ONE, Normal';font-variant-ligatures:normal;font-variant-caps:normal;font-variant-numeric:normal;font-variant-east-asian:normal;stroke-width:0.263913"
         id="path849" />
      <path
         d="m 49.751693,19.599789 q -0.08131,0.09576 -0.120062,0.112292 -0.04427,0.0036 0.004,-0.169658 0.04634,-0.141925 0.0982,-0.27093 0.03894,-0.123495 0.0982,-0.27093 -0.451066,-0.4489 -1.033217,-0.811346 -0.291075,-0.181223 -0.722539,-0.226213 -0.444383,-0.03948 -0.759941,0.07986 -0.134697,0.04219 -0.252862,0.123133 -0.131083,0.08646 -0.282313,0.08989 -0.09404,-0.0057 -0.163967,-0.09802 -0.02755,-0.06459 0.03361,-0.243376 0.06116,-0.178783 0.161078,-0.374098 0.08149,-0.202723 0.173995,-0.379608 0.07959,-0.171375 0.101814,-0.226663 0.222057,-0.445918 0.395872,-0.718564 0.168304,-0.285565 0.369672,-0.493617 l 0.03704,-0.09215 q 0.01292,-0.0055 0.02394,0.02033 0.201369,-0.208053 0.481965,-0.373555 0.275086,-0.178421 0.705196,-0.422971 0.697787,-0.404541 1.39178,-0.746386 0.701401,-0.360275 1.404699,-0.751897 0.208596,-0.11952 0.391354,-0.228018 0.190166,-0.126927 0.398761,-0.246446 0.603744,-0.410233 1.170629,-0.835282 0.561374,-0.437967 1.036293,-1.007018 0.373648,-0.663276 0.580708,-0.965373 0.214468,-0.3205255 0.33986,-0.3129367 0.132799,-0.010841 0.252138,0.3047177 0.113828,0.302639 0.330462,0.882081 0.09179,0.250965 0.18357,0.50193 0.08627,0.238046 0.172548,0.476092 0.369311,-0.279692 0.736724,-0.528036 0.374822,-0.266773 0.749643,-0.533546 0.118165,-0.08094 0.09025,0.06839 -0.02051,0.130903 -0.101995,0.333626 -0.087,0.189804 -0.173996,0.379608 -0.09251,0.176886 -0.09251,0.176886 -0.164691,0.329831 -0.329381,0.659662 -0.164691,0.329831 -0.38467,0.637439 0.04409,0.103349 0.08266,0.193779 0.03306,0.07751 0.09007,0.17535 1.045682,2.165002 2.307366,4.192055 1.256174,2.014134 2.567636,4.050492 0.01445,0.177067 -0.08185,0.416648 -0.07787,0.24699 -0.212933,0.503104 -0.116629,0.263521 -0.26271,0.493798 -0.127651,0.237684 -0.212752,0.39614 -0.02033,0.02394 -0.09061,0.145538 -0.05737,0.116087 -0.14057,0.243195 -0.07028,0.121598 -0.157101,0.204439 -0.06839,0.09025 -0.123676,0.06803 -1.300441,-2.010521 -2.562125,-4.037574 -1.267195,-2.039971 -2.312876,-4.204973 -0.185648,-0.363619 -0.345459,-0.738259 -0.152403,-0.39307 -0.299295,-0.773222 -0.928788,0.686312 -1.828124,1.405868 -0.899337,0.719557 -1.752691,1.511114 0.493255,0.583598 0.927428,1.207668 0.441581,0.605641 0.864732,1.203873 0.115906,0.164329 0.290714,0.395149 0.187726,0.225308 0.355125,0.474557 0.180319,0.243737 0.31637,0.491089 0.14346,0.228922 0.181854,0.426315 l 0.0055,0.01292 q 0.0055,0.01292 0.02394,0.02033 l -0.02222,0.05529 q -0.01138,0.188088 -0.107687,0.42767 -0.0963,0.239581 -0.218443,0.490184 -0.127651,0.237685 -0.260813,0.46245 -0.120243,0.219256 -0.197936,0.359282 -0.02033,0.02394 -0.07769,0.140027 -0.05737,0.116087 -0.14057,0.243195 -0.07028,0.121598 -0.157102,0.20444 -0.06839,0.09025 -0.123676,0.06802 -0.05339,-0.05357 -0.112292,-0.120062 -0.05339,-0.05357 -0.106782,-0.107143 0.01482,-0.03686 0.0112,-0.08113 0.0093,-0.04978 0.03153,-0.105065 -0.198567,-0.358109 -0.491178,-0.721909 -0.285202,-0.382229 -0.476542,-0.651804 -0.539057,-0.762562 -1.102055,-1.54545 -0.568508,-0.795807 -1.244159,-1.484832 -0.08131,0.09576 -0.162613,0.191521 -0.08682,0.08284 -0.168123,0.178602 z m 0.782443,-3.57087 q 0.204439,0.157102 0.388552,0.338144 0.19152,0.162613 0.388552,0.338144 0.86284,-0.948298 1.795603,-1.804268 0.945681,-0.86148 1.944754,-1.669389 -0.01463,-0.0701 -0.04409,-0.103349 -0.02204,-0.05168 -0.03668,-0.121779 -0.01653,-0.03876 -0.04219,-0.134697 -0.02566,-0.09594 -0.06234,-0.217719 -0.03668,-0.121779 -0.08076,-0.225128 -0.04409,-0.103349 -0.09748,-0.156921 -0.05339,-0.05357 -0.147615,0.0477 -0.377262,0.61901 -0.837365,1.151202 -0.452695,0.513763 -0.97721,0.966546 -0.517108,0.434353 -1.100525,0.820646 -0.576009,0.367864 -1.175958,0.7154 0.04788,0.04065 0.08474,0.05547 z m -3.817233,2.040593 q -0.02584,0.01102 -0.03325,0.02945 -0.01292,0.0055 0,0 0.01292,-0.0055 0.02584,-0.01102 -0.0055,-0.01292 0.0074,-0.01843 z m 7.893836,-5.871453 -0.0074,0.01843 z m -0.02033,0.02394 0.01292,-0.0055 z"
         style="font-style:normal;font-variant:normal;font-weight:normal;font-stretch:normal;font-size:14.0449px;font-family:'Ruthless Wreckin ONE';-inkscape-font-specification:'Ruthless Wreckin ONE, Normal';font-variant-ligatures:normal;font-variant-caps:normal;font-variant-numeric:normal;font-variant-east-asian:normal;stroke-width:0.263913"
         id="path851" />
      <path
         d="m 63.856728,7.9502048 q -0.0018,0.08881 -0.03041,0.1859613 0.557625,-0.3352207 1.115249,-0.6704414 0.553454,-0.348632 1.132832,-0.6612012 0.22889,-0.1153126 0.484601,-0.2389672 0.255712,-0.1236546 0.514697,-0.1894932 0.272396,-0.07001 0.538825,-0.064621 0.266429,0.00539 0.49917,0.1389227 0.0083,0.026822 -0.0018,0.088809 -0.08945,0.4690742 -0.367553,1.0409478 -0.268864,0.5542913 -0.47157,1.1321321 -0.202706,0.5778409 -0.195901,1.1199386 0.0068,0.5420977 0.491346,0.9650307 0.218431,0.18211 0.504817,0.29896 0.286386,0.11685 0.55012,0.255453 -0.0045,0.222024 -0.175883,0.569498 -0.162153,0.329893 -0.404773,0.684812 -0.23338,0.337336 -0.488513,0.652021 -0.245893,0.297103 -0.417865,0.453547 -0.140658,-0.07392 -0.303968,-0.12609 -0.149898,-0.05634 -0.299797,-0.112678 -0.149899,-0.05634 -0.277146,-0.134432 -0.127247,-0.07809 -0.213362,-0.213104 -0.116211,-0.184484 -0.255073,-0.347215 -0.129622,-0.180314 -0.196358,-0.394894 -0.132576,-0.473565 -0.02554,-0.933399 0.107031,-0.459834 0.307043,-0.90446 0.200012,-0.444627 0.417605,-0.8800125 Q 66.500937,9.2164326 66.589488,8.7917632 66.304,8.6305086 65.925212,8.6894818 q -0.369547,0.041391 -0.763543,0.1933447 -0.393995,0.1519538 -0.767135,0.3709639 -0.3639,0.2014277 -0.628852,0.3426646 0.06911,0.3168008 0.147463,0.616019 0.09176,0.295048 0.156703,0.598437 0.407545,1.594143 0.990334,3.089657 0.582789,1.495514 1.384329,2.937703 -0.0036,0.177619 -0.119544,0.4196 -0.106712,0.224399 -0.262897,0.478893 -0.146945,0.236912 -0.311473,0.464583 -0.155287,0.21009 -0.256031,0.35909 -0.02265,0.02175 -0.104916,0.135589 -0.06885,0.109665 -0.164527,0.227672 -0.08226,0.113836 -0.177041,0.187438 -0.07719,0.08284 -0.129941,0.05512 -0.853389,-1.514314 -1.443622,-3.081056 -0.576821,-1.570912 -1.000152,-3.263104 -0.06167,-0.245574 -0.135848,-0.531381 -0.06494,-0.30339 -0.112299,-0.597539 -0.05153,-0.307561 -0.09472,-0.588299 -0.02978,-0.284909 -0.02528,-0.506933 -0.517391,0.322708 -1.025542,0.627833 -0.498911,0.287543 -1.037157,0.543194 0.111141,0.215478 0.230625,0.457779 0.128724,0.224718 0.235694,0.426785 0.106971,0.202067 0.193086,0.337078 0.09953,0.130839 0.165685,0.154389 l 0.02682,-0.0083 q 0.12577,-0.06853 0.08284,0.07719 -0.03369,0.128145 -0.13533,0.321551 -0.105813,0.179994 -0.211626,0.359988 -0.109985,0.166582 -0.109985,0.166582 -0.225038,0.364159 -0.463487,0.732489 -0.238449,0.36833 -0.573152,0.663637 -0.04023,0.01251 -0.08554,0.05602 -0.136488,-0.06051 -0.214261,-0.168699 -0.09535,-0.117428 -0.150477,-0.24737 -0.0727,-0.139181 -0.114414,-0.273294 -0.05929,-0.143352 -0.110244,-0.259883 -0.267266,-0.622884 -0.697263,-1.106907 -0.243458,-0.262577 -0.515535,-0.428003 -0.276247,-0.178837 -0.576044,-0.291515 -0.303968,-0.12609 -0.626417,-0.217016 -0.322449,-0.09093 -0.639828,-0.212844 -0.05275,-0.02772 -0.01489,-0.142455 0.03786,-0.114734 0.115952,-0.241981 0.06051,-0.136487 0.129363,-0.246152 0.06885,-0.109665 0.08733,-0.144829 0.08733,-0.14483 0.220866,-0.37757 0.133534,-0.232741 0.293891,-0.473824 0.160356,-0.241083 0.333226,-0.441932 0.159458,-0.196678 0.312051,-0.2735535 -0.0042,-0.013411 0.0092,-0.017582 0,0 -0.0042,-0.013411 0.01758,0.00924 0.03099,0.00507 0.191928,-0.044983 0.448219,0.022393 0.242879,0.071546 0.411258,0.092721 0.558782,0.04684 1.145284,0.04093 0.595743,-0.02349 1.128022,-0.203733 0.715865,-0.2520588 1.389122,-0.5938254 0.686668,-0.3459376 1.356652,-0.7455202 0.01848,-0.035165 0.04113,-0.056918 0.03189,-0.039336 0.05037,-0.0745 0.04113,-0.056918 0.114155,-0.1531715 0.06885,-0.1096648 0.146047,-0.1925071 0.08644,-0.1004246 0.176143,-0.1430331 0.09895,-0.060191 0.18179,0.017004 z"
         style="font-style:normal;font-variant:normal;font-weight:normal;font-stretch:normal;font-size:14.0449px;font-family:'Ruthless Wreckin ONE';-inkscape-font-specification:'Ruthless Wreckin ONE, Normal';font-variant-ligatures:normal;font-variant-caps:normal;font-variant-numeric:normal;font-variant-east-asian:normal;stroke-width:0.263913"
         id="path853" />
    </g>
    <path
       style="fill:#000000;stroke:#000000;stroke-width:1.42857;stroke-linecap:round;stroke-opacity:1"
       d="M 89.503701,53.85381 C 89.361821,48.184434 90.917367,48.663534 72.51498,48.621365 64.049364,48.601971 53.959362,48.452783 50.092752,48.289844 l -7.030198,-0.296246 -0.245843,1.229212 c -0.135213,0.676069 -0.268198,2.526144 -0.295519,4.111281 l -0.04968,2.882069 -0.294394,-2.456844 c -0.389806,-3.25311 -0.899388,-4.475533 -1.955237,-4.690348 -0.475099,-0.09666 -2.810716,-0.276548 -5.190259,-0.399748 -2.379546,-0.123201 -4.414602,-0.312158 -4.522346,-0.419904 -0.107746,-0.107747 -0.01265,-0.485397 0.211347,-0.83923 0.36635,-0.578723 1.425461,-0.645602 10.546058,-0.665948 l 10.138812,-0.0226 0.684168,-0.922327 c 0.391726,-0.528093 0.775666,-1.891713 0.898228,-3.19019 0.449403,-4.761193 -2.075881,-6.139347 -10.510265,-5.735907 -3.89776,0.186441 -4.820452,0.133373 -4.820452,-0.277247 0,-0.573016 3.367924,-1.093131 5.858632,-0.904761 3.378824,0.255537 38.73538,0.08108 41.084817,-0.202721 2.429451,-0.293468 2.547813,-0.355962 2.943209,-1.554033 0.226581,-0.686546 0.448233,-2.367767 0.492564,-3.736043 0.133138,-4.109495 1.158544,-3.863511 -15.499262,-3.718116 -7.822968,0.06828 -14.772021,0.02127 -15.44234,-0.104491 -0.940128,-0.176369 -1.177806,-0.385259 -1.039617,-0.913696 0.156887,-0.599931 0.41592,-0.647625 2.084652,-0.383834 5.853528,0.925318 16.124647,0.821278 17.490098,-0.177163 0.746996,-0.546214 1.169115,-3.951423 0.797243,-6.431247 -0.238742,-1.592036 -0.369316,-1.759608 -1.655218,-2.124184 -0.767812,-0.21769 -2.374042,-0.502393 -3.569393,-0.632673 -1.755767,-0.191358 -2.173361,-0.367981 -2.173361,-0.919226 0,-0.634683 0.606076,-0.690336 8.675301,-0.796601 5.145582,-0.06776 8.816861,-0.268034 9.023233,-0.492223 0.191363,-0.207887 0.448427,-2.376525 0.571254,-4.8191965 l 0.223319,-4.4412201 h -8.301611 c -6.772191,0 -8.301615,-0.095284 -8.301615,-0.5171966 0,-0.3192542 0.589865,-0.596314 1.541243,-0.7239204 1.60605,-0.2154169 2.99447,-1.1567691 2.99447,-2.0302622 0,-0.8479643 1.245568,-0.5697756 2.068213,0.4619211 0.992738,1.2450084 3.8465,1.6460603 11.834553,1.6631627 6.238515,0.013356 8.287607,-0.4294436 8.664964,-1.8724602 0.253421,-0.96907441 1.255702,-0.98983364 1.506389,-0.0312 0.104969,0.4013933 0.438804,0.8249545 0.741851,0.9412472 1.06608,0.4090926 13.22184,0.7001842 17.63595,0.4223248 4.2452,-0.2672262 4.48232,-0.3257545 4.80985,-1.1872305 0.40469,-1.064433 1.40153,-1.18132672 2.08662,-0.2446891 0.44022,0.6018496 1.40899,0.6614583 10.75008,0.6614583 9.3412,0 10.30984,-0.059602 10.74982,-0.6614583 0.63493,-0.86852116 1.23791,-0.83886168 1.52801,0.07516 0.12858,0.4051399 0.52275,0.8182251 0.87592,0.9179672 1.52239,0.4299565 10.26346,0.6713841 15.04185,0.4154555 4.79396,-0.2567611 5.25673,-0.3469676 6.02328,-1.1740853 0.85768,-0.92545718 1.6886,-1.18034057 1.6886,-0.51797898 0,0.23938488 2.77182,0.37797618 7.55952,0.37797618 h 7.55952 l -0.0148,2.5513393 c -0.0144,2.4734592 -0.0303,2.5155684 -0.52493,1.3794849 -0.28057,-0.64452 -0.82671,-1.3188223 -1.21363,-1.4984497 -0.91226,-0.4235257 -37.97922,-0.6534999 -43.4148,-0.269366 l -4.15774,0.2938288 v 4.2211413 c 0,2.3216276 0.14162,4.3626986 0.31471,4.5357146 0.1731,0.173015 11.08768,0.368378 24.25464,0.434141 l 23.93993,0.119568 0.24824,-2.198437 c 0.378,-3.3475831 0.50584,-3.2686692 0.53853,0.332427 l 0.0299,3.286818 -6.55933,-0.225391 -6.55933,-0.22539 -0.25105,1.000239 c -0.31795,1.266807 0.15284,9.281857 0.55998,9.533482 0.23551,0.145553 9.9112,0.858806 12.33727,0.909454 0.25986,0.0054 0.47246,0.36824 0.47246,0.806255 0,0.61419 -0.15133,0.731707 -0.66146,0.513664 -1.25244,-0.535327 -12.41925,-0.872986 -29.84682,-0.902498 -20.03845,-0.03393 -18.19784,-0.417739 -18.31878,3.819825 -0.0627,2.195732 -0.0779,2.235621 -0.1895,0.497319 -0.0668,-1.039434 -0.21389,-2.44267 -0.32697,-3.118302 l -0.2056,-1.228423 -11.79463,0.03544 c -20.75278,0.06235 -34.942102,0.471122 -35.493822,1.02251 -0.505145,0.504846 -0.738716,8.456507 -0.26244,8.934466 0.125862,0.126307 8.157705,0.338532 17.848532,0.471614 l 17.61971,0.24197 0.10532,4.753189 0.10533,4.753189 2.07887,0.316765 c 3.00466,0.457829 18.80657,0.07768 20.3185,-0.488807 0.81877,-0.306774 1.31406,-0.793248 1.47975,-1.453404 0.28137,-1.121087 -0.38799,-5.543505 -1.06341,-7.025905 l -0.44549,-0.977693 -9.29424,-0.02657 c -5.1446,0.337902 -12.04117,-0.624581 -4.09706,-0.702818 l 3.68527,-0.02657 0.0605,-1.795388 c 0.0464,-1.377829 0.0959,-1.509972 0.21284,-0.568177 0.18577,1.496396 0.19093,1.497928 7.0972,2.107345 4.33834,0.382823 5.2623,0.567129 5.12863,1.023041 -0.44199,1.507606 -0.86572,7.172327 -0.63035,8.426976 0.20036,1.068022 0.52169,1.523741 1.28619,1.824114 1.07942,0.424104 15.95136,0.187831 17.97451,-0.285564 1.24937,-0.292344 2.13239,-1.99248 2.13239,-4.105625 0,-0.734282 0.17009,-1.335055 0.37798,-1.335055 0.20788,0 0.38171,0.552788 0.38627,1.228423 0.008,1.239081 1.14102,4.172516 1.7584,4.55408 0.43505,0.268869 5.50103,0.918752 9.58121,1.229114 l 3.22143,0.245038 -0.009,4.686811 c -0.007,3.910817 -0.10249,4.686596 -0.57559,4.685524 -0.45827,-0.0011 -0.56696,-0.602011 -0.56696,-3.134841 0,-3.7119 -0.58957,-4.91485 -2.73675,-5.584013 -1.74442,-0.543639 -34.23147,-0.92039 -40.16356,-0.465775 l -3.96875,0.304149 -0.29989,2.645834 c -0.34287,3.025007 -0.11405,4.823724 0.71971,5.657492 0.52017,0.520171 0.45133,0.579165 -0.6763,0.579581 l -1.25542,2.64e-4 0.12833,-4.173193 c 0.0946,-3.07675 -0.004,-4.33261 -0.37522,-4.779949 -0.45176,-0.544328 -1.82596,-0.581295 -13.3575,-0.359336 -7.06967,0.136077 -17.27627,0.09218 -22.68133,-0.09756 -5.405051,-0.189732 -9.907897,-0.266763 -10.006316,-0.171177 -0.297109,0.288547 -0.220531,7.424536 0.09165,8.540848 0.240096,0.858554 0.171453,1.039434 -0.394464,1.039434 -0.608391,0 -0.695479,-0.412851 -0.777373,-3.685268 z M 73.822215,46.71337 c 0.661231,-0.115449 1.302007,-0.469892 1.423943,-0.787652 0.121933,-0.317756 0.327982,-2.314863 0.45789,-4.438007 l 0.236194,-3.860268 -7.396147,-0.226817 c -4.067881,-0.124751 -8.942734,-0.126619 -10.83301,-0.0042 -3.978825,0.257779 -3.641608,-0.208758 -3.953983,5.470306 l -0.201293,3.659547 1.972559,0.219549 c 4.771723,0.53109 15.171745,0.512614 18.293847,-0.03251 z m 46.482525,0.242374 h 3.53101 v -4.913691 -4.913691 h -9.96093 c -5.4785,0 -11.02168,-0.110871 -12.31816,-0.24638 l -2.357239,-0.24638 0.128429,4.391623 c 0.105116,3.594259 0.250732,4.513993 0.802,5.065578 0.87216,0.872651 4.83246,1.22034 11.57593,1.016291 2.78737,-0.08434 6.6569,-0.15335 8.59896,-0.15335 z M 96.801727,46.13499 c 1.206609,-0.549764 1.53574,-1.668322 1.466514,-4.984001 -0.03674,-1.760439 -0.23913,-2.776968 -0.630841,-3.168676 -0.483769,-0.48377 -2.102371,-0.583832 -10.042675,-0.620842 -9.211858,-0.04293 -9.487871,-0.02231 -10.28251,0.768866 -0.681948,0.678963 -0.82446,1.283782 -0.864518,3.668916 -0.0553,3.293041 0.350369,3.964278 2.666698,4.4124 2.476391,0.479089 16.601969,0.417865 17.687332,-0.07666 z m 0.503841,-21.133456 c 0.646189,-0.225263 1.281358,-0.745031 1.411491,-1.155042 0.294018,-0.926366 -0.174733,-6.845112 -0.596117,-7.526921 -0.170251,-0.275475 -1.300162,-0.624428 -2.510914,-0.77545 -2.692434,-0.33584 -15.375289,-0.341271 -16.942435,-0.0073 l -1.133927,0.241682 -0.107104,3.592863 c -0.155315,5.210275 -0.426468,5.011566 7.284432,5.338279 3.470926,0.147065 6.408428,0.365044 6.527784,0.4844 0.37664,0.376641 4.840401,0.234963 6.06679,-0.192558 z m 26.491102,-0.499461 c 0.53928,-0.488417 0.81025,-1.217941 0.84234,-2.267857 l 0.0473,-1.547816 0.26258,1.613908 c 0.14442,0.88765 0.47332,1.823141 0.73089,2.078869 0.51099,0.507343 14.2849,0.57971 18.77695,0.09865 2.78156,-0.297879 2.77581,-0.28931 3.08009,-4.594712 0.28196,-3.989746 0.0438,-4.87321 -1.45461,-5.395555 -2.23907,-0.780545 -19.54201,-0.247586 -20.41852,0.628924 -0.17541,0.175412 -0.53893,1.500401 -0.80781,2.944422 L 124.367,20.6864 124.11142,18.636474 c -0.14057,-1.127459 -0.41496,-2.209307 -0.60977,-2.404106 -0.55153,-0.551539 -4.4597,-1.373332 -7.79389,-1.638867 -2.96637,-0.236242 -12.3087,0.37876 -14.42341,0.949488 l -1.07211,0.289347 0.003,4.127925 c 0.002,2.270358 0.12656,4.432849 0.27782,4.805535 0.25711,0.633502 0.99866,0.670408 11.3919,0.566964 10.31358,-0.102651 11.17433,-0.162676 11.91191,-0.830687 z m 48.10072,-0.509877 c 0.7062,-0.70691 0.90534,-7.270148 0.24711,-8.144107 -0.7988,-1.060597 -4.81833,-1.42442 -14.4854,-1.311127 l -8.68794,0.101818 -0.54225,4.099352 c -0.6151,4.650057 -0.46158,5.213268 1.52634,5.599436 0.70607,0.13716 5.82537,0.222205 11.37621,0.188988 7.51962,-0.045 10.21315,-0.181221 10.56593,-0.53436 z m -49.85703,-10.91364 14.64658,-0.22908 V 8.6225514 c 0,-2.7836405 -0.15487,-4.3817974 -0.45357,-4.6804968 -0.32402,-0.3240167 -2.72618,-0.4537052 -8.40998,-0.4540396 -8.09899,-4.762e-4 -39.23276,0.7437279 -39.444792,0.9428662 -0.06401,0.060115 -0.201486,1.616083 -0.305509,3.4577065 -0.253429,4.4865503 0.104351,5.1627523 2.887577,5.4575233 1.13851,0.120579 5.301719,0.16125 9.251574,0.09038 3.94985,-0.07087 13.7725,-0.231941 21.82812,-0.357935 z"
       id="path1038"
       sodipodi:nodetypes="csscsscsssssccssssssssscsssssssssscsssssssssssssssssssscsssscssscsscccssssssssscsssscccssssccccsssssssssssscssssscssccsssssssccssscssscsssscccsscssssssssssssssssscssssscscssssssscssssccssccssscssssscssssssss" />
    <path
       style="fill:#000000;stroke:#000000;stroke-width:0.505076;stroke-linecap:round;stroke-opacity:1"
       d="M 0.3514731,47.926484 0.3905314,46.894519 1.6987716,46.730594 C 3.4915067,46.505965 4.4334398,46.280175 4.8084718,45.985175 5.9873057,45.057903 5.7828055,38.770282 4.5357081,37.598696 4.122121,37.21015 3.3981146,37.074871 1.6934703,37.067627 L 0.323714,37.061827 V 36.393654 35.72548 l 5.1783469,-0.0011 c 5.0437011,-7.94e-4 10.4491351,-0.180599 11.3923631,-0.378828 0.748692,-0.157342 0.85572,-0.640749 0.862729,-3.896608 0.0054,-2.51088 -0.01759,-2.790267 -0.275492,-3.347659 -0.393144,-0.849673 -1.024543,-1.525395 -1.762414,-1.886125 -0.586141,-0.286553 -0.778781,-0.3059 -2.833866,-0.284609 -1.212735,0.01256 -3.3174824,0.08478 -4.6772161,0.16048 -1.3597336,0.0757 -3.6899899,0.178708 -5.1783471,0.228907 l -2.7061038,0.09145 v -0.4668 -0.466799 L 2.2015193,25.333908 C 4.2632921,25.175903 5.075932,24.904722 5.5836967,24.20526 5.9301562,23.728002 6.0207188,22.18564 5.8105558,20.341657 5.5170858,17.766735 5.0356425,16.50581 4.1329469,15.947913 3.6265596,15.634949 1.9845624,15.291541 0.95847912,15.284005 L 0.323714,15.279343 v -0.518826 -0.518826 l 8.3187639,-0.06744 c 5.8146981,-0.04714 8.4717031,-0.114676 8.8268461,-0.224367 0.547795,-0.169194 1.027338,-0.780074 1.028218,-1.30983 2.64e-4,-0.165373 0.0456,-0.30003 0.100726,-0.299237 0.05512,7.94e-4 0.488878,0.272876 0.963897,0.60463 1.568173,1.095211 1.05322,1.045209 11.324364,1.099591 l 9.114436,0.04826 -0.219065,0.459388 -0.219067,0.459387 -2.213631,0.0036 c -2.620746,0.0043 -4.618987,0.175463 -4.915117,0.421044 -0.40195,0.333335 -0.605806,1.105572 -0.675584,2.559216 -0.06676,1.39083 -0.0804,1.444145 -0.350719,1.371581 -0.154691,-0.04153 -0.408292,-0.07632 -0.563557,-0.07732 -0.257736,-0.0017 -0.290322,-0.100667 -0.374473,-1.137794 -0.157543,-1.941654 -0.284395,-2.095945 -1.92655,-2.343296 -1.067596,-0.160807 -9.591939,-0.386215 -14.722377,-0.389301 -3.8761147,-0.0023 -5.8496841,0.132531 -6.6142294,0.451979 -0.6266545,0.261833 -1.0018263,0.911246 -1.0024525,1.735219 -5.557e-4,0.716121 0.6434201,6.245241 0.7384359,6.340257 0.032144,0.03214 1.5778652,0.2819 3.434936,0.555013 4.051611,0.595856 5.450914,0.871814 6.247646,1.232102 0.696685,0.315047 1.699591,0.285006 5.57991,-0.167141 1.231844,-0.143538 2.409185,-0.261951 2.616312,-0.263138 l 0.376596,-0.0022 -0.254623,0.367496 c -0.140043,0.202122 -0.290477,0.467227 -0.334298,0.589122 -0.06117,0.170156 -0.322262,0.240718 -1.124232,0.303837 -2.17484,0.171167 -3.925517,0.354547 -4.128545,0.432456 -0.427581,0.164078 -0.517018,0.745503 -0.537345,3.493286 -0.01943,2.625722 -0.02981,2.723014 -0.319328,2.992747 -0.568572,0.529703 -0.797268,1.276003 -0.800441,2.612064 l -0.0029,1.23612 -2.104747,0.0013 c -3.459614,0.0024 -8.0267065,0.251952 -8.5413179,0.466971 -0.8274457,0.345729 -0.9135795,0.756005 -0.9116668,4.342506 0.00188,3.509587 0.1313423,4.405675 0.689379,4.771316 0.2811817,0.184234 0.6464625,0.202845 2.6024961,0.132572 l 2.2754046,-0.08175 -0.368731,0.483434 c -0.202803,0.265888 -0.44294,0.699328 -0.53364,0.963208 l -0.164907,0.479774 -5.1630444,0.03498 -5.1630435,0.03499 0.0390583,-1.031968 z"
       id="path1040" />
    <path
       style="fill:#000000;stroke:#000000;stroke-width:0.505076;stroke-linecap:round;stroke-opacity:1"
       d="M 40.508211,10.42476 C 40.432698,7.7446194 40.306315,6.5420012 39.997096,5.5611765 39.891324,5.225674 39.752743,5.0995984 39.369351,4.990076 36.854511,4.2716725 21.875062,3.902125 20.195254,4.5170455 19.265599,4.8573605 19.131979,5.131395 19.237407,6.4814521 19.326081,7.6170022 19.127837,8.9920656 18.749287,9.8671347 18.591896,10.230966 18.567662,10.101212 18.487232,8.4639697 18.389764,6.479905 18.193656,5.4050498 17.852532,4.9851995 17.695574,4.7920174 17.371851,4.6737717 16.76079,4.58642 15.183132,4.3608931 7.9384005,4.1520435 4.0927051,4.2212273 L 0.31133216,4.2892538 0.35093179,3.536873 0.3905314,2.7844924 2.0064946,2.6950887 C 2.8952745,2.6459166 3.8732682,2.5381488 4.1798142,2.4556045 4.9233084,2.2554023 5.6284129,1.6149696 5.8239736,0.96224644 l 0.1581708,-0.5279278 0.8097203,0.0391914 0.8097199,0.0391914 0.1075256,0.66817376 C 7.8743576,2.2077383 8.1976787,3.0852784 8.4488919,3.1887509 9.4299277,3.592831 23.618705,3.1173234 26.850215,2.5720687 28.405743,2.3096029 29.182488,1.7570242 29.510199,0.67974484 29.563644,0.50404505 29.725045,0.445884 30.159171,0.445884 c 0.566158,0 0.580999,0.0114792 0.734404,0.5679478 0.359124,1.3027074 1.205735,1.9640602 2.857283,2.2320461 2.042956,0.3314972 16.596566,-0.060997 17.680167,-0.4768133 0.208182,-0.079887 0.475708,-1.1270484 0.475708,-1.86203656 0,-0.43516222 0.02556,-0.46114404 0.453422,-0.46114404 0.490503,0 0.615656,0.16327483 0.615656,0.8031929 0,0.2092361 0.08793,0.468359 0.195397,0.5758286 0.368562,0.3685626 2.907962,0.6854533 7.215646,0.900438 1.620107,0.080855 3.396667,0.191825 3.947911,0.2466001 l 1.00226,0.099591 -0.935442,0.4309632 C 63.887087,3.7395274 63.24375,4.0507906 62.971941,4.194194 62.494038,4.4463311 62.132204,4.4549268 51.996374,4.4549268 H 41.515003 l -0.09164,1.2361217 c -0.119206,1.6079534 -0.139296,6.2365955 -0.02857,6.5825205 0.06437,0.201115 -0.02588,0.357444 -0.360495,0.624443 l -0.446368,0.356166 z"
       id="path1042" />
    <path
       style="fill:#000000;stroke:#000000;stroke-width:0.505076;stroke-linecap:round;stroke-opacity:1"
       d="m 18.105797,57.268337 c 0.06264,-0.278776 0.165382,-1.330039 0.228325,-2.336144 0.06294,-1.006105 0.152179,-1.867016 0.198304,-1.913141 0.04612,-0.04613 0.259809,0.04142 0.474855,0.194548 0.348082,0.247856 0.401194,0.381944 0.483949,1.221772 0.170571,1.731023 0.706114,2.902074 1.468155,3.210353 0.17453,0.0706 -0.326454,0.115687 -1.344652,0.121002 l -1.62282,0.0085 z"
       id="path1044" />
    <path
       style="fill:#000000;stroke:#000000;stroke-width:0.505076;stroke-linecap:round;stroke-opacity:1"
       d="m 42.370803,57.274065 c -0.141478,-0.85593 -0.113586,-0.968851 0.239308,-0.968851 0.220969,0 0.354332,0.09629 0.416414,0.300678 0.05023,0.165372 0.237752,0.49612 0.416711,0.734991 l 0.325377,0.434313 h -0.65749 c -0.65595,0 -0.657683,-0.0011 -0.74032,-0.501131 z"
       id="path1046" />
    <path
       style="fill:#000000;stroke:#000000;stroke-width:0.505076;stroke-linecap:round;stroke-opacity:1"
       d="m 21.41295,57.817543 c 0.09647,-0.0386 0.211727,-0.03386 0.256133,0.01056 0.04441,0.0444 -0.03452,0.07599 -0.175396,0.07019 -0.155676,-0.0064 -0.187342,-0.03808 -0.08074,-0.08074 z"
       id="path1048" />
    <path
       style="fill:#000000;stroke:#000000;stroke-width:0.357143;stroke-linecap:round;stroke-opacity:1"
       d="m 171.15405,39.604005 c -0.0728,-0.696375 -0.32751,-1.300067 -0.78317,-1.856147 -0.9133,-1.114558 -1.67257,-1.251038 -8.01877,-1.441368 -4.79464,-0.143799 -8.2521,-0.358193 -8.9923,-0.557607 -0.89847,-0.242054 9.9309,-0.267846 23.633,-0.05629 6.28263,0.097 9.17896,0.110813 9.22028,0.04396 0.0331,-0.05361 0.1767,-1.042477 0.31905,-2.197481 0.14234,-1.155001 0.27154,-2.185051 0.28712,-2.288992 0.0156,-0.103945 0.0341,1.165995 0.0412,2.822085 l 0.0129,3.011072 -0.49609,-0.05635 c -1.70358,-0.193511 -4.09157,-0.28698 -7.44141,-0.291261 -4.28246,-0.0055 -4.79176,0.04868 -5.9482,0.632471 -0.76936,0.388384 -1.02154,0.8226 -1.16504,2.006002 -0.0956,0.788344 -0.10319,0.805669 -0.35302,0.805669 -0.24292,0 -0.25825,-0.02798 -0.31551,-0.575765 z"
       id="path1050" />
    <path
       style="fill:#000000;stroke:#000000;stroke-width:0.357143;stroke-linecap:round;stroke-opacity:1"
       d="m 129.32644,36.347804 c -0.0779,-0.01667 -0.34372,-0.05685 -0.59058,-0.08932 -0.24687,-0.03247 -0.44885,-0.09732 -0.44885,-0.144105 0,-0.092 0.47584,-0.23707 1.09877,-0.334981 l 0.39007,-0.06131 0.0398,0.340963 c 0.0412,0.352854 -0.02,0.38899 -0.48921,0.288758 z"
       id="path1056" />
  </g>
  <g
     inkscape:groupmode="layer"
     id="layer3"
     inkscape:label="trash"
     style="display:none" />
</svg>
