<?xml version="1.0" encoding="UTF-8" standalone="no"?>
<svg
   xmlns:dc="http://purl.org/dc/elements/1.1/"
   xmlns:cc="http://creativecommons.org/ns#"
   xmlns:rdf="http://www.w3.org/1999/02/22-rdf-syntax-ns#"
   xmlns:svg="http://www.w3.org/2000/svg"
   xmlns="http://www.w3.org/2000/svg"
   xmlns:sodipodi="http://sodipodi.sourceforge.net/DTD/sodipodi-0.dtd"
   xmlns:inkscape="http://www.inkscape.org/namespaces/inkscape"
   width="187mm"
   height="58mm"
   viewBox="0 0 187 58"
   version="1.1"
   id="svg8"
   inkscape:version="1.0.1 (3bc2e813f5, 2020-09-07)"
   sodipodi:docname="Xv3.svg">
  <defs
     id="defs2" />
  <sodipodi:namedview
     id="base"
     pagecolor="#ffffff"
     bordercolor="#666666"
     borderopacity="1.0"
     inkscape:pageopacity="0.0"
     inkscape:pageshadow="2"
     inkscape:zoom="1.979899"
     inkscape:cx="269.7073"
     inkscape:cy="172.5256"
     inkscape:document-units="mm"
     inkscape:current-layer="layer1"
     inkscape:document-rotation="0"
     showgrid="false"
     inkscape:window-width="1920"
     inkscape:window-height="1017"
     inkscape:window-x="-8"
     inkscape:window-y="-8"
     inkscape:window-maximized="1" />
  <metadata
     id="metadata5">
    <rdf:RDF>
      <cc:Work
         rdf:about="">
        <dc:format>image/svg+xml</dc:format>
        <dc:type
           rdf:resource="http://purl.org/dc/dcmitype/StillImage" />
        <dc:title></dc:title>
      </cc:Work>
    </rdf:RDF>
  </metadata>
  <g
     inkscape:label="Layer 1"
     inkscape:groupmode="layer"
     id="layer1">
    <path
       style="fill:#000000;stroke-width:0.129187"
       d="m 13.239541,47.709005 c 0,-0.159613 0.2523,-0.996986 0.329654,-1.094107 0.01811,-0.02273 0.4712,-0.150859 1.006871,-0.28472 2.222098,-0.555293 2.621091,-0.84776 11.617938,-8.516052 l 3.553445,-3.028711 -1.722354,-5.110044 c -1.878799,-5.574191 -2.015175,-5.940496 -2.41097,-6.475838 -0.345998,-0.467988 -0.726334,-0.617413 -2.052331,-0.806317 -1.0307,-0.146835 -1.083697,-0.170167 -1.051397,-0.4629 0.01871,-0.169549 0.106693,-0.459907 0.19552,-0.645241 l 0.161507,-0.336971 h 6.715961 6.715962 l -0.03401,0.308961 c -0.01871,0.16993 -0.106595,0.460599 -0.195305,0.645933 -0.145223,0.303399 -0.257822,0.346553 -1.130143,0.433139 -1.492018,0.148099 -2.077607,0.358106 -2.36349,0.847607 -0.417742,0.715269 -0.331496,1.654563 0.340368,3.706943 0.325636,0.994736 0.747534,2.318422 0.937548,2.941523 0.30366,0.995753 0.370184,1.113055 0.549495,0.968899 0.112205,-0.09021 1.049677,-0.941921 2.083269,-1.8927 1.033592,-0.950778 2.136235,-1.939055 2.450318,-2.196172 0.314084,-0.257116 0.862325,-0.774876 1.218316,-1.150578 0.376699,-0.397556 0.721307,-0.654679 0.824407,-0.615115 0.09743,0.03739 0.141932,0.01099 0.09889,-0.05865 -0.04304,-0.06965 0.100183,-0.348675 0.31828,-0.620068 0.537766,-0.669176 0.696417,-1.23896 0.41307,-1.483488 -0.249937,-0.215695 -1.252705,-0.479777 -1.821804,-0.479777 -0.245547,0 -0.394945,-0.06601 -0.394945,-0.174503 0,-0.289061 0.29093,-1.046166 0.441015,-1.147682 0.07718,-0.0522 2.284013,-0.0958 4.904078,-0.09689 l 4.763756,-0.002 -0.07134,0.355263 c -0.197433,0.983173 -0.243155,1.020917 -1.33922,1.105553 -0.556428,0.04297 -1.222075,0.154847 -1.479216,0.248622 -0.704754,0.257011 -2.009767,1.14083 -3.188498,2.159411 -0.579867,0.50108 -1.071007,0.911055 -1.091422,0.911055 -0.02042,0 -0.41297,0.348873 -0.872336,0.775276 -0.459366,0.426402 -2.187011,1.923352 -3.83921,3.326554 -2.349139,1.995111 -2.99337,2.607604 -2.955241,2.809653 0.04414,0.233922 3.025101,8.993838 3.241427,9.525338 0.05012,0.123146 0.158329,0.442884 0.240462,0.710526 0.214096,0.697671 0.944905,2.005335 1.45143,2.597095 0.507598,0.593016 1.193415,0.900074 2.2591,1.01146 0.467601,0.04887 0.764881,0.140615 0.764881,0.236044 0,0.273966 -0.295619,1.030934 -0.441017,1.12928 -0.07718,0.0522 -3.300393,0.0958 -7.1627,0.09689 l -7.022378,0.002 0.08817,-0.355264 c 0.226823,-0.913897 0.305438,-0.972079 1.62779,-1.204718 1.403732,-0.246958 1.883573,-0.455648 2.366035,-1.029023 0.386703,-0.459572 0.41831,-0.872331 0.147978,-1.932526 -0.368732,-1.446114 -2.030409,-6.91524 -2.133576,-7.022307 -0.10663,-0.110661 -7.001724,5.988507 -7.90849,6.995584 -0.732169,0.813165 -1.066995,1.554195 -1.021667,2.261134 0.01948,0.303812 1.214785,0.863129 1.84816,0.864805 0.262254,5.77e-4 0.513457,0.06053 0.558228,0.132975 0.10129,0.16389 -0.181953,1.061767 -0.375544,1.190471 -0.07852,0.0522 -2.395454,0.0958 -5.148743,0.09689 -4.118826,0.0015 -5.005981,-0.02895 -5.005981,-0.172525 z m 37.665212,-5.627052 c -0.03989,-0.06454 -0.128352,-1.333999 -0.196587,-2.821021 -0.126699,-2.761124 -0.235034,-3.391777 -0.582655,-3.391777 -0.108337,0 -0.196978,-0.08378 -0.196978,-0.186184 0,-0.248838 3.06429,-0.351393 3.346717,-0.112007 0.150625,0.12767 0.124673,0.16826 -0.151977,0.237695 -0.708168,0.177739 -0.800777,0.442563 -0.850197,2.431237 l -0.04541,1.827279 0.569205,-0.774847 c 1.037286,-1.412039 2.040754,-2.936729 2.040754,-3.100768 0,-0.08894 -0.130802,-0.24964 -0.290669,-0.35712 -0.159869,-0.107478 -0.250878,-0.236718 -0.202242,-0.287201 0.04864,-0.05048 0.626024,-0.09776 1.283083,-0.105066 1.34334,-0.01494 1.62303,0.161358 0.786819,0.495944 -0.437226,0.174943 -0.801012,0.601471 -2.561244,3.002978 -1.128398,1.539491 -2.153366,2.902379 -2.277709,3.02864 -0.244497,0.248267 -0.554754,0.300164 -0.670909,0.112218 z m 5.237107,-0.0164 c -0.500043,-0.210971 -0.812843,-0.651954 -0.721264,-1.016835 0.176893,-0.704799 1.07823,-1.021444 1.40639,-0.494071 0.108743,0.174755 0.09175,0.316871 -0.07219,0.603773 -0.117925,0.206374 -0.181961,0.407671 -0.142305,0.447328 0.11349,0.113489 0.720599,-0.06649 0.977126,-0.289666 0.274844,-0.239116 1.252793,-1.678899 1.252793,-1.84442 0,-0.199317 -0.405891,-0.124209 -0.866218,0.160288 -0.325777,0.201342 -0.482881,0.236436 -0.587975,0.13134 -0.07888,-0.07888 -0.118225,-0.161258 -0.08743,-0.18307 1.534699,-1.087164 2.247946,-1.830358 2.160853,-2.251577 -0.05657,-0.273597 -0.652249,-0.282606 -0.919951,-0.01392 -0.559248,0.561319 -0.776901,1.322779 -0.238939,0.835933 0.280654,-0.253989 0.539665,-0.279446 0.539659,-0.05304 -6e-6,0.240435 -0.840345,0.865676 -1.282287,0.954065 -0.804227,0.160846 -1.048232,-0.677221 -0.409109,-1.405141 0.587896,-0.669576 1.480455,-1.057582 2.444388,-1.062607 0.906741,-0.0047 1.18481,0.192508 1.18481,0.840377 0,0.403447 -0.26331,0.735687 -0.95463,1.204537 -0.296322,0.200965 -0.414719,0.340778 -0.288579,0.340778 0.295948,0 0.653383,0.79236 0.547585,1.213888 -0.109179,0.435008 -0.764237,1.103585 -1.500548,1.531521 -0.652841,0.379425 -1.936849,0.563708 -2.442175,0.350508 z"
       id="path849" />
  </g>
</svg>
