<?xml version="1.0" encoding="UTF-8" standalone="no"?>
<svg
   xmlns:dc="http://purl.org/dc/elements/1.1/"
   xmlns:cc="http://creativecommons.org/ns#"
   xmlns:rdf="http://www.w3.org/1999/02/22-rdf-syntax-ns#"
   xmlns:svg="http://www.w3.org/2000/svg"
   xmlns="http://www.w3.org/2000/svg"
   xmlns:sodipodi="http://sodipodi.sourceforge.net/DTD/sodipodi-0.dtd"
   xmlns:inkscape="http://www.inkscape.org/namespaces/inkscape"
   width="100mm"
   height="100mm"
   viewBox="0 0 100 100"
   version="1.1"
   id="svg8"
   inkscape:version="1.0.2 (e86c870879, 2021-01-15, custom)"
   sodipodi:docname="FishScalesStipple.svg">
  <defs
     id="defs2" />
  <sodipodi:namedview
     id="base"
     pagecolor="#ffffff"
     bordercolor="#666666"
     borderopacity="1.0"
     inkscape:pageopacity="0.0"
     inkscape:pageshadow="2"
     inkscape:zoom="0.7"
     inkscape:cx="-65.435431"
     inkscape:cy="95.430993"
     inkscape:document-units="mm"
     inkscape:current-layer="layer1"
     inkscape:document-rotation="0"
     showgrid="false"
     inkscape:window-width="1920"
     inkscape:window-height="1017"
     inkscape:window-x="-8"
     inkscape:window-y="-8"
     inkscape:window-maximized="1" />
  <metadata
     id="metadata5">
    <rdf:RDF>
      <cc:Work
         rdf:about="">
        <dc:format>image/svg+xml</dc:format>
        <dc:type
           rdf:resource="http://purl.org/dc/dcmitype/StillImage" />
        <dc:title></dc:title>
      </cc:Work>
    </rdf:RDF>
  </metadata>
  <g
     inkscape:label="Layer 1"
     inkscape:groupmode="layer"
     id="layer1">
    <path
       style="fill:#000000;stroke-width:0.18113"
       d="m 123.33966,100.80034 c -0.25531,0.49709 -0.46487,1.14342 -0.4657,1.43627 -0.002,0.51115 -0.0335,0.53266 -0.80248,0.53717 -0.44056,0.003 -0.80166,-0.0678 -0.80242,-0.15636 -6.2e-4,-0.0886 -0.46155,-0.34843 -1.02393,-0.57743 -1.4189,-0.57776 -2.72127,-1.68474 -3.4467,-2.929546 -0.33757,-0.57928 -0.68185,-1.05283 -0.76511,-1.05234 -0.28499,0.002 -1.71912,0.94399 -2.28978,1.50452 -0.70383,0.691346 -1.23738,1.669326 -1.40701,2.579026 -0.12123,0.65015 -0.16717,0.69032 -0.79401,0.694 -0.36594,0.002 -0.73824,-0.0879 -0.82729,-0.19994 -0.089,-0.1121 -0.51793,-0.3492 -0.95301,-0.52686 -1.25995,-0.51447 -2.80021,-1.7559 -3.40037,-2.740646 -0.30227,-0.49597 -0.55026,-0.98012 -0.5511,-1.07589 -0.003,-0.27195 -0.25291,-0.20954 -1.23356,0.30737 -1.47653,0.77825 -2.48837,2.094506 -2.67693,3.482246 l -0.1102,0.81101 -0.77313,0.005 c -0.42522,0.003 -0.77367,-0.0594 -0.77437,-0.1377 -5.9e-4,-0.0782 -0.601922,-0.42488 -1.336082,-0.77034 -1.52419,-0.71725 -2.45163,-1.5494 -3.211157,-2.881256 -0.290907,-0.51012 -0.571831,-0.92723 -0.624315,-0.92693 -0.323815,0.002 -1.291618,0.5737 -2.008094,1.18645 -0.919676,0.786526 -1.555301,1.837116 -1.753025,2.897476 -0.125496,0.67296 -0.14793,0.6902 -0.904106,0.69464 -0.484082,0.003 -0.778045,-0.0725 -0.782385,-0.2002 -0.0039,-0.11261 -0.368087,-0.33841 -0.809452,-0.5018 -1.229465,-0.45509 -2.86088,-1.75229 -3.478737,-2.766076 -0.302267,-0.49597 -0.550271,-0.98013 -0.551116,-1.07591 -0.0025,-0.27194 -0.252897,-0.20952 -1.233557,0.30736 -1.476519,0.77828 -2.488366,2.094516 -2.676921,3.482286 l -0.110204,0.81098 -0.773131,0.005 c -0.425204,0.003 -0.773756,-0.0677 -0.774529,-0.15596 -5.98e-4,-0.0882 -0.383969,-0.31733 -0.851544,-0.50902 -1.772716,-0.72677 -3.528744,-2.28198 -3.898982,-3.453076 -0.194609,-0.61556 -0.40945,-0.66946 -1.148158,-0.28806 -1.586899,0.81933 -2.753501,2.270486 -3.033828,3.773816 -0.125484,0.67296 -0.147924,0.6902 -0.9041,0.69463 -0.50504,0.003 -0.776075,-0.0701 -0.777309,-0.20964 -5.98e-4,-0.11781 -0.363233,-0.34211 -0.804878,-0.49842 -1.212801,-0.42927 -2.864212,-1.73586 -3.488399,-2.760016 -0.302265,-0.49595 -0.550268,-0.98012 -0.551106,-1.0759 -0.0025,-0.27194 -0.252893,-0.20951 -1.233556,0.30738 -1.476525,0.77825 -2.488371,2.094506 -2.676933,3.482246 l -0.110198,0.81101 -0.773121,0.006 c -0.425218,0.003 -0.773756,-0.0677 -0.774527,-0.15597 -7.8e-4,-0.0882 -0.383976,-0.31732 -0.851555,-0.50904 -1.772714,-0.72676 -3.528746,-2.28195 -3.898977,-3.453046 -0.194609,-0.61557 -0.409452,-0.66947 -1.148155,-0.28807 -1.586899,0.81932 -2.753499,2.270466 -3.033835,3.773816 -0.12549,0.67296 -0.147917,0.69019 -0.904105,0.69464 -0.48408,0.003 -0.778031,-0.0724 -0.782383,-0.2002 -0.0038,-0.11262 -0.363085,-0.33649 -0.798347,-0.49754 -1.626119,-0.60159 -3.559847,-2.35614 -3.94721,-3.581416 -0.07628,-0.24129 -0.201393,-0.43834 -0.278027,-0.43789 -0.07665,4.5e-4 -0.548809,0.21664 -1.049269,0.48044 -1.47653,0.77825 -2.488377,2.094496 -2.67694,3.482266 l -0.110196,0.81098 -0.773118,0.005 c -0.425218,0.003 -0.773762,-0.068 -0.774535,-0.15653 -7.8e-4,-0.0886 -0.468155,-0.35111 -1.038604,-0.58341 -1.361264,-0.55429 -2.747384,-1.7218 -3.473411,-2.925586 -0.321509,-0.53307 -0.613719,-0.99589 -0.649353,-1.0285 -0.141682,-0.12961 -1.484749,0.68725 -2.179682,1.32569 -0.837365,0.769276 -1.380786,1.712276 -1.572631,2.728956 -0.124448,0.65953 -0.167802,0.69727 -0.804872,0.70102 -0.370328,0.003 -0.746205,-0.0877 -0.835275,-0.19989 -0.08906,-0.11211 -0.517913,-0.34919 -0.953,-0.52686 -1.370741,-0.55972 -2.784614,-1.73918 -3.438145,-2.868126 -0.331161,-0.57207 -0.623546,-1.06738 -0.649742,-1.10071 -0.124226,-0.158 -1.900263,0.87828 -2.445159,1.426686 -0.700936,0.70545 -1.393886,2.12403 -1.387596,2.84058 0.0038,0.457 -0.04246,0.48562 -0.79675,0.49004 -0.440558,0.003 -0.801653,-0.0678 -0.802433,-0.15636 -7.8e-4,-0.0886 -0.46154,-0.34842 -1.023912,-0.57743 -1.383692,-0.56343 -2.647734,-1.62171 -3.424675,-2.867186 -0.354638,-0.5685 -0.677601,-1.06266 -0.717685,-1.09814 -0.122032,-0.10799 -1.7453009,0.82774 -2.2334819,1.28748 -0.626913,0.590386 -1.359509,1.930176 -1.515965,2.772426 -0.127141,0.68441 -0.143928,0.69715 -0.924723,0.70172 -0.4469623,0.003 -0.7447275,-0.0632 -0.6799077,-0.15045 0.063421,-0.0853 -0.2710179,-0.29259 -0.7432152,-0.46058 -1.382578,-0.49189 -2.9953012,-1.79935 -3.6814094,-2.984556 -0.3311594,-0.57207 -0.6235366,-1.06739 -0.6497316,-1.10071 -0.1101872,-0.14014 -1.8595737,0.84308 -2.3356015,1.312696 l -0.517292,0.51032 -0.00383,-0.954586 c -0.00383,-0.91996 0.023847,-0.97098 0.7649984,-1.40633 0.4229999,-0.24845 1.0044078,-0.52651 1.2920162,-0.6179 0.6295992,-0.20008 0.7309384,-0.91687 0.150401,-1.063859 -0.2009984,-0.05094 -0.7890369,-0.308817 -1.3067533,-0.573175 l -0.9412914,-0.480644 -0.00825,-0.936775 -0.00824,-0.936782 0.6551895,0.493797 c 0.768434,0.579138 1.8527692,1.195262 2.0940631,1.189867 0.093128,-0.0029 0.3877897,-0.428939 0.6548112,-0.94708 0.5835603,-1.13301 2.1212537,-2.473266 3.5085698,-3.058667 C 5.8709796,90.729114 5.8515725,90.374508 4.4576422,89.787851 3.0953794,89.214523 1.3275401,87.680071 0.8558421,86.66156 0.655866,86.229761 0.4713535,85.852726 0.4458003,85.823704 0.322043,85.683131 -0.9422114,86.385269 -1.6403465,86.982306 l -0.7846995,0.671062 -0.00802,-0.912453 c -0.00757,-0.838462 0.044509,-0.945082 0.639317,-1.314835 0.3560307,-0.221309 0.9391344,-0.52528 1.2957864,-0.67549 0.4685111,-0.19732 0.6474761,-0.385592 0.6449028,-0.678463 -0.002274,-0.222945 -0.1174126,-0.404686 -0.2565511,-0.403867 -0.1391457,8.46e-4 -0.7271688,-0.255724 -1.3067227,-0.570092 l -1.0537342,-0.571577 -0.00818,-0.930794 -0.00818,-0.930794 0.8569673,0.665278 c 0.8280533,0.642833 1.5448003,1.027167 1.9115557,1.025012 0.097109,-5.71e-4 0.383066,-0.417037 0.6354489,-0.925485 0.5384229,-1.08467 2.0543409,-2.419713 3.4407026,-3.030175 1.2795579,-0.56343 1.2767954,-0.994545 -0.00961,-1.504189 C 2.9822206,76.354117 1.4174985,75.02951 0.8517881,73.935211 0.5904962,73.429781 0.2972642,73.016718 0.2001487,73.017287 c -0.3667482,0.002 -1.0766751,0.39487 -1.8933607,1.047369 l -0.8451977,0.675275 -0.00809,-0.923255 c -0.00901,-1.027938 0.2717366,-1.321161 1.8053878,-1.88551 1.2033775,-0.442818 1.0645804,-0.862187 -0.5343903,-1.614637 l -1.3071197,-0.615107 -0.0084,-0.955175 -0.0084,-0.955172 0.7960373,0.641943 c 0.4378198,0.353069 1.0676007,0.75481 1.3995093,0.892763 l 0.6034718,0.25082 0.5895219,-1.027324 C 1.48223,67.341699 2.6888471,66.27173 4.1186852,65.597069 5.6103603,64.893228 5.61481,64.58673 4.1425243,63.955824 2.7295045,63.350316 1.5162942,62.304984 0.7751081,61.054375 0.482406,60.5605 0.2192597,60.126151 0.190339,60.089157 0.0718339,59.937565 -0.9170201,60.444062 -1.756738,61.086469 l -0.8955374,0.685107 -0.00809,-0.925508 c -0.00809,-0.923672 -0.00606,-0.926485 0.92464,-1.417161 0.5130155,-0.270405 1.0964677,-0.535215 1.29655,-0.588463 0.560624,-0.1492 0.4664681,-0.868571 -0.1377451,-1.052451 -0.2719667,-0.08277 -0.8600431,-0.34532 -1.3068466,-0.583453 -0.7990733,-0.425889 -0.8125078,-0.449066 -0.8210003,-1.416245 l -0.00863,-0.983272 0.440416,0.451336 c 0.4087395,0.418875 2.0804244,1.380207 2.39684,1.378349 0.076643,-4.51e-4 0.197078,-0.194912 0.2676496,-0.432139 0.3640437,-1.22469 2.3866581,-3.095758 4.0070112,-3.707703 0.6996492,-0.264228 0.8066107,-0.369941 0.722968,-0.714482 -0.068498,-0.282228 -0.3017026,-0.457997 -0.7719843,-0.581912 -1.3557305,-0.357228 -3.658369,-2.424365 -4.02975,-3.617612 -0.076975,-0.247345 -0.2026636,-0.44935 -0.2793053,-0.4489 -0.3164156,0.0018 -1.9710476,0.982734 -2.3723934,1.406367 l -0.4324453,0.456464 -0.00863,-0.983271 c -0.00848,-0.967179 0.00454,-0.990512 0.7960535,-1.425744 0.4425725,-0.24336 1.0259785,-0.512797 1.2964585,-0.598749 0.6009282,-0.19096 0.6824379,-0.911364 0.1192551,-1.053961 -0.2009983,-0.0509 -0.7890291,-0.308818 -1.3067453,-0.573169 l -0.9412993,-0.480641 -0.00886,-1.008648 -0.00886,-1.008651 0.4359421,0.446752 c 0.4981965,0.510547 1.9349601,1.387049 2.2636521,1.380946 0.1211313,-0.0021 0.4364342,-0.420601 0.7006624,-0.929668 0.589386,-1.1354 2.1537826,-2.500633 3.5319855,-3.082188 1.2709298,-0.536288 1.2638379,-0.86011 -0.031335,-1.431174 -1.4057276,-0.619805 -2.8835289,-1.874292 -3.576373,-3.03595 l -0.608528,-1.020286 -0.5990053,0.257885 c -0.3294569,0.141837 -0.9521149,0.550939 -1.3836978,0.909114 l -0.7846847,0.65123 -0.00788,-0.892698 c -0.00757,-0.816175 0.047682,-0.92719 0.6394834,-1.29508 0.3560315,-0.22131 0.9391352,-0.525281 1.2957938,-0.675491 0.928485,-0.391044 0.8671175,-0.914791 -0.1513234,-1.291432 -1.55517,-0.575137 -1.8200192,-0.846048 -1.8290111,-1.870899 l -0.00809,-0.923257 0.8569598,0.665277 c 0.8280538,0.642835 1.5448085,1.027169 1.9115561,1.025013 0.097117,-5.69e-4 0.383067,-0.417036 0.6354508,-0.925484 C 1.0100756,28.725551 2.590026,27.342248 3.9058614,26.811565 5.3249439,26.239242 5.3168136,25.8553 3.8737685,25.296144 2.6190064,24.809941 1.1773384,23.591666 0.4874767,22.434567 0.1786979,21.916658 -0.0962174,21.467879 -0.1234502,21.437285 -0.274328,21.267768 -1.1927383,21.714783 -2.0316991,22.36608 l -0.9599566,0.745225 -0.00802,-0.911563 c -0.00886,-1.011777 0.2558499,-1.288953 1.7960793,-1.880502 0.614151,-0.235874 0.7781747,-0.389858 0.7792573,-0.731548 7.792e-4,-0.317403 -0.1222217,-0.457393 -0.4621833,-0.525078 -0.2549566,-0.05076 -0.8430407,-0.313799 -1.3068524,-0.584526 -0.8174272,-0.477142 -0.8435395,-0.520434 -0.8513659,-1.41152 l -0.00809,-0.919281 0.8451829,0.681569 c 0.7595181,0.612488 1.9397575,1.251067 2.0574834,1.113213 0.025053,-0.02933 0.2016342,-0.405672 0.3924366,-0.83634 C 0.6858439,16.104525 2.2797591,14.655862 3.6938151,13.968715 4.3001303,13.674082 4.8175594,13.30775 4.8436565,13.154647 4.8756767,12.966805 4.521322,12.710337 3.7540608,12.36602 2.2627043,11.696761 0.8480419,10.476803 0.2726433,9.3637543 c -0.2544415,-0.492191 -0.5611612,-0.894316 -0.681597,-0.893608 -0.3098459,0.00175 -1.0803151,0.449837 -1.9503312,1.134083 l -0.7458415,0.5865877 -0.00802,-0.9120037 c -0.00765,-0.869853 0.026487,-0.931654 0.7392563,-1.337173 0.4109881,-0.233844 0.9942729,-0.517168 1.2961868,-0.629611 0.3746042,-0.139514 0.5478554,-0.327272 0.5455393,-0.591217 C -0.5344392,6.4556178 -0.7092187,6.2734215 -1.0879865,6.1412105 -1.3918148,6.0351582 -1.9798987,5.7723597 -2.3948304,5.5572131 -3.1288562,5.1766185 -3.149489,5.1394504 -3.1578828,4.1827706 l -0.00863,-0.983272 0.4404162,0.4513363 c 0.4087396,0.4188752 2.0804166,1.3802069 2.3968399,1.3783476 0.076635,-4.505e-4 0.1987655,-0.2039112 0.2713959,-0.452135 0.3562894,-1.2176483 2.3938974,-3.086555 4.0351247,-3.70104181 0.4691774,-0.1756625 0.7999369,-0.3885808 0.735018,-0.4731491 -0.0663,-0.086422 0.2302292,-0.1558064 0.6772001,-0.1584312 0.7804679,-0.00461 0.797899,0.00823 0.9389899,0.6907738 0.195866,0.94754011 0.82754,2.06900301 1.483455,2.63371111 0.583936,0.502739 2.027231,1.4005341 2.2493989,1.3992285 0.07425,-4.367e-4 0.384331,-0.4510139 0.689022,-1.0012836 0.657302,-1.1870817 2.123645,-2.4622079 3.498637,-3.04240811 0.541846,-0.2286433 0.984541,-0.4881917 0.983769,-0.5767788 -7.8e-4,-0.088585 0.359043,-0.1631818 0.799595,-0.1657696 0.755877,-0.00448 0.80126,0.022901 0.805316,0.48501 0.006,0.66475621 0.671281,2.02041491 1.337143,2.72405871 0.473847,0.500738 2.153562,1.5168531 2.50406,1.514793 0.06645,-3.893e-4 0.239372,-0.2778748 0.384271,-0.6166314 0.577804,-1.3508925 2.201973,-2.840702 3.744056,-3.43433311 0.456833,-0.1758608 0.832119,-0.4119112 0.833973,-0.5245578 0.0022,-0.1282252 0.296305,-0.2065313 0.786781,-0.2094135 0.766564,-0.00455 0.786501,0.010346 0.927167,0.6908447 0.30551,1.47792511 1.517107,2.95458521 3.04998,3.71722221 0.769432,0.3828113 0.989073,0.3332172 1.166556,-0.2634028 0.363099,-1.2205871 2.040385,-2.7584596 3.841185,-3.52192261 0.466379,-0.1977256 0.847333,-0.4317239 0.846553,-0.5199964 -7.8e-4,-0.0882742 0.346502,-0.1625397 0.771719,-0.1650384 l 0.773119,-0.00455 0.124055,0.8072318 c 0.221085,1.43862381 1.33957,2.80199321 2.903876,3.53967521 0.491052,0.2315658 0.912288,0.3935263 0.936084,0.3599105 0.02376,-0.033617 0.28798,-0.4913123 0.587086,-1.0171061 0.696795,-1.224884 2.039469,-2.4135422 3.307152,-2.92780671 0.548204,-0.2223889 0.999428,-0.4965165 1.00272,-0.6091709 0.0039,-0.1275012 0.29872,-0.20654630429 0.781401,-0.209383 0.756177,-0.00448 0.778915,0.012529 0.916207,0.6839488 0.297569,1.45529361 1.540623,2.96370491 3.068931,3.72407071 0.776419,0.3862862 0.988778,0.3342173 1.173821,-0.2878138 0.198584,-0.6675584 1.436105,-2.1290564 2.256622,-2.6650466 0.401118,-0.2620251 1.110892,-0.63740781 1.577284,-0.83418661 0.466393,-0.1967788 0.847348,-0.4300023 0.846577,-0.5182748 -7.81e-4,-0.088273 0.346492,-0.1625384 0.77171,-0.1650371 l 0.773119,-0.00455 0.124425,0.8096267 c 0.212903,1.38539271 1.247754,2.68961611 2.737792,3.45044981 0.505038,0.2578802 0.972623,0.4685539 1.039079,0.468164 0.06644,-3.907e-4 0.239364,-0.2778748 0.384263,-0.6166321 0.576767,-1.3484587 2.242489,-2.8593454 3.819289,-3.46428231 0.415449,-0.1593879 0.756891,-0.3819626 0.758743,-0.4946079 0.0025,-0.1282272 0.296308,-0.2065333 0.786778,-0.2094135 0.766575,-0.00455 0.786513,0.010346 0.927177,0.6908433 0.21579,1.04395881 0.849459,2.09200721 1.684198,2.78558511 0.733606,0.6095511 2.013713,1.3424331 2.13891,1.2245532 0.03496,-0.033007 0.319087,-0.5011546 0.631187,-1.0403189 0.675944,-1.1677382 2.131563,-2.4173971 3.477196,-2.98520831 0.535812,-0.2260918 0.973565,-0.4835549 0.972778,-0.5721414 -5.91e-4,-0.088585 0.359047,-0.1631817 0.799601,-0.1657707 0.740065,-0.00435 0.801401,0.029576 0.806099,0.4458058 0.0143,1.26750691 1.100691,2.82912251 2.57426,3.70021771 0.984592,0.582029 1.468648,0.7149476 1.465919,0.4025199 -5.98e-4,-0.095776 0.238625,-0.5827939 0.532165,-1.0822634 0.599999,-1.0209526 2.208454,-2.33719081 3.429801,-2.80668181 0.438468,-0.1685459 0.798717,-0.398611 0.800569,-0.5112582 0.0025,-0.128226 0.296315,-0.206532 0.786778,-0.2094136 0.766581,-0.00455 0.786519,0.010353 0.927176,0.690844 0.314668,1.52221721 1.475824,2.92839681 3.080809,3.73093641 0.741137,0.3705841 0.95937,0.3156941 1.138472,-0.2863354 0.345806,-1.1624775 2.06759,-2.766013 3.71754,-3.46223391 0.53288,-0.2248584 0.96824,-0.4813115 0.96746,-0.5698979 -5.9e-4,-0.088585 0.35905,-0.1631819 0.799612,-0.1657696 0.75587,-0.00448 0.80126,0.022901 0.80531,0.4850105 0.006,0.6647557 0.67128,2.02041361 1.33715,2.72405801 0.47383,0.5007381 2.15354,1.5168525 2.50406,1.5147944 0.0664,-3.912e-4 0.23936,-0.2778755 0.38426,-0.6166321 0.57845,-1.3524047 2.15722,-2.7867425 3.78075,-3.43488221 0.4398,-0.1755754 0.79987,-0.4113886 0.80016,-0.5240248 2.7e-4,-0.1286158 0.2919,-0.2065073 0.7839,-0.2093973 0.76657,-0.00455 0.7865,0.010353 0.92718,0.6908433 0.3055,1.47792471 1.5171,2.95458521 3.04997,3.71722351 0.77424,0.3851957 0.98886,0.333893 1.1715,-0.2800043 0.36386,-1.2231794 2.02719,-2.7437803 3.83623,-3.50704261 0.46637,-0.1967801 0.84734,-0.4300042 0.84657,-0.5182755 -6.1e-4,-0.088273 0.35905,-0.1626124 0.79961,-0.1652015 0.76923,-0.00455 0.80138,0.016416 0.81045,0.5276953 0.005,0.2928232 0.23603,0.97342191 0.51299,1.51244391 0.33268,0.6474194 0.50383,1.2858611 0.50427,1.8811183 l 6.1e-4,0.9010776 -0.62004,-0.5697724 C 122.03284,3.5034195 121.481,2.7877953 121.14753,2.2265172 l -0.60629,-1.0205061 -0.61627,0.2904382 c -4.05817,1.9125357 -4.26906,6.666561 -0.38975,8.7858297 0.99,0.540836 1.2516,0.535908 1.4162,-0.02669 0.15716,-0.5371247 1.13543,-1.8461487 1.69219,-2.2643407 0.39047,-0.293289 0.39574,-0.285001 0.40382,0.635788 0.006,0.650231 -0.12547,1.142763 -0.43289,1.6253087 -0.63855,1.00232 -0.62003,3.318472 0.035,4.38657 0.44221,0.720985 0.6702,2.449474 0.32181,2.439774 -0.25836,-0.0072 -1.4342,-1.364446 -1.87533,-2.164691 l -0.42158,-0.764797 -0.73909,0.317178 c -3.27244,1.404349 -4.08577,5.466249 -1.55815,7.781656 0.76087,0.696993 1.93436,1.404671 2.32544,1.402373 0.0988,-5.81e-4 0.33217,-0.360463 0.51855,-0.799739 0.18638,-0.439276 0.69348,-1.12421 1.12689,-1.522077 l 0.78801,-0.723394 0.016,0.890221 c 0.0109,0.603298 -0.12706,1.132149 -0.42798,1.640847 -0.63444,1.072558 -0.61215,3.376557 0.0429,4.423824 0.31156,0.498214 0.45296,1.008936 0.4528,1.635671 l -2e-4,0.911269 -0.80064,-0.71406 c -0.44034,-0.392733 -0.95941,-1.071639 -1.15349,-1.508679 -0.19407,-0.43704 -0.43371,-0.794147 -0.53254,-0.793565 -0.39107,0.0022 -1.55202,0.72369 -2.30057,1.429551 -2.46151,2.321112 -1.64658,6.237354 1.60372,7.706779 l 0.80073,0.362001 0.61745,-1.025895 c 0.33962,-0.564242 0.88349,-1.285495 1.20862,-1.602784 l 0.59112,-0.576888 0.0139,0.97215 c 0.01,0.68426 -0.11757,1.194436 -0.43009,1.722774 -0.63629,1.075685 -0.61415,3.391817 0.042,4.386529 0.57142,0.866371 0.68908,2.689282 0.1503,2.328792 -0.50482,-0.337769 -1.41624,-1.479234 -1.71609,-2.149233 -0.2938,-0.656507 -0.45147,-0.712141 -1.1256,-0.397163 -2.74964,1.284711 -3.92951,4.475075 -2.48739,6.725864 0.75371,1.176326 2.3526,2.407347 3.11142,2.395564 0.15928,-0.0023 0.49115,-0.391478 0.73752,-0.864456 0.24635,-0.472978 0.75515,-1.156665 1.13065,-1.519304 l 0.68275,-0.659344 0.0152,0.888138 c 0.0101,0.587571 -0.1588,1.25175 -0.49919,1.962568 -0.44023,0.919326 -0.49993,1.252645 -0.41344,2.308947 0.0677,0.826679 0.24635,1.461536 0.54082,1.921698 0.30663,0.479204 0.43978,0.974266 0.43993,1.635746 l 1.8e-4,0.948568 -0.62005,-0.569774 c -0.34102,-0.313375 -0.89206,-1.027586 -1.2245,-1.587137 l -0.60447,-1.017364 -0.59207,0.254899 c -0.84279,0.362844 -2.07525,1.429902 -2.55378,2.21104 -0.85076,1.38883 -0.8618,3.348781 -0.0261,4.647824 0.6361,0.988824 2.54731,2.386143 3.25797,2.381968 0.10367,-6.08e-4 0.24794,-0.204199 0.32055,-0.452424 0.15717,-0.537125 1.13542,-1.846148 1.6922,-2.264341 0.39047,-0.293289 0.39574,-0.285001 0.40382,0.635789 0.006,0.650229 -0.12548,1.142765 -0.43289,1.625309 -0.63856,1.002319 -0.62003,3.318471 0.035,4.38657 0.45303,0.738609 0.66614,2.442817 0.30575,2.444933 -0.25113,0.0016 -1.41344,-1.361094 -1.87445,-2.197424 l -0.40713,-0.738564 -0.60101,0.258749 c -3.40109,1.464249 -4.27004,5.483018 -1.69549,7.841426 0.70566,0.646425 1.92848,1.404705 2.26208,1.402745 0.0639,-3.77e-4 0.38116,-0.463021 0.70486,-1.028099 0.32369,-0.565077 0.86304,-1.245564 1.19853,-1.512191 l 0.61002,-0.484775 0.009,0.92664 c 0.006,0.643953 -0.12744,1.141393 -0.43628,1.630588 -0.36533,0.578664 -0.44211,0.966347 -0.43148,2.178369 0.0105,1.198189 0.0986,1.614057 0.47009,2.219751 0.30178,0.492047 0.45975,1.043659 0.46484,1.623202 l 0.008,0.87787 -0.52544,-0.394098 c -0.63617,-0.477146 -1.69325,-1.915496 -1.69934,-2.312237 -0.0169,-1.10071 -3.0801,1.161992 -3.7038,2.735877 -0.88174,2.225002 0.0416,4.557909 2.34251,5.918483 0.51677,0.305584 0.99869,0.557086 1.07095,0.558896 0.0723,0.0018 0.40036,-0.459072 0.72916,-1.024178 0.54084,-0.929514 1.42662,-1.933421 1.70735,-1.93507 0.31489,-0.0018 0.0842,1.766239 -0.31935,2.448603 -0.63628,1.075688 -0.61415,3.391819 0.042,4.386532 0.31497,0.477545 0.45567,0.970011 0.46133,1.614728 0.008,0.846303 -0.0212,0.908085 -0.32736,0.704735 -0.48014,-0.318957 -1.64075,-1.815979 -1.80106,-2.323119 -0.16577,-0.524242 -0.38138,-0.532913 -1.3258,-0.0533 -2.49588,1.267504 -3.52793,4.179407 -2.26569,6.392795 0.55667,0.97614 1.77443,2.073656 2.75137,2.479706 l 0.59648,0.24791 0.58653,-1.02436 c 0.32261,-0.563396 0.86104,-1.284006 1.19653,-1.601356 l 0.60999,-0.577 -0.005,0.98304 c -0.004,0.64706 -0.16424,1.291916 -0.46979,1.886836 z m -3.13993,-11.631941 c -1.33159,-0.515516 -2.90961,-1.840687 -3.60279,-3.025524 l -0.58202,-0.994833 -0.7149,0.303677 c -0.93575,0.397496 -2.11879,1.497186 -2.634,2.448459 -0.30139,0.556453 -0.40759,1.088453 -0.397,1.988384 0.0154,1.308602 0.31284,2.062247 1.24117,3.145237 0.45985,0.536472 2.10914,1.586237 2.4886,1.584007 0.0761,-4.39e-4 0.41861,-0.474934 0.76103,-1.054415 0.71578,-1.21135 2.57805,-2.756861 3.69359,-3.065331 0.54132,-0.149686 0.70674,-0.28545 0.70417,-0.577893 -0.003,-0.294144 -0.22333,-0.467409 -0.95785,-0.751768 z m -0.25592,-12.980392 c -1.37577,-0.577827 -2.80536,-1.79761 -3.46737,-2.958456 -0.28003,-0.491074 -0.62421,-0.892185 -0.76483,-0.891358 -0.46295,0.0027 -1.86352,0.962251 -2.46542,1.689057 -0.6486,0.783194 -1.2207,2.198224 -1.21365,3.001802 0.007,0.775713 0.53333,2.034746 1.21034,2.894192 0.59549,0.755931 2.05051,1.755893 2.55071,1.752955 0.14061,-8.46e-4 0.4777,-0.40594 0.74909,-0.900252 0.64156,-1.168506 2.04961,-2.404959 3.41508,-2.99889 0.7656,-0.33301 1.08727,-0.570409 1.08524,-0.800942 -0.003,-0.230534 -0.32782,-0.464128 -1.09919,-0.788108 z m -0.0331,-12.873204 c -1.2813,-0.501107 -2.88846,-1.87122 -3.54458,-3.021757 -0.28182,-0.494177 -0.58235,-0.898093 -0.66784,-0.897591 -0.3067,0.0018 -1.77416,0.92167 -2.28696,1.433569 -1.43301,1.430502 -1.83488,3.718458 -0.93487,5.32257 0.52982,0.944341 1.73194,2.030454 2.67543,2.417266 l 0.72014,0.295249 0.56452,-1.001571 c 0.67231,-1.192859 2.22689,-2.536436 3.54929,-3.067543 1.30229,-0.523023 1.28062,-0.94996 -0.0752,-1.480192 z m -0.43051,-13.05367 c -1.5242,-0.717237 -2.45164,-1.549399 -3.21116,-2.881254 -0.2909,-0.510117 -0.60542,-0.927038 -0.69891,-0.926489 -0.34228,0.0019 -1.90007,1.104758 -2.53104,1.79169 -1.67956,1.828562 -1.51642,4.696285 0.35902,6.310949 0.60372,0.51976 2.02998,1.400517 2.26569,1.399133 0.0832,-4.89e-4 0.4192,-0.47804 0.74657,-1.061227 0.70347,-1.253205 1.9863,-2.375363 3.39491,-2.96975 1.39561,-0.588905 1.33869,-0.88014 -0.32508,-1.663052 z m 0.26663,-12.697504 c -1.33163,-0.515515 -2.90965,-1.840689 -3.60282,-3.025525 l -0.58203,-0.994834 -0.7149,0.303678 c -0.93574,0.397495 -2.11878,1.497186 -2.63401,2.448459 -0.30138,0.556453 -0.40759,1.088454 -0.39698,1.988384 0.0155,1.308602 0.31284,2.062245 1.24116,3.145236 0.45984,0.53647 2.10914,1.586241 2.48861,1.584011 0.0761,-4.47e-4 0.41278,-0.463205 0.74811,-1.028352 0.3353,-0.565146 0.93267,-1.302039 1.32747,-1.637541 0.81955,-0.696465 2.42546,-1.620211 2.82074,-1.622533 0.14765,-8.51e-4 0.26451,-0.177314 0.26257,-0.396511 -0.003,-0.309301 -0.21044,-0.475079 -0.95795,-0.764472 z m -0.25592,-12.980394 c -1.37575,-0.577827 -2.80536,-1.797608 -3.46737,-2.958456 -0.28005,-0.491074 -0.59447,-0.892357 -0.69872,-0.891746 -0.39059,0.0021 -1.76229,0.836619 -2.23362,1.358557 -1.03026,1.140928 -1.39224,1.963061 -1.39492,3.168171 -9.5e-4,0.630766 0.11152,1.44888 0.25094,1.81803 0.34544,0.914554 1.52723,2.119525 2.63207,2.683677 l 0.91444,0.466914 0.64958,-1.119069 c 0.73487,-1.265951 2.12191,-2.451107 3.54077,-3.025378 1.27557,-0.516281 1.22555,-0.904835 -0.19317,-1.5007 z m 0.29945,-12.718356 c -1.14641,-0.302072 -3.19664,-1.9539747 -3.8292,-3.0852327 -0.30441,-0.544454 -0.62311,-0.989507 -0.70819,-0.989007 -0.4494,0.0026 -2.07376,1.113186 -2.60736,1.782597 -1.683,2.1114387 -1.46284,4.6000267 0.56726,6.4120037 0.42124,0.375982 1.10191,0.82136 1.51259,0.989734 l 0.74671,0.30613 0.453,-0.939419 c 0.54587,-1.132062 2.22321,-2.597695 3.60771,-3.152385 0.72976,-0.292377 0.94712,-0.467745 0.94456,-0.762019 -0.003,-0.289585 -0.1691,-0.425915 -0.68708,-0.562402 z m -4.7586,83.785485 c -1.35244,-0.497989 -2.92386,-1.797627 -3.5969,-2.974759 -0.30713,-0.537185 -0.66131,-0.976093 -0.78708,-0.975355 -0.12577,7.81e-4 -0.60037,0.224972 -1.05467,0.498293 -2.39468,1.440684 -3.22631,4.091027 -1.98852,6.337251 0.52089,0.94526 1.20668,1.569926 2.40855,2.193886 l 0.88061,0.45719 0.63673,-1.10249 c 0.72095,-1.248296 2.14183,-2.455886 3.56965,-3.033766 1.24937,-0.505685 1.22902,-0.922528 -0.0684,-1.40025 z m -0.43314,-13.053647 c -1.48531,-0.668116 -2.51735,-1.564878 -3.28594,-2.855206 -0.2958,-0.496599 -0.56284,-0.930149 -0.59342,-0.963442 -0.0306,-0.0333 -0.45496,0.134102 -0.9431,0.371995 -1.8782,0.915354 -3.02178,2.809922 -2.8418,4.708014 0.12041,1.269901 0.68233,2.251709 1.85313,3.237956 0.73136,0.616066 1.92106,1.287161 2.01028,1.133962 1.40766,-2.41759 2.30064,-3.287701 4.16881,-4.061976 1.30154,-0.539443 1.22804,-0.853399 -0.36796,-1.571303 z m 0.0556,-12.806555 c -1.40566,-0.571485 -2.91461,-1.884829 -3.52734,-3.070075 -0.25747,-0.498045 -0.5258,-0.905195 -0.59628,-0.904781 -0.25429,0.0016 -1.97122,1.093247 -2.34644,1.49205 -2.27623,2.419338 -1.67489,5.869407 1.30443,7.483935 0.53462,0.28971 1.03321,0.526388 1.10799,0.525948 0.0748,-4.39e-4 0.38728,-0.457379 0.69448,-1.015422 0.66571,-1.209286 2.0547,-2.415491 3.46857,-3.012096 1.37342,-0.579538 1.35035,-0.907699 -0.10541,-1.499559 z m -0.0868,-12.902878 c -1.33633,-0.561259 -2.70914,-1.713049 -3.44535,-2.890641 -0.6905,-1.104495 -0.58568,-1.039796 -1.29,-0.796265 -0.75995,0.262762 -2.04106,1.409171 -2.60679,2.332711 -0.91774,1.498149 -0.63302,3.755911 0.65419,5.187864 0.61486,0.683999 2.09025,1.658639 2.50233,1.653025 0.12112,-0.0017 0.46667,-0.444548 0.76787,-0.984221 0.66991,-1.20033 2.18383,-2.491057 3.52205,-3.002853 1.3664,-0.522559 1.34064,-0.892734 -0.1043,-1.49962 z m -0.0803,-12.870009 c -1.36572,-0.593498 -2.83173,-1.834128 -3.49724,-2.959614 -0.31334,-0.529929 -0.67194,-0.962906 -0.79687,-0.962173 -0.42057,0.0024 -1.87428,0.989634 -2.47989,1.684003 -2.14611,2.460679 -1.07028,6.217583 2.1574,7.53386 l 0.58689,0.239334 0.62828,-1.087778 c 0.71359,-1.23549 2.14124,-2.444353 3.56935,-3.022371 1.18484,-0.479563 1.14042,-0.856693 -0.16792,-1.425261 z m -0.0802,-12.886299 c -1.394,-0.56763 -2.79631,-1.736703 -3.50213,-2.919661 -0.32078,-0.537616 -0.60826,-1.004723 -0.63884,-1.038019 -0.0306,-0.03329 -0.45497,0.134105 -0.9431,0.371997 -3.23671,1.577426 -3.82911,5.588944 -1.16033,7.857261 0.57032,0.484733 2.08466,1.342734 2.179,1.234584 0.0313,-0.0359 0.34306,-0.559788 0.69275,-1.164199 0.70889,-1.225212 2.05639,-2.352592 3.51512,-2.940903 1.22093,-0.492408 1.18342,-0.861151 -0.14247,-1.40106 z m 0.0174,-12.848616 c -0.49522,-0.192539 -1.34525,-0.672582 -1.88897,-1.066764 -0.86451,-0.626747 -1.17643,-1.015574 -2.38886,-2.977782 -0.0763,-0.123384 -0.98119,0.386693 -1.80735,1.018729 -2.2847,1.747836 -2.65596,4.458916 -0.90427,6.603134 0.56194,0.687856 2.27909,1.859979 2.71181,1.851066 0.0637,-0.0014 0.36978,-0.457224 0.68011,-1.013136 0.67419,-1.207645 2.07385,-2.419457 3.47965,-3.012656 1.3163,-0.555433 1.34732,-0.92458 0.11788,-1.402591 z M 114.29526,5.3687494 c -1.42985,-0.5579533 -2.88007,-1.7523726 -3.61319,-2.97586 l -0.64668,-1.0792245 -0.69762,0.2979803 c -0.85547,0.3654267 -2.00156,1.3962795 -2.55282,2.2961659 -0.92196,1.5050633 -0.64162,3.7808462 0.64163,5.2083702 0.61874,0.688302 2.08883,1.6571607 2.51073,1.6546827 0.12576,-7.81e-4 0.46616,-0.432789 0.75644,-0.9601117 0.65439,-1.188747 2.21224,-2.526537 3.5282,-3.029812 1.31949,-0.5046249 1.34092,-0.9175381 0.0732,-1.4121909 z M 109.4824,89.121839 c -1.44887,-0.65777 -2.66843,-1.707651 -3.39663,-2.924058 l -0.61078,-1.020272 -0.59881,0.257805 c -0.87555,0.376942 -2.078,1.466406 -2.59428,2.350502 -0.52918,0.906177 -0.69456,2.580251 -0.35423,3.58545 0.12592,0.371896 0.5237,1.029014 0.88395,1.460265 0.65085,0.779093 2.1834,1.853484 2.63248,1.845498 0.12911,-0.0019 0.45204,-0.428116 0.71763,-0.946265 0.57048,-1.112917 2.28779,-2.603307 3.54183,-3.073805 1.22062,-0.457957 1.15547,-0.910159 -0.22116,-1.53512 z m -0.01,-12.844464 c -1.28885,-0.505674 -2.86239,-1.823243 -3.47216,-2.90734 -0.27531,-0.489463 -0.52402,-0.918148 -0.55266,-0.952636 -0.16833,-0.202559 -1.40817,0.484073 -2.24294,1.242154 -1.2459,1.131436 -1.66509,2.139099 -1.5515,3.72957 0.0984,1.377439 0.60885,2.296488 1.84712,3.325657 0.72979,0.60655 1.88087,1.173746 2.03508,1.002779 0.0315,-0.03484 0.31221,-0.507195 0.62395,-1.049675 0.66097,-1.15018 2.0771,-2.362913 3.36648,-2.882928 1.2703,-0.512314 1.25322,-0.994951 -0.0534,-1.507581 z m -0.25881,-12.970491 c -1.36824,-0.574675 -2.55637,-1.598069 -3.28136,-2.826401 -0.30594,-0.518359 -0.57993,-0.972737 -0.60885,-1.009731 -0.0289,-0.03699 -0.27269,0.01634 -0.54172,0.118536 -0.85816,0.32599 -2.11632,1.39192 -2.65705,2.251094 -0.45283,0.719543 -0.52277,1.032915 -0.5149,2.307086 0.0107,1.731131 0.42352,2.583702 1.78136,3.678675 0.74929,0.604245 1.92789,1.240013 2.04487,1.103046 0.0249,-0.02932 0.20164,-0.405673 0.39242,-0.836341 0.44362,-1.001269 2.07305,-2.482676 3.43304,-3.121159 1.43707,-0.674665 1.42641,-1.045628 -0.0478,-1.664805 z m 0.15279,-12.794364 c -1.53065,-0.541763 -3.21057,-2.032178 -3.8164,-3.385888 -0.15083,-0.337019 -0.33605,-0.612399 -0.41162,-0.611956 -0.4404,0.0025 -2.17092,1.195491 -2.7142,1.870979 -0.77387,0.96216 -1.03953,1.711404 -1.02909,2.902174 0.0104,1.19077 0.28926,1.936815 1.07991,2.889784 0.56639,0.682627 2.30913,1.841466 2.76531,1.838787 0.0857,-5.04e-4 0.21534,-0.20401 0.28798,-0.452234 0.34906,-1.192948 2.59593,-3.272199 3.9925,-3.694633 0.54359,-0.164427 0.68618,-0.296937 0.68322,-0.634838 -0.003,-0.343394 -0.16707,-0.484846 -0.83761,-0.722175 z m -0.23385,-12.929628 c -1.26849,-0.516522 -2.97569,-1.997459 -3.59219,-3.116089 l -0.49763,-0.902967 -0.60934,0.262335 c -1.79145,0.771258 -3.02141,2.473963 -3.12395,4.324616 -0.0751,1.356009 0.23763,2.205671 1.21006,3.287427 0.60272,0.67048 2.08015,1.641491 2.48614,1.633951 0.12113,-0.002 0.42335,-0.395887 0.67161,-0.874752 0.61917,-1.194323 1.98209,-2.435288 3.30812,-3.012083 1.46164,-0.635783 1.49984,-1.051635 0.14718,-1.602438 z m -0.096,-12.877518 c -1.38715,-0.591612 -2.75611,-1.751901 -3.42166,-2.900101 -0.32148,-0.554592 -0.68358,-1.008534 -0.80469,-1.008761 -0.43672,-8.46e-4 -1.87819,0.931992 -2.46596,1.595768 -1.21034,1.366861 -1.52833,3.276065 -0.81269,4.879272 0.52953,1.186262 2.54577,2.866047 3.43386,2.86083 0.0953,-5.61e-4 0.37986,-0.41702 0.63224,-0.925467 0.54644,-1.100832 2.08774,-2.443688 3.44452,-3.001014 1.27353,-0.523134 1.27192,-0.955673 -0.005,-1.500527 z m -0.0249,-12.880233 c -1.26216,-0.455716 -3.00547,-1.9257757 -3.59542,-3.0318747 -0.27468,-0.514971 -0.60505,-0.936948 -0.73419,-0.937728 -0.44918,-0.0027 -1.9627,1.089577 -2.59981,1.87623 -0.82765,1.0219587 -1.09569,1.8928707 -0.99019,3.2173007 0.13361,1.677069 0.98346,2.867837 2.78225,3.898222 0.97434,0.558151 1.227,0.616764 1.22407,0.283978 -0.004,-0.421404 1.02009,-1.835619 1.8457,-2.549626 0.45606,-0.394398 1.30035,-0.940902 1.87621,-1.21445 1.36194,-0.646958 1.41806,-1.099149 0.19138,-1.542052 z m -4.25067,83.996446 c -1.59292,-0.528852 -3.75896,-2.427572 -4.12052,-3.612005 -0.16127,-0.52829 -0.38207,-0.554289 -1.192622,-0.140443 -2.23422,1.140739 -3.384835,3.411258 -2.77754,5.480995 0.45945,1.56587 1.60436,2.825136 3.15423,3.469306 l 0.552522,0.22964 0.72101,-1.21537 c 0.77734,-1.310316 1.8382,-2.218806 3.39217,-2.904976 1.11907,-0.49411 1.22207,-0.991308 0.27075,-1.307147 z m -0.18342,-12.909398 c -1.4558,-0.421014 -4.12591,-2.87693 -4.1402,-3.808061 -0.006,-0.412047 -0.43148,-0.351841 -1.329142,0.188214 -1.50567,0.905847 -2.23462,1.842595 -2.6475,3.402194 -0.505809,1.910616 0.86171,4.297804 3.01887,5.269831 l 0.824232,0.371406 0.56611,-1.041214 c 0.67668,-1.244595 2.25272,-2.603276 3.5273,-3.040827 0.72041,-0.247311 0.88508,-0.38195 0.88272,-0.721648 -0.003,-0.328429 -0.1523,-0.46081 -0.70239,-0.619895 z m -0.5231,-13.114526 c -1.47883,-0.671368 -2.57629,-1.612923 -3.34798,-2.872435 l -0.63519,-1.036641 -0.586582,0.252549 c -3.386616,1.458004 -4.249997,5.482016 -1.68112,7.835227 0.71744,0.657202 1.92973,1.404696 2.274842,1.40267 0.071,-4.18e-4 0.34484,-0.407745 0.60854,-0.905175 0.61197,-1.154386 2.21624,-2.564668 3.49127,-3.069099 1.37827,-0.54528 1.34796,-0.938953 -0.12378,-1.607096 z m 0.0837,-12.777615 c -1.56588,-0.667834 -2.64258,-1.563772 -3.44284,-2.864819 l -0.742262,-1.206776 -0.58296,0.250975 c -0.84073,0.361946 -2.06932,1.43113 -2.55434,2.222919 -1.436235,2.344542 -0.37524,5.351357 2.36933,6.714619 0.816932,0.405787 1.037462,0.377485 1.192692,-0.153049 0.34892,-1.192435 2.15422,-2.879815 3.78895,-3.541463 1.20061,-0.485938 1.19226,-0.901731 -0.0286,-1.422406 z m -0.0973,-12.918671 c -1.64619,-0.642373 -3.48093,-2.308367 -3.85073,-3.496579 -0.0769,-0.247346 -0.224792,-0.449222 -0.328462,-0.448612 -0.70404,0.0042 -2.6401,1.449764 -3.21122,2.397751 -0.817064,1.356206 -0.774407,3.286674 0.10315,4.669288 0.49013,0.772224 1.74231,1.827517 2.58315,2.176992 l 0.5873,0.244102 0.721012,-1.215372 c 0.78778,-1.327905 1.93317,-2.298901 3.41841,-2.897906 1.20839,-0.48735 1.20104,-0.952165 -0.0226,-1.429664 z m -0.22859,-12.965868 c -1.32847,-0.506447 -3.09263,-2.044735 -3.56505,-3.108583 -0.19873,-0.447536 -0.461852,-0.81311 -0.584662,-0.812387 -0.34674,0.002 -1.72926,0.883471 -2.36047,1.504937 -2.37481,2.338136 -1.513543,6.181133 1.71091,7.634004 l 0.81069,0.365289 0.580322,-1.028793 c 0.67537,-1.197283 1.89948,-2.271939 3.3792,-2.966663 1.40706,-0.660591 1.41435,-1.059687 0.0291,-1.587804 z m -0.19391,-12.934952 c -1.48474,-0.674036 -2.66161,-1.685161 -3.38665,-2.909649 l -0.605062,-1.02183 -0.80105,0.374527 c -3.230959,1.510638 -3.979711,5.43357 -1.47502,7.727987 0.76088,0.696992 1.93436,1.40467 2.32545,1.402372 0.0988,-5.8e-4 0.335832,-0.369092 0.526682,-0.818915 0.45369,-1.069291 2.19067,-2.628147 3.51012,-3.150151 1.3867,-0.548616 1.36349,-0.942437 -0.0945,-1.604341 z m 0.0419,-12.7959061 C 102.23651,4.7974419 100.8406,3.6049775 100.13388,2.3922304 L 99.511298,1.323871 98.784038,1.6848479 c -1.61657,0.8023923 -2.65519,2.042376 -2.997325,3.5784204 -0.20677,0.9283345 0.04918,2.383281 0.564535,3.208528 0.58771,0.94118 2.54896,2.3639087 3.253,2.3597737 0.10367,-6.09e-4 0.2479,-0.204199 0.32054,-0.452425 0.348912,-1.1924337 2.154212,-2.8798137 3.788942,-3.5414617 1.20852,-0.4891401 1.19313,-0.9013566 -0.0536,-1.4330324 z M 99.173138,89.294108 c -1.68723,-0.649358 -3.35599,-2.237083 -3.96742,-3.774732 -0.109799,-0.276079 -0.155008,-0.27432 -0.881476,0.03427 -0.421148,0.178902 -1.104958,0.636916 -1.519555,1.017807 -2.010829,1.847355 -2.17531,4.325604 -0.428122,6.450245 0.5577,0.678173 2.144524,1.722295 2.613305,1.719539 0.08054,-4.77e-4 0.369813,-0.40786 0.642936,-0.905299 0.639522,-1.164844 2.245182,-2.569458 3.508552,-3.069284 1.342432,-0.531095 1.351772,-0.964526 0.0318,-1.47255 z m -0.25596,-12.982572 c -1.37576,-0.577826 -2.805374,-1.797609 -3.467379,-2.958456 -0.280038,-0.491072 -0.630733,-0.892144 -0.779303,-0.891273 -0.44347,0.0025 -1.943573,1.038605 -2.519214,1.73982 -0.576123,0.701807 -1.152084,2.185742 -1.145364,2.950955 0.0076,0.847823 0.632778,2.275487 1.341241,3.062053 0.634189,0.704117 2.019838,1.587444 2.485892,1.584706 0.104248,-6.11e-4 0.411604,-0.405552 0.683003,-0.899863 0.641543,-1.168507 2.049584,-2.404959 3.415074,-2.998891 1.451322,-0.631272 1.448312,-0.974895 -0.0139,-1.589051 z m 0.27655,-12.702237 c -1.14159,-0.33015 -3.024259,-1.858277 -3.751311,-3.044889 -0.352555,-0.575404 -0.703309,-1.045822 -0.779449,-1.045375 -0.435464,0.0025 -2.066896,1.124873 -2.591094,1.782501 -1.683008,2.111441 -1.462858,4.600029 0.567258,6.412006 0.421246,0.375981 1.089964,0.816463 1.486043,0.978849 l 0.720157,0.295247 0.564507,-1.001569 c 0.679293,-1.205273 2.341359,-2.638952 3.595839,-3.101764 1.170462,-0.431817 1.249562,-0.968024 0.18805,-1.275006 z M 98.447278,50.3847 c -1.4899,-0.697821 -2.867969,-1.95421 -3.305819,-3.013955 -0.147333,-0.356595 -0.344063,-0.686258 -0.437178,-0.732581 -0.245756,-0.122266 -1.343689,0.48345 -2.19344,1.210088 -2.143981,1.833363 -2.209623,5.048993 -0.139448,6.831307 0.60371,0.519759 2.029963,1.400518 2.265698,1.399133 0.08327,-4.89e-4 0.419171,-0.478041 0.746541,-1.061226 0.703484,-1.253204 1.986296,-2.375364 3.394916,-2.969752 1.397332,-0.589622 1.339372,-0.880545 -0.33127,-1.663014 z m 0.31994,-12.66387 c -1.26251,-0.448026 -2.949554,-1.862029 -3.649951,-3.059196 l -0.582018,-0.994835 -0.714898,0.30368 c -0.936608,0.397858 -2.119541,1.497983 -2.63273,2.448451 -0.628067,1.163205 -0.572575,2.947542 0.127972,4.115129 0.296315,0.493855 0.752088,1.089239 1.012849,1.323074 0.48852,0.438088 1.92749,1.280981 2.18429,1.279473 0.07967,-4.68e-4 0.426835,-0.478103 0.771512,-1.061412 0.696783,-1.179174 2.588324,-2.74744 3.730514,-3.09293 1.018472,-0.30807 0.91212,-0.849887 -0.24756,-1.261434 z m -0.30305,-13.014063 c -1.37577,-0.577828 -2.805368,-1.797609 -3.467373,-2.958458 -0.280048,-0.491073 -0.615209,-0.891865 -0.744807,-0.890649 -0.129589,0.0014 -0.682436,0.283208 -1.228523,0.626647 -1.147651,0.721764 -2.174967,2.19853 -2.394108,3.441532 -0.179755,1.019619 0.328885,2.601161 1.143225,3.55472 0.613197,0.718026 2.099552,1.716995 2.550764,1.714344 0.135442,-8e-4 0.468295,-0.405885 0.739694,-0.900197 0.641553,-1.168507 2.049598,-2.404958 3.415068,-2.99889 1.45133,-0.631273 1.44832,-0.974895 -0.0139,-1.589049 z m 0.01,-12.857751 c -1.36981,-0.522065 -2.800081,-1.710717 -3.508191,-2.9152327 -0.329921,-0.561238 -0.666047,-1.020044 -0.74692,-1.019569 -0.442866,0.0026 -2.070524,1.118648 -2.599713,1.782552 -1.683014,2.1114397 -1.462851,4.6000277 0.567252,6.4120047 0.421246,0.37598 1.113014,0.825913 1.537277,0.999849 0.732097,0.300147 0.777374,0.301364 0.889121,0.02387 0.642819,-1.596187 2.351184,-3.26675 3.940164,-3.852958 1.26415,-0.466384 1.23855,-0.928099 -0.0793,-1.430519 z m -4.511989,83.892925 c -1.379204,-0.525785 -2.885591,-1.775147 -3.55768,-2.950654 -0.304653,-0.532868 -0.656831,-0.968244 -0.782587,-0.967506 -0.125777,7.8e-4 -0.600376,0.224969 -1.054687,0.498293 -2.394669,1.440686 -3.226307,4.091036 -1.988505,6.33724 0.520174,0.94398 1.206555,1.569846 2.402726,2.190926 l 0.87477,0.45421 0.671713,-1.11844 c 0.758931,-1.263636 2.153721,-2.448226 3.546317,-3.011866 1.261934,-0.51076 1.229853,-0.920628 -0.112067,-1.432203 z M 93.83379,82.859278 c -1.394007,-0.567631 -2.796303,-1.736703 -3.50214,-2.919662 -0.320782,-0.537614 -0.60824,-1.004722 -0.638822,-1.038017 -0.166178,-0.180932 -1.958079,0.926414 -2.562114,1.583317 -2.090601,2.273568 -1.497282,5.558609 1.306285,7.232465 0.613795,0.366468 1.178201,0.66594 1.254211,0.665494 0.07603,-4.47e-4 0.348311,-0.425964 0.605048,-0.945595 0.562119,-1.13765 2.247699,-2.605487 3.626226,-3.15778 C 95.2,83.767667 95.177435,83.406421 93.833764,82.859278 Z M 93.79688,69.975651 c -1.324678,-0.496246 -2.979989,-1.874265 -3.620273,-3.013818 -0.291083,-0.518058 -0.553436,-0.966184 -0.58298,-0.995838 -0.112901,-0.113293 -0.978659,0.369324 -1.827681,1.018849 -2.284685,1.747837 -2.655949,4.458917 -0.904262,6.603135 0.561916,0.687854 2.279095,1.859979 2.711805,1.851066 0.06368,-0.0014 0.369769,-0.457225 0.680114,-1.013136 0.674196,-1.207647 2.073848,-2.419457 3.479642,-3.012658 1.347569,-0.568623 1.364447,-0.950289 0.0636,-1.4376 z m -0.07509,-12.8786 c -1.341706,-0.523565 -2.86122,-1.749266 -3.56226,-2.873471 -0.748787,-1.20077 -0.647193,-1.116801 -1.179723,-0.975078 -0.725931,0.193191 -2.174174,1.411049 -2.734498,2.299498 -0.446188,0.707473 -0.521319,1.034383 -0.513215,2.232925 0.0084,1.240155 0.08073,1.51601 0.619261,2.362432 0.589777,0.926927 2.406801,2.361698 2.981533,2.354284 0.133549,-0.0018 0.486539,-0.439905 0.784446,-0.973737 0.605965,-1.085855 2.092387,-2.410266 3.257767,-2.902697 1.615099,-0.682456 1.687538,-1.000928 0.346689,-1.524156 z M 93.417358,44.125045 c -1.483486,-0.682835 -2.828119,-1.82514 -3.492254,-2.966736 -0.299843,-0.515421 -0.644294,-0.937317 -0.765456,-0.937545 -0.412109,-7.79e-4 -1.870242,0.991104 -2.47303,1.682256 -1.258064,1.442456 -1.498438,3.721298 -0.550134,5.215373 0.565666,0.891222 1.730475,1.910358 2.587101,2.263552 l 0.696979,0.287371 0.662595,-1.103245 c 0.749534,-1.247997 2.151747,-2.435955 3.537219,-2.996707 1.218555,-0.493201 1.17394,-0.810511 -0.20302,-1.444319 z m -0.03698,-12.870539 c -1.393992,-0.56763 -2.7963,-1.736703 -3.502131,-2.919661 -0.320776,-0.537614 -0.60826,-1.004723 -0.638836,-1.038017 -0.166185,-0.180932 -1.958072,0.926413 -2.562113,1.583316 -1.752024,1.905365 -1.619281,4.734109 0.306492,6.53134 0.397038,0.370534 2.045518,1.367844 2.258877,1.366592 0.07336,-4.33e-4 0.336847,-0.410708 0.58554,-0.911725 0.591863,-1.192323 2.077589,-2.523262 3.473088,-3.111203 1.445203,-0.608901 1.46252,-0.937301 0.07906,-1.500642 z m 0.01741,-12.848616 c -1.447904,-0.562944 -2.801097,-1.660004 -3.561003,-2.886983 -0.375898,-0.606939 -0.704408,-1.132625 -0.730025,-1.168189 -0.07978,-0.110783 -1.686927,0.828787 -2.198077,1.285038 -1.3103,1.169576 -1.911073,3.165634 -1.423761,4.730477 0.342462,1.099715 1.429019,2.355293 2.560651,2.958978 0.527298,0.281297 1.010866,0.510373 1.074567,0.509063 0.06369,-0.0014 0.370868,-0.459189 0.682584,-1.0175 0.662479,-1.186635 2.112105,-2.432277 3.523793,-3.027962 1.268048,-0.535068 1.28736,-0.910098 0.0713,-1.382922 z M 93.268493,5.49228 C 91.866143,4.9450541 90.4507,3.7769727 89.669659,2.5223721 l -0.69128,-1.1104164 -0.866758,0.4577251 c -3.766932,1.9892523 -3.903952,6.4144385 -0.264398,8.5388642 0.459055,0.267954 0.933765,0.485843 1.054901,0.484193 0.121149,-0.0017 0.459211,-0.431262 0.75125,-0.9546937 0.64911,-1.163409 2.204464,-2.488704 3.541526,-3.017678 1.318962,-0.5218135 1.340193,-0.9338327 0.07357,-1.4280863 z m -4.810074,83.753633 c -1.38258,-0.628614 -2.877366,-1.935806 -3.494886,-3.056276 l -0.494615,-0.8975 -0.623714,0.268518 c -1.808193,0.778463 -3.156641,2.702403 -3.138925,4.478523 0.01209,1.227786 0.286202,1.967425 1.08128,2.919139 0.648635,0.776424 2.181465,1.850219 2.629777,1.842233 0.129104,-0.0019 0.452044,-0.428105 0.717627,-0.946248 0.570482,-1.112923 2.287802,-2.603315 3.541832,-3.073813 1.219669,-0.457601 1.155294,-0.910024 -0.218376,-1.534576 z m 0.02534,-12.838227 c -1.331136,-0.534132 -2.746189,-1.70521 -3.41514,-2.826351 -0.320873,-0.537776 -0.609605,-1.005976 -0.641657,-1.040442 -0.15719,-0.169139 -1.298206,0.411523 -2.017261,1.026586 -1.369901,1.171769 -1.732099,1.94076 -1.71714,3.645692 0.01508,1.70493 0.390631,2.469587 1.780957,3.625139 0.71964,0.598117 1.898355,1.183002 2.021038,1.00286 0.02371,-0.03478 0.307674,-0.507166 0.631063,-1.049716 0.694692,-1.165517 2.106379,-2.371961 3.373425,-2.882968 1.255523,-0.50636 1.250577,-0.992866 -0.01533,-1.5008 z M 88.172614,63.42447 c -1.326061,-0.55697 -2.560093,-1.631147 -3.29134,-2.86497 -0.292694,-0.493874 -0.555834,-0.928223 -0.58476,-0.965218 -0.02898,-0.03699 -0.272692,0.01634 -0.541712,0.118537 -0.85818,0.32599 -2.116335,1.39192 -2.657047,2.251094 -0.452842,0.719544 -0.522775,1.032915 -0.514912,2.307086 0.0076,1.213892 0.09209,1.609821 0.478734,2.240522 0.539854,0.880601 1.762682,1.954733 2.64091,2.319747 l 0.603281,0.250742 0.589524,-1.027323 c 0.696376,-1.213573 1.900772,-2.278344 3.35101,-2.962563 1.428078,-0.673764 1.411733,-1.043751 -0.07372,-1.667654 z m 0.154474,-12.784317 c -1.552345,-0.575452 -3.202502,-2.046025 -3.80397,-3.38999 -0.150829,-0.337019 -0.336055,-0.6124 -0.411609,-0.611956 -0.44041,0.0025 -2.17093,1.195491 -2.714228,1.870979 -0.773846,0.96216 -1.03952,1.711404 -1.029077,2.902174 0.01046,1.190769 0.289257,1.936815 1.079922,2.889783 0.555503,0.669533 2.306475,1.841482 2.747457,1.838891 0.07592,-4.46e-4 0.299519,-0.37659 0.496865,-0.835875 0.461265,-1.073539 2.140737,-2.588502 3.465706,-3.126219 0.808251,-0.32801 1.006831,-0.489527 1.006045,-0.818257 -5.98e-4,-0.321712 -0.180352,-0.476068 -0.837111,-0.71953 z M 87.993716,37.636487 c -1.412825,-0.641391 -3.019024,-2.077238 -3.486092,-3.116341 -0.203943,-0.453697 -0.427655,-0.824569 -0.497165,-0.824161 -0.06948,4.09e-4 -0.536831,0.226657 -1.038531,0.502773 -1.715262,0.944031 -2.735518,2.531977 -2.718577,4.23126 0.01222,1.232155 0.285548,1.970963 1.081319,2.923527 0.648629,0.776421 2.181466,1.85021 2.629792,1.842235 0.129084,-0.0021 0.447306,-0.413892 0.707156,-0.914658 0.623784,-1.202202 1.928867,-2.381491 3.291366,-2.974142 1.476089,-0.642066 1.482873,-1.011234 0.03075,-1.670493 z m 0.03951,-12.815055 c -1.298371,-0.504809 -2.735669,-1.70078 -3.416747,-2.843074 -0.32123,-0.538763 -0.61028,-1.007769 -0.642305,-1.042236 -0.181157,-0.194915 -1.403726,0.474724 -2.216122,1.213827 -2.204873,2.00597 -2.18398,4.919864 0.04945,6.890401 0.834628,0.7364 2.070096,1.393586 2.248349,1.195967 0.03133,-0.03484 0.302313,-0.490017 0.601969,-1.011502 0.671816,-1.169164 2.090606,-2.400574 3.348456,-2.906211 1.29625,-0.521079 1.304888,-1.000323 0.0271,-1.497172 z M 87.721661,11.82049 c -1.372767,-0.576583 -2.698424,-1.740415 -3.343245,-2.9351647 -0.268611,-0.497661 -0.594026,-0.905478 -0.723143,-0.906256 -0.449184,-0.0027 -1.962706,1.089578 -2.599807,1.876229 -0.827674,1.0219577 -1.095712,1.8928707 -0.990207,3.2173007 0.13722,1.722375 1.34646,3.299924 3.165883,4.130089 l 0.638348,0.291269 0.480962,-0.907249 c 0.599713,-1.131281 2.069935,-2.455481 3.443,-3.101052 1.427862,-0.671331 1.411876,-1.042002 -0.07182,-1.665166 z m -3.987416,84.124618 c -1.59291,-0.528843 -3.758973,-2.427561 -4.120549,-3.611995 -0.16127,-0.528291 -0.382045,-0.55429 -1.192596,-0.140443 -0.949843,0.484964 -1.864132,1.351079 -2.413111,2.285998 -1.302119,2.217456 -0.07335,5.361206 2.556414,6.540622 l 0.804378,0.36074 0.597133,-1.06376 c 0.702308,-1.251086 2.115711,-2.490226 3.456432,-3.030236 1.176603,-0.47392 1.301821,-1.012271 0.311899,-1.340926 z M 83.580661,83.044346 c -1.165997,-0.337203 -3.076954,-1.883651 -3.770996,-3.05169 -0.343274,-0.577711 -0.696128,-1.04996 -0.784126,-1.049444 -0.292865,0.0017 -1.720272,0.93665 -2.297097,1.504565 -2.377381,2.340649 -1.513587,6.181086 1.717717,7.637094 l 0.81755,0.368376 0.625884,-1.093004 c 0.71309,-1.245247 2.011472,-2.373643 3.419552,-2.971836 1.196236,-0.508201 1.304725,-1.045258 0.271516,-1.344061 z M 83.158044,70.000482 C 81.798392,69.446838 80.449105,68.304264 79.68799,67.062081 l -0.643327,-1.049964 -0.586605,0.252549 c -3.377889,1.454257 -4.243373,5.488068 -1.681097,7.835228 0.717431,0.657201 1.929719,1.404698 2.274839,1.402669 0.071,-4.17e-4 0.344847,-0.407746 0.608532,-0.905173 0.611983,-1.154387 2.216253,-2.56467 3.491272,-3.069099 1.355942,-0.536445 1.357807,-0.977536 0.0058,-1.527809 z m -0.08839,-12.900298 c -1.662122,-0.652125 -3.306684,-2.214304 -3.960524,-3.762117 -0.114917,-0.272048 -0.164521,-0.27393 -0.735953,-0.02792 -0.867545,0.373498 -2.092621,1.433415 -2.584098,2.23573 -1.436226,2.344543 -0.375236,5.351359 2.36933,6.714622 0.816938,0.405785 1.037459,0.377484 1.192706,-0.153051 0.348916,-1.192434 2.15421,-2.879813 3.788946,-3.541463 1.240257,-0.501985 1.218246,-0.9602 -0.07039,-1.4658 z m -0.05544,-12.875276 c -1.646174,-0.642373 -3.4809,-2.308368 -3.850722,-3.496579 -0.07699,-0.247346 -0.224791,-0.449221 -0.328451,-0.448612 -0.835792,0.005 -2.747756,1.544383 -3.362624,2.707506 -1.175335,2.223325 0.07402,5.281891 2.627321,6.431938 l 0.811,0.365287 0.599733,-1.068351 c 0.70494,-1.255821 2.11612,-2.493954 3.458986,-3.034839 1.278198,-0.514842 1.292183,-0.969584 0.04471,-1.45635 z m 0.0719,-12.819405 c -1.137981,-0.299849 -3.020811,-1.825126 -3.733453,-3.024465 -0.341039,-0.573944 -0.672407,-1.043229 -0.7364,-1.042853 -0.333598,0.002 -1.542975,0.774528 -2.237224,1.429178 -2.529932,2.385626 -1.593417,6.396584 1.825296,7.817503 l 0.597777,0.248463 0.588939,-1.049155 c 0.693132,-1.234758 1.786104,-2.195831 3.311778,-2.912096 0.841446,-0.395044 1.100062,-0.606647 1.097488,-0.898039 -0.0025,-0.291271 -0.171065,-0.425416 -0.714234,-0.568536 z M 82.71272,18.39886 c -1.330083,-0.54161 -2.743706,-1.743499 -3.497361,-2.973522 l -0.628905,-1.026415 -0.794278,0.371371 c -3.215572,1.503445 -3.963604,5.438981 -1.468258,7.724828 0.705667,0.646423 1.928483,1.404704 2.262081,1.402744 0.06388,-3.74e-4 0.38764,-0.474471 0.719251,-1.053547 0.67088,-1.171577 2.25076,-2.501221 3.578243,-3.011515 1.153851,-0.443546 1.097403,-0.917546 -0.170773,-1.433944 z M 82.61669,5.50554 C 81.264458,4.9804877 79.831702,3.7590636 79.104763,2.5116545 L 78.486361,1.4504599 77.685318,1.8249853 c -2.633405,1.231254 -3.787906,4.3497177 -2.433621,6.573607 0.565965,0.929403 1.495085,1.7846227 2.453682,2.2585417 0.817576,0.404203 1.037551,0.375715 1.192695,-0.154458 C 79.246981,9.3102413 81.052282,7.6228623 82.687025,6.9612133 83.925756,6.4598401 83.903796,6.0053104 82.616685,5.50554 Z M 78.146433,89.417638 C 76.785638,88.893907 75.046559,87.411222 74.47943,86.291246 l -0.465756,-0.919787 -0.589582,0.253828 c -1.723917,0.742189 -3.027519,2.366722 -3.255285,4.056726 -0.231776,1.719721 0.99217,3.827513 2.741121,4.720544 0.498782,0.254692 0.966981,0.462719 1.040428,0.462291 0.0735,-4.39e-4 0.413728,-0.474913 0.756151,-1.0544 0.715774,-1.21135 2.578061,-2.756858 3.69359,-3.065328 0.541316,-0.149686 0.706747,-0.285449 0.70418,-0.577891 -0.0025,-0.294452 -0.222574,-0.466615 -0.957831,-0.749591 z M 77.890508,76.435067 c -1.375776,-0.577827 -2.805386,-1.797608 -3.467383,-2.958456 -0.280042,-0.491072 -0.634365,-0.892123 -0.787364,-0.891225 -0.517062,0.003 -2.33555,1.401199 -2.80861,2.159435 -0.258427,0.41421 -0.574374,1.175795 -0.7021,1.692407 -0.43141,1.744902 0.645855,3.868069 2.528789,4.983942 0.467269,0.276914 0.960397,0.502829 1.095837,0.502034 0.135439,-8.44e-4 0.46831,-0.405884 0.739695,-0.900197 0.641547,-1.168505 2.049594,-2.404958 3.415075,-2.998891 1.451336,-0.631272 1.448314,-0.974894 -0.01391,-1.589049 z m 0.0058,-12.842986 C 76.566174,63.09204 75.1808,61.936747 74.41756,60.691084 c -0.353627,-0.577132 -0.705239,-1.048965 -0.781385,-1.048518 -0.07612,4.48e-4 -0.570033,0.238357 -1.097559,0.528691 -2.355085,1.296171 -3.278531,4.104403 -2.070377,6.296099 0.486929,0.883337 1.708502,1.970708 2.645493,2.354851 l 0.735477,0.301534 0.453863,-0.914332 c 0.55443,-1.11693 2.294413,-2.636503 3.629266,-3.16953 1.291857,-0.51586 1.280985,-0.952696 -0.03607,-1.447798 z m -0.47824,-13.083836 c -1.472867,-0.688565 -2.728,-1.831746 -3.301719,-3.00724 -0.189261,-0.387767 -0.435172,-0.729273 -0.546489,-0.7589 -0.31418,-0.08363 -1.864016,0.965907 -2.584248,1.750035 -1.679577,1.828564 -1.516432,4.696286 0.359021,6.310951 0.603711,0.519759 2.029967,1.400516 2.265689,1.399131 0.08323,-4.88e-4 0.419178,-0.478038 0.746558,-1.061225 0.703484,-1.253206 1.986302,-2.375365 3.394916,-2.969753 1.398001,-0.589903 1.339635,-0.880705 -0.333722,-1.662999 z M 77.693487,37.81069 C 76.361701,37.295174 74.78368,35.970001 74.090502,34.785164 l -0.582031,-0.994834 -0.71489,0.30368 c -0.935755,0.397494 -2.118778,1.497185 -2.634014,2.448458 -0.301384,0.556454 -0.407593,1.088455 -0.396981,1.988383 0.0154,1.308602 0.312836,2.062246 1.241156,3.145238 0.46502,0.542491 2.110564,1.58623 2.497237,1.58396 0.08087,-4.76e-4 0.410101,-0.463192 0.731616,-1.028255 0.692028,-1.216268 2.136241,-2.458427 3.457681,-2.973938 1.300033,-0.50716 1.300949,-0.944686 0.0032,-1.447166 z M 77.437574,24.830296 c -1.375775,-0.577827 -2.805386,-1.797608 -3.467376,-2.958456 -0.280049,-0.491073 -0.62422,-0.892183 -0.764833,-0.891358 -0.788968,0.0047 -2.603133,1.595088 -3.252444,2.851385 -0.711296,1.376224 -0.365572,3.415505 0.812974,4.795543 0.596834,0.698852 2.085667,1.693639 2.530862,1.691023 0.135427,-8e-4 0.468295,-0.405884 0.739688,-0.900197 0.641546,-1.168505 2.0496,-2.404957 3.415089,-2.998889 1.451321,-0.631274 1.448294,-0.974895 -0.01391,-1.589051 z m 0.266238,-12.7271 c -1.142451,-0.301029 -3.158954,-1.93719 -3.799609,-3.0829387 -0.30243,-0.540908 -0.619495,-0.983056 -0.704583,-0.982558 -0.08508,5.01e-4 -0.568564,0.228695 -1.074418,0.507099 -1.762734,0.970157 -2.886795,3.0000427 -2.626567,4.7431237 0.250824,1.679891 1.580407,3.269274 3.350237,4.00487 0.57743,0.24 0.625559,0.237606 0.723072,-0.03595 0.512631,-1.438122 2.280382,-3.16605 3.907586,-3.819569 0.729447,-0.292959 0.947146,-0.468799 0.944559,-0.762943 -0.0025,-0.293047 -0.170635,-0.426323 -0.720277,-0.571147 z M 72.845817,95.84051 c -1.442048,-0.632574 -2.823432,-1.797006 -3.466829,-2.922355 -0.305712,-0.534706 -0.668893,-0.971524 -0.807055,-0.970712 -0.138156,8.46e-4 -0.724657,0.32187 -1.303315,0.713458 -3.29471,2.229599 -2.997553,6.313763 0.601306,8.264269 l 0.978718,0.53044 0.653509,-1.12582 c 0.740332,-1.275376 2.123029,-2.456736 3.552821,-3.035426 1.197835,-0.48481 1.143811,-0.860363 -0.209155,-1.453854 z m -0.05361,-12.863699 c -1.426414,-0.580843 -3.018863,-1.933938 -3.600769,-3.059593 -0.25974,-0.502399 -0.556225,-0.912963 -0.658865,-0.912359 -0.425488,0.0023 -2.144967,1.221949 -2.693705,1.910365 -1.512483,1.89751 -1.229182,4.602588 0.660606,6.307512 0.492192,0.444039 2.145033,1.377496 2.242079,1.266234 0.03133,-0.03589 0.343059,-0.559789 0.692761,-1.1642 0.714754,-1.235335 2.180308,-2.458505 3.56103,-2.972072 1.189087,-0.442281 1.131475,-0.83244 -0.203137,-1.375887 z m 0.0321,-12.842619 c -1.447903,-0.562944 -2.801082,-1.660004 -3.561001,-2.886983 -0.375898,-0.60694 -0.70147,-1.130262 -0.723508,-1.162939 -0.09749,-0.144608 -1.478974,0.707194 -2.200278,1.356665 -2.004549,1.804921 -2.130098,4.532266 -0.300591,6.530311 0.595853,0.65075 2.428494,1.759918 2.596466,1.571459 0.02989,-0.03365 0.309227,-0.504089 0.620536,-1.045417 0.685002,-1.191129 2.066613,-2.376557 3.450504,-2.960508 1.316306,-0.55543 1.347312,-0.924578 0.117875,-1.402588 z m -0.129301,-12.91361 c -1.400009,-0.546313 -2.817884,-1.715461 -3.595778,-2.964993 l -0.688226,-1.105497 -0.670601,0.332846 c -3.943645,1.957344 -4.187638,6.481951 -0.466665,8.653908 0.459055,0.267956 0.933766,0.485842 1.054902,0.484193 0.121149,-0.0017 0.463421,-0.438747 0.760627,-0.971324 0.647986,-1.161191 2.195912,-2.472396 3.552192,-3.008979 1.298148,-0.51358 1.31379,-0.928383 0.05349,-1.420154 z M 72.474027,44.273173 c -1.352789,-0.509646 -2.791602,-1.705018 -3.52151,-2.925675 -0.329498,-0.551041 -0.69822,-1.002284 -0.819377,-1.002755 -0.121167,-4.37e-4 -0.591999,0.222768 -1.046309,0.49609 -2.398261,1.44285 -3.216712,4.053542 -1.988669,6.343464 0.464241,0.865675 1.730728,1.973637 2.713566,2.373918 l 0.581101,0.236664 0.663199,-1.104263 c 0.750171,-1.249043 2.151896,-2.436775 3.537828,-2.997721 1.252281,-0.506856 1.217774,-0.9158 -0.119829,-1.419722 z M 72.354139,31.378036 c -1.393991,-0.567629 -2.796295,-1.736703 -3.502118,-2.919661 -0.320783,-0.537614 -0.608253,-1.004723 -0.638843,-1.038018 -0.171078,-0.186275 -1.984249,0.943954 -2.569704,1.601811 -1.88396,2.116944 -1.592692,4.954931 0.697917,6.800265 0.703256,0.566553 1.855457,1.183114 1.961788,1.049786 0.02327,-0.02932 0.328621,-0.547809 0.678321,-1.15222 0.714261,-1.234492 2.055807,-2.351924 3.505407,-2.919794 1.24575,-0.488015 1.209584,-0.875566 -0.132768,-1.422169 z M 72.317369,18.51089 c -1.391164,-0.537233 -3.099172,-1.983763 -3.683933,-3.119972 -0.545292,-1.059507 -0.595613,-1.065253 -1.930141,-0.220426 -2.736365,1.732278 -3.226916,4.891918 -1.117211,7.195983 0.59586,0.65075 2.428494,1.759918 2.596466,1.571459 0.02996,-0.03365 0.309235,-0.504088 0.620534,-1.045416 0.685004,-1.191131 2.066634,-2.376559 3.450521,-2.960507 1.333917,-0.562873 1.350137,-0.92435 0.06375,-1.421121 z M 72.242146,5.6158106 C 70.812302,5.057856 69.362078,3.863438 68.62894,2.63995 L 67.982273,1.5607253 67.272692,1.8638235 c -1.010788,0.4317621 -2.264726,1.6831003 -2.730978,2.7253344 -0.966738,2.1609314 -0.02588,4.5973984 2.299179,5.9545981 0.448053,0.261532 0.920463,0.47489 1.049795,0.474131 0.129349,-7.8e-4 0.47987,-0.443274 0.778914,-0.983365 0.664668,-1.2003847 2.112227,-2.4420017 3.476157,-2.9816067 1.342644,-0.5311829 1.370069,-0.9400885 0.09639,-1.4371047 z M 67.432035,89.364899 C 65.947855,88.683732 64.746691,87.65414 64.031,86.449662 l -0.61322,-1.032 -0.624197,0.293744 c -1.85459,0.872758 -3.131141,2.697723 -3.113654,4.451302 0.01218,1.227787 0.286215,1.967427 1.081287,2.919142 0.648631,0.776417 2.181457,1.850207 2.629779,1.842231 0.129103,-0.0029 0.447322,-0.413893 0.707155,-0.914655 0.6238,-1.202205 1.928878,-2.381494 3.291371,-2.974145 1.471936,-0.640255 1.481352,-1.010029 0.04249,-1.670382 z m 0.02781,-12.815165 C 66.18398,76.053668 64.751254,74.863935 64.03617,73.7067 c -0.332874,-0.538694 -0.625109,-1.007682 -0.649413,-1.042193 -0.148798,-0.211273 -1.40943,0.492363 -2.250441,1.256107 -1.236093,1.122531 -1.673647,2.229932 -1.518352,3.84277 0.125203,1.300332 0.65039,2.218549 1.829387,3.198457 0.719636,0.598116 1.898345,1.183002 2.02104,1.00286 0.02366,-0.03478 0.307676,-0.507167 0.631054,-1.049717 0.683948,-1.147487 2.026573,-2.305861 3.349866,-2.890162 1.25625,-0.5547 1.259363,-0.989548 0.01046,-1.475088 z m -0.31158,-13.000943 c -1.372747,-0.576581 -2.698399,-1.740415 -3.343233,-2.935164 -0.268601,-0.497662 -0.59402,-0.905479 -0.723141,-0.906257 -0.448412,-0.0027 -1.962237,1.088983 -2.597169,1.872942 -0.778282,0.960957 -1.039243,1.703741 -1.029926,2.931543 0.01347,1.776145 1.395568,3.684042 3.217224,4.44118 l 0.62836,0.261162 0.478819,-0.903217 c 0.597786,-1.127611 2.069468,-2.452231 3.440864,-3.097023 1.427863,-0.671332 1.411876,-1.042002 -0.07182,-1.665166 z m 0.152608,-12.785107 c -1.552351,-0.575452 -3.202503,-2.046025 -3.803969,-3.38999 -0.150823,-0.33702 -0.336054,-0.6124 -0.411622,-0.611956 -0.440395,0.0025 -2.170933,1.19549 -2.714218,1.870977 -0.773852,0.96216 -1.039519,1.711406 -1.029066,2.902175 0.01045,1.190769 0.289247,1.936815 1.07991,2.889784 0.5513,0.664471 2.315254,1.847878 2.736918,1.836156 0.07016,-0.0018 0.342009,-0.416821 0.604152,-0.921934 0.621097,-1.19679 2.11691,-2.541715 3.384715,-3.043295 0.819577,-0.324243 1.005232,-0.474945 0.998084,-0.810153 -0.0069,-0.321715 -0.191719,-0.479624 -0.844904,-0.721764 z m 0.02567,-12.852799 c -1.161266,-0.335793 -3.034644,-1.864201 -3.739892,-3.0511 l -0.622069,-1.046894 -0.624194,0.293744 c -1.854593,0.872759 -3.131146,2.697723 -3.113654,4.451301 0.01218,1.227788 0.286215,1.967428 1.081283,2.91914 0.648631,0.77642 2.181464,1.850208 2.62978,1.842235 0.129101,-0.0021 0.452033,-0.428112 0.71763,-0.946257 0.570471,-1.112916 2.287802,-2.603307 3.541831,-3.073805 0.68378,-0.256549 0.842985,-0.398747 0.839906,-0.750232 -0.0032,-0.347423 -0.144434,-0.474345 -0.710777,-0.638132 z M 67.021954,24.968886 c -1.347078,-0.574518 -2.776381,-1.769073 -3.432561,-2.868793 -0.320869,-0.537776 -0.605684,-1.002804 -0.632909,-1.033399 -0.02726,-0.0306 -0.251739,-0.0018 -0.498909,0.06398 -0.844416,0.224725 -2.299466,1.536012 -2.85961,2.577075 -0.478314,0.888964 -0.529835,1.153066 -0.439486,2.252716 0.124606,1.51644 0.740376,2.588162 2.043656,3.556874 0.778453,0.578619 1.71557,1.008367 1.821809,0.835457 0.01895,-0.03086 0.299067,-0.500024 0.62245,-1.042574 0.694694,-1.165517 2.106375,-2.371962 3.373428,-2.882969 1.227325,-0.494985 1.227962,-0.935543 0.0025,-1.458358 z m -0.06343,-12.896684 c -1.262165,-0.455715 -3.005478,-1.925776 -3.595432,-3.0318737 -0.27467,-0.514974 -0.605041,-0.936951 -0.734169,-0.937728 -0.449178,-0.0027 -1.962713,1.089578 -2.599807,1.876229 -0.827661,1.0219597 -1.095703,1.8928707 -0.990194,3.2173007 0.1372,1.722303 1.322606,3.261408 3.180885,4.129999 l 0.623339,0.291359 0.480954,-0.90725 c 0.599722,-1.131282 2.069932,-2.45548 3.443017,-3.101053 1.362544,-0.640627 1.418966,-1.093759 0.191407,-1.536983 z M 62.440498,95.953211 C 60.794322,95.31084 58.95959,93.644842 58.589776,92.456627 58.425351,91.928334 58.204894,91.902433 57.39449,92.316202 c -2.726797,1.392225 -3.710891,4.304132 -2.256696,6.677492 0.611865,0.99863 1.638655,1.860206 2.788338,2.339706 0.407227,0.16985 0.475574,0.14232 0.661458,-0.26647 0.730059,-1.605496 2.195315,-3.013576 3.808133,-3.659516 1.278529,-0.51207 1.292541,-0.967297 0.04472,-1.454203 z m 0.05749,-12.801555 C 61.342252,82.817419 59.118715,80.94393 58.666029,79.922947 58.45682,79.451109 58.2048,79.065533 58.105974,79.066113 c -0.391083,0.0021 -1.552028,0.723692 -2.300582,1.429551 -2.454952,2.31493 -1.63791,6.241271 1.603719,7.706781 l 0.800722,0.362 0.627337,-1.061656 c 0.741526,-1.254905 2.069408,-2.41295 3.420603,-2.98311 1.248146,-0.526677 1.34004,-1.049958 0.240215,-1.368023 z M 62.131371,70.124013 C 60.77193,69.57045 59.422459,68.427841 58.661692,67.186204 l -0.642965,-1.049376 -0.724687,0.31106 c -3.249704,1.394875 -4.059048,5.471398 -1.543741,7.775536 0.686753,0.629097 1.926513,1.404717 2.242354,1.402861 0.05314,-3.13e-4 0.389386,-0.480996 0.747248,-1.068184 0.737327,-1.209847 2.255484,-2.493682 3.524052,-2.980135 1.204178,-0.46176 1.161769,-0.9269 -0.132582,-1.453953 z m -0.08838,-12.900299 c -1.648534,-0.646794 -3.117555,-2.013469 -3.871873,-3.602127 -0.193044,-0.40656 -0.261868,-0.433288 -0.666066,-0.258678 -1.141148,0.492967 -2.152707,1.366528 -2.746983,2.372232 -1.086273,1.838331 -0.777237,4.032088 0.780803,5.542611 0.591157,0.573135 2.019669,1.408266 2.404991,1.406002 0.136702,-8.44e-4 0.307969,-0.204551 0.3806,-0.452777 0.348916,-1.192434 2.154208,-2.879813 3.788942,-3.541462 1.240253,-0.501987 1.218251,-0.960199 -0.07041,-1.465801 z M 62.002319,44.354216 C 60.356853,43.712122 58.839147,42.367282 58.23401,41.015121 58.083187,40.6781 57.856272,40.402966 57.729759,40.403708 c -0.369586,0.0021 -1.793141,0.866603 -2.361547,1.434006 -2.259337,2.255383 -1.629413,5.838272 1.315518,7.482365 0.417512,0.233091 0.889437,0.421778 1.048708,0.419304 0.159279,-0.0023 0.50578,-0.421007 0.770009,-0.930076 0.583414,-1.124011 2.143146,-2.487155 3.440283,-3.00667 1.273161,-0.509914 1.291988,-0.967513 0.05959,-1.448421 z M 61.771488,31.387333 C 60.499465,30.902405 58.869329,29.5168 58.209401,28.359589 57.92759,27.865411 57.646666,27.46138 57.585138,27.461741 c -0.329592,0.0019 -1.54265,0.778389 -2.232778,1.429151 -2.457602,2.317431 -1.63795,6.241256 1.610531,7.709861 l 0.807533,0.365076 0.580893,-1.028797 c 0.697878,-1.235978 1.834939,-2.241942 3.324624,-2.941313 1.459854,-0.685364 1.48325,-1.079354 0.09555,-1.608386 z m -0.22332,-12.94738 c -1.50181,-0.681799 -2.656412,-1.674297 -3.375915,-2.901949 l -0.598898,-1.021865 -0.807521,0.374795 c -3.21762,1.493408 -3.967359,5.438682 -1.468537,7.727718 0.705673,0.646424 1.928487,1.404705 2.262093,1.402745 0.06396,-3.75e-4 0.388856,-0.476607 0.721953,-1.05829 0.673468,-1.176074 2.55708,-2.744814 3.717034,-3.095682 1.057209,-0.319788 0.901378,-0.813872 -0.450209,-1.427472 z M 61.590079,5.6290713 C 60.237854,5.1040189 58.805086,3.8825936 58.078159,2.6351858 l -0.618413,-1.0611959 -0.8045,0.3747776 c -2.596771,1.2097094 -3.746408,4.3078744 -2.428644,6.5449648 0.560329,0.951248 1.473964,1.8033237 2.45216,2.2869327 0.817739,0.40428 1.038038,0.37569 1.19002,-0.154443 0.340749,-1.1885567 2.473234,-3.1125327 4.056699,-3.6600397 0.984062,-0.340254 0.849404,-0.8770627 -0.335402,-1.337111 z M 57.119793,89.538991 c -1.349855,-0.522582 -2.907319,-1.837118 -3.588765,-3.02899 l -0.573142,-1.002457 -0.574998,0.24755 c -3.420374,1.472545 -4.263476,5.221904 -1.767371,7.859647 0.465916,0.492348 1.974174,1.375595 2.345283,1.373413 0.06252,-3.6e-4 0.376777,-0.462992 0.698285,-1.028055 0.691838,-1.215922 2.058824,-2.391933 3.423508,-2.945228 1.33388,-0.540804 1.344687,-0.969697 0.03715,-1.47588 z m -0.25592,-12.980395 c -1.375765,-0.577826 -2.805375,-1.797608 -3.467377,-2.958454 -0.280039,-0.491073 -0.624218,-0.892185 -0.764823,-0.891358 -0.464228,0.0027 -1.864245,0.963114 -2.469616,1.694111 -1.175705,1.419693 -1.491591,3.452843 -0.750579,4.831018 0.671302,1.248537 2.513196,2.817513 3.302165,2.812877 0.140606,-8.45e-4 0.477707,-0.40594 0.749095,-0.900253 0.641551,-1.168506 2.049604,-2.404959 3.415085,-2.99889 1.451325,-0.631272 1.448305,-0.974894 -0.01393,-1.589051 z m 0.270133,-12.704094 c -1.164505,-0.336772 -3.171527,-1.975714 -3.803488,-3.105944 -0.302444,-0.540906 -0.619509,-0.983057 -0.704589,-0.982557 -0.449409,0.0026 -2.073774,1.113186 -2.607354,1.782596 -2.030478,2.547348 -1.23239,5.687455 1.844875,7.258748 l 0.895394,0.457201 0.589378,-1.023372 c 0.699709,-1.214954 2.239696,-2.546284 3.557613,-3.075588 1.213376,-0.487319 1.302666,-1.000343 0.228171,-1.311084 z m -0.153035,-12.94276 c -1.889425,-0.781071 -3.615688,-2.288986 -3.995388,-3.490023 -0.194609,-0.615567 -0.40945,-0.66947 -1.148163,-0.288069 -1.964016,1.014039 -3.019415,2.582587 -3.002914,4.462969 0.0165,1.880383 1.099336,3.436368 3.080958,4.427227 0.745325,0.372683 0.959198,0.31626 1.142984,-0.301528 0.198585,-0.667558 1.436105,-2.129057 2.25662,-2.665048 0.401119,-0.262023 1.110896,-0.637407 1.577286,-0.834185 1.090277,-0.460008 1.119023,-0.885385 0.08862,-1.311343 z M 56.666789,37.93422 C 55.339713,37.420455 53.77652,36.107356 53.05555,34.900748 L 52.448271,33.884407 51.561,34.352081 c -1.904399,1.003784 -2.827146,2.413044 -2.81701,4.302253 0.0068,1.310886 0.298893,2.055247 1.233252,3.145284 0.465014,0.542492 2.110548,1.586232 2.497233,1.583961 0.08087,-4.75e-4 0.410095,-0.46319 0.731612,-1.028255 0.695599,-1.222532 2.156242,-2.475383 3.473084,-2.978995 1.297163,-0.496082 1.293378,-0.936597 -0.0125,-1.442109 z M 56.410871,24.953827 C 55.035105,24.376 53.605495,23.156218 52.943501,21.995372 52.663453,21.504296 52.34903,21.103013 52.244775,21.103624 c -0.444448,0.0025 -1.825218,0.888213 -2.388711,1.532081 -0.971453,1.110029 -1.225395,1.741976 -1.236264,3.076543 -0.01083,1.330473 0.223931,1.95562 1.149306,3.060457 0.541512,0.646532 2.106204,1.671578 2.547635,1.668984 0.109755,-6.37e-4 0.421605,-0.40561 0.693002,-0.899923 0.641551,-1.168506 2.049598,-2.404958 3.415077,-2.998889 1.451325,-0.631273 1.448313,-0.974896 -0.01394,-1.58905 z M 56.68101,12.24973 c -1.164504,-0.336771 -3.171526,-1.975713 -3.803487,-3.1059427 -0.30245,-0.540907 -0.612432,-0.982824 -0.688855,-0.982037 -0.285126,0.003 -1.364103,0.629805 -2.017808,1.172332 -1.748319,1.4509657 -2.221697,3.9211927 -1.103348,5.7576537 0.570653,0.937096 1.67494,1.875822 2.715337,2.308242 l 0.579283,0.240766 0.555483,-1.009087 c 0.660449,-1.199753 2.194685,-2.532454 3.535218,-3.070842 1.213383,-0.487319 1.302665,-1.000344 0.228177,-1.311085 z m -4.746473,83.764886 c -1.300221,-0.478764 -2.929476,-1.834813 -3.609786,-3.004473 -0.299786,-0.515424 -0.644191,-0.93732 -0.765354,-0.937547 -0.411208,-7.8e-4 -1.869648,0.99043 -2.469788,1.678543 -0.720319,0.825889 -1.182322,2.053142 -1.17299,3.115905 0.01438,1.64086 1.501281,3.663566 3.211377,4.368646 l 0.692322,0.28545 0.662592,-1.10324 c 0.749534,-1.248006 2.151753,-2.435956 3.537207,-2.996706 1.254876,-0.50791 1.229657,-0.922282 -0.08558,-1.406578 z m -0.345843,-12.99869 c -1.457314,-0.624486 -2.832648,-1.831273 -3.451627,-3.028625 -0.244526,-0.473005 -0.500482,-0.859679 -0.568791,-0.859279 -0.06827,4.02e-4 -0.535375,0.217454 -1.037915,0.482341 -2.496121,1.315679 -3.445513,4.343317 -2.038819,6.501835 0.291354,0.447074 0.645576,0.928494 0.787151,1.069821 0.323842,0.323278 2.150392,1.449142 2.349126,1.447975 0.08144,-4.78e-4 0.354532,-0.416809 0.606877,-0.925178 0.554571,-1.117213 2.272652,-2.614406 3.634324,-3.167072 1.316745,-0.53443 1.256147,-0.86341 -0.280326,-1.521818 z m 0.208915,-12.758203 c -1.468902,-0.571114 -2.836062,-1.682545 -3.566379,-2.8993 -0.360283,-0.60024 -0.681187,-1.120412 -0.713128,-1.155939 -0.09622,-0.107031 -1.595354,0.768673 -2.15709,1.260057 -1.3581,1.187994 -1.971698,3.164591 -1.476258,4.755523 0.346502,1.112698 1.485167,2.426697 2.593123,2.992434 0.514803,0.262864 0.99189,0.477608 1.0602,0.477206 0.06834,-4e-4 0.329455,-0.414239 0.580332,-0.919639 0.562093,-1.132375 2.130622,-2.504042 3.546706,-3.101583 1.331451,-0.561829 1.366003,-0.929168 0.132494,-1.408759 z M 51.48758,57.257876 c -1.375766,-0.577829 -2.805375,-1.797609 -3.467375,-2.958456 -0.28004,-0.491075 -0.597152,-0.892344 -0.70469,-0.891713 -0.937719,0.0056 -2.759252,1.598482 -3.367198,2.944681 -1.014889,2.247347 0.23129,4.974963 2.814732,6.160815 0.356016,0.16342 0.678639,0.263956 0.716937,0.223413 0.0383,-0.04053 0.315452,-0.501496 0.615906,-1.024344 0.661743,-1.151554 2.200762,-2.449246 3.51189,-2.961201 1.336658,-0.521921 1.306715,-0.893886 -0.120202,-1.493195 z m 0.0137,-12.840771 c -1.303203,-0.479861 -2.884143,-1.789181 -3.593752,-2.97631 -0.319444,-0.534414 -0.679941,-0.972049 -0.801102,-0.972523 -0.411458,-0.0016 -1.869799,0.990156 -2.473036,1.68181 -2.151851,2.467264 -1.078916,6.214058 2.157408,7.53386 l 0.586873,0.239335 0.628282,-1.087779 c 0.712204,-1.23308 2.140748,-2.44416 3.561193,-3.019073 1.248561,-0.50535 1.228927,-0.922556 -0.06586,-1.39932 z M 51.32724,31.501567 c -1.393992,-0.56763 -2.796294,-1.736703 -3.502125,-2.919662 -0.320776,-0.537614 -0.608248,-1.004722 -0.638834,-1.038016 -0.165764,-0.180494 -1.957326,0.925604 -2.558958,1.579886 -1.676816,1.823571 -1.658167,4.410265 0.04527,6.270957 0.454206,0.496161 2.211661,1.632197 2.522196,1.630373 0.07046,-4.14e-4 0.331628,-0.410675 0.580332,-0.911693 0.591854,-1.192322 2.077594,-2.523261 3.47307,-3.111203 1.445225,-0.608901 1.462535,-0.937302 0.07908,-1.500642 z m 0.01741,-12.848616 c -1.468908,-0.571112 -2.836059,-1.682544 -3.566384,-2.899299 -0.360278,-0.600241 -0.681181,-1.120413 -0.713121,-1.15594 -0.102936,-0.114495 -1.745905,0.841963 -2.211382,1.287362 -1.988993,1.903206 -2.110828,4.625597 -0.295593,6.604939 0.596947,0.650907 2.429773,1.759716 2.597558,1.57145 0.02997,-0.03365 0.309241,-0.504086 0.620547,-1.045416 0.684994,-1.19113 2.066619,-2.376557 3.450506,-2.960507 1.316297,-0.555431 1.347316,-0.924578 0.117869,-1.402589 z M 51.215354,5.7393412 C 49.7855,5.1813853 48.335281,3.9869692 47.602162,2.7634805 L 46.955481,1.6842559 46.262507,1.9802607 c -1.061325,0.4533438 -2.259322,1.6414866 -2.745293,2.722711 -0.926443,2.0612146 -0.132485,4.3378786 2.001936,5.7405433 0.585472,0.384753 1.173903,0.698906 1.307629,0.69812 0.133727,-8.46e-4 0.496768,-0.449144 0.806764,-0.99635 0.676865,-1.1948047 2.138099,-2.4358047 3.504653,-2.9764477 1.322664,-0.523277 1.34487,-0.9348064 0.07715,-1.4294961 z M 46.425676,76.670405 c -1.26395,-0.491426 -2.752501,-1.738582 -3.42877,-2.872743 -0.310579,-0.520872 -0.590898,-0.975242 -0.622937,-1.009709 -0.183432,-0.197373 -1.409622,0.479869 -2.249066,1.242191 -1.245899,1.131437 -1.665086,2.139099 -1.551484,3.729571 0.09839,1.377439 0.608837,2.296487 1.8471,3.325655 0.719637,0.598117 1.898348,1.183003 2.021047,1.002861 0.02369,-0.03479 0.305547,-0.500325 0.626338,-1.034513 0.700662,-1.166759 2.126026,-2.393186 3.359588,-2.890688 0.804675,-0.324529 1.177993,-0.713911 0.984501,-1.026868 -0.03685,-0.05957 -0.480665,-0.26916 -0.986317,-0.465757 z m -0.03225,12.817914 c -1.371058,-0.622439 -3.026325,-2.084547 -3.487464,-3.080501 -0.198351,-0.428383 -0.38652,-0.806641 -0.418156,-0.840574 -0.152687,-0.16375 -2.128752,1.084708 -2.651759,1.675355 -1.860316,2.100908 -1.479482,5.198314 0.847581,6.893559 0.795371,0.579428 1.759467,1.043116 1.868755,0.898793 0.02832,-0.0373 0.294246,-0.49487 0.591057,-1.016771 0.703351,-1.236728 1.873394,-2.273974 3.231419,-2.864666 1.463186,-0.636436 1.467326,-1.007484 0.01855,-1.665195 z M 46.121418,63.672321 c -1.372759,-0.576581 -2.698397,-1.740415 -3.343238,-2.935163 -0.268598,-0.497662 -0.594012,-0.905479 -0.723145,-0.906257 -0.448408,-0.0027 -1.96223,1.088981 -2.597164,1.872942 -0.778282,0.960956 -1.039239,1.70374 -1.029931,2.931544 0.01347,1.779173 1.412755,3.691183 3.264563,4.46085 l 0.58103,0.24149 0.481733,-0.908721 c 0.596798,-1.125756 2.277822,-2.6266 3.537096,-3.157972 1.341622,-0.566118 1.297149,-0.982092 -0.170944,-1.598713 z m 0.140017,-12.789416 c -1.599448,-0.592243 -3.502172,-2.333592 -3.889879,-3.559967 -0.07629,-0.241282 -0.208854,-0.438282 -0.294601,-0.43778 -0.456196,0.0026 -2.178418,1.181877 -2.732737,1.871087 -0.773853,0.962162 -1.039528,1.711405 -1.029076,2.902174 0.01044,1.19077 0.289251,1.936817 1.079916,2.889785 0.551299,0.664471 2.315254,1.847879 2.736923,1.836157 0.07016,-0.0019 0.342013,-0.416821 0.604145,-0.921935 0.616959,-1.188821 2.092081,-2.519158 3.36715,-3.036658 0.809934,-0.328721 1.00864,-0.490199 1.007852,-0.819024 -7.79e-4,-0.322736 -0.180933,-0.47621 -0.849693,-0.723839 z M 46.052571,37.953483 c -1.270128,-0.517194 -2.975918,-1.997901 -3.594376,-3.120094 l -0.499855,-0.906972 -0.633171,0.298739 c -0.989186,0.466711 -2.036874,1.403417 -2.559842,2.288686 -0.399871,0.676889 -0.475368,1.05064 -0.461329,2.283744 0.01454,1.274132 0.08994,1.58665 0.555364,2.300797 0.555743,0.852732 1.832483,1.90377 2.696293,2.219643 0.270784,0.09902 0.515468,0.14949 0.543739,0.11216 0.02832,-0.03734 0.294246,-0.49488 0.591059,-1.01678 0.703348,-1.236723 1.873386,-2.273969 3.23141,-2.864664 1.444348,-0.628238 1.478604,-1.046395 0.130708,-1.595259 z m -0.07258,-12.88499 c -1.275889,-0.496065 -2.708609,-1.6858 -3.423691,-2.843034 -0.33287,-0.538694 -0.62511,-1.007681 -0.649421,-1.042194 -0.147789,-0.209843 -1.406434,0.489647 -2.235019,1.242108 -1.266554,1.150194 -1.67855,2.157455 -1.538564,3.761564 0.121381,1.390974 0.618094,2.28293 1.834181,3.293662 0.729787,0.606551 1.880887,1.173746 2.035095,1.002779 0.03141,-0.03484 0.312198,-0.507194 0.623937,-1.049675 0.660866,-1.150017 2.017922,-2.310514 3.341175,-2.857242 1.281435,-0.529454 1.285386,-1.012994 0.01233,-1.507968 z m -0.05139,-12.872744 c -1.23796,-0.445376 -2.989995,-1.927866 -3.588759,-3.0366357 -0.276686,-0.512361 -0.595668,-0.932281 -0.708846,-0.933153 -0.279113,-0.002 -1.052513,0.438332 -1.855545,1.05682 -1.671344,1.2872597 -2.271894,3.6836087 -1.391351,5.5518827 0.459762,0.975505 1.637383,2.073685 2.804188,2.615024 l 0.627934,0.291331 0.480962,-0.90725 c 0.599717,-1.131281 2.069934,-2.45548 3.443006,-3.101052 1.363829,-0.641231 1.419348,-1.094117 0.188411,-1.536967 z m -4.514769,83.880983 c -1.646186,-0.642352 -3.480919,-2.308359 -3.850725,-3.496574 -0.07699,-0.247345 -0.242839,-0.448837 -0.368571,-0.447762 -0.364714,0.003 -1.367874,0.565075 -2.096267,1.174303 -2.705945,2.263259 -1.969529,6.439115 1.40455,7.964501 l 0.807535,0.36509 0.599716,-1.06837 c 0.704955,-1.255806 2.116134,-2.493956 3.458999,-3.034836 1.278204,-0.51484 1.292176,-0.969573 0.04473,-1.456352 z M 41.338122,83.1892 c -1.307812,-0.480807 -3.250151,-2.133663 -3.701323,-3.149692 -0.207825,-0.468006 -0.45871,-0.850444 -0.557536,-0.849864 -0.391083,0.0021 -1.552028,0.723692 -2.30058,1.429551 -1.501659,1.416009 -1.884566,3.655246 -0.915587,5.354396 0.616473,1.08103 1.6019,1.997973 2.576676,2.397609 l 0.749072,0.307104 0.604388,-1.021 c 0.739952,-1.250009 1.890069,-2.267113 3.32578,-2.941146 1.386899,-0.651114 1.44776,-1.075256 0.21911,-1.526958 z M 40.974479,70.168254 c -1.480215,-0.671994 -2.576404,-1.61313 -3.350575,-2.876646 l -0.637751,-1.040852 -0.794282,0.37137 c -3.209491,1.500601 -3.958882,5.443305 -1.468264,7.724828 0.760873,0.696991 1.934362,1.40467 2.325443,1.402372 0.09883,-5.8e-4 0.33583,-0.369092 0.526686,-0.818915 0.456098,-1.074976 2.247213,-2.683073 3.53845,-3.176895 1.362565,-0.521096 1.327476,-0.919184 -0.139707,-1.585262 z m 0.64471,-12.582302 c -1.638398,-0.478121 -3.715166,-2.169888 -4.302804,-3.505127 -0.344601,-0.783018 -0.695569,-0.778632 -1.917959,0.02397 -2.199824,1.444371 -2.964413,4.322202 -1.67917,6.320167 0.636084,0.988829 2.547293,2.38615 3.257969,2.381974 0.103663,-6.08e-4 0.24791,-0.204199 0.320548,-0.452424 0.348908,-1.192434 2.154207,-2.879814 3.788939,-3.541463 0.676103,-0.273647 0.889741,-0.452441 0.88719,-0.7425 -0.0015,-0.214804 -0.157167,-0.426947 -0.354713,-0.484593 z M 40.960821,44.471968 c -1.646178,-0.642373 -3.480911,-2.308367 -3.850724,-3.496579 -0.07699,-0.247345 -0.224788,-0.449221 -0.328458,-0.448612 -0.411903,0.0023 -1.307957,0.508612 -2.10118,1.186993 -1.203868,1.029569 -1.688243,2.052268 -1.675211,3.536968 0.0091,1.033801 0.106804,1.370508 0.659784,2.273013 0.665096,1.085494 2.285003,2.349599 2.997875,2.339415 0.211154,-0.003 0.50771,-0.342435 0.812856,-0.930328 0.583414,-1.124012 2.14314,-2.487155 3.440281,-3.006671 1.278528,-0.512062 1.292546,-0.967295 0.04481,-1.454199 z M 40.744806,31.510864 c -1.261423,-0.480887 -2.783017,-1.771631 -3.52176,-2.987456 -0.313697,-0.516281 -0.616731,-0.938418 -0.673415,-0.938085 -0.314924,0.0019 -1.534833,0.779281 -2.185345,1.392688 -1.523607,1.436704 -1.927117,3.68475 -0.964406,5.372911 0.622491,1.091583 1.481441,1.896461 2.529515,2.370281 l 0.800723,0.362001 0.619411,-1.048239 c 0.751912,-1.272482 1.831462,-2.226399 3.299727,-2.915716 1.459856,-0.685365 1.48326,-1.079354 0.09555,-1.608385 z M 40.521487,18.563482 C 39.041271,17.89149 37.945076,16.950354 37.170905,15.686837 l -0.637745,-1.040853 -0.800767,0.371639 c -3.173169,1.472687 -3.9404,5.398399 -1.503642,7.693753 0.640605,0.603433 2.027618,1.435175 2.389757,1.433048 0.08647,-5.09e-4 0.320524,-0.385796 0.520107,-0.856195 0.433287,-1.021224 2.34641,-2.696731 3.645646,-3.192854 1.225207,-0.467856 1.152932,-0.889182 -0.262774,-1.531893 z M 40.603663,5.7677711 C 39.242353,5.2384914 37.771924,3.9950126 37.057357,2.7688043 L 36.438256,1.7064301 35.846183,1.9613288 c -0.325642,0.1401945 -0.941465,0.5448714 -1.368507,0.8992821 -2.882041,2.3918637 -2.308256,6.3217944 1.174396,8.0435851 0.817588,0.404201 1.037567,0.375712 1.192698,-0.154459 0.348915,-1.1924357 2.154214,-2.8798137 3.788948,-3.5414627 1.224889,-0.495766 1.215284,-0.9563154 -0.03005,-1.4405032 z M 36.093101,89.662522 C 34.766026,89.148758 33.202833,87.835659 32.481863,86.62905 l -0.607279,-1.016342 -0.887272,0.467675 c -1.916674,1.010257 -2.845121,2.422423 -2.82862,4.302321 0.01173,1.337662 0.414219,2.282004 1.43014,3.355563 0.470607,0.497309 1.975317,1.375599 2.352926,1.373369 0.06675,-3.99e-4 0.358596,-0.441619 0.64855,-0.980511 0.608257,-1.130481 2.297667,-2.566458 3.610051,-3.068503 1.191026,-0.45562 1.156141,-0.910989 -0.107258,-1.4001 z M 35.837183,76.682127 c -1.375766,-0.577827 -2.805376,-1.797608 -3.467371,-2.958455 -0.280046,-0.491074 -0.624216,-0.892184 -0.764823,-0.891357 -0.499793,0.0029 -1.937342,1.019636 -2.520711,1.782749 -1.157782,1.514534 -1.432737,3.378636 -0.69949,4.742379 0.671312,1.248537 2.513196,2.817512 3.302172,2.812876 0.140607,-8.44e-4 0.4777,-0.405939 0.749098,-0.900251 0.641548,-1.168506 2.049596,-2.404958 3.415076,-2.99889 1.451324,-0.631272 1.448312,-0.974895 -0.01394,-1.589051 z M 35.961813,63.8879 c -1.32106,-0.486574 -3.035508,-1.902554 -3.663548,-3.025767 -0.299386,-0.535432 -0.613947,-0.973104 -0.69902,-0.972602 -0.449408,0.0026 -2.073779,1.113187 -2.60736,1.782599 -2.03047,2.547347 -1.232382,5.687452 1.844882,7.258746 l 0.895395,0.457201 0.589371,-1.023372 c 0.699717,-1.214955 2.239695,-2.546284 3.557612,-3.075589 1.254688,-0.503907 1.281571,-0.959637 0.08267,-1.401216 z m -0.0076,-12.852629 c -1.889456,-0.78107 -3.615727,-2.288983 -3.995427,-3.490021 -0.07634,-0.241504 -0.220948,-0.47996 -0.321342,-0.529907 -0.276497,-0.137565 -1.441946,0.519645 -2.269176,1.279624 -1.136545,1.044144 -1.561717,1.984238 -1.549069,3.425116 0.0128,1.461023 0.52589,2.528931 1.672857,3.481942 0.734882,0.610606 2.013062,1.341953 2.14015,1.224547 0.03572,-0.03302 0.308196,-0.466944 0.605456,-0.964285 0.812302,-1.359053 1.685421,-2.153033 3.1519,-2.866233 1.557795,-0.757615 1.68135,-1.099136 0.56462,-1.560783 z m -0.31431,-12.988749 c -1.346626,-0.528343 -2.895589,-1.824706 -3.611139,-3.022243 l -0.607286,-1.016342 -0.887274,0.467674 c -3.049358,1.607286 -3.792239,4.756446 -1.717255,7.279675 0.540793,0.657618 2.18788,1.754424 2.630732,1.751824 0.08087,-4.76e-4 0.410103,-0.463191 0.731612,-1.028256 0.691837,-1.215914 2.058823,-2.391928 3.423509,-2.945224 1.335392,-0.541417 1.34617,-0.973499 0.03709,-1.487108 z M 35.384112,25.077357 c -1.375766,-0.577828 -2.805376,-1.797608 -3.467369,-2.958456 -0.280046,-0.491074 -0.624218,-0.892184 -0.764832,-0.891358 -0.386904,0.0021 -1.804722,0.90342 -2.253357,1.432209 -1.333222,1.571394 -1.676499,3.005421 -1.106527,4.622511 0.198658,0.563622 0.615725,1.30791 0.926813,1.653971 0.546143,0.607558 2.162137,1.631389 2.571142,1.628986 0.109755,-6.37e-4 0.421607,-0.40561 0.693004,-0.899923 0.64155,-1.168506 2.049597,-2.404959 3.415076,-2.998889 1.451325,-0.631274 1.448306,-0.974896 -0.01394,-1.589051 z m -0.03354,-12.873356 c -1.372746,-0.536884 -2.7361,-1.67952 -3.459771,-2.8996577 -0.332872,-0.561221 -0.671379,-1.020013 -0.75226,-1.019537 -0.386678,0.0022 -2.013721,1.065237 -2.469161,1.613136 -0.903931,1.0874317 -1.19288,1.8528797 -1.193054,3.1604837 -1.37e-4,1.022169 0.09471,1.385484 0.562002,2.152831 0.572825,0.940661 1.676074,1.879288 2.717782,2.312251 l 0.579281,0.240767 0.555485,-1.009087 c 0.66045,-1.199756 2.194683,-2.532454 3.535216,-3.070843 1.302403,-0.523071 1.280626,-0.949953 -0.07554,-1.480344 z M 30.825048,96.1145 c -1.38295,-0.598078 -2.803143,-1.79864 -3.478261,-2.940362 -0.319073,-0.5396 -0.682347,-0.980489 -0.807271,-0.979757 -0.419655,0.0023 -1.873704,0.98897 -2.476646,1.68029 -0.720311,0.825897 -1.182314,2.05315 -1.172988,3.115893 0.01454,1.6579 1.506016,3.668866 3.251967,4.384666 l 0.730818,0.2996 0.447219,-0.90095 c 0.581962,-1.172356 2.095314,-2.532936 3.487193,-3.135106 1.380216,-0.59713 1.384175,-0.93344 0.01794,-1.524274 z m -0.0433,-12.873123 c -1.432199,-0.583188 -3.067893,-1.963105 -3.640938,-3.071593 -0.261285,-0.505429 -0.530955,-0.918634 -0.599262,-0.918231 -0.435317,0.0024 -2.055895,1.089847 -2.595412,1.74133 -1.965703,2.373634 -1.391802,5.368606 1.354332,7.067746 1.33245,0.824442 1.386703,0.81742 1.912951,-0.247601 0.564755,-1.142964 2.24718,-2.609413 3.628775,-3.162936 1.269498,-0.508614 1.253839,-0.87354 -0.06047,-1.408715 z m -0.0109,-12.860124 c -1.468909,-0.571113 -2.836062,-1.682544 -3.566387,-2.8993 -0.360276,-0.60024 -0.68118,-1.120414 -0.713119,-1.155939 -0.09586,-0.106631 -1.687422,0.819022 -2.209588,1.285105 -1.914084,1.708503 -2.103739,4.553955 -0.432938,6.495509 0.484717,0.563264 2.257846,1.710292 2.632693,1.703076 0.07016,-0.0015 0.381462,-0.457292 0.691815,-1.013204 0.674194,-1.207647 2.073846,-2.419459 3.479653,-3.012657 1.316299,-0.555433 1.347316,-0.924579 0.117871,-1.40259 z M 30.460822,57.381405 c -1.336317,-0.561258 -2.709123,-1.713049 -3.445329,-2.890641 -0.302126,-0.483259 -0.580893,-0.906821 -0.619486,-0.94125 -0.205776,-0.183578 -1.401758,0.461564 -2.169427,1.170246 -2.024211,1.86866 -2.209483,4.542118 -0.450393,6.49899 0.612168,0.680988 2.087859,1.654949 2.499013,1.649351 0.121139,-0.0017 0.466051,-0.443425 0.766473,-0.981721 0.659193,-1.18115 2.222477,-2.507805 3.556108,-3.017837 1.331996,-0.50941 1.297435,-0.884684 -0.136959,-1.487138 z M 30.730963,44.67731 c -1.124564,-0.325222 -3.172405,-1.979218 -3.846366,-3.106626 -0.321561,-0.537911 -0.683783,-0.978408 -0.804945,-0.978881 -0.121162,-4.35e-4 -0.591997,0.222768 -1.046302,0.49609 -3.207266,1.929559 -3.453238,5.788423 -0.508488,7.977221 0.797732,0.592946 1.679782,0.991682 1.847786,0.835304 0.03323,-0.03095 0.300681,-0.454529 0.594285,-0.941288 0.715458,-1.186122 2.067905,-2.353923 3.39423,-2.930824 1.336553,-0.581349 1.460856,-1.035465 0.3698,-1.350996 z M 30.285734,31.619099 c -1.426433,-0.58084 -3.018871,-1.933938 -3.600788,-3.059591 -0.259723,-0.5024 -0.528115,-0.913128 -0.596424,-0.912727 -0.420585,0.0024 -2.046509,1.07852 -2.552039,1.688958 -1.680706,2.029496 -1.576233,4.363042 0.286231,6.39323 0.395729,0.431368 2.300132,1.534472 2.415876,1.39937 0.02937,-0.03429 0.339539,-0.556868 0.689241,-1.161279 0.708883,-1.225212 2.056387,-2.352592 3.515115,-2.940902 1.224963,-0.494036 1.183971,-0.860931 -0.157212,-1.407059 z m 0.03217,-12.842618 c -1.468907,-0.571111 -2.836059,-1.682542 -3.566384,-2.899298 -0.360278,-0.600241 -0.67459,-1.115099 -0.698477,-1.144132 -0.106614,-0.12958 -1.335114,0.528825 -1.970275,1.055955 -1.519361,1.260948 -2.200398,3.269412 -1.677725,4.947818 0.346511,1.112697 1.485166,2.426696 2.593131,2.992434 0.514794,0.262864 0.991889,0.477607 1.060199,0.477206 0.06827,-4.01e-4 0.317443,-0.390046 0.553645,-0.865874 0.597894,-1.2045 1.951905,-2.427321 3.398107,-3.068867 1.504398,-0.667363 1.573509,-1.003123 0.307779,-1.495242 z M 29.994635,5.7710614 C 28.595929,5.1835865 27.059522,3.8392276 26.458804,2.6772044 l -0.463,-0.8956155 -0.725473,0.3081717 c -1.090012,0.4630248 -2.288002,1.6424295 -2.779854,2.7367409 -0.926448,2.0612148 -0.132492,4.3378788 2.001936,5.7405445 0.585466,0.384751 1.177538,0.698883 1.315699,0.698071 0.138169,-8.45e-4 0.488213,-0.432015 0.777887,-0.958229 0.639257,-1.1612577 2.230516,-2.5250517 3.544982,-3.0382417 1.337247,-0.52208 1.30349,-0.8928312 -0.136346,-1.4975849 z M 25.360604,76.763424 c -1.314057,-0.523613 -2.693561,-1.673391 -3.371079,-2.809704 -0.321237,-0.538762 -0.610275,-1.00777 -0.642308,-1.042236 -0.157189,-0.169139 -1.298215,0.411524 -2.017277,1.026587 -1.369898,1.171766 -1.732091,1.940758 -1.717129,3.64569 0.01075,1.225354 0.09304,1.598493 0.487092,2.208885 0.741181,1.148085 2.451928,2.443092 3.221437,2.438572 0.100644,-5.91e-4 0.332551,-0.328481 0.515348,-0.728647 0.50304,-1.101244 1.546383,-2.123334 2.937602,-2.87778 0.689039,-0.373652 1.36169,-0.754624 1.494795,-0.846599 0.391059,-0.270229 0.07554,-0.622666 -0.908481,-1.014768 z m 0.895032,-12.356039 c -0.08181,-0.100049 -0.510505,-0.329573 -0.952668,-0.510049 -1.395415,-0.569563 -2.624096,-1.580429 -3.354685,-2.759981 -0.37649,-0.607852 -0.706938,-1.135463 -0.734337,-1.172466 -0.106804,-0.144264 -1.067207,0.333673 -1.850015,0.920648 -1.820268,1.364892 -2.469448,3.734099 -1.554875,5.67454 0.463093,0.982545 1.65651,2.104084 2.780574,2.613118 l 0.632362,0.286361 0.591505,-1.030802 c 0.671266,-1.16978 1.886005,-2.266801 3.20346,-2.893014 1.458053,-0.693043 1.536309,-0.764326 1.238679,-1.128355 z M 25.366705,89.61185 c -1.371066,-0.62244 -3.026325,-2.084548 -3.487472,-3.080502 -0.198343,-0.428383 -0.38652,-0.806641 -0.418157,-0.840574 -0.152686,-0.16375 -2.128744,1.084707 -2.65175,1.675355 -1.860325,2.100909 -1.47949,5.198316 0.847573,6.893561 0.793032,0.577713 1.761723,1.044323 1.865985,0.89882 0.02671,-0.0374 0.347901,-0.568763 0.71368,-1.180976 0.724202,-1.212113 1.949719,-2.239282 3.355828,-2.812684 1.21651,-0.496085 1.153938,-0.926674 -0.225687,-1.553 z M 25.238344,51.007313 c -1.562359,-0.579384 -3.524772,-2.36915 -3.892239,-3.54982 -0.07699,-0.247346 -0.202671,-0.449351 -0.279305,-0.448899 -0.365931,0.002 -2.01855,1.024662 -2.495734,1.544166 -1.156171,1.25871 -1.595558,3.210921 -1.064923,4.731459 0.327831,0.939376 1.42087,2.123372 2.493063,2.700508 0.538185,0.28969 1.037296,0.526364 1.109131,0.525942 0.07183,-4.22e-4 0.289789,-0.375916 0.484339,-0.834434 0.436964,-1.029903 2.637991,-2.959482 3.75939,-3.295767 0.602215,-0.180593 0.747288,-0.306459 0.740189,-0.642194 -0.0068,-0.329189 -0.187708,-0.483911 -0.853911,-0.730961 z M 24.92554,38.011732 c -1.384258,-0.629374 -2.877568,-1.93616 -3.497093,-3.060279 l -0.496834,-0.901505 -0.633172,0.298738 c -0.989194,0.466712 -2.036874,1.403418 -2.559843,2.288686 -0.399869,0.676889 -0.475367,1.050642 -0.461336,2.283744 0.01454,1.274132 0.08994,1.586649 0.555364,2.300798 0.555751,0.852732 1.832493,1.90377 2.696303,2.219644 0.27078,0.09902 0.515466,0.149489 0.543729,0.112159 0.02832,-0.03734 0.294246,-0.494881 0.591058,-1.016781 0.703351,-1.236723 1.873395,-2.27397 3.231419,-2.864664 1.459666,-0.634903 1.466494,-1.0076 0.03042,-1.66054 z m -0.006,-12.815859 c -1.359969,-0.578668 -2.95751,-1.951667 -3.506524,-3.013677 -0.254395,-0.492095 -0.540544,-0.89426 -0.63588,-0.893698 -0.918351,0.0054 -2.962007,1.783741 -3.442098,2.995235 -0.448007,1.130522 -0.294625,2.949978 0.331085,3.927346 0.714407,1.11593 2.43809,2.419859 3.192983,2.415424 0.09534,-5.61e-4 0.378609,-0.41453 0.629479,-0.919929 0.554114,-1.116296 2.119305,-2.490592 3.438085,-3.018777 1.285954,-0.515036 1.28391,-0.942588 -0.0068,-1.491924 z M 24.9053,12.319263 c -1.262163,-0.455716 -3.005474,-1.925776 -3.595427,-3.0318757 -0.274666,-0.514971 -0.605038,-0.936949 -0.734169,-0.937727 -0.44841,-0.0027 -1.962231,1.088982 -2.597166,1.8729417 -1.907363,2.355054 -1.164905,5.471279 1.679579,7.04945 0.571418,0.31703 1.095977,0.576084 1.165685,0.575675 0.0697,-4.09e-4 0.185959,-0.203835 0.258324,-0.45206 0.353481,-1.212406 1.900098,-2.718634 3.631789,-3.53694 1.362247,-0.643727 1.418522,-1.096398 0.191385,-1.539464 z m -4.517752,83.881009 c -1.646177,-0.642371 -3.480909,-2.308367 -3.850723,-3.496581 -0.07699,-0.247345 -0.224787,-0.449224 -0.328458,-0.448613 -0.835782,0.0049 -2.747755,1.544386 -3.362625,2.707511 -1.186151,2.243795 0.04965,5.265221 2.6308,6.432151 l 0.807536,0.36508 0.602897,-1.07404 c 0.69557,-1.239086 2.141762,-2.498706 3.495821,-3.044806 1.236704,-0.49876 1.238224,-0.95938 0.0046,-1.440702 z m 0.03028,-12.808908 c -1.156566,-0.333699 -3.345801,-2.189028 -3.806085,-3.225575 -0.208499,-0.469518 -0.459936,-0.853195 -0.558763,-0.852614 -0.391082,0.0021 -1.55202,0.723691 -2.300581,1.429549 -2.461506,2.321115 -1.646569,6.237356 1.603726,7.706782 l 0.800722,0.362 0.627336,-1.061656 c 0.741521,-1.254906 2.069405,-2.41295 3.420602,-2.983109 1.260675,-0.531961 1.340912,-1.049959 0.213043,-1.375377 z m -0.69692,-13.211841 c -1.447814,-0.679931 -2.57386,-1.71723 -3.306056,-3.045494 l -0.426208,-0.773181 -0.808656,0.378087 c -3.238616,1.51422 -3.990354,5.434358 -1.48263,7.73155 0.70148,0.642586 1.928048,1.404707 2.257641,1.402769 0.06154,-3.61e-4 0.335323,-0.40765 0.608437,-0.905089 0.639537,-1.164845 2.245183,-2.56946 3.508561,-3.069284 1.426075,-0.56419 1.353671,-0.918757 -0.351089,-1.719358 z m 0.269397,-12.678675 c -1.397102,-0.589401 -2.80082,-1.793288 -3.510096,-3.010415 -0.572675,-0.982698 -0.647029,-1.044575 -1.047656,-0.871755 -3.66148,1.579499 -4.504401,5.798802 -1.63054,8.161807 0.707134,0.581432 1.738805,1.150737 2.083534,1.149749 0.11183,-3.29e-4 0.352369,-0.35165 0.534543,-0.780734 0.446546,-1.051796 2.056696,-2.514229 3.422078,-3.10814 1.430798,-0.622368 1.465646,-0.984693 0.148137,-1.540512 z m -0.041,-12.899572 c -1.645466,-0.642093 -3.163178,-1.986933 -3.768315,-3.339095 -0.150823,-0.33702 -0.375845,-0.612166 -0.50005,-0.611437 -0.508831,0.003 -2.105266,1.063881 -2.673292,1.776505 -1.526983,1.915692 -1.39403,4.330003 0.339318,6.161705 0.590083,0.623558 1.893178,1.404312 2.33246,1.397491 0.159271,-0.0023 0.505774,-0.421009 0.770008,-0.930077 0.583409,-1.124011 2.14314,-2.487155 3.440282,-3.00667 1.273163,-0.509915 1.291986,-0.967515 0.05957,-1.448422 z M 19.718479,31.634394 c -1.272019,-0.484929 -2.90216,-1.870533 -3.562079,-3.027745 -0.281817,-0.494177 -0.582384,-0.898092 -0.66792,-0.897591 -0.230199,0.0014 -1.644354,0.889038 -2.137881,1.341979 -2.525563,2.317854 -1.73044,6.309526 1.552475,7.793697 l 0.800723,0.362 0.619406,-1.048239 c 0.75191,-1.272482 1.831469,-2.226399 3.299735,-2.915715 1.459848,-0.685365 1.48325,-1.079354 0.09554,-1.608386 z m -0.06819,-12.859581 c -1.350803,-0.552367 -2.752833,-1.735687 -3.498607,-2.952851 l -0.638961,-1.042845 -0.743609,0.315876 c -0.972778,0.413224 -1.937579,1.340741 -2.544501,2.446178 -0.937635,1.70779 -0.514068,3.919562 1.019674,5.324543 1.220234,1.117789 2.602009,1.728887 2.596916,1.1485 -0.0081,-0.916566 2.153691,-3.049689 3.753826,-3.704143 1.36443,-0.558048 1.380104,-0.99351 0.05526,-1.535258 z M 19.585648,5.8774185 C 18.175928,5.3453931 16.780249,4.1807898 16.051029,2.9279927 15.454271,1.902763 15.38133,1.8406829 14.979469,2.015955 c -0.937726,0.4089899 -1.95528,1.1994135 -2.452494,1.905068 -1.779964,2.5261731 -0.859108,5.6443723 2.098742,7.106702 0.817578,0.404203 1.03756,0.375715 1.192698,-0.154459 0.348909,-1.1924337 2.154207,-2.8798127 3.78894,-3.5414617 1.232292,-0.498759 1.225047,-0.9838642 -0.02172,-1.4543858 z M 15.066743,89.786051 c -1.327075,-0.513763 -2.890268,-1.826861 -3.611238,-3.03347 l -0.607286,-1.016343 -0.8872739,0.467675 c -1.919632,1.011818 -2.847058,2.42428 -2.824903,4.3023 0.01544,1.308602 0.312835,2.062246 1.241154,3.145239 0.46954,0.547773 2.1117979,1.586218 2.5048709,1.58391 0.08508,-4.97e-4 0.39193,-0.441814 0.681885,-0.980707 0.614884,-1.142796 2.318579,-2.585289 3.61528,-3.060998 1.201818,-0.4409 1.164057,-0.913402 -0.112489,-1.407606 z M 14.810827,76.805658 C 13.435061,76.22783 12.00545,75.00805 11.343456,73.847201 11.063409,73.356129 10.713803,72.95505 10.56656,72.955915 c -0.147244,9.1e-4 -0.7162629,0.295935 -1.2644889,0.655713 -0.717428,0.470822 -1.181133,0.96627 -1.65464,1.767912 -0.578925,0.980107 -0.654083,1.261574 -0.626268,2.345349 0.03428,1.337545 0.298673,1.965491 1.290177,3.064715 0.57474,0.637182 1.9709129,1.506469 2.4153609,1.503857 0.104253,-6.1e-4 0.411602,-0.40555 0.682997,-0.899862 0.641552,-1.168507 2.049599,-2.404959 3.415079,-2.99889 1.451325,-0.631273 1.448304,-0.974896 -0.01393,-1.589051 z m 0.270139,-12.704095 c -1.164504,-0.336772 -3.171527,-1.975713 -3.803495,-3.105945 -0.302443,-0.540907 -0.621402,-0.983046 -0.708792,-0.982532 -0.309596,0.0018 -1.7748619,0.918939 -2.2904149,1.433588 -0.978235,0.976518 -1.398207,1.994639 -1.377392,3.33912 0.02922,1.886044 0.982495,3.284641 2.909529,4.268612 l 0.8953949,0.457201 0.589378,-1.023373 c 0.699718,-1.214954 2.239698,-2.546283 3.557615,-3.075586 1.213376,-0.487319 1.302665,-1.000345 0.228177,-1.311085 z M 14.659147,51.052886 c -1.418908,-0.577776 -2.721286,-1.684749 -3.4467,-2.929559 -0.337577,-0.579278 -0.681878,-1.052833 -0.765104,-1.052344 -0.285004,0.0017 -1.7191409,0.943986 -2.2897949,1.504523 -0.98631,0.968832 -1.376582,1.903496 -1.364609,3.268107 0.0128,1.461024 0.525891,2.528932 1.672866,3.481942 0.73429,0.610116 2.0133649,1.342176 2.1395679,1.22455 0.03542,-0.03303 0.305607,-0.488858 0.600406,-1.012988 0.644064,-1.145078 2.148069,-2.438973 3.496344,-3.0079 1.321444,-0.557603 1.310742,-0.925098 -0.04299,-1.476331 z M 14.613737,38.181281 C 13.28666,37.667515 11.723461,36.354417 11.002489,35.14781 l -0.607278,-1.016343 -0.8872739,0.467674 c -3.028558,1.596321 -3.7787661,4.69366 -1.75731,7.25524 0.507839,0.643522 2.219934,1.778908 2.6784319,1.776213 0.08508,-4.99e-4 0.394351,-0.446328 0.687274,-0.990733 0.612053,-1.137539 2.590095,-2.799893 3.748567,-3.150313 1.068924,-0.323331 0.970644,-0.835255 -0.251164,-1.308267 z M 14.357815,25.200888 c -1.375771,-0.577829 -2.805374,-1.797609 -3.467376,-2.958457 -0.280048,-0.491073 -0.594473,-0.892358 -0.698726,-0.891746 -0.4444489,0.0025 -1.8252099,0.888213 -2.3887049,1.532081 -1.350902,1.543588 -1.6525878,3.042159 -0.947452,4.706291 0.534035,1.260329 1.386264,2.175088 2.607232,2.798533 l 0.8978319,0.458443 0.649587,-1.119068 c 0.734861,-1.26595 2.121904,-2.451108 3.540758,-3.02538 1.275571,-0.516278 1.225564,-0.904832 -0.19315,-1.500697 z m 0.26625,-12.727101 c -1.142463,-0.301029 -3.158961,-1.93719 -3.799605,-3.0829397 -0.302444,-0.540907 -0.625125,-0.983024 -0.717057,-0.982483 -0.5125609,0.003 -2.1782289,1.20464 -2.7382779,1.9754177 -1.8409621,2.533652 -0.994168,5.542983 1.988267,7.065852 l 0.8953939,0.457202 0.589378,-1.023373 c 0.69971,-1.214954 2.239697,-2.546283 3.557613,-3.075587 0.729441,-0.292959 0.947136,-0.468799 0.944554,-0.762944 -0.0022,-0.293046 -0.170646,-0.426323 -0.720266,-0.571145 z M 9.9011901,96.268943 c -1.317387,-0.485085 -2.951281,-1.842113 -3.614386,-3.001912 -0.2988874,-0.522762 -0.6463191,-0.94987 -0.772091,-0.94913 -0.4218875,0.0024 -1.8748171,0.988517 -2.4814066,1.684016 -1.241616,1.4236 -1.4824033,3.481167 -0.59563,5.089847 0.5118656,0.928576 1.7174606,2.013266 2.6731714,2.405076 l 0.7354862,0.30153 0.447229,-0.90096 c 0.580258,-1.168946 2.092905,-2.531216 3.481152,-3.135076 1.4365739,-0.62487 1.4682879,-0.99932 0.126475,-1.493391 z M 9.7271531,83.353398 C 8.3228441,82.781565 6.8159491,81.523631 6.1806125,80.392803 5.8911954,79.877661 5.6265429,79.428957 5.5924989,79.395682 c -0.1614595,-0.15781 -1.9070835,0.878124 -2.4646882,1.462655 -1.8464035,1.935581 -1.7584313,4.821757 0.2027694,6.65204 0.397039,0.370533 2.045525,1.367844 2.2588831,1.366592 0.073342,-4.33e-4 0.3398258,-0.416723 0.5921709,-0.925092 0.559519,-1.127178 2.293359,-2.644079 3.634218,-3.179507 1.2777559,-0.510231 1.2551559,-0.871754 -0.088699,-1.418972 z m 0.01741,-12.848615 c -1.468897,-0.571112 -2.83605,-1.682545 -3.5663746,-2.899299 -0.360277,-0.60024 -0.6811882,-1.120413 -0.713129,-1.155939 -0.092672,-0.103079 -1.5073801,0.722195 -2.1286688,1.241765 -2.0543956,1.718052 -2.2206904,4.641584 -0.3782983,6.650535 0.5969399,0.650907 2.4297648,1.759716 2.5975585,1.571451 0.029975,-0.03365 0.3092401,-0.504088 0.6205469,-1.045415 0.6849873,-1.191129 2.0666203,-2.376559 3.4504993,-2.960509 1.3162969,-0.555432 1.3473229,-0.924577 0.11787,-1.402589 z M 9.6777281,57.630412 c -1.320522,-0.468378 -3.036712,-1.873379 -3.6685129,-3.003324 -0.299386,-0.53543 -0.6338678,-0.972983 -0.7433061,-0.97234 -0.796522,0.0049 -2.4413148,1.300717 -3.1789966,2.504931 -0.9120612,1.488887 -0.6239224,3.751013 0.6596697,5.178925 0.6187377,0.688303 2.0888339,1.657161 2.5107215,1.654683 0.125764,-7.8e-4 0.4728401,-0.444905 0.7712718,-0.987033 0.6624696,-1.20342 2.1627826,-2.486368 3.5102706,-3.0017 1.3099999,-0.500996 1.3546639,-0.942916 0.138882,-1.374142 z M 9.4256101,44.655846 C 8.1046121,44.169436 6.5839341,42.90795 5.8611543,41.698944 5.5380254,41.158431 5.1745098,40.715806 5.0533551,40.715334 c -0.121162,-4.36e-4 -0.5919974,0.222769 -1.0463094,0.496089 -3.1449602,1.892083 -3.4515284,5.733069 -0.6296823,7.889234 0.4254144,0.325057 1.0349786,0.697619 1.3545803,0.827912 l 0.5810975,0.236901 0.6632052,-1.104263 c 0.7501627,-1.249044 2.1518887,-2.436776 3.5378207,-2.997721 1.2557839,-0.50827 1.2297619,-0.922248 -0.08846,-1.40764 z M 9.2741651,31.748627 c -1.41607,-0.576621 -2.836854,-1.771863 -3.5321825,-2.971463 -0.3200781,-0.552209 -0.6319071,-1.004489 -0.692957,-1.00507 -0.4020118,-0.0039 -2.0397958,1.084571 -2.53884,1.687176 -1.6864134,2.036382 -1.5363235,4.669682 0.367407,6.446336 0.397031,0.370533 2.0455256,1.367844 2.2588838,1.36659 0.073341,-4.31e-4 0.339825,-0.416722 0.5921703,-0.925091 0.5595194,-1.127177 2.2933514,-2.644079 3.6342104,-3.179507 1.2777629,-0.510231 1.2551639,-0.871753 -0.08869,-1.418971 z M 9.2374481,18.880558 c -1.334214,-0.516529 -2.984266,-1.897213 -3.6204049,-3.029375 -0.2910824,-0.518057 -0.560646,-0.97201 -0.599028,-1.008787 -0.038378,-0.03677 -0.4962732,0.17568 -1.0175247,0.472124 -1.9538661,1.111185 -2.9645866,2.821713 -2.7657531,4.6807 0.1158032,1.082671 0.8350553,2.469384 1.6469041,3.175208 0.4494455,0.39075 2.1228405,1.248239 2.2210091,1.138097 0.029975,-0.03365 0.2933301,-0.477006 0.5852,-0.985232 0.7401035,-1.288728 1.8775265,-2.298825 3.2983505,-2.929112 1.5197169,-0.674158 1.5740539,-1.00151 0.251247,-1.513623 z M 9.1622951,5.9864018 C 7.7671441,5.4419859 6.3442101,4.2706253 5.5728462,3.0315637 L 4.8909542,1.9362165 4.2037112,2.2297713 C 3.1597103,2.675722 1.9495283,3.8696495 1.4818267,4.9151154 0.494214,7.1227273 1.4143127,9.5445433 3.7610397,10.914346 4.2090923,11.175879 4.6785804,11.389254 4.8043445,11.388515 4.9301086,11.387736 5.2740209,10.949354 5.5685998,10.414238 6.2116413,9.2460973 7.8048901,7.8917323 9.1365381,7.3812623 10.406604,6.8943973 10.414356,6.4749782 9.1622681,5.9864018 Z"
       id="path28" />
  </g>
</svg>
